<?xml version="1.0" encoding="utf-8" standalone="no"?>
<!DOCTYPE svg PUBLIC "-//W3C//DTD SVG 1.1//EN"
  "http://www.w3.org/Graphics/SVG/1.1/DTD/svg11.dtd">
<svg xmlns:xlink="http://www.w3.org/1999/xlink" width="504pt" height="311.04pt" viewBox="0 0 504 311.04" xmlns="http://www.w3.org/2000/svg" version="1.1">
 <metadata>
  <rdf:RDF xmlns:dc="http://purl.org/dc/elements/1.1/" xmlns:cc="http://creativecommons.org/ns#" xmlns:rdf="http://www.w3.org/1999/02/22-rdf-syntax-ns#">
   <cc:Work>
    <dc:type rdf:resource="http://purl.org/dc/dcmitype/StillImage"/>
    <dc:date>2023-07-14T16:26:14.794804</dc:date>
    <dc:format>image/svg+xml</dc:format>
    <dc:creator>
     <cc:Agent>
      <dc:title>Matplotlib v3.7.2, https://matplotlib.org/</dc:title>
     </cc:Agent>
    </dc:creator>
   </cc:Work>
  </rdf:RDF>
 </metadata>
 <defs>
  <style type="text/css">*{stroke-linejoin: round; stroke-linecap: butt}</style>
 </defs>
 <g id="figure_1">
  <g id="patch_1">
   <path d="M 0 311.04 
L 504 311.04 
L 504 0 
L 0 0 
z
" style="fill: #ffffff"/>
  </g>
  <g id="axes_1">
   <g id="patch_2">
    <path d="M 110.490312 222.977813 
L 478.08 222.977813 
L 478.08 25.92 
L 110.490312 25.92 
z
" style="fill: #ffffff"/>
   </g>
   <g id="matplotlib.axis_1">
    <g id="xtick_1">
     <g id="line2d_1">
      <defs>
       <path id="m3cf9bbd793" d="M 0 0 
L 0 12 
" style="stroke: #262626; stroke-width: 2.5"/>
      </defs>
      <g>
       <use xlink:href="#m3cf9bbd793" x="110.490312" y="222.977813" style="fill: #262626; stroke: #262626; stroke-width: 2.5"/>
      </g>
     </g>
     <g id="text_1">
      <!-- 0 -->
      <g style="fill: #262626" transform="translate(104.373281 254.225) scale(0.22 -0.22)">
       <defs>
        <path id="ArialMT-30" d="M 266 2259 
Q 266 3072 433 3567 
Q 600 4063 929 4331 
Q 1259 4600 1759 4600 
Q 2128 4600 2406 4451 
Q 2684 4303 2865 4023 
Q 3047 3744 3150 3342 
Q 3253 2941 3253 2259 
Q 3253 1453 3087 958 
Q 2922 463 2592 192 
Q 2263 -78 1759 -78 
Q 1097 -78 719 397 
Q 266 969 266 2259 
z
M 844 2259 
Q 844 1131 1108 757 
Q 1372 384 1759 384 
Q 2147 384 2411 759 
Q 2675 1134 2675 2259 
Q 2675 3391 2411 3762 
Q 2147 4134 1753 4134 
Q 1366 4134 1134 3806 
Q 844 3388 844 2259 
z
" transform="scale(0.015625)"/>
       </defs>
       <use xlink:href="#ArialMT-30"/>
      </g>
     </g>
    </g>
    <g id="xtick_2">
     <g id="line2d_2">
      <g>
       <use xlink:href="#m3cf9bbd793" x="241.772344" y="222.977813" style="fill: #262626; stroke: #262626; stroke-width: 2.5"/>
      </g>
     </g>
     <g id="text_2">
      <!-- 5 -->
      <g style="fill: #262626" transform="translate(235.655313 254.225) scale(0.22 -0.22)">
       <defs>
        <path id="ArialMT-35" d="M 266 1200 
L 856 1250 
Q 922 819 1161 601 
Q 1400 384 1738 384 
Q 2144 384 2425 690 
Q 2706 997 2706 1503 
Q 2706 1984 2436 2262 
Q 2166 2541 1728 2541 
Q 1456 2541 1237 2417 
Q 1019 2294 894 2097 
L 366 2166 
L 809 4519 
L 3088 4519 
L 3088 3981 
L 1259 3981 
L 1013 2750 
Q 1425 3038 1878 3038 
Q 2478 3038 2890 2622 
Q 3303 2206 3303 1553 
Q 3303 931 2941 478 
Q 2500 -78 1738 -78 
Q 1113 -78 717 272 
Q 322 622 266 1200 
z
" transform="scale(0.015625)"/>
       </defs>
       <use xlink:href="#ArialMT-35"/>
      </g>
     </g>
    </g>
    <g id="xtick_3">
     <g id="line2d_3">
      <g>
       <use xlink:href="#m3cf9bbd793" x="373.054375" y="222.977813" style="fill: #262626; stroke: #262626; stroke-width: 2.5"/>
      </g>
     </g>
     <g id="text_3">
      <!-- 10 -->
      <g style="fill: #262626" transform="translate(360.820313 254.225) scale(0.22 -0.22)">
       <defs>
        <path id="ArialMT-31" d="M 2384 0 
L 1822 0 
L 1822 3584 
Q 1619 3391 1289 3197 
Q 959 3003 697 2906 
L 697 3450 
Q 1169 3672 1522 3987 
Q 1875 4303 2022 4600 
L 2384 4600 
L 2384 0 
z
" transform="scale(0.015625)"/>
       </defs>
       <use xlink:href="#ArialMT-31"/>
       <use xlink:href="#ArialMT-30" x="55.615234"/>
      </g>
     </g>
    </g>
    <g id="text_4">
     <!-- Time (s) -->
     <g style="fill: #262626" transform="translate(250.745781 280.06875) scale(0.24 -0.24)">
      <defs>
       <path id="ArialMT-54" d="M 1659 0 
L 1659 4041 
L 150 4041 
L 150 4581 
L 3781 4581 
L 3781 4041 
L 2266 4041 
L 2266 0 
L 1659 0 
z
" transform="scale(0.015625)"/>
       <path id="ArialMT-69" d="M 425 3934 
L 425 4581 
L 988 4581 
L 988 3934 
L 425 3934 
z
M 425 0 
L 425 3319 
L 988 3319 
L 988 0 
L 425 0 
z
" transform="scale(0.015625)"/>
       <path id="ArialMT-6d" d="M 422 0 
L 422 3319 
L 925 3319 
L 925 2853 
Q 1081 3097 1340 3245 
Q 1600 3394 1931 3394 
Q 2300 3394 2536 3241 
Q 2772 3088 2869 2813 
Q 3263 3394 3894 3394 
Q 4388 3394 4653 3120 
Q 4919 2847 4919 2278 
L 4919 0 
L 4359 0 
L 4359 2091 
Q 4359 2428 4304 2576 
Q 4250 2725 4106 2815 
Q 3963 2906 3769 2906 
Q 3419 2906 3187 2673 
Q 2956 2441 2956 1928 
L 2956 0 
L 2394 0 
L 2394 2156 
Q 2394 2531 2256 2718 
Q 2119 2906 1806 2906 
Q 1569 2906 1367 2781 
Q 1166 2656 1075 2415 
Q 984 2175 984 1722 
L 984 0 
L 422 0 
z
" transform="scale(0.015625)"/>
       <path id="ArialMT-65" d="M 2694 1069 
L 3275 997 
Q 3138 488 2766 206 
Q 2394 -75 1816 -75 
Q 1088 -75 661 373 
Q 234 822 234 1631 
Q 234 2469 665 2931 
Q 1097 3394 1784 3394 
Q 2450 3394 2872 2941 
Q 3294 2488 3294 1666 
Q 3294 1616 3291 1516 
L 816 1516 
Q 847 969 1125 678 
Q 1403 388 1819 388 
Q 2128 388 2347 550 
Q 2566 713 2694 1069 
z
M 847 1978 
L 2700 1978 
Q 2663 2397 2488 2606 
Q 2219 2931 1791 2931 
Q 1403 2931 1139 2672 
Q 875 2413 847 1978 
z
" transform="scale(0.015625)"/>
       <path id="ArialMT-20" transform="scale(0.015625)"/>
       <path id="ArialMT-28" d="M 1497 -1347 
Q 1031 -759 709 28 
Q 388 816 388 1659 
Q 388 2403 628 3084 
Q 909 3875 1497 4659 
L 1900 4659 
Q 1522 4009 1400 3731 
Q 1209 3300 1100 2831 
Q 966 2247 966 1656 
Q 966 153 1900 -1347 
L 1497 -1347 
z
" transform="scale(0.015625)"/>
       <path id="ArialMT-73" d="M 197 991 
L 753 1078 
Q 800 744 1014 566 
Q 1228 388 1613 388 
Q 2000 388 2187 545 
Q 2375 703 2375 916 
Q 2375 1106 2209 1216 
Q 2094 1291 1634 1406 
Q 1016 1563 777 1677 
Q 538 1791 414 1992 
Q 291 2194 291 2438 
Q 291 2659 392 2848 
Q 494 3038 669 3163 
Q 800 3259 1026 3326 
Q 1253 3394 1513 3394 
Q 1903 3394 2198 3281 
Q 2494 3169 2634 2976 
Q 2775 2784 2828 2463 
L 2278 2388 
Q 2241 2644 2061 2787 
Q 1881 2931 1553 2931 
Q 1166 2931 1000 2803 
Q 834 2675 834 2503 
Q 834 2394 903 2306 
Q 972 2216 1119 2156 
Q 1203 2125 1616 2013 
Q 2213 1853 2448 1751 
Q 2684 1650 2818 1456 
Q 2953 1263 2953 975 
Q 2953 694 2789 445 
Q 2625 197 2315 61 
Q 2006 -75 1616 -75 
Q 969 -75 630 194 
Q 291 463 197 991 
z
" transform="scale(0.015625)"/>
       <path id="ArialMT-29" d="M 791 -1347 
L 388 -1347 
Q 1322 153 1322 1656 
Q 1322 2244 1188 2822 
Q 1081 3291 891 3722 
Q 769 4003 388 4659 
L 791 4659 
Q 1378 3875 1659 3084 
Q 1900 2403 1900 1659 
Q 1900 816 1576 28 
Q 1253 -759 791 -1347 
z
" transform="scale(0.015625)"/>
      </defs>
      <use xlink:href="#ArialMT-54"/>
      <use xlink:href="#ArialMT-69" x="57.333984"/>
      <use xlink:href="#ArialMT-6d" x="79.550781"/>
      <use xlink:href="#ArialMT-65" x="162.851562"/>
      <use xlink:href="#ArialMT-20" x="218.466797"/>
      <use xlink:href="#ArialMT-28" x="246.25"/>
      <use xlink:href="#ArialMT-73" x="279.550781"/>
      <use xlink:href="#ArialMT-29" x="329.550781"/>
     </g>
    </g>
   </g>
   <g id="matplotlib.axis_2">
    <g id="ytick_1">
     <g id="line2d_4">
      <defs>
       <path id="ma8862d9fea" d="M 0 0 
L -12 0 
" style="stroke: #262626; stroke-width: 2.5"/>
      </defs>
      <g>
       <use xlink:href="#ma8862d9fea" x="110.490312" y="194.695191" style="fill: #262626; stroke: #262626; stroke-width: 2.5"/>
      </g>
     </g>
     <g id="text_5">
      <!-- 0.00 -->
      <g style="fill: #262626" transform="translate(52.17625 202.568785) scale(0.22 -0.22)">
       <defs>
        <path id="ArialMT-2e" d="M 581 0 
L 581 641 
L 1222 641 
L 1222 0 
L 581 0 
z
" transform="scale(0.015625)"/>
       </defs>
       <use xlink:href="#ArialMT-30"/>
       <use xlink:href="#ArialMT-2e" x="55.615234"/>
       <use xlink:href="#ArialMT-30" x="83.398438"/>
       <use xlink:href="#ArialMT-30" x="139.013672"/>
      </g>
     </g>
    </g>
    <g id="ytick_2">
     <g id="line2d_5">
      <g>
       <use xlink:href="#ma8862d9fea" x="110.490312" y="118.624032" style="fill: #262626; stroke: #262626; stroke-width: 2.5"/>
      </g>
     </g>
     <g id="text_6">
      <!-- 0.01 -->
      <g style="fill: #262626" transform="translate(52.17625 126.497625) scale(0.22 -0.22)">
       <use xlink:href="#ArialMT-30"/>
       <use xlink:href="#ArialMT-2e" x="55.615234"/>
       <use xlink:href="#ArialMT-30" x="83.398438"/>
       <use xlink:href="#ArialMT-31" x="139.013672"/>
      </g>
     </g>
    </g>
    <g id="ytick_3">
     <g id="line2d_6">
      <g>
       <use xlink:href="#ma8862d9fea" x="110.490312" y="42.552872" style="fill: #262626; stroke: #262626; stroke-width: 2.5"/>
      </g>
     </g>
     <g id="text_7">
      <!-- 0.02 -->
      <g style="fill: #262626" transform="translate(52.17625 50.426466) scale(0.22 -0.22)">
       <defs>
        <path id="ArialMT-32" d="M 3222 541 
L 3222 0 
L 194 0 
Q 188 203 259 391 
Q 375 700 629 1000 
Q 884 1300 1366 1694 
Q 2113 2306 2375 2664 
Q 2638 3022 2638 3341 
Q 2638 3675 2398 3904 
Q 2159 4134 1775 4134 
Q 1369 4134 1125 3890 
Q 881 3647 878 3216 
L 300 3275 
Q 359 3922 746 4261 
Q 1134 4600 1788 4600 
Q 2447 4600 2831 4234 
Q 3216 3869 3216 3328 
Q 3216 3053 3103 2787 
Q 2991 2522 2730 2228 
Q 2469 1934 1863 1422 
Q 1356 997 1212 845 
Q 1069 694 975 541 
L 3222 541 
z
" transform="scale(0.015625)"/>
       </defs>
       <use xlink:href="#ArialMT-30"/>
       <use xlink:href="#ArialMT-2e" x="55.615234"/>
       <use xlink:href="#ArialMT-30" x="83.398438"/>
       <use xlink:href="#ArialMT-32" x="139.013672"/>
      </g>
     </g>
    </g>
    <g id="text_8">
     <!-- Overlap -->
     <g style="fill: #262626" transform="translate(43.40625 166.463906) rotate(-90) scale(0.24 -0.24)">
      <defs>
       <path id="ArialMT-4f" d="M 309 2231 
Q 309 3372 921 4017 
Q 1534 4663 2503 4663 
Q 3138 4663 3647 4359 
Q 4156 4056 4423 3514 
Q 4691 2972 4691 2284 
Q 4691 1588 4409 1038 
Q 4128 488 3612 205 
Q 3097 -78 2500 -78 
Q 1853 -78 1343 234 
Q 834 547 571 1087 
Q 309 1628 309 2231 
z
M 934 2222 
Q 934 1394 1379 917 
Q 1825 441 2497 441 
Q 3181 441 3623 922 
Q 4066 1403 4066 2288 
Q 4066 2847 3877 3264 
Q 3688 3681 3323 3911 
Q 2959 4141 2506 4141 
Q 1863 4141 1398 3698 
Q 934 3256 934 2222 
z
" transform="scale(0.015625)"/>
       <path id="ArialMT-76" d="M 1344 0 
L 81 3319 
L 675 3319 
L 1388 1331 
Q 1503 1009 1600 663 
Q 1675 925 1809 1294 
L 2547 3319 
L 3125 3319 
L 1869 0 
L 1344 0 
z
" transform="scale(0.015625)"/>
       <path id="ArialMT-72" d="M 416 0 
L 416 3319 
L 922 3319 
L 922 2816 
Q 1116 3169 1280 3281 
Q 1444 3394 1641 3394 
Q 1925 3394 2219 3213 
L 2025 2691 
Q 1819 2813 1613 2813 
Q 1428 2813 1281 2702 
Q 1134 2591 1072 2394 
Q 978 2094 978 1738 
L 978 0 
L 416 0 
z
" transform="scale(0.015625)"/>
       <path id="ArialMT-6c" d="M 409 0 
L 409 4581 
L 972 4581 
L 972 0 
L 409 0 
z
" transform="scale(0.015625)"/>
       <path id="ArialMT-61" d="M 2588 409 
Q 2275 144 1986 34 
Q 1697 -75 1366 -75 
Q 819 -75 525 192 
Q 231 459 231 875 
Q 231 1119 342 1320 
Q 453 1522 633 1644 
Q 813 1766 1038 1828 
Q 1203 1872 1538 1913 
Q 2219 1994 2541 2106 
Q 2544 2222 2544 2253 
Q 2544 2597 2384 2738 
Q 2169 2928 1744 2928 
Q 1347 2928 1158 2789 
Q 969 2650 878 2297 
L 328 2372 
Q 403 2725 575 2942 
Q 747 3159 1072 3276 
Q 1397 3394 1825 3394 
Q 2250 3394 2515 3294 
Q 2781 3194 2906 3042 
Q 3031 2891 3081 2659 
Q 3109 2516 3109 2141 
L 3109 1391 
Q 3109 606 3145 398 
Q 3181 191 3288 0 
L 2700 0 
Q 2613 175 2588 409 
z
M 2541 1666 
Q 2234 1541 1622 1453 
Q 1275 1403 1131 1340 
Q 988 1278 909 1158 
Q 831 1038 831 891 
Q 831 666 1001 516 
Q 1172 366 1500 366 
Q 1825 366 2078 508 
Q 2331 650 2450 897 
Q 2541 1088 2541 1459 
L 2541 1666 
z
" transform="scale(0.015625)"/>
       <path id="ArialMT-70" d="M 422 -1272 
L 422 3319 
L 934 3319 
L 934 2888 
Q 1116 3141 1344 3267 
Q 1572 3394 1897 3394 
Q 2322 3394 2647 3175 
Q 2972 2956 3137 2557 
Q 3303 2159 3303 1684 
Q 3303 1175 3120 767 
Q 2938 359 2589 142 
Q 2241 -75 1856 -75 
Q 1575 -75 1351 44 
Q 1128 163 984 344 
L 984 -1272 
L 422 -1272 
z
M 931 1641 
Q 931 1000 1190 694 
Q 1450 388 1819 388 
Q 2194 388 2461 705 
Q 2728 1022 2728 1688 
Q 2728 2322 2467 2637 
Q 2206 2953 1844 2953 
Q 1484 2953 1207 2617 
Q 931 2281 931 1641 
z
" transform="scale(0.015625)"/>
      </defs>
      <use xlink:href="#ArialMT-4f"/>
      <use xlink:href="#ArialMT-76" x="77.783203"/>
      <use xlink:href="#ArialMT-65" x="127.783203"/>
      <use xlink:href="#ArialMT-72" x="183.398438"/>
      <use xlink:href="#ArialMT-6c" x="216.699219"/>
      <use xlink:href="#ArialMT-61" x="238.916016"/>
      <use xlink:href="#ArialMT-70" x="294.53125"/>
     </g>
    </g>
   </g>
   <g id="PolyCollection_1">
    <defs>
     <path id="m7c90e14863" d="M 110.490312 -117.745145 
L 110.490312 -113.619972 
L 114.919104 -114.82527 
L 119.347895 -115.550241 
L 123.776687 -115.169901 
L 128.205478 -115.405961 
L 132.63427 -115.164696 
L 137.063061 -114.471987 
L 141.491852 -115.201918 
L 145.920644 -114.674452 
L 150.349435 -115.139474 
L 154.778227 -115.848946 
L 159.207018 -116.018102 
L 163.635809 -114.838928 
L 168.064601 -115.387538 
L 172.493392 -116.497609 
L 176.922184 -118.638535 
L 181.350975 -120.723499 
L 185.779767 -122.747724 
L 190.208558 -123.89215 
L 194.637349 -123.877304 
L 199.066141 -124.204571 
L 203.494932 -124.214269 
L 207.923724 -122.911555 
L 212.352515 -122.570327 
L 216.781306 -122.278386 
L 221.210098 -122.588107 
L 225.638889 -121.67425 
L 230.067681 -121.534968 
L 234.496472 -121.571237 
L 238.925264 -120.385977 
L 243.354055 -121.213555 
L 247.782846 -121.401001 
L 252.211638 -121.842433 
L 256.640429 -121.512394 
L 261.069221 -121.662425 
L 265.498012 -122.345974 
L 269.926803 -121.892229 
L 274.355595 -122.803899 
L 278.784386 -121.978996 
L 283.213178 -122.055256 
L 287.641969 -120.645966 
L 292.070761 -120.440141 
L 296.499552 -120.843734 
L 300.928343 -119.624093 
L 305.357135 -118.904413 
L 309.785926 -117.940891 
L 314.214718 -117.214044 
L 318.643509 -117.060653 
L 323.0723 -117.245332 
L 327.501092 -116.758707 
L 331.929883 -117.253309 
L 336.358675 -116.926206 
L 340.787466 -116.81489 
L 345.216258 -115.905978 
L 349.645049 -114.781553 
L 354.07384 -114.355013 
L 358.502632 -115.337565 
L 362.931423 -119.203353 
L 367.360215 -121.856205 
L 371.789006 -123.633248 
L 376.217797 -125.007671 
L 380.646589 -124.54335 
L 385.07538 -124.474939 
L 389.504172 -123.543726 
L 393.932963 -123.82358 
L 398.361755 -123.403542 
L 402.790546 -123.842504 
L 407.219337 -123.714405 
L 411.648129 -123.358876 
L 416.07692 -122.83996 
L 420.505712 -122.739349 
L 424.934503 -122.880445 
L 429.363294 -121.216375 
L 433.792086 -120.951942 
L 438.220877 -121.373766 
L 442.649669 -120.858076 
L 447.07846 -121.045199 
L 451.507252 -121.785467 
L 455.936043 -121.474752 
L 460.364834 -122.191798 
L 464.793626 -122.629466 
L 469.222417 -123.065757 
L 473.651209 -122.740125 
L 478.08 -122.602327 
L 478.08 -132.874828 
L 478.08 -132.874828 
L 473.651209 -132.991681 
L 469.222417 -133.773128 
L 464.793626 -132.654856 
L 460.364834 -132.038477 
L 455.936043 -131.840308 
L 451.507252 -131.856366 
L 447.07846 -131.142903 
L 442.649669 -131.318924 
L 438.220877 -132.020737 
L 433.792086 -131.212986 
L 429.363294 -132.200259 
L 424.934503 -133.727321 
L 420.505712 -133.467228 
L 416.07692 -134.209911 
L 411.648129 -134.343418 
L 407.219337 -134.719997 
L 402.790546 -134.447763 
L 398.361755 -134.434315 
L 393.932963 -135.053391 
L 389.504172 -134.925697 
L 385.07538 -135.201713 
L 380.646589 -135.222644 
L 376.217797 -135.58527 
L 371.789006 -133.547896 
L 367.360215 -131.911619 
L 362.931423 -129.181953 
L 358.502632 -125.144615 
L 354.07384 -123.798126 
L 349.645049 -124.570147 
L 345.216258 -125.226861 
L 340.787466 -125.874826 
L 336.358675 -125.99208 
L 331.929883 -126.118796 
L 327.501092 -126.210823 
L 323.0723 -127.079649 
L 318.643509 -126.500389 
L 314.214718 -126.694178 
L 309.785926 -126.584106 
L 305.357135 -127.290265 
L 300.928343 -127.656594 
L 296.499552 -129.114161 
L 292.070761 -128.029509 
L 287.641969 -128.143795 
L 283.213178 -129.448492 
L 278.784386 -129.533554 
L 274.355595 -130.177001 
L 269.926803 -128.978969 
L 265.498012 -129.444441 
L 261.069221 -128.422568 
L 256.640429 -128.612448 
L 252.211638 -128.684727 
L 247.782846 -128.448888 
L 243.354055 -128.593534 
L 238.925264 -127.446742 
L 234.496472 -128.635989 
L 230.067681 -128.445708 
L 225.638889 -128.254066 
L 221.210098 -129.120598 
L 216.781306 -128.922587 
L 212.352515 -129.291916 
L 207.923724 -129.826987 
L 203.494932 -130.537694 
L 199.066141 -130.815962 
L 194.637349 -130.232893 
L 190.208558 -129.60213 
L 185.779767 -127.811206 
L 181.350975 -126.164011 
L 176.922184 -123.389971 
L 172.493392 -120.197214 
L 168.064601 -118.69927 
L 163.635809 -117.627147 
L 159.207018 -118.464634 
L 154.778227 -118.51669 
L 150.349435 -117.699434 
L 145.920644 -116.889749 
L 141.491852 -117.587457 
L 137.063061 -116.503621 
L 132.63427 -116.973796 
L 128.205478 -117.256899 
L 123.776687 -117.268147 
L 119.347895 -118.3286 
L 114.919104 -118.116589 
L 110.490312 -117.745145 
z
" style="stroke: #ff7c00; stroke-opacity: 0.25; stroke-width: 2"/>
    </defs>
    <g clip-path="url(#pabef9ad78e)">
     <use xlink:href="#m7c90e14863" x="0" y="311.04" style="fill: #ff7c00; fill-opacity: 0.25; stroke: #ff7c00; stroke-opacity: 0.25; stroke-width: 2"/>
    </g>
   </g>
   <g id="patch_3">
    <path d="M 163.003125 222.977813 
L 163.003125 25.92 
L 189.259531 25.92 
L 189.259531 222.977813 
z
" clip-path="url(#pabef9ad78e)" style="fill: #0000ff; opacity: 0.1; stroke: #0000ff; stroke-width: 2; stroke-linejoin: miter"/>
   </g>
   <g id="patch_4">
    <path d="M 228.644141 222.977813 
L 228.644141 25.92 
L 254.900547 25.92 
L 254.900547 222.977813 
z
" clip-path="url(#pabef9ad78e)" style="fill: #0000ff; opacity: 0.1; stroke: #0000ff; stroke-width: 2; stroke-linejoin: miter"/>
   </g>
   <g id="patch_5">
    <path d="M 346.797969 222.977813 
L 346.797969 25.92 
L 373.054375 25.92 
L 373.054375 222.977813 
z
" clip-path="url(#pabef9ad78e)" style="fill: #0000ff; opacity: 0.1; stroke: #0000ff; stroke-width: 2; stroke-linejoin: miter"/>
   </g>
   <g id="patch_6">
    <path d="M 281.156953 222.977813 
L 281.156953 25.92 
L 294.285156 25.92 
L 294.285156 222.977813 
z
" clip-path="url(#pabef9ad78e)" style="fill: #008000; opacity: 0.1; stroke: #008000; stroke-width: 2; stroke-linejoin: miter"/>
   </g>
   <g id="PolyCollection_2">
    <defs>
     <path id="mf2be37b591" d="M 110.490312 -119.858503 
L 110.490312 -104.877679 
L 114.919104 -110.952017 
L 119.347895 -107.405381 
L 123.776687 -108.599296 
L 128.205478 -113.097969 
L 132.63427 -112.597811 
L 137.063061 -108.326314 
L 141.491852 -115.300348 
L 145.920644 -110.551657 
L 150.349435 -109.235974 
L 154.778227 -110.619083 
L 159.207018 -110.582111 
L 163.635809 -108.726637 
L 168.064601 -107.479365 
L 172.493392 -107.847223 
L 176.922184 -106.518462 
L 181.350975 -108.104871 
L 185.779767 -108.536724 
L 190.208558 -100.925049 
L 194.637349 -99.723983 
L 199.066141 -101.119643 
L 203.494932 -104.174618 
L 207.923724 -98.711816 
L 212.352515 -97.019361 
L 216.781306 -98.762506 
L 221.210098 -104.541942 
L 225.638889 -110.586777 
L 230.067681 -113.302485 
L 234.496472 -113.869953 
L 238.925264 -110.577226 
L 243.354055 -106.126255 
L 247.782846 -102.265008 
L 252.211638 -104.503634 
L 256.640429 -105.225168 
L 261.069221 -108.198602 
L 265.498012 -107.758311 
L 269.926803 -107.890221 
L 274.355595 -107.570672 
L 278.784386 -106.569167 
L 283.213178 -112.346665 
L 287.641969 -114.669157 
L 292.070761 -117.349251 
L 296.499552 -120.915157 
L 300.928343 -116.746725 
L 305.357135 -116.063236 
L 309.785926 -119.315579 
L 314.214718 -117.801593 
L 318.643509 -122.258683 
L 323.0723 -124.72309 
L 327.501092 -124.554879 
L 331.929883 -128.293862 
L 336.358675 -129.038442 
L 340.787466 -129.516863 
L 345.216258 -125.974058 
L 349.645049 -128.50099 
L 354.07384 -133.654751 
L 358.502632 -175.620871 
L 362.931423 -215.904197 
L 367.360215 -227.948831 
L 371.789006 -227.134179 
L 376.217797 -216.761017 
L 380.646589 -203.432584 
L 385.07538 -195.456374 
L 389.504172 -182.246199 
L 393.932963 -175.636121 
L 398.361755 -163.441765 
L 402.790546 -159.297073 
L 407.219337 -151.420831 
L 411.648129 -154.208845 
L 416.07692 -139.875517 
L 420.505712 -136.194243 
L 424.934503 -125.967429 
L 429.363294 -115.03927 
L 433.792086 -108.846602 
L 438.220877 -108.477764 
L 442.649669 -104.434438 
L 447.07846 -100.989624 
L 451.507252 -98.753661 
L 455.936043 -98.212285 
L 460.364834 -101.229231 
L 464.793626 -100.689699 
L 469.222417 -100.489114 
L 473.651209 -107.044718 
L 478.08 -98.282696 
L 478.08 -146.150371 
L 478.08 -146.150371 
L 473.651209 -155.691922 
L 469.222417 -149.377767 
L 464.793626 -149.965317 
L 460.364834 -150.085014 
L 455.936043 -147.088223 
L 451.507252 -149.29934 
L 447.07846 -150.663602 
L 442.649669 -151.887496 
L 438.220877 -159.244182 
L 433.792086 -160.134991 
L 429.363294 -162.949709 
L 424.934503 -176.969266 
L 420.505712 -186.640226 
L 416.07692 -191.170259 
L 411.648129 -208.266752 
L 407.219337 -206.905617 
L 402.790546 -216.189528 
L 398.361755 -223.843451 
L 393.932963 -236.427037 
L 389.504172 -242.471823 
L 385.07538 -253.865416 
L 380.646589 -260.447236 
L 376.217797 -269.538923 
L 371.789006 -276.162827 
L 367.360215 -273.863572 
L 362.931423 -258.838591 
L 358.502632 -219.050522 
L 354.07384 -175.48391 
L 349.645049 -171.95177 
L 345.216258 -171.05696 
L 340.787466 -173.176075 
L 336.358675 -168.970174 
L 331.929883 -169.992267 
L 327.501092 -166.866963 
L 323.0723 -165.452429 
L 318.643509 -164.323906 
L 314.214718 -161.624508 
L 309.785926 -162.130206 
L 305.357135 -161.148721 
L 300.928343 -161.788818 
L 296.499552 -164.393827 
L 292.070761 -160.84697 
L 287.641969 -161.109231 
L 283.213178 -155.770923 
L 278.784386 -151.835057 
L 274.355595 -149.324359 
L 269.926803 -150.236338 
L 265.498012 -151.001243 
L 261.069221 -152.041198 
L 256.640429 -150.350681 
L 252.211638 -146.839976 
L 247.782846 -145.646812 
L 243.354055 -150.850179 
L 238.925264 -152.299006 
L 234.496472 -154.372117 
L 230.067681 -152.639353 
L 225.638889 -150.714333 
L 221.210098 -140.496379 
L 216.781306 -133.955156 
L 212.352515 -130.360557 
L 207.923724 -130.432539 
L 203.494932 -133.125795 
L 199.066141 -127.650478 
L 194.637349 -124.370861 
L 190.208558 -123.973935 
L 185.779767 -129.246621 
L 181.350975 -127.237912 
L 176.922184 -125.590566 
L 172.493392 -126.523794 
L 168.064601 -128.002541 
L 163.635809 -126.873422 
L 159.207018 -127.13687 
L 154.778227 -125.74937 
L 150.349435 -122.792874 
L 145.920644 -121.796354 
L 141.491852 -124.267053 
L 137.063061 -120.381629 
L 132.63427 -121.852634 
L 128.205478 -123.241079 
L 123.776687 -120.485669 
L 119.347895 -119.731344 
L 114.919104 -123.567807 
L 110.490312 -119.858503 
z
" style="stroke: #ff7c00; stroke-opacity: 0.25; stroke-width: 2"/>
    </defs>
    <g clip-path="url(#pabef9ad78e)">
     <use xlink:href="#mf2be37b591" x="0" y="311.04" style="fill: #ff7c00; fill-opacity: 0.25; stroke: #ff7c00; stroke-opacity: 0.25; stroke-width: 2"/>
    </g>
   </g>
   <g id="patch_7">
    <path d="M 163.003125 222.977813 
L 163.003125 25.92 
L 189.259531 25.92 
L 189.259531 222.977813 
z
" clip-path="url(#pabef9ad78e)" style="fill: #0000ff; opacity: 0.1; stroke: #0000ff; stroke-width: 2; stroke-linejoin: miter"/>
   </g>
   <g id="patch_8">
    <path d="M 228.644141 222.977813 
L 228.644141 25.92 
L 254.900547 25.92 
L 254.900547 222.977813 
z
" clip-path="url(#pabef9ad78e)" style="fill: #0000ff; opacity: 0.1; stroke: #0000ff; stroke-width: 2; stroke-linejoin: miter"/>
   </g>
   <g id="patch_9">
    <path d="M 346.797969 222.977813 
L 346.797969 25.92 
L 373.054375 25.92 
L 373.054375 222.977813 
z
" clip-path="url(#pabef9ad78e)" style="fill: #0000ff; opacity: 0.1; stroke: #0000ff; stroke-width: 2; stroke-linejoin: miter"/>
   </g>
   <g id="patch_10">
    <path d="M 281.156953 222.977813 
L 281.156953 25.92 
L 294.285156 25.92 
L 294.285156 222.977813 
z
" clip-path="url(#pabef9ad78e)" style="fill: #008000; opacity: 0.1; stroke: #008000; stroke-width: 2; stroke-linejoin: miter"/>
   </g>
   <g id="line2d_7">
    <path d="M 110.490312 195.218651 
L 114.919104 194.502946 
L 119.347895 194.078571 
L 123.776687 194.881877 
L 128.205478 194.762932 
L 132.63427 194.988436 
L 137.063061 195.611194 
L 141.491852 194.727486 
L 145.920644 195.271548 
L 150.349435 194.624883 
L 154.778227 193.844766 
L 159.207018 193.829004 
L 163.635809 194.763718 
L 168.064601 194.001907 
L 172.493392 192.744247 
L 176.922184 190.082771 
L 181.350975 187.657566 
L 185.779767 185.779721 
L 190.208558 184.340223 
L 194.637349 184.067558 
L 199.066141 183.538171 
L 203.494932 183.639677 
L 207.923724 184.709533 
L 212.352515 185.250034 
L 216.781306 185.473599 
L 221.210098 185.203606 
L 225.638889 186.14425 
L 230.067681 186.075007 
L 234.496472 186.083376 
L 238.925264 187.118962 
L 243.354055 186.146988 
L 247.782846 186.236038 
L 252.211638 185.843866 
L 256.640429 186.030685 
L 261.069221 186.080616 
L 265.498012 185.236096 
L 269.926803 185.707307 
L 274.355595 184.645244 
L 278.784386 185.463062 
L 283.213178 185.394107 
L 287.641969 186.76997 
L 292.070761 186.837247 
L 296.499552 186.221391 
L 300.928343 187.457839 
L 305.357135 187.842404 
L 309.785926 188.708001 
L 314.214718 189.083373 
L 318.643509 189.135708 
L 323.0723 188.793569 
L 327.501092 189.547165 
L 331.929883 189.293451 
L 336.358675 189.686908 
L 340.787466 189.80717 
L 345.216258 190.601313 
L 349.645049 191.357734 
L 354.07384 192.012341 
L 358.502632 190.895937 
L 362.931423 186.999672 
L 367.360215 184.321139 
L 371.789006 182.602043 
L 376.217797 180.940374 
L 380.646589 181.37981 
L 385.07538 181.513763 
L 389.504172 181.977153 
L 393.932963 181.753051 
L 398.361755 182.249289 
L 402.790546 181.857949 
L 407.219337 181.944682 
L 411.648129 182.199761 
L 416.07692 182.417123 
L 420.505712 183.041405 
L 424.934503 182.732946 
L 429.363294 184.339132 
L 433.792086 185.099037 
L 438.220877 184.325615 
L 442.649669 184.901573 
L 447.07846 184.774372 
L 451.507252 184.038656 
L 455.936043 184.225862 
L 460.364834 183.790115 
L 464.793626 183.237848 
L 469.222417 182.531475 
L 473.651209 183.13219 
L 478.08 183.278118 
" clip-path="url(#pabef9ad78e)" style="fill: none; stroke: #ff7c00; stroke-width: 3; stroke-linecap: round"/>
   </g>
   <g id="line2d_8">
    <path d="M 110.490312 194.695191 
L 478.08 194.695191 
" clip-path="url(#pabef9ad78e)" style="fill: none; stroke-dasharray: 11.1,4.8; stroke-dashoffset: 0; stroke: #000000; stroke-width: 3"/>
   </g>
   <g id="line2d_9">
    <path d="M 110.490312 198.801744 
L 114.919104 193.364132 
L 119.347895 197.270168 
L 123.776687 196.623246 
L 128.205478 192.972545 
L 132.63427 193.771561 
L 137.063061 196.86336 
L 141.491852 191.21577 
L 145.920644 194.808303 
L 150.349435 195.162992 
L 154.778227 192.857973 
L 159.207018 192.630501 
L 163.635809 193.422592 
L 168.064601 193.098917 
L 172.493392 193.994668 
L 176.922184 195.178886 
L 181.350975 193.044557 
L 185.779767 191.950797 
L 190.208558 198.431185 
L 194.637349 198.850339 
L 199.066141 196.95279 
L 203.494932 191.748802 
L 207.923724 195.78171 
L 212.352515 197.702872 
L 216.781306 194.678984 
L 221.210098 188.586814 
L 225.638889 180.610814 
L 230.067681 178.645803 
L 234.496472 177.730111 
L 238.925264 180.100593 
L 243.354055 183.246055 
L 247.782846 187.136688 
L 252.211638 185.866226 
L 256.640429 183.623071 
L 261.069221 181.465814 
L 265.498012 182.100065 
L 269.926803 182.604266 
L 274.355595 182.820709 
L 278.784386 181.194994 
L 283.213178 177.605802 
L 287.641969 172.888258 
L 292.070761 172.61168 
L 296.499552 169.194841 
L 300.928343 172.290137 
L 305.357135 172.693754 
L 309.785926 170.857339 
L 314.214718 170.708873 
L 318.643509 167.61691 
L 323.0723 166.333107 
L 327.501092 165.54339 
L 331.929883 162.414772 
L 336.358675 161.913715 
L 340.787466 159.637114 
L 345.216258 162.342375 
L 349.645049 160.977541 
L 354.07384 156.501335 
L 358.502632 114.025651 
L 362.931423 73.94198 
L 367.360215 61.446825 
L 371.789006 60.772605 
L 376.217797 68.897196 
L 380.646589 80.691863 
L 385.07538 88.034935 
L 389.504172 99.6741 
L 393.932963 105.208624 
L 398.361755 117.277522 
L 402.790546 123.468969 
L 407.219337 132.461794 
L 411.648129 130.979895 
L 416.07692 146.539423 
L 420.505712 150.197138 
L 424.934503 159.653184 
L 429.363294 172.098741 
L 433.792086 176.642269 
L 438.220877 178.210711 
L 442.649669 183.381313 
L 447.07846 185.591438 
L 451.507252 187.46344 
L 455.936043 188.678878 
L 460.364834 185.639125 
L 464.793626 185.667117 
L 469.222417 185.79715 
L 473.651209 179.506026 
L 478.08 188.363983 
" clip-path="url(#pabef9ad78e)" style="fill: none; stroke: #ff7c00; stroke-width: 3; stroke-linecap: round"/>
   </g>
   <g id="line2d_10">
    <path d="M 110.490312 194.695191 
L 478.08 194.695191 
" clip-path="url(#pabef9ad78e)" style="fill: none; stroke-dasharray: 11.1,4.8; stroke-dashoffset: 0; stroke: #000000; stroke-width: 3"/>
   </g>
   <g id="patch_11">
    <path d="M 110.490312 222.977813 
L 110.490312 25.92 
" style="fill: none; stroke: #262626; stroke-width: 2.5; stroke-linejoin: miter; stroke-linecap: square"/>
   </g>
   <g id="patch_12">
    <path d="M 110.490312 222.977813 
L 478.08 222.977813 
" style="fill: none; stroke: #262626; stroke-width: 2.5; stroke-linejoin: miter; stroke-linecap: square"/>
   </g>
  </g>
 </g>
 <defs>
  <clipPath id="pabef9ad78e">
   <rect x="110.490312" y="25.92" width="367.589688" height="197.057813"/>
  </clipPath>
 </defs>
</svg>
