<?xml version="1.0" encoding="utf-8" standalone="no"?>
<!DOCTYPE svg PUBLIC "-//W3C//DTD SVG 1.1//EN"
  "http://www.w3.org/Graphics/SVG/1.1/DTD/svg11.dtd">
<svg xmlns:xlink="http://www.w3.org/1999/xlink" width="504pt" height="311.04pt" viewBox="0 0 504 311.04" xmlns="http://www.w3.org/2000/svg" version="1.1">
 <metadata>
  <rdf:RDF xmlns:dc="http://purl.org/dc/elements/1.1/" xmlns:cc="http://creativecommons.org/ns#" xmlns:rdf="http://www.w3.org/1999/02/22-rdf-syntax-ns#">
   <cc:Work>
    <dc:type rdf:resource="http://purl.org/dc/dcmitype/StillImage"/>
    <dc:date>2023-07-17T13:11:49.928895</dc:date>
    <dc:format>image/svg+xml</dc:format>
    <dc:creator>
     <cc:Agent>
      <dc:title>Matplotlib v3.7.2, https://matplotlib.org/</dc:title>
     </cc:Agent>
    </dc:creator>
   </cc:Work>
  </rdf:RDF>
 </metadata>
 <defs>
  <style type="text/css">*{stroke-linejoin: round; stroke-linecap: butt}</style>
 </defs>
 <g id="figure_1">
  <g id="patch_1">
   <path d="M 0 311.04 
L 504 311.04 
L 504 0 
L 0 0 
z
" style="fill: #ffffff"/>
  </g>
  <g id="axes_1">
   <g id="patch_2">
    <path d="M 160.041875 222.977813 
L 478.08 222.977813 
L 478.08 25.92 
L 160.041875 25.92 
z
" style="fill: #ffffff"/>
   </g>
   <g id="matplotlib.axis_1">
    <g id="xtick_1">
     <g id="line2d_1">
      <defs>
       <path id="mecf8868e47" d="M 0 0 
L 0 12 
" style="stroke: #262626; stroke-width: 2.5"/>
      </defs>
      <g>
       <use xlink:href="#mecf8868e47" x="160.041875" y="222.977813" style="fill: #262626; stroke: #262626; stroke-width: 2.5"/>
      </g>
     </g>
     <g id="text_1">
      <!-- 0 -->
      <g style="fill: #262626" transform="translate(153.924844 254.225) scale(0.22 -0.22)">
       <defs>
        <path id="ArialMT-30" d="M 266 2259 
Q 266 3072 433 3567 
Q 600 4063 929 4331 
Q 1259 4600 1759 4600 
Q 2128 4600 2406 4451 
Q 2684 4303 2865 4023 
Q 3047 3744 3150 3342 
Q 3253 2941 3253 2259 
Q 3253 1453 3087 958 
Q 2922 463 2592 192 
Q 2263 -78 1759 -78 
Q 1097 -78 719 397 
Q 266 969 266 2259 
z
M 844 2259 
Q 844 1131 1108 757 
Q 1372 384 1759 384 
Q 2147 384 2411 759 
Q 2675 1134 2675 2259 
Q 2675 3391 2411 3762 
Q 2147 4134 1753 4134 
Q 1366 4134 1134 3806 
Q 844 3388 844 2259 
z
" transform="scale(0.015625)"/>
       </defs>
       <use xlink:href="#ArialMT-30"/>
      </g>
     </g>
    </g>
    <g id="xtick_2">
     <g id="line2d_2">
      <g>
       <use xlink:href="#mecf8868e47" x="273.62692" y="222.977813" style="fill: #262626; stroke: #262626; stroke-width: 2.5"/>
      </g>
     </g>
     <g id="text_2">
      <!-- 5 -->
      <g style="fill: #262626" transform="translate(267.509888 254.225) scale(0.22 -0.22)">
       <defs>
        <path id="ArialMT-35" d="M 266 1200 
L 856 1250 
Q 922 819 1161 601 
Q 1400 384 1738 384 
Q 2144 384 2425 690 
Q 2706 997 2706 1503 
Q 2706 1984 2436 2262 
Q 2166 2541 1728 2541 
Q 1456 2541 1237 2417 
Q 1019 2294 894 2097 
L 366 2166 
L 809 4519 
L 3088 4519 
L 3088 3981 
L 1259 3981 
L 1013 2750 
Q 1425 3038 1878 3038 
Q 2478 3038 2890 2622 
Q 3303 2206 3303 1553 
Q 3303 931 2941 478 
Q 2500 -78 1738 -78 
Q 1113 -78 717 272 
Q 322 622 266 1200 
z
" transform="scale(0.015625)"/>
       </defs>
       <use xlink:href="#ArialMT-35"/>
      </g>
     </g>
    </g>
    <g id="xtick_3">
     <g id="line2d_3">
      <g>
       <use xlink:href="#mecf8868e47" x="387.211964" y="222.977813" style="fill: #262626; stroke: #262626; stroke-width: 2.5"/>
      </g>
     </g>
     <g id="text_3">
      <!-- 10 -->
      <g style="fill: #262626" transform="translate(374.977902 254.225) scale(0.22 -0.22)">
       <defs>
        <path id="ArialMT-31" d="M 2384 0 
L 1822 0 
L 1822 3584 
Q 1619 3391 1289 3197 
Q 959 3003 697 2906 
L 697 3450 
Q 1169 3672 1522 3987 
Q 1875 4303 2022 4600 
L 2384 4600 
L 2384 0 
z
" transform="scale(0.015625)"/>
       </defs>
       <use xlink:href="#ArialMT-31"/>
       <use xlink:href="#ArialMT-30" x="55.615234"/>
      </g>
     </g>
    </g>
    <g id="text_4">
     <!-- Time (s) -->
     <g style="fill: #262626" transform="translate(275.521563 280.06875) scale(0.24 -0.24)">
      <defs>
       <path id="ArialMT-54" d="M 1659 0 
L 1659 4041 
L 150 4041 
L 150 4581 
L 3781 4581 
L 3781 4041 
L 2266 4041 
L 2266 0 
L 1659 0 
z
" transform="scale(0.015625)"/>
       <path id="ArialMT-69" d="M 425 3934 
L 425 4581 
L 988 4581 
L 988 3934 
L 425 3934 
z
M 425 0 
L 425 3319 
L 988 3319 
L 988 0 
L 425 0 
z
" transform="scale(0.015625)"/>
       <path id="ArialMT-6d" d="M 422 0 
L 422 3319 
L 925 3319 
L 925 2853 
Q 1081 3097 1340 3245 
Q 1600 3394 1931 3394 
Q 2300 3394 2536 3241 
Q 2772 3088 2869 2813 
Q 3263 3394 3894 3394 
Q 4388 3394 4653 3120 
Q 4919 2847 4919 2278 
L 4919 0 
L 4359 0 
L 4359 2091 
Q 4359 2428 4304 2576 
Q 4250 2725 4106 2815 
Q 3963 2906 3769 2906 
Q 3419 2906 3187 2673 
Q 2956 2441 2956 1928 
L 2956 0 
L 2394 0 
L 2394 2156 
Q 2394 2531 2256 2718 
Q 2119 2906 1806 2906 
Q 1569 2906 1367 2781 
Q 1166 2656 1075 2415 
Q 984 2175 984 1722 
L 984 0 
L 422 0 
z
" transform="scale(0.015625)"/>
       <path id="ArialMT-65" d="M 2694 1069 
L 3275 997 
Q 3138 488 2766 206 
Q 2394 -75 1816 -75 
Q 1088 -75 661 373 
Q 234 822 234 1631 
Q 234 2469 665 2931 
Q 1097 3394 1784 3394 
Q 2450 3394 2872 2941 
Q 3294 2488 3294 1666 
Q 3294 1616 3291 1516 
L 816 1516 
Q 847 969 1125 678 
Q 1403 388 1819 388 
Q 2128 388 2347 550 
Q 2566 713 2694 1069 
z
M 847 1978 
L 2700 1978 
Q 2663 2397 2488 2606 
Q 2219 2931 1791 2931 
Q 1403 2931 1139 2672 
Q 875 2413 847 1978 
z
" transform="scale(0.015625)"/>
       <path id="ArialMT-20" transform="scale(0.015625)"/>
       <path id="ArialMT-28" d="M 1497 -1347 
Q 1031 -759 709 28 
Q 388 816 388 1659 
Q 388 2403 628 3084 
Q 909 3875 1497 4659 
L 1900 4659 
Q 1522 4009 1400 3731 
Q 1209 3300 1100 2831 
Q 966 2247 966 1656 
Q 966 153 1900 -1347 
L 1497 -1347 
z
" transform="scale(0.015625)"/>
       <path id="ArialMT-73" d="M 197 991 
L 753 1078 
Q 800 744 1014 566 
Q 1228 388 1613 388 
Q 2000 388 2187 545 
Q 2375 703 2375 916 
Q 2375 1106 2209 1216 
Q 2094 1291 1634 1406 
Q 1016 1563 777 1677 
Q 538 1791 414 1992 
Q 291 2194 291 2438 
Q 291 2659 392 2848 
Q 494 3038 669 3163 
Q 800 3259 1026 3326 
Q 1253 3394 1513 3394 
Q 1903 3394 2198 3281 
Q 2494 3169 2634 2976 
Q 2775 2784 2828 2463 
L 2278 2388 
Q 2241 2644 2061 2787 
Q 1881 2931 1553 2931 
Q 1166 2931 1000 2803 
Q 834 2675 834 2503 
Q 834 2394 903 2306 
Q 972 2216 1119 2156 
Q 1203 2125 1616 2013 
Q 2213 1853 2448 1751 
Q 2684 1650 2818 1456 
Q 2953 1263 2953 975 
Q 2953 694 2789 445 
Q 2625 197 2315 61 
Q 2006 -75 1616 -75 
Q 969 -75 630 194 
Q 291 463 197 991 
z
" transform="scale(0.015625)"/>
       <path id="ArialMT-29" d="M 791 -1347 
L 388 -1347 
Q 1322 153 1322 1656 
Q 1322 2244 1188 2822 
Q 1081 3291 891 3722 
Q 769 4003 388 4659 
L 791 4659 
Q 1378 3875 1659 3084 
Q 1900 2403 1900 1659 
Q 1900 816 1576 28 
Q 1253 -759 791 -1347 
z
" transform="scale(0.015625)"/>
      </defs>
      <use xlink:href="#ArialMT-54"/>
      <use xlink:href="#ArialMT-69" x="57.333984"/>
      <use xlink:href="#ArialMT-6d" x="79.550781"/>
      <use xlink:href="#ArialMT-65" x="162.851562"/>
      <use xlink:href="#ArialMT-20" x="218.466797"/>
      <use xlink:href="#ArialMT-28" x="246.25"/>
      <use xlink:href="#ArialMT-73" x="279.550781"/>
      <use xlink:href="#ArialMT-29" x="329.550781"/>
     </g>
    </g>
   </g>
   <g id="matplotlib.axis_2">
    <g id="ytick_1">
     <g id="line2d_4">
      <defs>
       <path id="m9cc5424001" d="M 0 0 
L -12 0 
" style="stroke: #262626; stroke-width: 2.5"/>
      </defs>
      <g>
       <use xlink:href="#m9cc5424001" x="160.041875" y="199.077102" style="fill: #262626; stroke: #262626; stroke-width: 2.5"/>
      </g>
     </g>
     <g id="text_5">
      <!-- −0.0001 -->
      <g style="fill: #262626" transform="translate(64.410313 206.950696) scale(0.22 -0.22)">
       <defs>
        <path id="ArialMT-2212" d="M 3381 1997 
L 356 1997 
L 356 2522 
L 3381 2522 
L 3381 1997 
z
" transform="scale(0.015625)"/>
        <path id="ArialMT-2e" d="M 581 0 
L 581 641 
L 1222 641 
L 1222 0 
L 581 0 
z
" transform="scale(0.015625)"/>
       </defs>
       <use xlink:href="#ArialMT-2212"/>
       <use xlink:href="#ArialMT-30" x="58.398438"/>
       <use xlink:href="#ArialMT-2e" x="114.013672"/>
       <use xlink:href="#ArialMT-30" x="141.796875"/>
       <use xlink:href="#ArialMT-30" x="197.412109"/>
       <use xlink:href="#ArialMT-30" x="253.027344"/>
       <use xlink:href="#ArialMT-31" x="308.642578"/>
      </g>
     </g>
    </g>
    <g id="ytick_2">
     <g id="line2d_5">
      <g>
       <use xlink:href="#m9cc5424001" x="160.041875" y="111.9365" style="fill: #262626; stroke: #262626; stroke-width: 2.5"/>
      </g>
     </g>
     <g id="text_6">
      <!-- 0.0000 -->
      <g style="fill: #262626" transform="translate(77.259687 119.810094) scale(0.22 -0.22)">
       <use xlink:href="#ArialMT-30"/>
       <use xlink:href="#ArialMT-2e" x="55.615234"/>
       <use xlink:href="#ArialMT-30" x="83.398438"/>
       <use xlink:href="#ArialMT-30" x="139.013672"/>
       <use xlink:href="#ArialMT-30" x="194.628906"/>
       <use xlink:href="#ArialMT-30" x="250.244141"/>
      </g>
     </g>
    </g>
    <g id="text_7">
     <!-- Overlap -->
     <g style="fill: #262626" transform="translate(55.640313 166.463906) rotate(-90) scale(0.24 -0.24)">
      <defs>
       <path id="ArialMT-4f" d="M 309 2231 
Q 309 3372 921 4017 
Q 1534 4663 2503 4663 
Q 3138 4663 3647 4359 
Q 4156 4056 4423 3514 
Q 4691 2972 4691 2284 
Q 4691 1588 4409 1038 
Q 4128 488 3612 205 
Q 3097 -78 2500 -78 
Q 1853 -78 1343 234 
Q 834 547 571 1087 
Q 309 1628 309 2231 
z
M 934 2222 
Q 934 1394 1379 917 
Q 1825 441 2497 441 
Q 3181 441 3623 922 
Q 4066 1403 4066 2288 
Q 4066 2847 3877 3264 
Q 3688 3681 3323 3911 
Q 2959 4141 2506 4141 
Q 1863 4141 1398 3698 
Q 934 3256 934 2222 
z
" transform="scale(0.015625)"/>
       <path id="ArialMT-76" d="M 1344 0 
L 81 3319 
L 675 3319 
L 1388 1331 
Q 1503 1009 1600 663 
Q 1675 925 1809 1294 
L 2547 3319 
L 3125 3319 
L 1869 0 
L 1344 0 
z
" transform="scale(0.015625)"/>
       <path id="ArialMT-72" d="M 416 0 
L 416 3319 
L 922 3319 
L 922 2816 
Q 1116 3169 1280 3281 
Q 1444 3394 1641 3394 
Q 1925 3394 2219 3213 
L 2025 2691 
Q 1819 2813 1613 2813 
Q 1428 2813 1281 2702 
Q 1134 2591 1072 2394 
Q 978 2094 978 1738 
L 978 0 
L 416 0 
z
" transform="scale(0.015625)"/>
       <path id="ArialMT-6c" d="M 409 0 
L 409 4581 
L 972 4581 
L 972 0 
L 409 0 
z
" transform="scale(0.015625)"/>
       <path id="ArialMT-61" d="M 2588 409 
Q 2275 144 1986 34 
Q 1697 -75 1366 -75 
Q 819 -75 525 192 
Q 231 459 231 875 
Q 231 1119 342 1320 
Q 453 1522 633 1644 
Q 813 1766 1038 1828 
Q 1203 1872 1538 1913 
Q 2219 1994 2541 2106 
Q 2544 2222 2544 2253 
Q 2544 2597 2384 2738 
Q 2169 2928 1744 2928 
Q 1347 2928 1158 2789 
Q 969 2650 878 2297 
L 328 2372 
Q 403 2725 575 2942 
Q 747 3159 1072 3276 
Q 1397 3394 1825 3394 
Q 2250 3394 2515 3294 
Q 2781 3194 2906 3042 
Q 3031 2891 3081 2659 
Q 3109 2516 3109 2141 
L 3109 1391 
Q 3109 606 3145 398 
Q 3181 191 3288 0 
L 2700 0 
Q 2613 175 2588 409 
z
M 2541 1666 
Q 2234 1541 1622 1453 
Q 1275 1403 1131 1340 
Q 988 1278 909 1158 
Q 831 1038 831 891 
Q 831 666 1001 516 
Q 1172 366 1500 366 
Q 1825 366 2078 508 
Q 2331 650 2450 897 
Q 2541 1088 2541 1459 
L 2541 1666 
z
" transform="scale(0.015625)"/>
       <path id="ArialMT-70" d="M 422 -1272 
L 422 3319 
L 934 3319 
L 934 2888 
Q 1116 3141 1344 3267 
Q 1572 3394 1897 3394 
Q 2322 3394 2647 3175 
Q 2972 2956 3137 2557 
Q 3303 2159 3303 1684 
Q 3303 1175 3120 767 
Q 2938 359 2589 142 
Q 2241 -75 1856 -75 
Q 1575 -75 1351 44 
Q 1128 163 984 344 
L 984 -1272 
L 422 -1272 
z
M 931 1641 
Q 931 1000 1190 694 
Q 1450 388 1819 388 
Q 2194 388 2461 705 
Q 2728 1022 2728 1688 
Q 2728 2322 2467 2637 
Q 2206 2953 1844 2953 
Q 1484 2953 1207 2617 
Q 931 2281 931 1641 
z
" transform="scale(0.015625)"/>
      </defs>
      <use xlink:href="#ArialMT-4f"/>
      <use xlink:href="#ArialMT-76" x="77.783203"/>
      <use xlink:href="#ArialMT-65" x="127.783203"/>
      <use xlink:href="#ArialMT-72" x="183.398438"/>
      <use xlink:href="#ArialMT-6c" x="216.699219"/>
      <use xlink:href="#ArialMT-61" x="238.916016"/>
      <use xlink:href="#ArialMT-70" x="294.53125"/>
     </g>
    </g>
   </g>
   <g id="PolyCollection_1">
    <defs>
     <path id="mbda195f659" d="M 160.041875 -159.749366 
L 160.041875 -112.920377 
L 163.867898 -103.945494 
L 167.69392 -105.765827 
L 171.519943 -111.20303 
L 175.345965 -112.995239 
L 179.171988 -110.984518 
L 182.99801 -115.309198 
L 186.824033 -107.891555 
L 190.650055 -109.465982 
L 194.476078 -101.340008 
L 198.302101 -101.223073 
L 202.128123 -112.110338 
L 205.954146 -114.507391 
L 209.780168 -114.37887 
L 213.606191 -127.737716 
L 217.432213 -116.460047 
L 221.258236 -107.325791 
L 225.084258 -106.866141 
L 228.910281 -106.880629 
L 232.736304 -108.45736 
L 236.562326 -107.965445 
L 240.388349 -112.375903 
L 244.214371 -107.899538 
L 248.040394 -119.990161 
L 251.866416 -123.557242 
L 255.692439 -125.727597 
L 259.518461 -118.44436 
L 263.344484 -115.588349 
L 267.170507 -118.716383 
L 270.996529 -123.626935 
L 274.822552 -124.014053 
L 278.648574 -123.665734 
L 282.474597 -122.226636 
L 286.300619 -119.864131 
L 290.126642 -114.254942 
L 293.952664 -119.717743 
L 297.778687 -127.454089 
L 301.60471 -122.211529 
L 305.430732 -120.909724 
L 309.256755 -118.462624 
L 313.082777 -124.796644 
L 316.9088 -128.27232 
L 320.734822 -124.858087 
L 324.560845 -126.976244 
L 328.386867 -129.377472 
L 332.21289 -128.987287 
L 336.038913 -125.213108 
L 339.864935 -134.622182 
L 343.690958 -130.773456 
L 347.51698 -127.265423 
L 351.343003 -126.553573 
L 355.169025 -128.073796 
L 358.995048 -128.571515 
L 362.82107 -152.10289 
L 366.647093 -171.776437 
L 370.473116 -146.863718 
L 374.299138 -178.066437 
L 378.125161 -206.153874 
L 381.951183 -200.905477 
L 385.777206 -199.393566 
L 389.603228 -194.144496 
L 393.429251 -185.381683 
L 397.255273 -161.371598 
L 401.081296 -157.95452 
L 404.907319 -151.789128 
L 408.733341 -154.256926 
L 412.559364 -152.200844 
L 416.385386 -150.766077 
L 420.211409 -148.177809 
L 424.037431 -142.415032 
L 427.863454 -140.280709 
L 431.689477 -130.842633 
L 435.515499 -133.488881 
L 439.341522 -133.136013 
L 443.167544 -128.746931 
L 446.993567 -124.268029 
L 450.819589 -127.257028 
L 454.645612 -128.406929 
L 458.471634 -129.453433 
L 462.297657 -120.768988 
L 466.12368 -122.296759 
L 469.949702 -122.69726 
L 473.775725 -116.591277 
L 477.601747 -119.702463 
L 481.42777 -117.074941 
L 485.253792 -124.846312 
L 489.079815 -115.789088 
L 492.905837 -113.393265 
L 496.73186 -107.649442 
L 500.557883 -110.054905 
L 504.383905 -108.430545 
L 508.209928 -112.249788 
L 512.03595 -105.687493 
L 515.861973 -108.896118 
L 519.687995 -110.584789 
L 523.514018 -107.899345 
L 527.34004 -105.0075 
L 531.166063 -102.334341 
L 534.992086 -101.272207 
L 538.818108 -106.059257 
L 542.644131 -104.040903 
L 546.470153 -102.347014 
L 550.296176 -109.187813 
L 554.122198 -107.837871 
L 557.948221 -106.248778 
L 561.774243 -110.473817 
L 565.600266 -108.923948 
L 569.426289 -111.68969 
L 573.252311 -109.046466 
L 577.078334 -114.370335 
L 580.904356 -113.533804 
L 584.730379 -111.697735 
L 588.556401 -115.112991 
L 592.382424 -118.445866 
L 596.208446 -121.414954 
L 596.208446 -177.099543 
L 596.208446 -177.099543 
L 592.382424 -177.253071 
L 588.556401 -165.808185 
L 584.730379 -165.794614 
L 580.904356 -170.49319 
L 577.078334 -167.364358 
L 573.252311 -166.648615 
L 569.426289 -169.739144 
L 565.600266 -161.721992 
L 561.774243 -163.428538 
L 557.948221 -166.292574 
L 554.122198 -159.644869 
L 550.296176 -159.014931 
L 546.470153 -158.31205 
L 542.644131 -153.887662 
L 538.818108 -159.258038 
L 534.992086 -151.717982 
L 531.166063 -155.674793 
L 527.34004 -154.56741 
L 523.514018 -156.617083 
L 519.687995 -160.758946 
L 515.861973 -159.904685 
L 512.03595 -161.689906 
L 508.209928 -166.965083 
L 504.383905 -159.216167 
L 500.557883 -159.714526 
L 496.73186 -158.386146 
L 492.905837 -163.127437 
L 489.079815 -171.815221 
L 485.253792 -177.202754 
L 481.42777 -169.778628 
L 477.601747 -175.7068 
L 473.775725 -169.03891 
L 469.949702 -172.712886 
L 466.12368 -172.334883 
L 462.297657 -176.170823 
L 458.471634 -178.281984 
L 454.645612 -178.717706 
L 450.819589 -179.380366 
L 446.993567 -179.966679 
L 443.167544 -179.636011 
L 439.341522 -185.045009 
L 435.515499 -189.582474 
L 431.689477 -192.026802 
L 427.863454 -199.006116 
L 424.037431 -202.368738 
L 420.211409 -206.931156 
L 416.385386 -208.816432 
L 412.559364 -212.173345 
L 408.733341 -215.371367 
L 404.907319 -211.573174 
L 401.081296 -222.837229 
L 397.255273 -234.02032 
L 393.429251 -250.934324 
L 389.603228 -260.426208 
L 385.777206 -265.828782 
L 381.951183 -268.516753 
L 378.125161 -265.931052 
L 374.299138 -238.63884 
L 370.473116 -198.258764 
L 366.647093 -223.392573 
L 362.82107 -199.067183 
L 358.995048 -179.007331 
L 355.169025 -173.673505 
L 351.343003 -173.69768 
L 347.51698 -176.151255 
L 343.690958 -175.178279 
L 339.864935 -184.41088 
L 336.038913 -171.990166 
L 332.21289 -174.384238 
L 328.386867 -174.564356 
L 324.560845 -173.620935 
L 320.734822 -174.603214 
L 316.9088 -179.064789 
L 313.082777 -169.444624 
L 309.256755 -167.063596 
L 305.430732 -169.514475 
L 301.60471 -173.468409 
L 297.778687 -177.960914 
L 293.952664 -172.552565 
L 290.126642 -164.623759 
L 286.300619 -171.351597 
L 282.474597 -170.164104 
L 278.648574 -168.017619 
L 274.822552 -172.062426 
L 270.996529 -179.413784 
L 267.170507 -167.44937 
L 263.344484 -167.991906 
L 259.518461 -170.409026 
L 255.692439 -174.924506 
L 251.866416 -175.026323 
L 248.040394 -172.228867 
L 244.214371 -154.938478 
L 240.388349 -158.355348 
L 236.562326 -156.463491 
L 232.736304 -158.003358 
L 228.910281 -155.707007 
L 225.084258 -154.510884 
L 221.258236 -157.044367 
L 217.432213 -170.909005 
L 213.606191 -178.387156 
L 209.780168 -170.583876 
L 205.954146 -164.658795 
L 202.128123 -164.089678 
L 198.302101 -151.592464 
L 194.476078 -151.747874 
L 190.650055 -160.333849 
L 186.824033 -157.105338 
L 182.99801 -162.438686 
L 179.171988 -156.305881 
L 175.345965 -161.160261 
L 171.519943 -160.123805 
L 167.69392 -155.660638 
L 163.867898 -157.697998 
L 160.041875 -159.749366 
z
" style="stroke: #ff7c00; stroke-opacity: 0.25; stroke-width: 2"/>
    </defs>
    <g clip-path="url(#pa2b6b95f10)">
     <use xlink:href="#mbda195f659" x="0" y="311.04" style="fill: #ff7c00; fill-opacity: 0.25; stroke: #ff7c00; stroke-opacity: 0.25; stroke-width: 2"/>
    </g>
   </g>
   <g id="patch_3">
    <path d="M 205.475893 222.977813 
L 205.475893 25.92 
L 228.192902 25.92 
L 228.192902 222.977813 
z
" clip-path="url(#pa2b6b95f10)" style="fill: #0000ff; opacity: 0.1; stroke: #0000ff; stroke-width: 2; stroke-linejoin: miter"/>
   </g>
   <g id="patch_4">
    <path d="M 250.909911 222.977813 
L 250.909911 25.92 
L 273.62692 25.92 
L 273.62692 222.977813 
z
" clip-path="url(#pa2b6b95f10)" style="fill: #0000ff; opacity: 0.1; stroke: #0000ff; stroke-width: 2; stroke-linejoin: miter"/>
   </g>
   <g id="patch_5">
    <path d="M 364.494955 222.977813 
L 364.494955 25.92 
L 387.211964 25.92 
L 387.211964 222.977813 
z
" clip-path="url(#pa2b6b95f10)" style="fill: #0000ff; opacity: 0.1; stroke: #0000ff; stroke-width: 2; stroke-linejoin: miter"/>
   </g>
   <g id="patch_6">
    <path d="M 296.343929 222.977813 
L 296.343929 25.92 
L 319.060938 25.92 
L 319.060938 222.977813 
z
" clip-path="url(#pa2b6b95f10)" style="fill: #008000; opacity: 0.1; stroke: #008000; stroke-width: 2; stroke-linejoin: miter"/>
   </g>
   <g id="line2d_6">
    <path d="M 160.041875 194.380197 
L 163.867898 204.853591 
L 167.69392 199.329262 
L 171.519943 192.414583 
L 175.345965 192.090525 
L 179.171988 200.876098 
L 182.99801 188.379153 
L 186.824033 197.118093 
L 190.650055 198.989099 
L 194.476078 208.629198 
L 198.302101 214.020639 
L 202.128123 198.180906 
L 205.954146 184.765607 
L 209.780168 183.382241 
L 213.606191 168.204693 
L 217.432213 187.573461 
L 221.258236 198.800898 
L 225.084258 202.612894 
L 228.910281 202.536661 
L 232.736304 197.929726 
L 236.562326 200.249088 
L 240.388349 194.343868 
L 244.214371 200.231235 
L 248.040394 192.076694 
L 251.866416 186.946116 
L 255.692439 188.80416 
L 259.518461 195.324303 
L 263.344484 185.974776 
L 267.170507 197.036206 
L 270.996529 187.381545 
L 274.822552 198.874501 
L 278.648574 194.570817 
L 282.474597 194.414448 
L 286.300619 202.193304 
L 290.126642 205.529229 
L 293.952664 202.583186 
L 297.778687 197.497674 
L 301.60471 196.253985 
L 305.430732 194.868424 
L 309.256755 199.944273 
L 313.082777 190.670448 
L 316.9088 187.297114 
L 320.734822 185.708986 
L 324.560845 189.02926 
L 328.386867 183.543255 
L 332.21289 185.234432 
L 336.038913 192.265071 
L 339.864935 191.659824 
L 343.690958 189.245036 
L 347.51698 185.139401 
L 351.343003 185.64294 
L 355.169025 183.108037 
L 358.995048 190.42877 
L 362.82107 160.549917 
L 366.647093 131.378792 
L 370.473116 156.55384 
L 374.299138 126.895544 
L 378.125161 98.215491 
L 381.951183 116.235438 
L 385.777206 101.001159 
L 389.603228 107.010071 
L 393.429251 110.639581 
L 397.255273 134.075811 
L 401.081296 138.740571 
L 404.907319 150.179768 
L 408.733341 153.16257 
L 412.559364 149.575642 
L 416.385386 157.901243 
L 420.211409 160.501802 
L 424.037431 163.80934 
L 427.863454 169.888209 
L 431.689477 181.377343 
L 435.515499 173.829344 
L 439.341522 173.386738 
L 443.167544 180.801778 
L 446.993567 183.64215 
L 450.819589 180.245491 
L 454.645612 176.265063 
L 458.471634 179.774498 
L 462.297657 188.841274 
L 466.12368 193.376008 
L 469.949702 187.332485 
L 473.775725 193.44715 
L 477.601747 196.881946 
L 481.42777 190.797557 
L 485.253792 194.872892 
L 489.079815 202.171498 
L 492.905837 197.311102 
L 496.73186 207.287897 
L 500.557883 195.547883 
L 504.383905 199.088894 
L 505 198.791252 
" clip-path="url(#pa2b6b95f10)" style="fill: none; stroke-dasharray: 11.1,4.8; stroke-dashoffset: 0; stroke: #1f77b4; stroke-width: 3"/>
   </g>
   <g id="line2d_7">
    <path d="M 160.041875 155.896298 
L 163.867898 156.104512 
L 167.69392 161.400312 
L 171.519943 159.552756 
L 175.345965 156.535983 
L 179.171988 156.270179 
L 182.99801 155.591844 
L 186.824033 161.410854 
L 190.650055 153.558547 
L 194.476078 160.756067 
L 198.302101 154.128435 
L 202.128123 147.062654 
L 205.954146 159.60818 
L 209.780168 152.402425 
L 213.606191 148.925944 
L 217.432213 147.836222 
L 221.258236 158.652498 
L 225.084258 158.264541 
L 228.910281 156.143255 
L 232.736304 157.567574 
L 236.562326 156.675338 
L 240.388349 156.931207 
L 244.214371 157.967312 
L 248.040394 137.480837 
L 251.866416 136.134432 
L 255.692439 131.83706 
L 259.518461 137.424317 
L 263.344484 150.635604 
L 267.170507 138.223849 
L 270.996529 129.633123 
L 274.822552 126.692668 
L 278.648574 134.714445 
L 282.474597 134.823376 
L 286.300619 127.514764 
L 290.126642 138.711917 
L 293.952664 127.833615 
L 297.778687 118.769428 
L 301.60471 130.206139 
L 305.430732 137.125868 
L 309.256755 136.894206 
L 313.082777 137.109657 
L 316.9088 128.050275 
L 320.734822 137.62507 
L 324.560845 131.887228 
L 328.386867 133.755026 
L 332.21289 134.488973 
L 336.038913 134.629926 
L 339.864935 112.357909 
L 343.690958 128.091134 
L 347.51698 134.505075 
L 351.343003 136.044255 
L 355.169025 137.030644 
L 358.995048 124.47726 
L 362.82107 109.437519 
L 366.647093 94.96099 
L 370.473116 120.282588 
L 374.299138 77.931128 
L 378.125161 51.055627 
L 381.951183 34.877173 
L 385.777206 51.981438 
L 389.603228 58.075185 
L 393.429251 73.992666 
L 397.255273 90.623443 
L 401.081296 101.637145 
L 404.907319 108.152039 
L 408.733341 98.909885 
L 412.559364 105.421174 
L 416.385386 103.700094 
L 420.211409 107.436609 
L 424.037431 114.661648 
L 427.863454 113.644256 
L 431.689477 118.23629 
L 435.515499 127.017695 
L 439.341522 131.321339 
L 443.167544 133.019682 
L 446.993567 134.028433 
L 450.819589 137.060361 
L 454.645612 140.201547 
L 458.471634 135.3783 
L 462.297657 136.677505 
L 466.12368 134.370655 
L 469.949702 139.803164 
L 473.775725 141.984992 
L 477.601747 130.914334 
L 481.42777 142.25095 
L 485.253792 125.686658 
L 489.079815 131.984435 
L 492.905837 150.082248 
L 496.73186 149.299592 
L 500.557883 156.69032 
L 504.383905 156.628335 
L 505 155.138858 
" clip-path="url(#pa2b6b95f10)" style="fill: none; stroke-dasharray: 11.1,4.8; stroke-dashoffset: 0; stroke: #ff7f0e; stroke-width: 3"/>
   </g>
   <g id="line2d_8">
    <path clip-path="url(#pa2b6b95f10)" style="fill: none; stroke-dasharray: 11.1,4.8; stroke-dashoffset: 0; stroke: #2ca02c; stroke-width: 3"/>
   </g>
   <g id="line2d_9">
    <path clip-path="url(#pa2b6b95f10)" style="fill: none; stroke-dasharray: 11.1,4.8; stroke-dashoffset: 0; stroke: #d62728; stroke-width: 3"/>
   </g>
   <g id="line2d_10">
    <path d="M 160.041875 175.138248 
L 163.867898 180.479052 
L 167.69392 180.364787 
L 171.519943 175.983669 
L 175.345965 174.313254 
L 179.171988 178.573138 
L 182.99801 171.985499 
L 186.824033 179.264473 
L 190.650055 176.273823 
L 194.476078 184.692633 
L 198.302101 184.074537 
L 202.128123 172.62178 
L 205.954146 172.186894 
L 209.780168 167.892333 
L 213.606191 158.565318 
L 217.432213 167.704842 
L 221.258236 178.726698 
L 225.084258 180.438717 
L 228.910281 179.339958 
L 232.736304 177.74865 
L 236.562326 178.462213 
L 240.388349 175.637537 
L 244.214371 179.099273 
L 248.040394 164.778766 
L 251.866416 161.540274 
L 255.692439 160.32061 
L 259.518461 166.37431 
L 263.344484 168.30519 
L 267.170507 167.630027 
L 270.996529 158.507334 
L 274.822552 162.783585 
L 278.648574 164.642631 
L 282.474597 164.618912 
L 286.300619 164.854034 
L 290.126642 172.120573 
L 293.952664 165.208401 
L 297.778687 158.133551 
L 301.60471 163.230062 
L 305.430732 165.997146 
L 309.256755 168.41924 
L 313.082777 163.890053 
L 316.9088 157.673694 
L 320.734822 161.667028 
L 324.560845 160.458244 
L 328.386867 158.649141 
L 332.21289 159.861703 
L 336.038913 163.447498 
L 339.864935 152.008866 
L 343.690958 158.668085 
L 347.51698 159.822238 
L 351.343003 160.843598 
L 355.169025 160.069341 
L 358.995048 157.453015 
L 362.82107 134.993718 
L 366.647093 113.169891 
L 370.473116 138.418214 
L 374.299138 102.413336 
L 378.125161 74.635559 
L 381.951183 75.556306 
L 385.777206 76.491299 
L 389.603228 82.542628 
L 393.429251 92.316123 
L 397.255273 112.349627 
L 401.081296 120.188858 
L 404.907319 129.165903 
L 408.733341 126.036228 
L 412.559364 127.498408 
L 416.385386 130.800668 
L 420.211409 133.969205 
L 424.037431 139.235494 
L 427.863454 141.766232 
L 431.689477 149.806817 
L 435.515499 150.42352 
L 439.341522 152.354038 
L 443.167544 156.91073 
L 446.993567 158.835291 
L 450.819589 158.652926 
L 454.645612 158.233305 
L 458.471634 157.576399 
L 462.297657 162.75939 
L 466.12368 163.873331 
L 469.949702 163.567824 
L 473.775725 167.716071 
L 477.601747 163.89814 
L 481.42777 166.524253 
L 485.253792 160.279775 
L 489.079815 167.077967 
L 492.905837 173.696675 
L 496.73186 178.293745 
L 500.557883 176.119102 
L 504.383905 177.858615 
L 505 176.965055 
" clip-path="url(#pa2b6b95f10)" style="fill: none; stroke: #ff7c00; stroke-width: 3; stroke-linecap: round"/>
   </g>
   <g id="line2d_11">
    <path d="M 160.041875 111.9365 
L 505 111.9365 
" clip-path="url(#pa2b6b95f10)" style="fill: none; stroke-dasharray: 11.1,4.8; stroke-dashoffset: 0; stroke: #000000; stroke-width: 3"/>
   </g>
   <g id="patch_7">
    <path d="M 160.041875 222.977813 
L 160.041875 25.92 
" style="fill: none; stroke: #262626; stroke-width: 2.5; stroke-linejoin: miter; stroke-linecap: square"/>
   </g>
   <g id="patch_8">
    <path d="M 160.041875 222.977813 
L 478.08 222.977813 
" style="fill: none; stroke: #262626; stroke-width: 2.5; stroke-linejoin: miter; stroke-linecap: square"/>
   </g>
  </g>
 </g>
 <defs>
  <clipPath id="pa2b6b95f10">
   <rect x="160.041875" y="25.92" width="318.038125" height="197.057813"/>
  </clipPath>
 </defs>
</svg>
