<?xml version="1.0" encoding="utf-8" standalone="no"?>
<!DOCTYPE svg PUBLIC "-//W3C//DTD SVG 1.1//EN"
  "http://www.w3.org/Graphics/SVG/1.1/DTD/svg11.dtd">
<svg xmlns:xlink="http://www.w3.org/1999/xlink" width="504pt" height="311.04pt" viewBox="0 0 504 311.04" xmlns="http://www.w3.org/2000/svg" version="1.1">
 <metadata>
  <rdf:RDF xmlns:dc="http://purl.org/dc/elements/1.1/" xmlns:cc="http://creativecommons.org/ns#" xmlns:rdf="http://www.w3.org/1999/02/22-rdf-syntax-ns#">
   <cc:Work>
    <dc:type rdf:resource="http://purl.org/dc/dcmitype/StillImage"/>
    <dc:date>2023-07-15T14:01:05.246610</dc:date>
    <dc:format>image/svg+xml</dc:format>
    <dc:creator>
     <cc:Agent>
      <dc:title>Matplotlib v3.7.2, https://matplotlib.org/</dc:title>
     </cc:Agent>
    </dc:creator>
   </cc:Work>
  </rdf:RDF>
 </metadata>
 <defs>
  <style type="text/css">*{stroke-linejoin: round; stroke-linecap: butt}</style>
 </defs>
 <g id="figure_1">
  <g id="patch_1">
   <path d="M 0 311.04 
L 504 311.04 
L 504 0 
L 0 0 
z
" style="fill: #ffffff"/>
  </g>
  <g id="axes_1">
   <g id="patch_2">
    <path d="M 123.339687 222.977813 
L 478.08 222.977813 
L 478.08 25.92 
L 123.339687 25.92 
z
" style="fill: #ffffff"/>
   </g>
   <g id="matplotlib.axis_1">
    <g id="xtick_1">
     <g id="line2d_1">
      <defs>
       <path id="m848cfe98b8" d="M 0 0 
L 0 12 
" style="stroke: #262626; stroke-width: 2.5"/>
      </defs>
      <g>
       <use xlink:href="#m848cfe98b8" x="123.339687" y="222.977813" style="fill: #262626; stroke: #262626; stroke-width: 2.5"/>
      </g>
     </g>
     <g id="text_1">
      <!-- 0 -->
      <g style="fill: #262626" transform="translate(117.222656 254.225) scale(0.22 -0.22)">
       <defs>
        <path id="ArialMT-30" d="M 266 2259 
Q 266 3072 433 3567 
Q 600 4063 929 4331 
Q 1259 4600 1759 4600 
Q 2128 4600 2406 4451 
Q 2684 4303 2865 4023 
Q 3047 3744 3150 3342 
Q 3253 2941 3253 2259 
Q 3253 1453 3087 958 
Q 2922 463 2592 192 
Q 2263 -78 1759 -78 
Q 1097 -78 719 397 
Q 266 969 266 2259 
z
M 844 2259 
Q 844 1131 1108 757 
Q 1372 384 1759 384 
Q 2147 384 2411 759 
Q 2675 1134 2675 2259 
Q 2675 3391 2411 3762 
Q 2147 4134 1753 4134 
Q 1366 4134 1134 3806 
Q 844 3388 844 2259 
z
" transform="scale(0.015625)"/>
       </defs>
       <use xlink:href="#ArialMT-30"/>
      </g>
     </g>
    </g>
    <g id="xtick_2">
     <g id="line2d_2">
      <g>
       <use xlink:href="#m848cfe98b8" x="250.032656" y="222.977813" style="fill: #262626; stroke: #262626; stroke-width: 2.5"/>
      </g>
     </g>
     <g id="text_2">
      <!-- 5 -->
      <g style="fill: #262626" transform="translate(243.915625 254.225) scale(0.22 -0.22)">
       <defs>
        <path id="ArialMT-35" d="M 266 1200 
L 856 1250 
Q 922 819 1161 601 
Q 1400 384 1738 384 
Q 2144 384 2425 690 
Q 2706 997 2706 1503 
Q 2706 1984 2436 2262 
Q 2166 2541 1728 2541 
Q 1456 2541 1237 2417 
Q 1019 2294 894 2097 
L 366 2166 
L 809 4519 
L 3088 4519 
L 3088 3981 
L 1259 3981 
L 1013 2750 
Q 1425 3038 1878 3038 
Q 2478 3038 2890 2622 
Q 3303 2206 3303 1553 
Q 3303 931 2941 478 
Q 2500 -78 1738 -78 
Q 1113 -78 717 272 
Q 322 622 266 1200 
z
" transform="scale(0.015625)"/>
       </defs>
       <use xlink:href="#ArialMT-35"/>
      </g>
     </g>
    </g>
    <g id="xtick_3">
     <g id="line2d_3">
      <g>
       <use xlink:href="#m848cfe98b8" x="376.725625" y="222.977813" style="fill: #262626; stroke: #262626; stroke-width: 2.5"/>
      </g>
     </g>
     <g id="text_3">
      <!-- 10 -->
      <g style="fill: #262626" transform="translate(364.491563 254.225) scale(0.22 -0.22)">
       <defs>
        <path id="ArialMT-31" d="M 2384 0 
L 1822 0 
L 1822 3584 
Q 1619 3391 1289 3197 
Q 959 3003 697 2906 
L 697 3450 
Q 1169 3672 1522 3987 
Q 1875 4303 2022 4600 
L 2384 4600 
L 2384 0 
z
" transform="scale(0.015625)"/>
       </defs>
       <use xlink:href="#ArialMT-31"/>
       <use xlink:href="#ArialMT-30" x="55.615234"/>
      </g>
     </g>
    </g>
    <g id="text_4">
     <!-- Time (s) -->
     <g style="fill: #262626" transform="translate(257.170469 280.06875) scale(0.24 -0.24)">
      <defs>
       <path id="ArialMT-54" d="M 1659 0 
L 1659 4041 
L 150 4041 
L 150 4581 
L 3781 4581 
L 3781 4041 
L 2266 4041 
L 2266 0 
L 1659 0 
z
" transform="scale(0.015625)"/>
       <path id="ArialMT-69" d="M 425 3934 
L 425 4581 
L 988 4581 
L 988 3934 
L 425 3934 
z
M 425 0 
L 425 3319 
L 988 3319 
L 988 0 
L 425 0 
z
" transform="scale(0.015625)"/>
       <path id="ArialMT-6d" d="M 422 0 
L 422 3319 
L 925 3319 
L 925 2853 
Q 1081 3097 1340 3245 
Q 1600 3394 1931 3394 
Q 2300 3394 2536 3241 
Q 2772 3088 2869 2813 
Q 3263 3394 3894 3394 
Q 4388 3394 4653 3120 
Q 4919 2847 4919 2278 
L 4919 0 
L 4359 0 
L 4359 2091 
Q 4359 2428 4304 2576 
Q 4250 2725 4106 2815 
Q 3963 2906 3769 2906 
Q 3419 2906 3187 2673 
Q 2956 2441 2956 1928 
L 2956 0 
L 2394 0 
L 2394 2156 
Q 2394 2531 2256 2718 
Q 2119 2906 1806 2906 
Q 1569 2906 1367 2781 
Q 1166 2656 1075 2415 
Q 984 2175 984 1722 
L 984 0 
L 422 0 
z
" transform="scale(0.015625)"/>
       <path id="ArialMT-65" d="M 2694 1069 
L 3275 997 
Q 3138 488 2766 206 
Q 2394 -75 1816 -75 
Q 1088 -75 661 373 
Q 234 822 234 1631 
Q 234 2469 665 2931 
Q 1097 3394 1784 3394 
Q 2450 3394 2872 2941 
Q 3294 2488 3294 1666 
Q 3294 1616 3291 1516 
L 816 1516 
Q 847 969 1125 678 
Q 1403 388 1819 388 
Q 2128 388 2347 550 
Q 2566 713 2694 1069 
z
M 847 1978 
L 2700 1978 
Q 2663 2397 2488 2606 
Q 2219 2931 1791 2931 
Q 1403 2931 1139 2672 
Q 875 2413 847 1978 
z
" transform="scale(0.015625)"/>
       <path id="ArialMT-20" transform="scale(0.015625)"/>
       <path id="ArialMT-28" d="M 1497 -1347 
Q 1031 -759 709 28 
Q 388 816 388 1659 
Q 388 2403 628 3084 
Q 909 3875 1497 4659 
L 1900 4659 
Q 1522 4009 1400 3731 
Q 1209 3300 1100 2831 
Q 966 2247 966 1656 
Q 966 153 1900 -1347 
L 1497 -1347 
z
" transform="scale(0.015625)"/>
       <path id="ArialMT-73" d="M 197 991 
L 753 1078 
Q 800 744 1014 566 
Q 1228 388 1613 388 
Q 2000 388 2187 545 
Q 2375 703 2375 916 
Q 2375 1106 2209 1216 
Q 2094 1291 1634 1406 
Q 1016 1563 777 1677 
Q 538 1791 414 1992 
Q 291 2194 291 2438 
Q 291 2659 392 2848 
Q 494 3038 669 3163 
Q 800 3259 1026 3326 
Q 1253 3394 1513 3394 
Q 1903 3394 2198 3281 
Q 2494 3169 2634 2976 
Q 2775 2784 2828 2463 
L 2278 2388 
Q 2241 2644 2061 2787 
Q 1881 2931 1553 2931 
Q 1166 2931 1000 2803 
Q 834 2675 834 2503 
Q 834 2394 903 2306 
Q 972 2216 1119 2156 
Q 1203 2125 1616 2013 
Q 2213 1853 2448 1751 
Q 2684 1650 2818 1456 
Q 2953 1263 2953 975 
Q 2953 694 2789 445 
Q 2625 197 2315 61 
Q 2006 -75 1616 -75 
Q 969 -75 630 194 
Q 291 463 197 991 
z
" transform="scale(0.015625)"/>
       <path id="ArialMT-29" d="M 791 -1347 
L 388 -1347 
Q 1322 153 1322 1656 
Q 1322 2244 1188 2822 
Q 1081 3291 891 3722 
Q 769 4003 388 4659 
L 791 4659 
Q 1378 3875 1659 3084 
Q 1900 2403 1900 1659 
Q 1900 816 1576 28 
Q 1253 -759 791 -1347 
z
" transform="scale(0.015625)"/>
      </defs>
      <use xlink:href="#ArialMT-54"/>
      <use xlink:href="#ArialMT-69" x="57.333984"/>
      <use xlink:href="#ArialMT-6d" x="79.550781"/>
      <use xlink:href="#ArialMT-65" x="162.851562"/>
      <use xlink:href="#ArialMT-20" x="218.466797"/>
      <use xlink:href="#ArialMT-28" x="246.25"/>
      <use xlink:href="#ArialMT-73" x="279.550781"/>
      <use xlink:href="#ArialMT-29" x="329.550781"/>
     </g>
    </g>
   </g>
   <g id="matplotlib.axis_2">
    <g id="ytick_1">
     <g id="line2d_4">
      <defs>
       <path id="mdad2742932" d="M 0 0 
L -12 0 
" style="stroke: #262626; stroke-width: 2.5"/>
      </defs>
      <g>
       <use xlink:href="#mdad2742932" x="123.339687" y="197.774828" style="fill: #262626; stroke: #262626; stroke-width: 2.5"/>
      </g>
     </g>
     <g id="text_5">
      <!-- −0.01 -->
      <g style="fill: #262626" transform="translate(52.17625 205.648422) scale(0.22 -0.22)">
       <defs>
        <path id="ArialMT-2212" d="M 3381 1997 
L 356 1997 
L 356 2522 
L 3381 2522 
L 3381 1997 
z
" transform="scale(0.015625)"/>
        <path id="ArialMT-2e" d="M 581 0 
L 581 641 
L 1222 641 
L 1222 0 
L 581 0 
z
" transform="scale(0.015625)"/>
       </defs>
       <use xlink:href="#ArialMT-2212"/>
       <use xlink:href="#ArialMT-30" x="58.398438"/>
       <use xlink:href="#ArialMT-2e" x="114.013672"/>
       <use xlink:href="#ArialMT-30" x="141.796875"/>
       <use xlink:href="#ArialMT-31" x="197.412109"/>
      </g>
     </g>
    </g>
    <g id="ytick_2">
     <g id="line2d_5">
      <g>
       <use xlink:href="#mdad2742932" x="123.339687" y="134.655658" style="fill: #262626; stroke: #262626; stroke-width: 2.5"/>
      </g>
     </g>
     <g id="text_6">
      <!-- 0.00 -->
      <g style="fill: #262626" transform="translate(65.025625 142.529252) scale(0.22 -0.22)">
       <use xlink:href="#ArialMT-30"/>
       <use xlink:href="#ArialMT-2e" x="55.615234"/>
       <use xlink:href="#ArialMT-30" x="83.398438"/>
       <use xlink:href="#ArialMT-30" x="139.013672"/>
      </g>
     </g>
    </g>
    <g id="ytick_3">
     <g id="line2d_6">
      <g>
       <use xlink:href="#mdad2742932" x="123.339687" y="71.536489" style="fill: #262626; stroke: #262626; stroke-width: 2.5"/>
      </g>
     </g>
     <g id="text_7">
      <!-- 0.01 -->
      <g style="fill: #262626" transform="translate(65.025625 79.410082) scale(0.22 -0.22)">
       <use xlink:href="#ArialMT-30"/>
       <use xlink:href="#ArialMT-2e" x="55.615234"/>
       <use xlink:href="#ArialMT-30" x="83.398438"/>
       <use xlink:href="#ArialMT-31" x="139.013672"/>
      </g>
     </g>
    </g>
    <g id="text_8">
     <!-- Overlap -->
     <g style="fill: #262626" transform="translate(43.40625 166.463906) rotate(-90) scale(0.24 -0.24)">
      <defs>
       <path id="ArialMT-4f" d="M 309 2231 
Q 309 3372 921 4017 
Q 1534 4663 2503 4663 
Q 3138 4663 3647 4359 
Q 4156 4056 4423 3514 
Q 4691 2972 4691 2284 
Q 4691 1588 4409 1038 
Q 4128 488 3612 205 
Q 3097 -78 2500 -78 
Q 1853 -78 1343 234 
Q 834 547 571 1087 
Q 309 1628 309 2231 
z
M 934 2222 
Q 934 1394 1379 917 
Q 1825 441 2497 441 
Q 3181 441 3623 922 
Q 4066 1403 4066 2288 
Q 4066 2847 3877 3264 
Q 3688 3681 3323 3911 
Q 2959 4141 2506 4141 
Q 1863 4141 1398 3698 
Q 934 3256 934 2222 
z
" transform="scale(0.015625)"/>
       <path id="ArialMT-76" d="M 1344 0 
L 81 3319 
L 675 3319 
L 1388 1331 
Q 1503 1009 1600 663 
Q 1675 925 1809 1294 
L 2547 3319 
L 3125 3319 
L 1869 0 
L 1344 0 
z
" transform="scale(0.015625)"/>
       <path id="ArialMT-72" d="M 416 0 
L 416 3319 
L 922 3319 
L 922 2816 
Q 1116 3169 1280 3281 
Q 1444 3394 1641 3394 
Q 1925 3394 2219 3213 
L 2025 2691 
Q 1819 2813 1613 2813 
Q 1428 2813 1281 2702 
Q 1134 2591 1072 2394 
Q 978 2094 978 1738 
L 978 0 
L 416 0 
z
" transform="scale(0.015625)"/>
       <path id="ArialMT-6c" d="M 409 0 
L 409 4581 
L 972 4581 
L 972 0 
L 409 0 
z
" transform="scale(0.015625)"/>
       <path id="ArialMT-61" d="M 2588 409 
Q 2275 144 1986 34 
Q 1697 -75 1366 -75 
Q 819 -75 525 192 
Q 231 459 231 875 
Q 231 1119 342 1320 
Q 453 1522 633 1644 
Q 813 1766 1038 1828 
Q 1203 1872 1538 1913 
Q 2219 1994 2541 2106 
Q 2544 2222 2544 2253 
Q 2544 2597 2384 2738 
Q 2169 2928 1744 2928 
Q 1347 2928 1158 2789 
Q 969 2650 878 2297 
L 328 2372 
Q 403 2725 575 2942 
Q 747 3159 1072 3276 
Q 1397 3394 1825 3394 
Q 2250 3394 2515 3294 
Q 2781 3194 2906 3042 
Q 3031 2891 3081 2659 
Q 3109 2516 3109 2141 
L 3109 1391 
Q 3109 606 3145 398 
Q 3181 191 3288 0 
L 2700 0 
Q 2613 175 2588 409 
z
M 2541 1666 
Q 2234 1541 1622 1453 
Q 1275 1403 1131 1340 
Q 988 1278 909 1158 
Q 831 1038 831 891 
Q 831 666 1001 516 
Q 1172 366 1500 366 
Q 1825 366 2078 508 
Q 2331 650 2450 897 
Q 2541 1088 2541 1459 
L 2541 1666 
z
" transform="scale(0.015625)"/>
       <path id="ArialMT-70" d="M 422 -1272 
L 422 3319 
L 934 3319 
L 934 2888 
Q 1116 3141 1344 3267 
Q 1572 3394 1897 3394 
Q 2322 3394 2647 3175 
Q 2972 2956 3137 2557 
Q 3303 2159 3303 1684 
Q 3303 1175 3120 767 
Q 2938 359 2589 142 
Q 2241 -75 1856 -75 
Q 1575 -75 1351 44 
Q 1128 163 984 344 
L 984 -1272 
L 422 -1272 
z
M 931 1641 
Q 931 1000 1190 694 
Q 1450 388 1819 388 
Q 2194 388 2461 705 
Q 2728 1022 2728 1688 
Q 2728 2322 2467 2637 
Q 2206 2953 1844 2953 
Q 1484 2953 1207 2617 
Q 931 2281 931 1641 
z
" transform="scale(0.015625)"/>
      </defs>
      <use xlink:href="#ArialMT-4f"/>
      <use xlink:href="#ArialMT-76" x="77.783203"/>
      <use xlink:href="#ArialMT-65" x="127.783203"/>
      <use xlink:href="#ArialMT-72" x="183.398438"/>
      <use xlink:href="#ArialMT-6c" x="216.699219"/>
      <use xlink:href="#ArialMT-61" x="238.916016"/>
      <use xlink:href="#ArialMT-70" x="294.53125"/>
     </g>
    </g>
   </g>
   <g id="PolyCollection_1">
    <defs>
     <path id="m69b1db4d80" d="M 123.339687 -257.662275 
L 123.339687 -221.44612 
L 127.60724 -220.310852 
L 131.874793 -221.774497 
L 136.142345 -221.778018 
L 140.409898 -221.646081 
L 144.677451 -222.743593 
L 148.945003 -223.31783 
L 153.212556 -223.377453 
L 157.480109 -223.902213 
L 161.747661 -224.464382 
L 166.015214 -225.279914 
L 170.282766 -225.462203 
L 174.550319 -226.033314 
L 178.817872 -226.797702 
L 183.085424 -227.906782 
L 187.352977 -228.012175 
L 191.62053 -227.817403 
L 195.888082 -228.887692 
L 200.155635 -229.784828 
L 204.423188 -230.214755 
L 208.69074 -230.860416 
L 212.958293 -231.333442 
L 217.225845 -232.399325 
L 221.493398 -231.460889 
L 225.760951 -231.165893 
L 230.028503 -231.106394 
L 234.296056 -230.272327 
L 238.563609 -230.521099 
L 242.831161 -230.020312 
L 247.098714 -229.924247 
L 251.366266 -228.719831 
L 255.633819 -227.949494 
L 259.901372 -228.50394 
L 264.168924 -228.032537 
L 268.436477 -226.55761 
L 272.70403 -225.246864 
L 276.971582 -224.820206 
L 281.239135 -224.388645 
L 285.506687 -224.587629 
L 289.77424 -224.454123 
L 294.041793 -222.948658 
L 298.309345 -222.051793 
L 302.576898 -221.663553 
L 306.844451 -220.195563 
L 311.112003 -219.226022 
L 315.379556 -219.751163 
L 319.647109 -219.482887 
L 323.914661 -218.497939 
L 328.182214 -219.918487 
L 332.449766 -219.621336 
L 336.717319 -218.370374 
L 340.984872 -218.846712 
L 345.252424 -217.680223 
L 349.519977 -217.168992 
L 353.78753 -216.792861 
L 358.055082 -216.096713 
L 362.322635 -215.760369 
L 366.590188 -216.232732 
L 370.85774 -215.869396 
L 375.125293 -215.994306 
L 379.392845 -214.496345 
L 383.660398 -214.484219 
L 387.927951 -213.824104 
L 392.195503 -212.387215 
L 396.463056 -212.631893 
L 400.730609 -211.710873 
L 404.998161 -210.377971 
L 409.265714 -209.586525 
L 413.533266 -208.472224 
L 417.800819 -208.413534 
L 422.068372 -207.065206 
L 426.335924 -206.626025 
L 430.603477 -206.911137 
L 434.87103 -205.981188 
L 439.138582 -205.898151 
L 443.406135 -206.245569 
L 447.673688 -203.665836 
L 451.94124 -203.678191 
L 456.208793 -203.732052 
L 460.476345 -201.715754 
L 464.743898 -200.800701 
L 469.011451 -200.292585 
L 473.279003 -199.795495 
L 477.546556 -200.591257 
L 481.814109 -199.933683 
L 486.081661 -200.138144 
L 490.349214 -199.328438 
L 494.616766 -198.969439 
L 498.884319 -198.743406 
L 503.151872 -197.745421 
L 507.419424 -197.935032 
L 511.686977 -198.593777 
L 515.95453 -197.258844 
L 520.222082 -198.262438 
L 524.489635 -197.219476 
L 528.757188 -196.999267 
L 533.02474 -195.863574 
L 537.292293 -195.94619 
L 541.559845 -194.413609 
L 545.827398 -194.727768 
L 550.094951 -193.835371 
L 554.362503 -192.941675 
L 558.630056 -193.124322 
L 562.897609 -191.960284 
L 567.165161 -191.656943 
L 571.432714 -191.650652 
L 575.700266 -191.167195 
L 579.967819 -191.006175 
L 584.235372 -191.762111 
L 588.502924 -191.944575 
L 592.770477 -191.802631 
L 597.03803 -193.333174 
L 601.305582 -193.264914 
L 605.573135 -193.014175 
L 609.840688 -193.054596 
L 609.840688 -220.092205 
L 609.840688 -220.092205 
L 605.573135 -219.611791 
L 601.305582 -219.980936 
L 597.03803 -219.443327 
L 592.770477 -218.510484 
L 588.502924 -218.308244 
L 584.235372 -217.700183 
L 579.967819 -218.542663 
L 575.700266 -218.689753 
L 571.432714 -219.985247 
L 567.165161 -219.907063 
L 562.897609 -220.741581 
L 558.630056 -222.048349 
L 554.362503 -220.493882 
L 550.094951 -222.149809 
L 545.827398 -224.225749 
L 541.559845 -223.266939 
L 537.292293 -225.69811 
L 533.02474 -225.677151 
L 528.757188 -227.619677 
L 524.489635 -227.062395 
L 520.222082 -228.018805 
L 515.95453 -226.645519 
L 511.686977 -228.521923 
L 507.419424 -226.822609 
L 503.151872 -227.435634 
L 498.884319 -229.164636 
L 494.616766 -229.428232 
L 490.349214 -229.424477 
L 486.081661 -229.927033 
L 481.814109 -229.818457 
L 477.546556 -229.974735 
L 473.279003 -228.84041 
L 469.011451 -229.154204 
L 464.743898 -229.024468 
L 460.476345 -229.399125 
L 456.208793 -231.709896 
L 451.94124 -231.395575 
L 447.673688 -231.686669 
L 443.406135 -234.785241 
L 439.138582 -234.718594 
L 434.87103 -235.444595 
L 430.603477 -237.894146 
L 426.335924 -237.768836 
L 422.068372 -237.549778 
L 417.800819 -240.510861 
L 413.533266 -240.215265 
L 409.265714 -243.158198 
L 404.998161 -243.3179 
L 400.730609 -245.436576 
L 396.463056 -246.102208 
L 392.195503 -245.363132 
L 387.927951 -246.267985 
L 383.660398 -247.264356 
L 379.392845 -247.634616 
L 375.125293 -249.971739 
L 370.85774 -249.365483 
L 366.590188 -250.49761 
L 362.322635 -249.563416 
L 358.055082 -250.929913 
L 353.78753 -252.649232 
L 349.519977 -252.783891 
L 345.252424 -254.104267 
L 340.984872 -256.408581 
L 336.717319 -255.466969 
L 332.449766 -257.169613 
L 328.182214 -257.572869 
L 323.914661 -255.507278 
L 319.647109 -256.624008 
L 315.379556 -257.628693 
L 311.112003 -257.518325 
L 306.844451 -257.678178 
L 302.576898 -260.333543 
L 298.309345 -259.791452 
L 294.041793 -261.699643 
L 289.77424 -264.487471 
L 285.506687 -264.752174 
L 281.239135 -264.368118 
L 276.971582 -265.937538 
L 272.70403 -267.127981 
L 268.436477 -268.496462 
L 264.168924 -270.015402 
L 259.901372 -270.026589 
L 255.633819 -270.033838 
L 251.366266 -271.130659 
L 247.098714 -272.949926 
L 242.831161 -272.882578 
L 238.563609 -273.825914 
L 234.296056 -272.524135 
L 230.028503 -274.696281 
L 225.760951 -274.916758 
L 221.493398 -275.291726 
L 217.225845 -276.162827 
L 212.958293 -274.380862 
L 208.69074 -273.409915 
L 204.423188 -272.005044 
L 200.155635 -271.067813 
L 195.888082 -269.675173 
L 191.62053 -268.25756 
L 187.352977 -267.768527 
L 183.085424 -267.576419 
L 178.817872 -266.133752 
L 174.550319 -264.6144 
L 170.282766 -264.172188 
L 166.015214 -263.364849 
L 161.747661 -262.961994 
L 157.480109 -261.392688 
L 153.212556 -260.903516 
L 148.945003 -260.804773 
L 144.677451 -259.291183 
L 140.409898 -258.839324 
L 136.142345 -257.736981 
L 131.874793 -258.660161 
L 127.60724 -256.000111 
L 123.339687 -257.662275 
z
" style="stroke: #ff7c00; stroke-opacity: 0.25; stroke-width: 2"/>
    </defs>
    <g clip-path="url(#p1e1d45f5f5)">
     <use xlink:href="#m69b1db4d80" x="0" y="311.04" style="fill: #ff7c00; fill-opacity: 0.25; stroke: #ff7c00; stroke-opacity: 0.25; stroke-width: 2"/>
    </g>
   </g>
   <g id="patch_3">
    <path d="M 174.016875 222.977813 
L 174.016875 25.92 
L 199.355469 25.92 
L 199.355469 222.977813 
z
" clip-path="url(#p1e1d45f5f5)" style="fill: #0000ff; opacity: 0.1; stroke: #0000ff; stroke-width: 2; stroke-linejoin: miter"/>
   </g>
   <g id="patch_4">
    <path d="M 224.694063 222.977813 
L 224.694063 25.92 
L 250.032656 25.92 
L 250.032656 222.977813 
z
" clip-path="url(#p1e1d45f5f5)" style="fill: #0000ff; opacity: 0.1; stroke: #0000ff; stroke-width: 2; stroke-linejoin: miter"/>
   </g>
   <g id="patch_5">
    <path d="M 351.387031 222.977813 
L 351.387031 25.92 
L 376.725625 25.92 
L 376.725625 222.977813 
z
" clip-path="url(#p1e1d45f5f5)" style="fill: #0000ff; opacity: 0.1; stroke: #0000ff; stroke-width: 2; stroke-linejoin: miter"/>
   </g>
   <g id="patch_6">
    <path d="M 275.37125 222.977813 
L 275.37125 25.92 
L 300.709844 25.92 
L 300.709844 222.977813 
z
" clip-path="url(#p1e1d45f5f5)" style="fill: #008000; opacity: 0.1; stroke: #008000; stroke-width: 2; stroke-linejoin: miter"/>
   </g>
   <g id="line2d_7">
    <path d="M 123.339687 70.749925 
L 127.60724 72.665747 
L 131.874793 70.000659 
L 136.142345 70.924414 
L 140.409898 71.012607 
L 144.677451 69.250087 
L 148.945003 68.985352 
L 153.212556 67.818779 
L 157.480109 66.480655 
L 161.747661 64.677407 
L 166.015214 63.99812 
L 170.282766 62.795874 
L 174.550319 63.136453 
L 178.817872 61.514761 
L 183.085424 59.364716 
L 187.352977 58.344636 
L 191.62053 58.728609 
L 195.888082 59.165101 
L 200.155635 59.28733 
L 204.423188 58.077788 
L 208.69074 57.308584 
L 212.958293 56.55894 
L 217.225845 55.537279 
L 221.493398 57.899237 
L 225.760951 57.475111 
L 230.028503 57.510204 
L 234.296056 59.824456 
L 238.563609 59.644028 
L 242.831161 59.383805 
L 247.098714 60.267563 
L 251.366266 62.802843 
L 255.633819 62.700821 
L 259.901372 62.772274 
L 264.168924 62.224343 
L 268.436477 64.127424 
L 272.70403 65.978658 
L 276.971582 67.345977 
L 281.239135 67.801096 
L 285.506687 67.991932 
L 289.77424 68.53316 
L 294.041793 70.049608 
L 298.309345 71.891324 
L 302.576898 70.360218 
L 306.844451 74.312183 
L 311.112003 73.500406 
L 315.379556 72.771934 
L 319.647109 71.883898 
L 323.914661 74.010287 
L 328.182214 71.939751 
L 332.449766 73.633804 
L 336.717319 74.586744 
L 340.984872 72.698353 
L 345.252424 76.12499 
L 349.519977 75.844286 
L 353.78753 75.310578 
L 358.055082 75.558634 
L 362.322635 76.296456 
L 366.590188 72.161248 
L 370.85774 73.587907 
L 375.125293 73.593017 
L 379.392845 76.88061 
L 383.660398 78.167159 
L 387.927951 81.671812 
L 392.195503 83.793461 
L 396.463056 83.597195 
L 400.730609 87.134739 
L 404.998161 89.398142 
L 409.265714 90.017574 
L 413.533266 91.158077 
L 417.800819 91.10136 
L 422.068372 92.821674 
L 426.335924 92.532099 
L 430.603477 92.256676 
L 434.87103 93.114618 
L 439.138582 92.676968 
L 443.406135 92.146398 
L 447.673688 92.865539 
L 451.94124 93.339002 
L 456.208793 92.596087 
L 460.476345 93.754175 
L 464.743898 96.040519 
L 469.011451 96.489221 
L 473.279003 96.042521 
L 477.546556 98.023336 
L 481.814109 97.969253 
L 486.081661 98.883032 
L 490.349214 98.567434 
L 494.616766 99.657409 
L 498.884319 99.997667 
L 503.151872 101.173577 
L 505 101.026147 
" clip-path="url(#p1e1d45f5f5)" style="fill: none; stroke-dasharray: 11.1,4.8; stroke-dashoffset: 0; stroke: #1f77b4; stroke-width: 3"/>
   </g>
   <g id="line2d_8">
    <path d="M 123.339687 198.628148 
L 127.60724 197.903785 
L 131.874793 198.959097 
L 136.142345 198.694768 
L 140.409898 200.163875 
L 144.677451 200.184828 
L 148.945003 201.584182 
L 153.212556 200.711265 
L 157.480109 201.000824 
L 161.747661 201.392343 
L 166.015214 201.911259 
L 170.282766 201.517452 
L 174.550319 202.621337 
L 178.817872 203.306409 
L 183.085424 203.674582 
L 187.352977 203.092367 
L 191.62053 203.984955 
L 195.888082 207.133982 
L 200.155635 209.076763 
L 204.423188 209.655432 
L 208.69074 211.268473 
L 212.958293 212.002999 
L 217.225845 213.542952 
L 221.493398 214.020639 
L 225.760951 212.495459 
L 230.028503 212.338261 
L 234.296056 211.103301 
L 238.563609 212.857899 
L 242.831161 211.527949 
L 247.098714 212.001293 
L 251.366266 211.936524 
L 255.633819 209.812984 
L 259.901372 209.80263 
L 264.168924 209.245215 
L 268.436477 208.135779 
L 272.70403 207.449504 
L 276.971582 207.313502 
L 281.239135 205.177934 
L 285.506687 205.514948 
L 289.77424 205.850988 
L 294.041793 202.697788 
L 298.309345 201.645014 
L 302.576898 201.189228 
L 306.844451 200.208847 
L 311.112003 198.641206 
L 315.379556 198.446141 
L 319.647109 196.408237 
L 323.914661 195.524931 
L 328.182214 197.489924 
L 332.449766 197.958364 
L 336.717319 197.058642 
L 340.984872 196.274557 
L 345.252424 196.159579 
L 349.519977 194.084233 
L 353.78753 193.049045 
L 358.055082 190.751699 
L 362.322635 189.441214 
L 366.590188 187.507972 
L 370.85774 186.53179 
L 375.125293 187.194617 
L 379.392845 186.718833 
L 383.660398 187.769946 
L 387.927951 189.634098 
L 392.195503 189.448631 
L 396.463056 189.973194 
L 400.730609 192.421921 
L 404.998161 190.339566 
L 409.265714 189.964954 
L 413.533266 186.429136 
L 417.800819 185.962367 
L 422.068372 184.275542 
L 426.335924 183.907571 
L 430.603477 183.764769 
L 434.87103 181.004683 
L 439.138582 180.074988 
L 443.406135 179.925786 
L 447.673688 175.420246 
L 451.94124 175.264942 
L 456.208793 174.49545 
L 460.476345 172.035865 
L 464.743898 172.882356 
L 469.011451 173.201624 
L 473.279003 172.015468 
L 477.546556 175.426556 
L 481.814109 174.39117 
L 486.081661 174.864112 
L 490.349214 173.745948 
L 494.616766 174.799834 
L 498.884319 174.391089 
L 503.151872 172.874037 
L 505 172.515896 
" clip-path="url(#p1e1d45f5f5)" style="fill: none; stroke-dasharray: 11.1,4.8; stroke-dashoffset: 0; stroke: #ff7f0e; stroke-width: 3"/>
   </g>
   <g id="line2d_9">
    <path d="M 123.339687 70.716547 
L 127.60724 72.03664 
L 131.874793 70.176439 
L 136.142345 70.770481 
L 140.409898 70.080024 
L 144.677451 69.188288 
L 148.945003 68.356243 
L 153.212556 68.209415 
L 157.480109 67.395574 
L 161.747661 66.29819 
L 166.015214 65.699089 
L 170.282766 65.294869 
L 174.550319 64.913216 
L 178.817872 63.759834 
L 183.085424 62.500725 
L 187.352977 62.281793 
L 191.62053 62.027485 
L 195.888082 60.671218 
L 200.155635 59.760942 
L 204.423188 58.866836 
L 208.69074 57.675714 
L 212.958293 56.933629 
L 217.225845 55.652822 
L 221.493398 56.594957 
L 225.760951 57.145484 
L 230.028503 57.24163 
L 234.296056 59.016235 
L 238.563609 58.048723 
L 242.831161 58.583586 
L 247.098714 58.788793 
L 251.366266 60.088818 
L 255.633819 61.099577 
L 259.901372 61.14048 
L 264.168924 61.145222 
L 268.436477 62.65148 
L 272.70403 63.920235 
L 276.971582 64.671895 
L 281.239135 65.967239 
L 285.506687 65.894151 
L 289.77424 65.996744 
L 294.041793 68.331569 
L 298.309345 69.778813 
L 302.576898 69.241153 
L 306.844451 71.707326 
L 311.112003 72.085258 
L 315.379556 71.818555 
L 319.647109 72.393488 
L 323.914661 73.898336 
L 328.182214 71.880572 
L 332.449766 72.493378 
L 336.717319 73.41971 
L 340.984872 72.867556 
L 345.252424 74.638364 
L 349.519977 75.535685 
L 353.78753 75.786425 
L 358.055082 77.059126 
L 362.322635 78.083279 
L 366.590188 76.982296 
L 370.85774 78.183717 
L 375.125293 77.854859 
L 379.392845 79.736547 
L 383.660398 79.854265 
L 387.927951 80.674515 
L 392.195503 81.828073 
L 396.463056 81.467659 
L 400.730609 82.012068 
L 404.998161 84.184946 
L 409.265714 84.681968 
L 413.533266 87.020129 
L 417.800819 87.225155 
L 422.068372 88.928724 
L 426.335924 88.967923 
L 430.603477 88.901612 
L 434.87103 90.710626 
L 439.138582 90.956648 
L 443.406135 90.765964 
L 447.673688 93.378305 
L 451.94124 93.692688 
L 456.208793 93.705977 
L 460.476345 95.514813 
L 464.743898 96.23474 
L 469.011451 96.299457 
L 473.279003 96.669185 
L 477.546556 95.954048 
L 481.814109 96.4447 
L 486.081661 96.665118 
L 490.349214 97.066402 
L 494.616766 97.084446 
L 498.884319 97.458947 
L 503.151872 98.805428 
L 505 98.910784 
" clip-path="url(#p1e1d45f5f5)" style="fill: none; stroke: #ff7c00; stroke-width: 3; stroke-linecap: round"/>
   </g>
   <g id="line2d_10">
    <path d="M 123.339687 134.655658 
L 505 134.655658 
" clip-path="url(#p1e1d45f5f5)" style="fill: none; stroke-dasharray: 11.1,4.8; stroke-dashoffset: 0; stroke: #000000; stroke-width: 3"/>
   </g>
   <g id="patch_7">
    <path d="M 123.339687 222.977813 
L 123.339687 25.92 
" style="fill: none; stroke: #262626; stroke-width: 2.5; stroke-linejoin: miter; stroke-linecap: square"/>
   </g>
   <g id="patch_8">
    <path d="M 123.339687 222.977813 
L 478.08 222.977813 
" style="fill: none; stroke: #262626; stroke-width: 2.5; stroke-linejoin: miter; stroke-linecap: square"/>
   </g>
  </g>
 </g>
 <defs>
  <clipPath id="p1e1d45f5f5">
   <rect x="123.339687" y="25.92" width="354.740313" height="197.057813"/>
  </clipPath>
 </defs>
</svg>
