<?xml version="1.0" encoding="utf-8" standalone="no"?>
<!DOCTYPE svg PUBLIC "-//W3C//DTD SVG 1.1//EN"
  "http://www.w3.org/Graphics/SVG/1.1/DTD/svg11.dtd">
<svg xmlns:xlink="http://www.w3.org/1999/xlink" width="576pt" height="355.68pt" viewBox="0 0 576 355.68" xmlns="http://www.w3.org/2000/svg" version="1.1">
 <metadata>
  <rdf:RDF xmlns:dc="http://purl.org/dc/elements/1.1/" xmlns:cc="http://creativecommons.org/ns#" xmlns:rdf="http://www.w3.org/1999/02/22-rdf-syntax-ns#">
   <cc:Work>
    <dc:type rdf:resource="http://purl.org/dc/dcmitype/StillImage"/>
    <dc:date>2023-07-17T14:36:43.800694</dc:date>
    <dc:format>image/svg+xml</dc:format>
    <dc:creator>
     <cc:Agent>
      <dc:title>Matplotlib v3.7.2, https://matplotlib.org/</dc:title>
     </cc:Agent>
    </dc:creator>
   </cc:Work>
  </rdf:RDF>
 </metadata>
 <defs>
  <style type="text/css">*{stroke-linejoin: round; stroke-linecap: butt}</style>
 </defs>
 <g id="figure_1">
  <g id="patch_1">
   <path d="M 0 355.68 
L 576 355.68 
L 576 0 
L 0 0 
z
" style="fill: #ffffff"/>
  </g>
  <g id="axes_1">
   <g id="patch_2">
    <path d="M 147.807813 267.617813 
L 550.08 267.617813 
L 550.08 25.92 
L 147.807813 25.92 
z
" style="fill: #ffffff"/>
   </g>
   <g id="matplotlib.axis_1">
    <g id="xtick_1">
     <g id="line2d_1">
      <defs>
       <path id="m772b3b40a5" d="M 0 0 
L 0 12 
" style="stroke: #262626; stroke-width: 2.5"/>
      </defs>
      <g>
       <use xlink:href="#m772b3b40a5" x="147.807813" y="267.617813" style="fill: #262626; stroke: #262626; stroke-width: 2.5"/>
      </g>
     </g>
     <g id="text_1">
      <!-- 0.0 -->
      <g style="fill: #262626" transform="translate(132.517813 298.865) scale(0.22 -0.22)">
       <defs>
        <path id="ArialMT-30" d="M 266 2259 
Q 266 3072 433 3567 
Q 600 4063 929 4331 
Q 1259 4600 1759 4600 
Q 2128 4600 2406 4451 
Q 2684 4303 2865 4023 
Q 3047 3744 3150 3342 
Q 3253 2941 3253 2259 
Q 3253 1453 3087 958 
Q 2922 463 2592 192 
Q 2263 -78 1759 -78 
Q 1097 -78 719 397 
Q 266 969 266 2259 
z
M 844 2259 
Q 844 1131 1108 757 
Q 1372 384 1759 384 
Q 2147 384 2411 759 
Q 2675 1134 2675 2259 
Q 2675 3391 2411 3762 
Q 2147 4134 1753 4134 
Q 1366 4134 1134 3806 
Q 844 3388 844 2259 
z
" transform="scale(0.015625)"/>
        <path id="ArialMT-2e" d="M 581 0 
L 581 641 
L 1222 641 
L 1222 0 
L 581 0 
z
" transform="scale(0.015625)"/>
       </defs>
       <use xlink:href="#ArialMT-30"/>
       <use xlink:href="#ArialMT-2e" x="55.615234"/>
       <use xlink:href="#ArialMT-30" x="83.398438"/>
      </g>
     </g>
    </g>
    <g id="xtick_2">
     <g id="line2d_2">
      <g>
       <use xlink:href="#m772b3b40a5" x="219.642132" y="267.617813" style="fill: #262626; stroke: #262626; stroke-width: 2.5"/>
      </g>
     </g>
     <g id="text_2">
      <!-- 2.5 -->
      <g style="fill: #262626" transform="translate(204.352132 298.865) scale(0.22 -0.22)">
       <defs>
        <path id="ArialMT-32" d="M 3222 541 
L 3222 0 
L 194 0 
Q 188 203 259 391 
Q 375 700 629 1000 
Q 884 1300 1366 1694 
Q 2113 2306 2375 2664 
Q 2638 3022 2638 3341 
Q 2638 3675 2398 3904 
Q 2159 4134 1775 4134 
Q 1369 4134 1125 3890 
Q 881 3647 878 3216 
L 300 3275 
Q 359 3922 746 4261 
Q 1134 4600 1788 4600 
Q 2447 4600 2831 4234 
Q 3216 3869 3216 3328 
Q 3216 3053 3103 2787 
Q 2991 2522 2730 2228 
Q 2469 1934 1863 1422 
Q 1356 997 1212 845 
Q 1069 694 975 541 
L 3222 541 
z
" transform="scale(0.015625)"/>
        <path id="ArialMT-35" d="M 266 1200 
L 856 1250 
Q 922 819 1161 601 
Q 1400 384 1738 384 
Q 2144 384 2425 690 
Q 2706 997 2706 1503 
Q 2706 1984 2436 2262 
Q 2166 2541 1728 2541 
Q 1456 2541 1237 2417 
Q 1019 2294 894 2097 
L 366 2166 
L 809 4519 
L 3088 4519 
L 3088 3981 
L 1259 3981 
L 1013 2750 
Q 1425 3038 1878 3038 
Q 2478 3038 2890 2622 
Q 3303 2206 3303 1553 
Q 3303 931 2941 478 
Q 2500 -78 1738 -78 
Q 1113 -78 717 272 
Q 322 622 266 1200 
z
" transform="scale(0.015625)"/>
       </defs>
       <use xlink:href="#ArialMT-32"/>
       <use xlink:href="#ArialMT-2e" x="55.615234"/>
       <use xlink:href="#ArialMT-35" x="83.398438"/>
      </g>
     </g>
    </g>
    <g id="xtick_3">
     <g id="line2d_3">
      <g>
       <use xlink:href="#m772b3b40a5" x="291.476451" y="267.617813" style="fill: #262626; stroke: #262626; stroke-width: 2.5"/>
      </g>
     </g>
     <g id="text_3">
      <!-- 5.0 -->
      <g style="fill: #262626" transform="translate(276.186451 298.865) scale(0.22 -0.22)">
       <use xlink:href="#ArialMT-35"/>
       <use xlink:href="#ArialMT-2e" x="55.615234"/>
       <use xlink:href="#ArialMT-30" x="83.398438"/>
      </g>
     </g>
    </g>
    <g id="xtick_4">
     <g id="line2d_4">
      <g>
       <use xlink:href="#m772b3b40a5" x="363.31077" y="267.617813" style="fill: #262626; stroke: #262626; stroke-width: 2.5"/>
      </g>
     </g>
     <g id="text_4">
      <!-- 7.5 -->
      <g style="fill: #262626" transform="translate(348.02077 298.865) scale(0.22 -0.22)">
       <defs>
        <path id="ArialMT-37" d="M 303 3981 
L 303 4522 
L 3269 4522 
L 3269 4084 
Q 2831 3619 2401 2847 
Q 1972 2075 1738 1259 
Q 1569 684 1522 0 
L 944 0 
Q 953 541 1156 1306 
Q 1359 2072 1739 2783 
Q 2119 3494 2547 3981 
L 303 3981 
z
" transform="scale(0.015625)"/>
       </defs>
       <use xlink:href="#ArialMT-37"/>
       <use xlink:href="#ArialMT-2e" x="55.615234"/>
       <use xlink:href="#ArialMT-35" x="83.398438"/>
      </g>
     </g>
    </g>
    <g id="xtick_5">
     <g id="line2d_5">
      <g>
       <use xlink:href="#m772b3b40a5" x="435.145089" y="267.617813" style="fill: #262626; stroke: #262626; stroke-width: 2.5"/>
      </g>
     </g>
     <g id="text_5">
      <!-- 10.0 -->
      <g style="fill: #262626" transform="translate(413.738058 298.865) scale(0.22 -0.22)">
       <defs>
        <path id="ArialMT-31" d="M 2384 0 
L 1822 0 
L 1822 3584 
Q 1619 3391 1289 3197 
Q 959 3003 697 2906 
L 697 3450 
Q 1169 3672 1522 3987 
Q 1875 4303 2022 4600 
L 2384 4600 
L 2384 0 
z
" transform="scale(0.015625)"/>
       </defs>
       <use xlink:href="#ArialMT-31"/>
       <use xlink:href="#ArialMT-30" x="55.615234"/>
       <use xlink:href="#ArialMT-2e" x="111.230469"/>
       <use xlink:href="#ArialMT-30" x="139.013672"/>
      </g>
     </g>
    </g>
    <g id="xtick_6">
     <g id="line2d_6">
      <g>
       <use xlink:href="#m772b3b40a5" x="506.979408" y="267.617813" style="fill: #262626; stroke: #262626; stroke-width: 2.5"/>
      </g>
     </g>
     <g id="text_6">
      <!-- 12.5 -->
      <g style="fill: #262626" transform="translate(485.572377 298.865) scale(0.22 -0.22)">
       <use xlink:href="#ArialMT-31"/>
       <use xlink:href="#ArialMT-32" x="55.615234"/>
       <use xlink:href="#ArialMT-2e" x="111.230469"/>
       <use xlink:href="#ArialMT-35" x="139.013672"/>
      </g>
     </g>
    </g>
    <g id="text_7">
     <!-- Time (s) -->
     <g style="fill: #262626" transform="translate(305.404531 324.70875) scale(0.24 -0.24)">
      <defs>
       <path id="ArialMT-54" d="M 1659 0 
L 1659 4041 
L 150 4041 
L 150 4581 
L 3781 4581 
L 3781 4041 
L 2266 4041 
L 2266 0 
L 1659 0 
z
" transform="scale(0.015625)"/>
       <path id="ArialMT-69" d="M 425 3934 
L 425 4581 
L 988 4581 
L 988 3934 
L 425 3934 
z
M 425 0 
L 425 3319 
L 988 3319 
L 988 0 
L 425 0 
z
" transform="scale(0.015625)"/>
       <path id="ArialMT-6d" d="M 422 0 
L 422 3319 
L 925 3319 
L 925 2853 
Q 1081 3097 1340 3245 
Q 1600 3394 1931 3394 
Q 2300 3394 2536 3241 
Q 2772 3088 2869 2813 
Q 3263 3394 3894 3394 
Q 4388 3394 4653 3120 
Q 4919 2847 4919 2278 
L 4919 0 
L 4359 0 
L 4359 2091 
Q 4359 2428 4304 2576 
Q 4250 2725 4106 2815 
Q 3963 2906 3769 2906 
Q 3419 2906 3187 2673 
Q 2956 2441 2956 1928 
L 2956 0 
L 2394 0 
L 2394 2156 
Q 2394 2531 2256 2718 
Q 2119 2906 1806 2906 
Q 1569 2906 1367 2781 
Q 1166 2656 1075 2415 
Q 984 2175 984 1722 
L 984 0 
L 422 0 
z
" transform="scale(0.015625)"/>
       <path id="ArialMT-65" d="M 2694 1069 
L 3275 997 
Q 3138 488 2766 206 
Q 2394 -75 1816 -75 
Q 1088 -75 661 373 
Q 234 822 234 1631 
Q 234 2469 665 2931 
Q 1097 3394 1784 3394 
Q 2450 3394 2872 2941 
Q 3294 2488 3294 1666 
Q 3294 1616 3291 1516 
L 816 1516 
Q 847 969 1125 678 
Q 1403 388 1819 388 
Q 2128 388 2347 550 
Q 2566 713 2694 1069 
z
M 847 1978 
L 2700 1978 
Q 2663 2397 2488 2606 
Q 2219 2931 1791 2931 
Q 1403 2931 1139 2672 
Q 875 2413 847 1978 
z
" transform="scale(0.015625)"/>
       <path id="ArialMT-20" transform="scale(0.015625)"/>
       <path id="ArialMT-28" d="M 1497 -1347 
Q 1031 -759 709 28 
Q 388 816 388 1659 
Q 388 2403 628 3084 
Q 909 3875 1497 4659 
L 1900 4659 
Q 1522 4009 1400 3731 
Q 1209 3300 1100 2831 
Q 966 2247 966 1656 
Q 966 153 1900 -1347 
L 1497 -1347 
z
" transform="scale(0.015625)"/>
       <path id="ArialMT-73" d="M 197 991 
L 753 1078 
Q 800 744 1014 566 
Q 1228 388 1613 388 
Q 2000 388 2187 545 
Q 2375 703 2375 916 
Q 2375 1106 2209 1216 
Q 2094 1291 1634 1406 
Q 1016 1563 777 1677 
Q 538 1791 414 1992 
Q 291 2194 291 2438 
Q 291 2659 392 2848 
Q 494 3038 669 3163 
Q 800 3259 1026 3326 
Q 1253 3394 1513 3394 
Q 1903 3394 2198 3281 
Q 2494 3169 2634 2976 
Q 2775 2784 2828 2463 
L 2278 2388 
Q 2241 2644 2061 2787 
Q 1881 2931 1553 2931 
Q 1166 2931 1000 2803 
Q 834 2675 834 2503 
Q 834 2394 903 2306 
Q 972 2216 1119 2156 
Q 1203 2125 1616 2013 
Q 2213 1853 2448 1751 
Q 2684 1650 2818 1456 
Q 2953 1263 2953 975 
Q 2953 694 2789 445 
Q 2625 197 2315 61 
Q 2006 -75 1616 -75 
Q 969 -75 630 194 
Q 291 463 197 991 
z
" transform="scale(0.015625)"/>
       <path id="ArialMT-29" d="M 791 -1347 
L 388 -1347 
Q 1322 153 1322 1656 
Q 1322 2244 1188 2822 
Q 1081 3291 891 3722 
Q 769 4003 388 4659 
L 791 4659 
Q 1378 3875 1659 3084 
Q 1900 2403 1900 1659 
Q 1900 816 1576 28 
Q 1253 -759 791 -1347 
z
" transform="scale(0.015625)"/>
      </defs>
      <use xlink:href="#ArialMT-54"/>
      <use xlink:href="#ArialMT-69" x="57.333984"/>
      <use xlink:href="#ArialMT-6d" x="79.550781"/>
      <use xlink:href="#ArialMT-65" x="162.851562"/>
      <use xlink:href="#ArialMT-20" x="218.466797"/>
      <use xlink:href="#ArialMT-28" x="246.25"/>
      <use xlink:href="#ArialMT-73" x="279.550781"/>
      <use xlink:href="#ArialMT-29" x="329.550781"/>
     </g>
    </g>
   </g>
   <g id="matplotlib.axis_2">
    <g id="ytick_1">
     <g id="line2d_7">
      <defs>
       <path id="m5222ef6c87" d="M 0 0 
L -12 0 
" style="stroke: #262626; stroke-width: 2.5"/>
      </defs>
      <g>
       <use xlink:href="#m5222ef6c87" x="147.807813" y="209.471058" style="fill: #262626; stroke: #262626; stroke-width: 2.5"/>
      </g>
     </g>
     <g id="text_8">
      <!-- −0.001 -->
      <g style="fill: #262626" transform="translate(64.410313 217.344652) scale(0.22 -0.22)">
       <defs>
        <path id="ArialMT-2212" d="M 3381 1997 
L 356 1997 
L 356 2522 
L 3381 2522 
L 3381 1997 
z
" transform="scale(0.015625)"/>
       </defs>
       <use xlink:href="#ArialMT-2212"/>
       <use xlink:href="#ArialMT-30" x="58.398438"/>
       <use xlink:href="#ArialMT-2e" x="114.013672"/>
       <use xlink:href="#ArialMT-30" x="141.796875"/>
       <use xlink:href="#ArialMT-30" x="197.412109"/>
       <use xlink:href="#ArialMT-31" x="253.027344"/>
      </g>
     </g>
    </g>
    <g id="ytick_2">
     <g id="line2d_8">
      <g>
       <use xlink:href="#m5222ef6c87" x="147.807813" y="126.280414" style="fill: #262626; stroke: #262626; stroke-width: 2.5"/>
      </g>
     </g>
     <g id="text_9">
      <!-- 0.000 -->
      <g style="fill: #262626" transform="translate(77.259688 134.154008) scale(0.22 -0.22)">
       <use xlink:href="#ArialMT-30"/>
       <use xlink:href="#ArialMT-2e" x="55.615234"/>
       <use xlink:href="#ArialMT-30" x="83.398438"/>
       <use xlink:href="#ArialMT-30" x="139.013672"/>
       <use xlink:href="#ArialMT-30" x="194.628906"/>
      </g>
     </g>
    </g>
    <g id="ytick_3">
     <g id="line2d_9">
      <g>
       <use xlink:href="#m5222ef6c87" x="147.807813" y="43.08977" style="fill: #262626; stroke: #262626; stroke-width: 2.5"/>
      </g>
     </g>
     <g id="text_10">
      <!-- 0.001 -->
      <g style="fill: #262626" transform="translate(77.259688 50.963364) scale(0.22 -0.22)">
       <use xlink:href="#ArialMT-30"/>
       <use xlink:href="#ArialMT-2e" x="55.615234"/>
       <use xlink:href="#ArialMT-30" x="83.398438"/>
       <use xlink:href="#ArialMT-30" x="139.013672"/>
       <use xlink:href="#ArialMT-31" x="194.628906"/>
      </g>
     </g>
    </g>
    <g id="text_11">
     <!-- Overlap -->
     <g style="fill: #262626" transform="translate(55.640313 188.783906) rotate(-90) scale(0.24 -0.24)">
      <defs>
       <path id="ArialMT-4f" d="M 309 2231 
Q 309 3372 921 4017 
Q 1534 4663 2503 4663 
Q 3138 4663 3647 4359 
Q 4156 4056 4423 3514 
Q 4691 2972 4691 2284 
Q 4691 1588 4409 1038 
Q 4128 488 3612 205 
Q 3097 -78 2500 -78 
Q 1853 -78 1343 234 
Q 834 547 571 1087 
Q 309 1628 309 2231 
z
M 934 2222 
Q 934 1394 1379 917 
Q 1825 441 2497 441 
Q 3181 441 3623 922 
Q 4066 1403 4066 2288 
Q 4066 2847 3877 3264 
Q 3688 3681 3323 3911 
Q 2959 4141 2506 4141 
Q 1863 4141 1398 3698 
Q 934 3256 934 2222 
z
" transform="scale(0.015625)"/>
       <path id="ArialMT-76" d="M 1344 0 
L 81 3319 
L 675 3319 
L 1388 1331 
Q 1503 1009 1600 663 
Q 1675 925 1809 1294 
L 2547 3319 
L 3125 3319 
L 1869 0 
L 1344 0 
z
" transform="scale(0.015625)"/>
       <path id="ArialMT-72" d="M 416 0 
L 416 3319 
L 922 3319 
L 922 2816 
Q 1116 3169 1280 3281 
Q 1444 3394 1641 3394 
Q 1925 3394 2219 3213 
L 2025 2691 
Q 1819 2813 1613 2813 
Q 1428 2813 1281 2702 
Q 1134 2591 1072 2394 
Q 978 2094 978 1738 
L 978 0 
L 416 0 
z
" transform="scale(0.015625)"/>
       <path id="ArialMT-6c" d="M 409 0 
L 409 4581 
L 972 4581 
L 972 0 
L 409 0 
z
" transform="scale(0.015625)"/>
       <path id="ArialMT-61" d="M 2588 409 
Q 2275 144 1986 34 
Q 1697 -75 1366 -75 
Q 819 -75 525 192 
Q 231 459 231 875 
Q 231 1119 342 1320 
Q 453 1522 633 1644 
Q 813 1766 1038 1828 
Q 1203 1872 1538 1913 
Q 2219 1994 2541 2106 
Q 2544 2222 2544 2253 
Q 2544 2597 2384 2738 
Q 2169 2928 1744 2928 
Q 1347 2928 1158 2789 
Q 969 2650 878 2297 
L 328 2372 
Q 403 2725 575 2942 
Q 747 3159 1072 3276 
Q 1397 3394 1825 3394 
Q 2250 3394 2515 3294 
Q 2781 3194 2906 3042 
Q 3031 2891 3081 2659 
Q 3109 2516 3109 2141 
L 3109 1391 
Q 3109 606 3145 398 
Q 3181 191 3288 0 
L 2700 0 
Q 2613 175 2588 409 
z
M 2541 1666 
Q 2234 1541 1622 1453 
Q 1275 1403 1131 1340 
Q 988 1278 909 1158 
Q 831 1038 831 891 
Q 831 666 1001 516 
Q 1172 366 1500 366 
Q 1825 366 2078 508 
Q 2331 650 2450 897 
Q 2541 1088 2541 1459 
L 2541 1666 
z
" transform="scale(0.015625)"/>
       <path id="ArialMT-70" d="M 422 -1272 
L 422 3319 
L 934 3319 
L 934 2888 
Q 1116 3141 1344 3267 
Q 1572 3394 1897 3394 
Q 2322 3394 2647 3175 
Q 2972 2956 3137 2557 
Q 3303 2159 3303 1684 
Q 3303 1175 3120 767 
Q 2938 359 2589 142 
Q 2241 -75 1856 -75 
Q 1575 -75 1351 44 
Q 1128 163 984 344 
L 984 -1272 
L 422 -1272 
z
M 931 1641 
Q 931 1000 1190 694 
Q 1450 388 1819 388 
Q 2194 388 2461 705 
Q 2728 1022 2728 1688 
Q 2728 2322 2467 2637 
Q 2206 2953 1844 2953 
Q 1484 2953 1207 2617 
Q 931 2281 931 1641 
z
" transform="scale(0.015625)"/>
      </defs>
      <use xlink:href="#ArialMT-4f"/>
      <use xlink:href="#ArialMT-76" x="77.783203"/>
      <use xlink:href="#ArialMT-65" x="127.783203"/>
      <use xlink:href="#ArialMT-72" x="183.398438"/>
      <use xlink:href="#ArialMT-6c" x="216.699219"/>
      <use xlink:href="#ArialMT-61" x="238.916016"/>
      <use xlink:href="#ArialMT-70" x="294.53125"/>
     </g>
    </g>
   </g>
   <g id="PolyCollection_1">
    <defs>
     <path id="m8e707e711d" d="M 147.807813 -226.622287 
L 147.807813 -215.201205 
L 152.654465 -218.367254 
L 157.501118 -218.173207 
L 162.347771 -219.586587 
L 167.194424 -222.691582 
L 172.041077 -227.862044 
L 176.88773 -221.01541 
L 181.734383 -228.128474 
L 186.581035 -226.233531 
L 191.427688 -224.481943 
L 196.274341 -230.906741 
L 201.120994 -229.878022 
L 205.967647 -230.07771 
L 210.8143 -230.112876 
L 215.660953 -220.420453 
L 220.507605 -202.434223 
L 225.354258 -195.566027 
L 230.200911 -191.41547 
L 235.047564 -190.789563 
L 239.894217 -190.802995 
L 244.74087 -189.980305 
L 249.587523 -192.441411 
L 254.434175 -199.603012 
L 259.280828 -200.423976 
L 264.127481 -206.359962 
L 268.974134 -208.678449 
L 273.820787 -214.290705 
L 278.66744 -216.83012 
L 283.514093 -218.060231 
L 288.360745 -222.607406 
L 293.207398 -222.684692 
L 298.054051 -228.635915 
L 302.900704 -232.377364 
L 307.747357 -238.316326 
L 312.59401 -240.990961 
L 317.440663 -238.705834 
L 322.287316 -246.711751 
L 327.133968 -243.169284 
L 331.980621 -246.161948 
L 336.827274 -253.040835 
L 341.673927 -257.077481 
L 346.52058 -263.841876 
L 351.367233 -268.178835 
L 356.213886 -264.285567 
L 361.060538 -264.542337 
L 365.907191 -263.270573 
L 370.753844 -267.865457 
L 375.600497 -270.082556 
L 380.44715 -271.109914 
L 385.293803 -271.316157 
L 390.140456 -275.634581 
L 394.987108 -266.000986 
L 399.833761 -272.040247 
L 404.680414 -283.682785 
L 409.527067 -285.652888 
L 414.37372 -279.471905 
L 419.220373 -238.926374 
L 424.067026 -204.087781 
L 428.913678 -163.055675 
L 433.760331 -130.18504 
L 438.606984 -107.259712 
L 443.453637 -99.048452 
L 448.30029 -102.239499 
L 453.146943 -106.850427 
L 457.993596 -111.825391 
L 462.840248 -118.257989 
L 467.686901 -124.358185 
L 472.533554 -128.64284 
L 477.380207 -135.88862 
L 482.22686 -142.328254 
L 487.073513 -140.947193 
L 491.920166 -144.839739 
L 496.766819 -145.431783 
L 501.613471 -141.962334 
L 506.460124 -142.359341 
L 511.306777 -146.237813 
L 516.15343 -148.332695 
L 521.000083 -148.243496 
L 525.846736 -151.819509 
L 530.693389 -157.918194 
L 535.540041 -169.371498 
L 540.386694 -170.748556 
L 545.233347 -173.219326 
L 550.08 -174.667407 
L 550.08 -234.448537 
L 550.08 -234.448537 
L 545.233347 -227.589934 
L 540.386694 -227.217076 
L 535.540041 -223.354457 
L 530.693389 -214.874784 
L 525.846736 -207.053752 
L 521.000083 -201.152751 
L 516.15343 -196.935146 
L 511.306777 -194.102083 
L 506.460124 -188.30393 
L 501.613471 -188.563352 
L 496.766819 -186.405903 
L 491.920166 -186.759929 
L 487.073513 -180.167085 
L 482.22686 -179.183481 
L 477.380207 -175.303029 
L 472.533554 -174.0431 
L 467.686901 -169.636427 
L 462.840248 -165.25376 
L 457.993596 -159.407715 
L 453.146943 -158.623788 
L 448.30029 -160.564443 
L 443.453637 -154.529527 
L 438.606984 -162.379204 
L 433.760331 -172.985444 
L 428.913678 -189.967232 
L 424.067026 -232.04143 
L 419.220373 -272.078716 
L 414.37372 -304.737929 
L 409.527067 -318.773736 
L 404.680414 -315.574259 
L 399.833761 -306.55033 
L 394.987108 -299.617168 
L 390.140456 -304.617588 
L 385.293803 -300.091731 
L 380.44715 -296.336301 
L 375.600497 -294.989405 
L 370.753844 -294.844573 
L 365.907191 -293.08891 
L 361.060538 -297.160792 
L 356.213886 -297.497459 
L 351.367233 -297.885517 
L 346.52058 -297.255221 
L 341.673927 -290.529535 
L 336.827274 -288.170542 
L 331.980621 -280.646961 
L 327.133968 -280.299032 
L 322.287316 -279.571934 
L 317.440663 -270.245861 
L 312.59401 -273.249985 
L 307.747357 -269.354015 
L 302.900704 -267.827982 
L 298.054051 -261.306208 
L 293.207398 -261.011019 
L 288.360745 -261.929959 
L 283.514093 -265.873013 
L 278.66744 -264.029541 
L 273.820787 -254.085467 
L 268.974134 -243.620086 
L 264.127481 -234.022854 
L 259.280828 -229.372167 
L 254.434175 -223.991327 
L 249.587523 -215.882169 
L 244.74087 -217.615335 
L 239.894217 -217.197077 
L 235.047564 -217.802729 
L 230.200911 -225.592242 
L 225.354258 -224.804206 
L 220.507605 -234.763296 
L 215.660953 -247.145265 
L 210.8143 -257.95864 
L 205.967647 -257.55804 
L 201.120994 -249.076311 
L 196.274341 -240.938482 
L 191.427688 -238.04563 
L 186.581035 -236.199033 
L 181.734383 -236.472121 
L 176.88773 -232.932258 
L 172.041077 -236.427242 
L 167.194424 -235.191334 
L 162.347771 -233.461819 
L 157.501118 -228.88793 
L 152.654465 -232.575335 
L 147.807813 -226.622287 
z
" style="stroke: #ff7c00; stroke-opacity: 0.25; stroke-width: 2"/>
    </defs>
    <g clip-path="url(#p3a34eb3fcb)">
     <use xlink:href="#m8e707e711d" x="0" y="355.68" style="fill: #ff7c00; fill-opacity: 0.25; stroke: #ff7c00; stroke-opacity: 0.25; stroke-width: 2"/>
    </g>
   </g>
   <g id="patch_3">
    <path d="M 205.275268 267.617813 
L 205.275268 25.92 
L 234.008996 25.92 
L 234.008996 267.617813 
z
" clip-path="url(#p3a34eb3fcb)" style="fill: #0000ff; opacity: 0.1; stroke: #0000ff; stroke-width: 2; stroke-linejoin: miter"/>
   </g>
   <g id="patch_4">
    <path d="M 277.109587 267.617813 
L 277.109587 25.92 
L 305.843315 25.92 
L 305.843315 267.617813 
z
" clip-path="url(#p3a34eb3fcb)" style="fill: #0000ff; opacity: 0.1; stroke: #0000ff; stroke-width: 2; stroke-linejoin: miter"/>
   </g>
   <g id="patch_5">
    <path d="M 406.411362 267.617813 
L 406.411362 25.92 
L 435.145089 25.92 
L 435.145089 267.617813 
z
" clip-path="url(#p3a34eb3fcb)" style="fill: #0000ff; opacity: 0.1; stroke: #0000ff; stroke-width: 2; stroke-linejoin: miter"/>
   </g>
   <g id="patch_6">
    <path d="M 334.577042 267.617813 
L 334.577042 25.92 
L 348.943906 25.92 
L 348.943906 267.617813 
z
" clip-path="url(#p3a34eb3fcb)" style="fill: #008000; opacity: 0.1; stroke: #008000; stroke-width: 2; stroke-linejoin: miter"/>
   </g>
   <g id="line2d_10">
    <path d="M 147.807813 129.769114 
L 152.654465 123.549649 
L 157.501118 130.381112 
L 162.347771 127.639193 
L 167.194424 128.912982 
L 172.041077 125.586623 
L 176.88773 133.979334 
L 181.734383 125.992951 
L 186.581035 124.066978 
L 191.427688 129.484899 
L 196.274341 118.744899 
L 201.120994 117.257235 
L 205.967647 109.252694 
L 210.8143 110.335312 
L 215.660953 116.291245 
L 220.507605 140.993778 
L 225.354258 150.925853 
L 230.200911 154.110359 
L 235.047564 158.245523 
L 239.894217 163.709496 
L 244.74087 159.176707 
L 249.587523 164.099901 
L 254.434175 154.563516 
L 259.280828 152.441147 
L 264.127481 140.843362 
L 268.974134 135.805493 
L 273.820787 135.01748 
L 278.66744 126.123987 
L 283.514093 125.835579 
L 288.360745 121.50505 
L 293.207398 125.685352 
L 298.054051 115.139198 
L 302.900704 113.655947 
L 307.747357 102.97862 
L 312.59401 97.856529 
L 317.440663 97.631394 
L 322.287316 94.34126 
L 327.133968 95.017891 
L 331.980621 94.455904 
L 336.827274 85.302197 
L 341.673927 79.33451 
L 346.52058 78.659562 
L 351.367233 73.337786 
L 356.213886 77.548923 
L 361.060538 72.677248 
L 365.907191 71.248798 
L 370.753844 68.280375 
L 375.600497 72.569885 
L 380.44715 66.068049 
L 385.293803 61.341998 
L 390.140456 59.642201 
L 394.987108 62.528922 
L 399.833761 55.993008 
L 404.680414 49.027379 
L 409.527067 42.384396 
L 414.37372 57.750236 
L 419.220373 101.798248 
L 424.067026 138.155509 
L 428.913678 180.722605 
L 433.760331 199.06848 
L 438.606984 206.578988 
L 443.453637 210.642132 
L 448.30029 202.805379 
L 453.146943 205.163025 
L 457.993596 200.344562 
L 462.840248 193.821615 
L 467.686901 191.168938 
L 472.533554 185.351293 
L 477.380207 187.255019 
L 482.22686 181.394032 
L 487.073513 177.532461 
L 491.920166 171.866586 
L 496.766819 169.006904 
L 501.613471 168.338042 
L 506.460124 168.174637 
L 511.306777 164.331681 
L 516.15343 163.798268 
L 521.000083 158.8831 
L 525.846736 155.190259 
L 530.693389 144.833862 
L 535.540041 136.285244 
L 540.386694 132.273952 
L 545.233347 132.701429 
L 550.08 124.133224 
" clip-path="url(#p3a34eb3fcb)" style="fill: none; stroke-dasharray: 11.1,4.8; stroke-dashoffset: 0; stroke: #1f77b4; stroke-width: 3"/>
   </g>
   <g id="line2d_11">
    <path d="M 147.807813 140.361699 
L 152.654465 137.192048 
L 157.501118 133.832571 
L 162.347771 130.936921 
L 167.194424 125.100053 
L 172.041077 122.564481 
L 176.88773 124.383804 
L 181.734383 120.903679 
L 186.581035 124.993972 
L 191.427688 119.763493 
L 196.274341 120.230056 
L 201.120994 115.102193 
L 205.967647 112.227948 
L 210.8143 110.939796 
L 215.660953 125.879661 
L 220.507605 130.859213 
L 225.354258 138.916431 
L 230.200911 140.749587 
L 235.047564 145.051419 
L 239.894217 140.059432 
L 244.74087 144.534623 
L 249.587523 139.473022 
L 254.434175 133.496566 
L 259.280828 128.908474 
L 264.127481 129.469923 
L 268.974134 122.531269 
L 273.820787 106.500737 
L 278.66744 102.309103 
L 283.514093 99.694681 
L 288.360745 102.937728 
L 293.207398 100.978919 
L 298.054051 104.889704 
L 302.900704 98.097073 
L 307.747357 102.337812 
L 312.59401 101.330967 
L 317.440663 105.328014 
L 322.287316 92.115859 
L 327.133968 92.873962 
L 331.980621 90.287593 
L 336.827274 84.539868 
L 341.673927 84.138366 
L 346.52058 71.720991 
L 351.367233 72.204955 
L 356.213886 71.469769 
L 361.060538 75.017687 
L 365.907191 81.145321 
L 370.753844 78.972853 
L 375.600497 73.590676 
L 380.44715 77.570506 
L 385.293803 76.798304 
L 390.140456 70.938365 
L 394.987108 80.675562 
L 399.833761 74.262983 
L 404.680414 61.162064 
L 409.527067 64.447103 
L 414.37372 69.272533 
L 419.220373 99.023287 
L 424.067026 137.617309 
L 428.913678 176.330532 
L 433.760331 208.051831 
L 438.606984 235.297096 
L 443.453637 248.470687 
L 448.30029 246.737716 
L 453.146943 241.599231 
L 457.993596 240.490341 
L 462.840248 235.180968 
L 467.686901 227.483839 
L 472.533554 223.268134 
L 477.380207 213.703799 
L 482.22686 207.965237 
L 487.073513 212.324412 
L 491.920166 206.039262 
L 496.766819 208.620532 
L 501.613471 210.89226 
L 506.460124 210.927777 
L 511.306777 203.760437 
L 516.15343 200.371119 
L 521.000083 201.260565 
L 525.846736 194.364658 
L 530.693389 189.514287 
L 535.540041 180.15563 
L 540.386694 178.838803 
L 545.233347 176.071175 
L 550.08 176.414685 
" clip-path="url(#p3a34eb3fcb)" style="fill: none; stroke-dasharray: 11.1,4.8; stroke-dashoffset: 0; stroke: #ff7f0e; stroke-width: 3"/>
   </g>
   <g id="line2d_12">
    <path clip-path="url(#p3a34eb3fcb)" style="fill: none; stroke-dasharray: 11.1,4.8; stroke-dashoffset: 0; stroke: #2ca02c; stroke-width: 3"/>
   </g>
   <g id="line2d_13">
    <path clip-path="url(#p3a34eb3fcb)" style="fill: none; stroke-dasharray: 11.1,4.8; stroke-dashoffset: 0; stroke: #d62728; stroke-width: 3"/>
   </g>
   <g id="line2d_14">
    <path d="M 147.807813 135.065407 
L 152.654465 130.370848 
L 157.501118 132.106842 
L 162.347771 129.288057 
L 167.194424 127.006518 
L 172.041077 124.075552 
L 176.88773 129.181569 
L 181.734383 123.448315 
L 186.581035 124.530475 
L 191.427688 124.624196 
L 196.274341 119.487478 
L 201.120994 116.179714 
L 205.967647 110.740321 
L 210.8143 110.637554 
L 215.660953 121.085453 
L 220.507605 135.926495 
L 225.354258 144.921142 
L 230.200911 147.429973 
L 235.047564 151.648471 
L 239.894217 151.884464 
L 244.74087 151.855665 
L 249.587523 151.786462 
L 254.434175 144.030041 
L 259.280828 140.674811 
L 264.127481 135.156643 
L 268.974134 129.168381 
L 273.820787 120.759108 
L 278.66744 114.216545 
L 283.514093 112.76513 
L 288.360745 112.221389 
L 293.207398 113.332136 
L 298.054051 110.014451 
L 302.900704 105.87651 
L 307.747357 102.658216 
L 312.59401 99.593748 
L 317.440663 101.479704 
L 322.287316 93.22856 
L 327.133968 93.945927 
L 331.980621 92.371748 
L 336.827274 84.921032 
L 341.673927 81.736438 
L 346.52058 75.190277 
L 351.367233 72.771371 
L 356.213886 74.509346 
L 361.060538 73.847467 
L 365.907191 76.19706 
L 370.753844 73.626614 
L 375.600497 73.08028 
L 380.44715 71.819277 
L 385.293803 69.070151 
L 390.140456 65.290283 
L 394.987108 71.602242 
L 399.833761 65.127996 
L 404.680414 55.094721 
L 409.527067 53.41575 
L 414.37372 63.511385 
L 419.220373 100.410767 
L 424.067026 137.886409 
L 428.913678 178.526568 
L 433.760331 203.560155 
L 438.606984 220.938042 
L 443.453637 229.55641 
L 448.30029 224.771548 
L 453.146943 223.381128 
L 457.993596 220.417452 
L 462.840248 214.501291 
L 467.686901 209.326388 
L 472.533554 204.309714 
L 477.380207 200.479409 
L 482.22686 194.679635 
L 487.073513 194.928437 
L 491.920166 188.952924 
L 496.766819 188.813718 
L 501.613471 189.615151 
L 506.460124 189.551207 
L 511.306777 184.046059 
L 516.15343 182.084693 
L 521.000083 180.071832 
L 525.846736 174.777458 
L 530.693389 167.174074 
L 535.540041 158.220437 
L 540.386694 155.556378 
L 545.233347 154.386302 
L 550.08 150.273954 
" clip-path="url(#p3a34eb3fcb)" style="fill: none; stroke: #ff7c00; stroke-width: 3; stroke-linecap: round"/>
   </g>
   <g id="line2d_15">
    <path d="M 147.807813 126.280414 
L 550.08 126.280414 
" clip-path="url(#p3a34eb3fcb)" style="fill: none; stroke-dasharray: 11.1,4.8; stroke-dashoffset: 0; stroke: #000000; stroke-width: 3"/>
   </g>
   <g id="patch_7">
    <path d="M 147.807813 267.617813 
L 147.807813 25.92 
" style="fill: none; stroke: #262626; stroke-width: 2.5; stroke-linejoin: miter; stroke-linecap: square"/>
   </g>
   <g id="patch_8">
    <path d="M 147.807813 267.617813 
L 550.08 267.617813 
" style="fill: none; stroke: #262626; stroke-width: 2.5; stroke-linejoin: miter; stroke-linecap: square"/>
   </g>
  </g>
 </g>
 <defs>
  <clipPath id="p3a34eb3fcb">
   <rect x="147.807813" y="25.92" width="402.272187" height="241.697812"/>
  </clipPath>
 </defs>
</svg>
