<?xml version="1.0" encoding="utf-8" standalone="no"?>
<!DOCTYPE svg PUBLIC "-//W3C//DTD SVG 1.1//EN"
  "http://www.w3.org/Graphics/SVG/1.1/DTD/svg11.dtd">
<svg xmlns:xlink="http://www.w3.org/1999/xlink" width="504pt" height="311.04pt" viewBox="0 0 504 311.04" xmlns="http://www.w3.org/2000/svg" version="1.1">
 <metadata>
  <rdf:RDF xmlns:dc="http://purl.org/dc/elements/1.1/" xmlns:cc="http://creativecommons.org/ns#" xmlns:rdf="http://www.w3.org/1999/02/22-rdf-syntax-ns#">
   <cc:Work>
    <dc:type rdf:resource="http://purl.org/dc/dcmitype/StillImage"/>
    <dc:date>2023-07-14T12:59:03.619765</dc:date>
    <dc:format>image/svg+xml</dc:format>
    <dc:creator>
     <cc:Agent>
      <dc:title>Matplotlib v3.7.2, https://matplotlib.org/</dc:title>
     </cc:Agent>
    </dc:creator>
   </cc:Work>
  </rdf:RDF>
 </metadata>
 <defs>
  <style type="text/css">*{stroke-linejoin: round; stroke-linecap: butt}</style>
 </defs>
 <g id="figure_1">
  <g id="patch_1">
   <path d="M 0 311.04 
L 504 311.04 
L 504 0 
L 0 0 
z
" style="fill: #ffffff"/>
  </g>
  <g id="axes_1">
   <g id="patch_2">
    <path d="M 121.551562 249.500313 
L 478.08 249.500313 
L 478.08 25.92 
L 121.551562 25.92 
z
" style="fill: #ffffff"/>
   </g>
   <g id="matplotlib.axis_1">
    <g id="xtick_1">
     <g id="line2d_1">
      <defs>
       <path id="m4a436d83fd" d="M 0 0 
L 0 12 
" style="stroke: #262626; stroke-width: 2.5"/>
      </defs>
      <g>
       <use xlink:href="#m4a436d83fd" x="121.551562" y="249.500313" style="fill: #262626; stroke: #262626; stroke-width: 2.5"/>
      </g>
     </g>
     <g id="text_1">
      <!-- 0 -->
      <g style="fill: #262626" transform="translate(115.434531 280.7475) scale(0.22 -0.22)">
       <defs>
        <path id="ArialMT-30" d="M 266 2259 
Q 266 3072 433 3567 
Q 600 4063 929 4331 
Q 1259 4600 1759 4600 
Q 2128 4600 2406 4451 
Q 2684 4303 2865 4023 
Q 3047 3744 3150 3342 
Q 3253 2941 3253 2259 
Q 3253 1453 3087 958 
Q 2922 463 2592 192 
Q 2263 -78 1759 -78 
Q 1097 -78 719 397 
Q 266 969 266 2259 
z
M 844 2259 
Q 844 1131 1108 757 
Q 1372 384 1759 384 
Q 2147 384 2411 759 
Q 2675 1134 2675 2259 
Q 2675 3391 2411 3762 
Q 2147 4134 1753 4134 
Q 1366 4134 1134 3806 
Q 844 3388 844 2259 
z
" transform="scale(0.015625)"/>
       </defs>
       <use xlink:href="#ArialMT-30"/>
      </g>
     </g>
    </g>
    <g id="xtick_2">
     <g id="line2d_2">
      <g>
       <use xlink:href="#m4a436d83fd" x="248.883147" y="249.500313" style="fill: #262626; stroke: #262626; stroke-width: 2.5"/>
      </g>
     </g>
     <g id="text_2">
      <!-- 5 -->
      <g style="fill: #262626" transform="translate(242.766116 280.7475) scale(0.22 -0.22)">
       <defs>
        <path id="ArialMT-35" d="M 266 1200 
L 856 1250 
Q 922 819 1161 601 
Q 1400 384 1738 384 
Q 2144 384 2425 690 
Q 2706 997 2706 1503 
Q 2706 1984 2436 2262 
Q 2166 2541 1728 2541 
Q 1456 2541 1237 2417 
Q 1019 2294 894 2097 
L 366 2166 
L 809 4519 
L 3088 4519 
L 3088 3981 
L 1259 3981 
L 1013 2750 
Q 1425 3038 1878 3038 
Q 2478 3038 2890 2622 
Q 3303 2206 3303 1553 
Q 3303 931 2941 478 
Q 2500 -78 1738 -78 
Q 1113 -78 717 272 
Q 322 622 266 1200 
z
" transform="scale(0.015625)"/>
       </defs>
       <use xlink:href="#ArialMT-35"/>
      </g>
     </g>
    </g>
    <g id="xtick_3">
     <g id="line2d_3">
      <g>
       <use xlink:href="#m4a436d83fd" x="376.214732" y="249.500313" style="fill: #262626; stroke: #262626; stroke-width: 2.5"/>
      </g>
     </g>
     <g id="text_3">
      <!-- 10 -->
      <g style="fill: #262626" transform="translate(363.98067 280.7475) scale(0.22 -0.22)">
       <defs>
        <path id="ArialMT-31" d="M 2384 0 
L 1822 0 
L 1822 3584 
Q 1619 3391 1289 3197 
Q 959 3003 697 2906 
L 697 3450 
Q 1169 3672 1522 3987 
Q 1875 4303 2022 4600 
L 2384 4600 
L 2384 0 
z
" transform="scale(0.015625)"/>
       </defs>
       <use xlink:href="#ArialMT-31"/>
       <use xlink:href="#ArialMT-30" x="55.615234"/>
      </g>
     </g>
    </g>
   </g>
   <g id="matplotlib.axis_2">
    <g id="ytick_1">
     <g id="line2d_4">
      <defs>
       <path id="m6cb264c4f4" d="M 0 0 
L -12 0 
" style="stroke: #262626; stroke-width: 2.5"/>
      </defs>
      <g>
       <use xlink:href="#m6cb264c4f4" x="121.551562" y="247.483143" style="fill: #262626; stroke: #262626; stroke-width: 2.5"/>
      </g>
     </g>
     <g id="text_4">
      <!-- −0.0004 -->
      <g style="fill: #262626" transform="translate(25.92 255.356736) scale(0.22 -0.22)">
       <defs>
        <path id="ArialMT-2212" d="M 3381 1997 
L 356 1997 
L 356 2522 
L 3381 2522 
L 3381 1997 
z
" transform="scale(0.015625)"/>
        <path id="ArialMT-2e" d="M 581 0 
L 581 641 
L 1222 641 
L 1222 0 
L 581 0 
z
" transform="scale(0.015625)"/>
        <path id="ArialMT-34" d="M 2069 0 
L 2069 1097 
L 81 1097 
L 81 1613 
L 2172 4581 
L 2631 4581 
L 2631 1613 
L 3250 1613 
L 3250 1097 
L 2631 1097 
L 2631 0 
L 2069 0 
z
M 2069 1613 
L 2069 3678 
L 634 1613 
L 2069 1613 
z
" transform="scale(0.015625)"/>
       </defs>
       <use xlink:href="#ArialMT-2212"/>
       <use xlink:href="#ArialMT-30" x="58.398438"/>
       <use xlink:href="#ArialMT-2e" x="114.013672"/>
       <use xlink:href="#ArialMT-30" x="141.796875"/>
       <use xlink:href="#ArialMT-30" x="197.412109"/>
       <use xlink:href="#ArialMT-30" x="253.027344"/>
       <use xlink:href="#ArialMT-34" x="308.642578"/>
      </g>
     </g>
    </g>
    <g id="ytick_2">
     <g id="line2d_5">
      <g>
       <use xlink:href="#m6cb264c4f4" x="121.551562" y="168.18852" style="fill: #262626; stroke: #262626; stroke-width: 2.5"/>
      </g>
     </g>
     <g id="text_5">
      <!-- −0.0002 -->
      <g style="fill: #262626" transform="translate(25.92 176.062114) scale(0.22 -0.22)">
       <defs>
        <path id="ArialMT-32" d="M 3222 541 
L 3222 0 
L 194 0 
Q 188 203 259 391 
Q 375 700 629 1000 
Q 884 1300 1366 1694 
Q 2113 2306 2375 2664 
Q 2638 3022 2638 3341 
Q 2638 3675 2398 3904 
Q 2159 4134 1775 4134 
Q 1369 4134 1125 3890 
Q 881 3647 878 3216 
L 300 3275 
Q 359 3922 746 4261 
Q 1134 4600 1788 4600 
Q 2447 4600 2831 4234 
Q 3216 3869 3216 3328 
Q 3216 3053 3103 2787 
Q 2991 2522 2730 2228 
Q 2469 1934 1863 1422 
Q 1356 997 1212 845 
Q 1069 694 975 541 
L 3222 541 
z
" transform="scale(0.015625)"/>
       </defs>
       <use xlink:href="#ArialMT-2212"/>
       <use xlink:href="#ArialMT-30" x="58.398438"/>
       <use xlink:href="#ArialMT-2e" x="114.013672"/>
       <use xlink:href="#ArialMT-30" x="141.796875"/>
       <use xlink:href="#ArialMT-30" x="197.412109"/>
       <use xlink:href="#ArialMT-30" x="253.027344"/>
       <use xlink:href="#ArialMT-32" x="308.642578"/>
      </g>
     </g>
    </g>
    <g id="ytick_3">
     <g id="line2d_6">
      <g>
       <use xlink:href="#m6cb264c4f4" x="121.551562" y="88.893898" style="fill: #262626; stroke: #262626; stroke-width: 2.5"/>
      </g>
     </g>
     <g id="text_6">
      <!-- 0.0000 -->
      <g style="fill: #262626" transform="translate(38.769375 96.767492) scale(0.22 -0.22)">
       <use xlink:href="#ArialMT-30"/>
       <use xlink:href="#ArialMT-2e" x="55.615234"/>
       <use xlink:href="#ArialMT-30" x="83.398438"/>
       <use xlink:href="#ArialMT-30" x="139.013672"/>
       <use xlink:href="#ArialMT-30" x="194.628906"/>
       <use xlink:href="#ArialMT-30" x="250.244141"/>
      </g>
     </g>
    </g>
   </g>
   <g id="PolyCollection_1">
    <defs>
     <path id="mba4ee0456c" d="M 121.551562 -256.786913 
L 121.551562 -222.825027 
L 125.847086 -234.462506 
L 130.142609 -221.456325 
L 134.438133 -224.418052 
L 138.733656 -217.602035 
L 143.029179 -195.462692 
L 147.324703 -207.745449 
L 151.620226 -201.434261 
L 155.915749 -196.642178 
L 160.211273 -195.603966 
L 164.506796 -191.485428 
L 168.802319 -180.258175 
L 173.097843 -168.297192 
L 177.393366 -170.67698 
L 181.688889 -145.895183 
L 185.984413 -121.800633 
L 190.279936 -103.222796 
L 194.575459 -94.661485 
L 198.870983 -90.711772 
L 203.166506 -84.491784 
L 207.462029 -77.235995 
L 211.757553 -80.39255 
L 216.053076 -77.333621 
L 220.348599 -72.598591 
L 224.644123 -75.910774 
L 228.939646 -71.702429 
L 233.235169 -77.690834 
L 237.530693 -77.840989 
L 241.826216 -73.170874 
L 246.121739 -76.591087 
L 250.417263 -86.58059 
L 254.712786 -90.506971 
L 259.008309 -88.393229 
L 263.303833 -99.097545 
L 267.599356 -92.126192 
L 271.89488 -98.879309 
L 276.190403 -103.452527 
L 280.485926 -95.476197 
L 284.78145 -104.73095 
L 289.076973 -89.068195 
L 293.372496 -86.88111 
L 297.66802 -96.675529 
L 301.963543 -86.350946 
L 306.259066 -88.150657 
L 310.55459 -96.85124 
L 314.850113 -96.398377 
L 319.145636 -99.816512 
L 323.44116 -90.946357 
L 327.736683 -91.120714 
L 332.032206 -81.380416 
L 336.32773 -98.860094 
L 340.623253 -87.028944 
L 344.918776 -94.198302 
L 349.2143 -102.620686 
L 353.509823 -107.751975 
L 357.805346 -105.38697 
L 362.10087 -113.976543 
L 366.396393 -114.264979 
L 370.691916 -138.811573 
L 374.98744 -140.197209 
L 379.282963 -154.928554 
L 383.578486 -156.51622 
L 387.87401 -157.408613 
L 392.169533 -165.595365 
L 396.465056 -171.560163 
L 400.76058 -171.446235 
L 405.056103 -164.953255 
L 409.351627 -154.923772 
L 413.64715 -169.813568 
L 417.942673 -163.825266 
L 422.238197 -187.818587 
L 426.53372 -180.163034 
L 430.829243 -184.236447 
L 435.124767 -181.518991 
L 439.42029 -188.565592 
L 443.715813 -169.202879 
L 448.011337 -179.760735 
L 452.30686 -170.404406 
L 456.602383 -159.084355 
L 460.897907 -173.11009 
L 465.19343 -171.660222 
L 469.488953 -172.362233 
L 473.784477 -160.922612 
L 478.08 -154.068514 
L 478.08 -252.727769 
L 478.08 -252.727769 
L 473.784477 -262.330971 
L 469.488953 -269.827096 
L 465.19343 -263.352232 
L 460.897907 -264.469009 
L 456.602383 -250.362508 
L 452.30686 -265.246777 
L 448.011337 -274.664751 
L 443.715813 -258.692708 
L 439.42029 -274.957259 
L 435.124767 -273.816461 
L 430.829243 -266.158069 
L 426.53372 -272.838291 
L 422.238197 -273.243242 
L 417.942673 -252.304015 
L 413.64715 -253.042217 
L 409.351627 -243.815793 
L 405.056103 -247.282623 
L 400.76058 -250.756831 
L 396.465056 -254.895729 
L 392.169533 -247.962299 
L 387.87401 -240.516232 
L 383.578486 -240.113088 
L 379.282963 -238.739788 
L 374.98744 -223.334659 
L 370.691916 -218.427453 
L 366.396393 -192.447162 
L 362.10087 -201.160942 
L 357.805346 -195.225643 
L 353.509823 -192.94378 
L 349.2143 -194.653345 
L 344.918776 -179.244865 
L 340.623253 -172.201145 
L 336.32773 -182.990959 
L 332.032206 -169.208068 
L 327.736683 -171.299768 
L 323.44116 -174.65133 
L 319.145636 -176.335091 
L 314.850113 -172.465196 
L 310.55459 -177.244518 
L 306.259066 -165.701696 
L 301.963543 -163.411249 
L 297.66802 -175.302827 
L 293.372496 -166.684362 
L 289.076973 -165.423576 
L 284.78145 -180.245011 
L 280.485926 -166.14572 
L 276.190403 -173.652492 
L 271.89488 -168.705214 
L 267.599356 -158.526916 
L 263.303833 -162.494681 
L 259.008309 -156.126206 
L 254.712786 -157.193574 
L 250.417263 -156.513531 
L 246.121739 -149.962483 
L 241.826216 -147.815163 
L 237.530693 -149.07192 
L 233.235169 -141.026634 
L 228.939646 -139.634866 
L 224.644123 -144.490548 
L 220.348599 -134.698108 
L 216.053076 -135.667497 
L 211.757553 -142.518468 
L 207.462029 -137.50105 
L 203.166506 -141.639035 
L 198.870983 -143.623353 
L 194.575459 -145.61066 
L 190.279936 -156.174418 
L 185.984413 -170.205817 
L 181.688889 -194.223648 
L 177.393366 -216.255803 
L 173.097843 -214.785336 
L 168.802319 -219.078653 
L 164.506796 -223.67485 
L 160.211273 -226.828246 
L 155.915749 -222.960406 
L 151.620226 -228.919249 
L 147.324703 -229.37292 
L 143.029179 -223.161572 
L 138.733656 -243.169843 
L 134.438133 -249.630305 
L 130.142609 -252.128026 
L 125.847086 -267.160515 
L 121.551562 -256.786913 
z
" style="stroke: #023eff; stroke-opacity: 0.25; stroke-width: 2"/>
    </defs>
    <g clip-path="url(#p23eab258c2)">
     <use xlink:href="#mba4ee0456c" x="0" y="311.04" style="fill: #023eff; fill-opacity: 0.25; stroke: #023eff; stroke-opacity: 0.25; stroke-width: 2"/>
    </g>
   </g>
   <g id="patch_3">
    <path d="M 172.484196 249.500313 
L 172.484196 25.92 
L 197.950513 25.92 
L 197.950513 249.500313 
z
" clip-path="url(#p23eab258c2)" style="fill: #0000ff; opacity: 0.1; stroke: #0000ff; stroke-width: 2; stroke-linejoin: miter"/>
   </g>
   <g id="patch_4">
    <path d="M 236.149989 249.500313 
L 236.149989 25.92 
L 261.616306 25.92 
L 261.616306 249.500313 
z
" clip-path="url(#p23eab258c2)" style="fill: #0000ff; opacity: 0.1; stroke: #0000ff; stroke-width: 2; stroke-linejoin: miter"/>
   </g>
   <g id="patch_5">
    <path d="M 350.748415 249.500313 
L 350.748415 25.92 
L 376.214732 25.92 
L 376.214732 249.500313 
z
" clip-path="url(#p23eab258c2)" style="fill: #0000ff; opacity: 0.1; stroke: #0000ff; stroke-width: 2; stroke-linejoin: miter"/>
   </g>
   <g id="patch_6">
    <path d="M 287.082623 249.500313 
L 287.082623 25.92 
L 299.815781 25.92 
L 299.815781 249.500313 
z
" clip-path="url(#p23eab258c2)" style="fill: #008000; opacity: 0.1; stroke: #008000; stroke-width: 2; stroke-linejoin: miter"/>
   </g>
   <g id="line2d_7">
    <path d="M 121.551562 63.403676 
L 125.847086 44.800431 
L 130.142609 65.975009 
L 134.438133 63.061123 
L 138.733656 75.638445 
L 143.029179 96.156816 
L 147.324703 98.682054 
L 151.620226 103.654161 
L 155.915749 115.987342 
L 160.211273 110.833504 
L 164.506796 110.744233 
L 168.802319 117.789984 
L 173.097843 128.204698 
L 177.393366 122.950392 
L 181.688889 152.255238 
L 185.984413 175.850008 
L 190.279936 203.409853 
L 194.575459 207.386456 
L 198.870983 220.147977 
L 203.166506 213.028775 
L 207.462029 228.139891 
L 211.757553 209.896969 
L 216.053076 225.754492 
L 220.348599 234.204312 
L 224.644123 216.514626 
L 228.939646 211.763966 
L 233.235169 219.77965 
L 237.530693 205.563502 
L 241.826216 209.41403 
L 246.121739 220.577996 
L 250.417263 199.159634 
L 254.712786 199.000407 
L 259.008309 199.407232 
L 263.303833 199.35386 
L 267.599356 199.072882 
L 271.89488 185.026044 
L 276.190403 180.599794 
L 280.485926 190.969944 
L 284.78145 177.888438 
L 289.076973 195.127112 
L 293.372496 191.13047 
L 297.66802 178.548712 
L 301.963543 195.173875 
L 306.259066 199.194345 
L 310.55459 178.809482 
L 314.850113 185.383794 
L 319.145636 189.104491 
L 323.44116 180.550594 
L 327.736683 191.260432 
L 332.032206 191.995572 
L 336.32773 176.944738 
L 340.623253 179.500766 
L 344.918776 185.31323 
L 349.2143 160.093855 
L 353.509823 153.029006 
L 357.805346 162.903717 
L 362.10087 154.052049 
L 366.396393 161.115682 
L 370.691916 143.826628 
L 374.98744 133.874757 
L 379.282963 128.313812 
L 383.578486 117.252586 
L 387.87401 101.025327 
L 392.169533 107.258811 
L 396.465056 91.670849 
L 400.76058 104.123155 
L 405.056103 99.661203 
L 409.351627 108.392321 
L 413.64715 103.573452 
L 417.942673 98.655635 
L 422.238197 69.803594 
L 426.53372 77.3407 
L 430.829243 86.390097 
L 435.124767 79.663223 
L 439.42029 76.801726 
L 443.715813 90.976357 
L 448.011337 90.499218 
L 452.30686 84.008703 
L 456.602383 99.987196 
L 460.897907 92.279393 
L 465.19343 80.529035 
L 469.488953 87.757032 
L 473.784477 88.760572 
L 478.08 105.284216 
" clip-path="url(#p23eab258c2)" style="fill: none; stroke-dasharray: 11.1,4.8; stroke-dashoffset: 0; stroke: #1f77b4; stroke-width: 3"/>
   </g>
   <g id="line2d_8">
    <path d="M 121.551562 77.85945 
L 125.847086 76.137221 
L 130.142609 83.060586 
L 134.438133 85.892288 
L 138.733656 86.20432 
L 143.029179 107.593145 
L 147.324703 85.568926 
L 151.620226 88.248851 
L 155.915749 86.653158 
L 160.211273 89.288283 
L 164.506796 96.571296 
L 168.802319 103.649256 
L 173.097843 109.675741 
L 177.393366 110.794927 
L 181.688889 128.441388 
L 185.984413 153.34547 
L 190.279936 159.445717 
L 194.575459 173.324627 
L 198.870983 168.041101 
L 203.166506 185.64172 
L 207.462029 179.279919 
L 211.757553 190.370827 
L 216.053076 183.664332 
L 220.348599 182.175458 
L 224.644123 186.651938 
L 228.939646 198.85736 
L 233.235169 186.555018 
L 237.530693 190.928651 
L 241.826216 193.07914 
L 246.121739 177.374783 
L 250.417263 180.362279 
L 254.712786 177.209754 
L 259.008309 179.090286 
L 263.303833 161.530724 
L 267.599356 174.233818 
L 271.89488 170.576092 
L 276.190403 165.422627 
L 280.485926 168.741256 
L 284.78145 160.28512 
L 289.076973 173.670515 
L 293.372496 177.786909 
L 297.66802 173.952238 
L 301.963543 176.577749 
L 306.259066 169.420693 
L 310.55459 169.101073 
L 314.850113 171.627393 
L 319.145636 159.711395 
L 323.44116 176.12817 
L 327.736683 169.713636 
L 332.032206 180.521579 
L 336.32773 166.382642 
L 340.623253 182.815789 
L 344.918776 164.420013 
L 349.2143 164.228121 
L 353.509823 165.080847 
L 357.805346 158.048244 
L 362.10087 153.314628 
L 366.396393 152.794548 
L 370.691916 123.823867 
L 374.98744 126.099222 
L 379.282963 100.747921 
L 383.578486 107.947824 
L 387.87401 122.729145 
L 392.169533 100.356279 
L 396.465056 102.835108 
L 400.76058 94.565602 
L 405.056103 111.735428 
L 409.351627 113.946821 
L 413.64715 96.106153 
L 417.942673 107.361295 
L 422.238197 91.996324 
L 426.53372 91.688687 
L 430.829243 85.497613 
L 435.124767 86.013525 
L 439.42029 83.283661 
L 443.715813 101.28843 
L 448.011337 80.874581 
L 452.30686 100.141262 
L 456.602383 113.637563 
L 460.897907 95.354399 
L 465.19343 105.611815 
L 469.488953 96.451404 
L 473.784477 111.55096 
L 478.08 114.01102 
" clip-path="url(#p23eab258c2)" style="fill: none; stroke-dasharray: 11.1,4.8; stroke-dashoffset: 0; stroke: #ff7f0e; stroke-width: 3"/>
   </g>
   <g id="line2d_9">
    <path d="M 121.551562 70.631563 
L 125.847086 60.468826 
L 130.142609 74.517797 
L 134.438133 74.476706 
L 138.733656 80.921382 
L 143.029179 101.87498 
L 147.324703 92.12549 
L 151.620226 95.951506 
L 155.915749 101.32025 
L 160.211273 100.060893 
L 164.506796 103.657764 
L 168.802319 110.71962 
L 173.097843 118.94022 
L 177.393366 116.872659 
L 181.688889 140.348313 
L 185.984413 164.597739 
L 190.279936 181.427785 
L 194.575459 190.355541 
L 198.870983 194.094539 
L 203.166506 199.335248 
L 207.462029 203.709905 
L 211.757553 200.133898 
L 216.053076 204.709412 
L 220.348599 208.189885 
L 224.644123 201.583282 
L 228.939646 205.310663 
L 233.235169 203.167334 
L 237.530693 198.246076 
L 241.826216 201.246585 
L 246.121739 198.97639 
L 250.417263 189.760956 
L 254.712786 188.105081 
L 259.008309 189.248759 
L 263.303833 180.442292 
L 267.599356 186.65335 
L 271.89488 177.801068 
L 276.190403 173.01121 
L 280.485926 179.8556 
L 284.78145 169.086779 
L 289.076973 184.398814 
L 293.372496 184.458689 
L 297.66802 176.250475 
L 301.963543 185.875812 
L 306.259066 184.307519 
L 310.55459 173.955277 
L 314.850113 178.505593 
L 319.145636 174.407943 
L 323.44116 178.339382 
L 327.736683 180.487034 
L 332.032206 186.258575 
L 336.32773 171.66369 
L 340.623253 181.158278 
L 344.918776 174.866621 
L 349.2143 162.160988 
L 353.509823 159.054926 
L 357.805346 160.475981 
L 362.10087 153.683338 
L 366.396393 156.955115 
L 370.691916 133.825247 
L 374.98744 129.986989 
L 379.282963 114.530867 
L 383.578486 112.600205 
L 387.87401 111.877236 
L 392.169533 103.807545 
L 396.465056 97.252979 
L 400.76058 99.344378 
L 405.056103 105.698315 
L 409.351627 111.169571 
L 413.64715 99.839803 
L 417.942673 103.008465 
L 422.238197 80.899959 
L 426.53372 84.514694 
L 430.829243 85.943855 
L 435.124767 82.838374 
L 439.42029 80.042693 
L 443.715813 96.132394 
L 448.011337 85.686899 
L 452.30686 92.074983 
L 456.602383 106.81238 
L 460.897907 93.816896 
L 465.19343 93.070425 
L 469.488953 92.104218 
L 473.784477 100.155766 
L 478.08 109.647618 
" clip-path="url(#p23eab258c2)" style="fill: none; stroke: #023eff; stroke-width: 3; stroke-linecap: round"/>
   </g>
   <g id="line2d_10">
    <path d="M 121.551562 88.893898 
L 478.08 88.893898 
" clip-path="url(#p23eab258c2)" style="fill: none; stroke-dasharray: 11.1,4.8; stroke-dashoffset: 0; stroke: #000000; stroke-width: 3"/>
   </g>
   <g id="patch_7">
    <path d="M 121.551562 249.500313 
L 121.551562 25.92 
" style="fill: none; stroke: #262626; stroke-width: 2.5; stroke-linejoin: miter; stroke-linecap: square"/>
   </g>
   <g id="patch_8">
    <path d="M 121.551562 249.500313 
L 478.08 249.500313 
" style="fill: none; stroke: #262626; stroke-width: 2.5; stroke-linejoin: miter; stroke-linecap: square"/>
   </g>
  </g>
 </g>
 <defs>
  <clipPath id="p23eab258c2">
   <rect x="121.551562" y="25.92" width="356.528438" height="223.580312"/>
  </clipPath>
 </defs>
</svg>
