<?xml version="1.0" encoding="utf-8" standalone="no"?>
<!DOCTYPE svg PUBLIC "-//W3C//DTD SVG 1.1//EN"
  "http://www.w3.org/Graphics/SVG/1.1/DTD/svg11.dtd">
<svg xmlns:xlink="http://www.w3.org/1999/xlink" width="576pt" height="355.68pt" viewBox="0 0 576 355.68" xmlns="http://www.w3.org/2000/svg" version="1.1">
 <metadata>
  <rdf:RDF xmlns:dc="http://purl.org/dc/elements/1.1/" xmlns:cc="http://creativecommons.org/ns#" xmlns:rdf="http://www.w3.org/1999/02/22-rdf-syntax-ns#">
   <cc:Work>
    <dc:type rdf:resource="http://purl.org/dc/dcmitype/StillImage"/>
    <dc:date>2023-07-17T14:34:44.010935</dc:date>
    <dc:format>image/svg+xml</dc:format>
    <dc:creator>
     <cc:Agent>
      <dc:title>Matplotlib v3.7.2, https://matplotlib.org/</dc:title>
     </cc:Agent>
    </dc:creator>
   </cc:Work>
  </rdf:RDF>
 </metadata>
 <defs>
  <style type="text/css">*{stroke-linejoin: round; stroke-linecap: butt}</style>
 </defs>
 <g id="figure_1">
  <g id="patch_1">
   <path d="M 0 355.68 
L 576 355.68 
L 576 0 
L 0 0 
z
" style="fill: #ffffff"/>
  </g>
  <g id="axes_1">
   <g id="patch_2">
    <path d="M 147.807813 267.617813 
L 550.08 267.617813 
L 550.08 25.92 
L 147.807813 25.92 
z
" style="fill: #ffffff"/>
   </g>
   <g id="matplotlib.axis_1">
    <g id="xtick_1">
     <g id="line2d_1">
      <defs>
       <path id="m1e257dd7c7" d="M 0 0 
L 0 12 
" style="stroke: #262626; stroke-width: 2.5"/>
      </defs>
      <g>
       <use xlink:href="#m1e257dd7c7" x="147.807813" y="267.617813" style="fill: #262626; stroke: #262626; stroke-width: 2.5"/>
      </g>
     </g>
     <g id="text_1">
      <!-- 0.0 -->
      <g style="fill: #262626" transform="translate(132.517813 298.865) scale(0.22 -0.22)">
       <defs>
        <path id="ArialMT-30" d="M 266 2259 
Q 266 3072 433 3567 
Q 600 4063 929 4331 
Q 1259 4600 1759 4600 
Q 2128 4600 2406 4451 
Q 2684 4303 2865 4023 
Q 3047 3744 3150 3342 
Q 3253 2941 3253 2259 
Q 3253 1453 3087 958 
Q 2922 463 2592 192 
Q 2263 -78 1759 -78 
Q 1097 -78 719 397 
Q 266 969 266 2259 
z
M 844 2259 
Q 844 1131 1108 757 
Q 1372 384 1759 384 
Q 2147 384 2411 759 
Q 2675 1134 2675 2259 
Q 2675 3391 2411 3762 
Q 2147 4134 1753 4134 
Q 1366 4134 1134 3806 
Q 844 3388 844 2259 
z
" transform="scale(0.015625)"/>
        <path id="ArialMT-2e" d="M 581 0 
L 581 641 
L 1222 641 
L 1222 0 
L 581 0 
z
" transform="scale(0.015625)"/>
       </defs>
       <use xlink:href="#ArialMT-30"/>
       <use xlink:href="#ArialMT-2e" x="55.615234"/>
       <use xlink:href="#ArialMT-30" x="83.398438"/>
      </g>
     </g>
    </g>
    <g id="xtick_2">
     <g id="line2d_2">
      <g>
       <use xlink:href="#m1e257dd7c7" x="219.642132" y="267.617813" style="fill: #262626; stroke: #262626; stroke-width: 2.5"/>
      </g>
     </g>
     <g id="text_2">
      <!-- 2.5 -->
      <g style="fill: #262626" transform="translate(204.352132 298.865) scale(0.22 -0.22)">
       <defs>
        <path id="ArialMT-32" d="M 3222 541 
L 3222 0 
L 194 0 
Q 188 203 259 391 
Q 375 700 629 1000 
Q 884 1300 1366 1694 
Q 2113 2306 2375 2664 
Q 2638 3022 2638 3341 
Q 2638 3675 2398 3904 
Q 2159 4134 1775 4134 
Q 1369 4134 1125 3890 
Q 881 3647 878 3216 
L 300 3275 
Q 359 3922 746 4261 
Q 1134 4600 1788 4600 
Q 2447 4600 2831 4234 
Q 3216 3869 3216 3328 
Q 3216 3053 3103 2787 
Q 2991 2522 2730 2228 
Q 2469 1934 1863 1422 
Q 1356 997 1212 845 
Q 1069 694 975 541 
L 3222 541 
z
" transform="scale(0.015625)"/>
        <path id="ArialMT-35" d="M 266 1200 
L 856 1250 
Q 922 819 1161 601 
Q 1400 384 1738 384 
Q 2144 384 2425 690 
Q 2706 997 2706 1503 
Q 2706 1984 2436 2262 
Q 2166 2541 1728 2541 
Q 1456 2541 1237 2417 
Q 1019 2294 894 2097 
L 366 2166 
L 809 4519 
L 3088 4519 
L 3088 3981 
L 1259 3981 
L 1013 2750 
Q 1425 3038 1878 3038 
Q 2478 3038 2890 2622 
Q 3303 2206 3303 1553 
Q 3303 931 2941 478 
Q 2500 -78 1738 -78 
Q 1113 -78 717 272 
Q 322 622 266 1200 
z
" transform="scale(0.015625)"/>
       </defs>
       <use xlink:href="#ArialMT-32"/>
       <use xlink:href="#ArialMT-2e" x="55.615234"/>
       <use xlink:href="#ArialMT-35" x="83.398438"/>
      </g>
     </g>
    </g>
    <g id="xtick_3">
     <g id="line2d_3">
      <g>
       <use xlink:href="#m1e257dd7c7" x="291.476451" y="267.617813" style="fill: #262626; stroke: #262626; stroke-width: 2.5"/>
      </g>
     </g>
     <g id="text_3">
      <!-- 5.0 -->
      <g style="fill: #262626" transform="translate(276.186451 298.865) scale(0.22 -0.22)">
       <use xlink:href="#ArialMT-35"/>
       <use xlink:href="#ArialMT-2e" x="55.615234"/>
       <use xlink:href="#ArialMT-30" x="83.398438"/>
      </g>
     </g>
    </g>
    <g id="xtick_4">
     <g id="line2d_4">
      <g>
       <use xlink:href="#m1e257dd7c7" x="363.31077" y="267.617813" style="fill: #262626; stroke: #262626; stroke-width: 2.5"/>
      </g>
     </g>
     <g id="text_4">
      <!-- 7.5 -->
      <g style="fill: #262626" transform="translate(348.02077 298.865) scale(0.22 -0.22)">
       <defs>
        <path id="ArialMT-37" d="M 303 3981 
L 303 4522 
L 3269 4522 
L 3269 4084 
Q 2831 3619 2401 2847 
Q 1972 2075 1738 1259 
Q 1569 684 1522 0 
L 944 0 
Q 953 541 1156 1306 
Q 1359 2072 1739 2783 
Q 2119 3494 2547 3981 
L 303 3981 
z
" transform="scale(0.015625)"/>
       </defs>
       <use xlink:href="#ArialMT-37"/>
       <use xlink:href="#ArialMT-2e" x="55.615234"/>
       <use xlink:href="#ArialMT-35" x="83.398438"/>
      </g>
     </g>
    </g>
    <g id="xtick_5">
     <g id="line2d_5">
      <g>
       <use xlink:href="#m1e257dd7c7" x="435.145089" y="267.617813" style="fill: #262626; stroke: #262626; stroke-width: 2.5"/>
      </g>
     </g>
     <g id="text_5">
      <!-- 10.0 -->
      <g style="fill: #262626" transform="translate(413.738058 298.865) scale(0.22 -0.22)">
       <defs>
        <path id="ArialMT-31" d="M 2384 0 
L 1822 0 
L 1822 3584 
Q 1619 3391 1289 3197 
Q 959 3003 697 2906 
L 697 3450 
Q 1169 3672 1522 3987 
Q 1875 4303 2022 4600 
L 2384 4600 
L 2384 0 
z
" transform="scale(0.015625)"/>
       </defs>
       <use xlink:href="#ArialMT-31"/>
       <use xlink:href="#ArialMT-30" x="55.615234"/>
       <use xlink:href="#ArialMT-2e" x="111.230469"/>
       <use xlink:href="#ArialMT-30" x="139.013672"/>
      </g>
     </g>
    </g>
    <g id="xtick_6">
     <g id="line2d_6">
      <g>
       <use xlink:href="#m1e257dd7c7" x="506.979408" y="267.617813" style="fill: #262626; stroke: #262626; stroke-width: 2.5"/>
      </g>
     </g>
     <g id="text_6">
      <!-- 12.5 -->
      <g style="fill: #262626" transform="translate(485.572377 298.865) scale(0.22 -0.22)">
       <use xlink:href="#ArialMT-31"/>
       <use xlink:href="#ArialMT-32" x="55.615234"/>
       <use xlink:href="#ArialMT-2e" x="111.230469"/>
       <use xlink:href="#ArialMT-35" x="139.013672"/>
      </g>
     </g>
    </g>
    <g id="text_7">
     <!-- Time (s) -->
     <g style="fill: #262626" transform="translate(305.404531 324.70875) scale(0.24 -0.24)">
      <defs>
       <path id="ArialMT-54" d="M 1659 0 
L 1659 4041 
L 150 4041 
L 150 4581 
L 3781 4581 
L 3781 4041 
L 2266 4041 
L 2266 0 
L 1659 0 
z
" transform="scale(0.015625)"/>
       <path id="ArialMT-69" d="M 425 3934 
L 425 4581 
L 988 4581 
L 988 3934 
L 425 3934 
z
M 425 0 
L 425 3319 
L 988 3319 
L 988 0 
L 425 0 
z
" transform="scale(0.015625)"/>
       <path id="ArialMT-6d" d="M 422 0 
L 422 3319 
L 925 3319 
L 925 2853 
Q 1081 3097 1340 3245 
Q 1600 3394 1931 3394 
Q 2300 3394 2536 3241 
Q 2772 3088 2869 2813 
Q 3263 3394 3894 3394 
Q 4388 3394 4653 3120 
Q 4919 2847 4919 2278 
L 4919 0 
L 4359 0 
L 4359 2091 
Q 4359 2428 4304 2576 
Q 4250 2725 4106 2815 
Q 3963 2906 3769 2906 
Q 3419 2906 3187 2673 
Q 2956 2441 2956 1928 
L 2956 0 
L 2394 0 
L 2394 2156 
Q 2394 2531 2256 2718 
Q 2119 2906 1806 2906 
Q 1569 2906 1367 2781 
Q 1166 2656 1075 2415 
Q 984 2175 984 1722 
L 984 0 
L 422 0 
z
" transform="scale(0.015625)"/>
       <path id="ArialMT-65" d="M 2694 1069 
L 3275 997 
Q 3138 488 2766 206 
Q 2394 -75 1816 -75 
Q 1088 -75 661 373 
Q 234 822 234 1631 
Q 234 2469 665 2931 
Q 1097 3394 1784 3394 
Q 2450 3394 2872 2941 
Q 3294 2488 3294 1666 
Q 3294 1616 3291 1516 
L 816 1516 
Q 847 969 1125 678 
Q 1403 388 1819 388 
Q 2128 388 2347 550 
Q 2566 713 2694 1069 
z
M 847 1978 
L 2700 1978 
Q 2663 2397 2488 2606 
Q 2219 2931 1791 2931 
Q 1403 2931 1139 2672 
Q 875 2413 847 1978 
z
" transform="scale(0.015625)"/>
       <path id="ArialMT-20" transform="scale(0.015625)"/>
       <path id="ArialMT-28" d="M 1497 -1347 
Q 1031 -759 709 28 
Q 388 816 388 1659 
Q 388 2403 628 3084 
Q 909 3875 1497 4659 
L 1900 4659 
Q 1522 4009 1400 3731 
Q 1209 3300 1100 2831 
Q 966 2247 966 1656 
Q 966 153 1900 -1347 
L 1497 -1347 
z
" transform="scale(0.015625)"/>
       <path id="ArialMT-73" d="M 197 991 
L 753 1078 
Q 800 744 1014 566 
Q 1228 388 1613 388 
Q 2000 388 2187 545 
Q 2375 703 2375 916 
Q 2375 1106 2209 1216 
Q 2094 1291 1634 1406 
Q 1016 1563 777 1677 
Q 538 1791 414 1992 
Q 291 2194 291 2438 
Q 291 2659 392 2848 
Q 494 3038 669 3163 
Q 800 3259 1026 3326 
Q 1253 3394 1513 3394 
Q 1903 3394 2198 3281 
Q 2494 3169 2634 2976 
Q 2775 2784 2828 2463 
L 2278 2388 
Q 2241 2644 2061 2787 
Q 1881 2931 1553 2931 
Q 1166 2931 1000 2803 
Q 834 2675 834 2503 
Q 834 2394 903 2306 
Q 972 2216 1119 2156 
Q 1203 2125 1616 2013 
Q 2213 1853 2448 1751 
Q 2684 1650 2818 1456 
Q 2953 1263 2953 975 
Q 2953 694 2789 445 
Q 2625 197 2315 61 
Q 2006 -75 1616 -75 
Q 969 -75 630 194 
Q 291 463 197 991 
z
" transform="scale(0.015625)"/>
       <path id="ArialMT-29" d="M 791 -1347 
L 388 -1347 
Q 1322 153 1322 1656 
Q 1322 2244 1188 2822 
Q 1081 3291 891 3722 
Q 769 4003 388 4659 
L 791 4659 
Q 1378 3875 1659 3084 
Q 1900 2403 1900 1659 
Q 1900 816 1576 28 
Q 1253 -759 791 -1347 
z
" transform="scale(0.015625)"/>
      </defs>
      <use xlink:href="#ArialMT-54"/>
      <use xlink:href="#ArialMT-69" x="57.333984"/>
      <use xlink:href="#ArialMT-6d" x="79.550781"/>
      <use xlink:href="#ArialMT-65" x="162.851562"/>
      <use xlink:href="#ArialMT-20" x="218.466797"/>
      <use xlink:href="#ArialMT-28" x="246.25"/>
      <use xlink:href="#ArialMT-73" x="279.550781"/>
      <use xlink:href="#ArialMT-29" x="329.550781"/>
     </g>
    </g>
   </g>
   <g id="matplotlib.axis_2">
    <g id="ytick_1">
     <g id="line2d_7">
      <defs>
       <path id="mea34466062" d="M 0 0 
L -12 0 
" style="stroke: #262626; stroke-width: 2.5"/>
      </defs>
      <g>
       <use xlink:href="#mea34466062" x="147.807813" y="226.595632" style="fill: #262626; stroke: #262626; stroke-width: 2.5"/>
      </g>
     </g>
     <g id="text_8">
      <!-- 0.000 -->
      <g style="fill: #262626" transform="translate(77.259688 234.469225) scale(0.22 -0.22)">
       <use xlink:href="#ArialMT-30"/>
       <use xlink:href="#ArialMT-2e" x="55.615234"/>
       <use xlink:href="#ArialMT-30" x="83.398438"/>
       <use xlink:href="#ArialMT-30" x="139.013672"/>
       <use xlink:href="#ArialMT-30" x="194.628906"/>
      </g>
     </g>
    </g>
    <g id="ytick_2">
     <g id="line2d_8">
      <g>
       <use xlink:href="#mea34466062" x="147.807813" y="145.63382" style="fill: #262626; stroke: #262626; stroke-width: 2.5"/>
      </g>
     </g>
     <g id="text_9">
      <!-- 0.005 -->
      <g style="fill: #262626" transform="translate(77.259688 153.507414) scale(0.22 -0.22)">
       <use xlink:href="#ArialMT-30"/>
       <use xlink:href="#ArialMT-2e" x="55.615234"/>
       <use xlink:href="#ArialMT-30" x="83.398438"/>
       <use xlink:href="#ArialMT-30" x="139.013672"/>
       <use xlink:href="#ArialMT-35" x="194.628906"/>
      </g>
     </g>
    </g>
    <g id="ytick_3">
     <g id="line2d_9">
      <g>
       <use xlink:href="#mea34466062" x="147.807813" y="64.672008" style="fill: #262626; stroke: #262626; stroke-width: 2.5"/>
      </g>
     </g>
     <g id="text_10">
      <!-- 0.010 -->
      <g style="fill: #262626" transform="translate(77.259688 72.545602) scale(0.22 -0.22)">
       <use xlink:href="#ArialMT-30"/>
       <use xlink:href="#ArialMT-2e" x="55.615234"/>
       <use xlink:href="#ArialMT-30" x="83.398438"/>
       <use xlink:href="#ArialMT-31" x="139.013672"/>
       <use xlink:href="#ArialMT-30" x="194.628906"/>
      </g>
     </g>
    </g>
    <g id="text_11">
     <!-- Overlap -->
     <g style="fill: #262626" transform="translate(68.489688 188.783906) rotate(-90) scale(0.24 -0.24)">
      <defs>
       <path id="ArialMT-4f" d="M 309 2231 
Q 309 3372 921 4017 
Q 1534 4663 2503 4663 
Q 3138 4663 3647 4359 
Q 4156 4056 4423 3514 
Q 4691 2972 4691 2284 
Q 4691 1588 4409 1038 
Q 4128 488 3612 205 
Q 3097 -78 2500 -78 
Q 1853 -78 1343 234 
Q 834 547 571 1087 
Q 309 1628 309 2231 
z
M 934 2222 
Q 934 1394 1379 917 
Q 1825 441 2497 441 
Q 3181 441 3623 922 
Q 4066 1403 4066 2288 
Q 4066 2847 3877 3264 
Q 3688 3681 3323 3911 
Q 2959 4141 2506 4141 
Q 1863 4141 1398 3698 
Q 934 3256 934 2222 
z
" transform="scale(0.015625)"/>
       <path id="ArialMT-76" d="M 1344 0 
L 81 3319 
L 675 3319 
L 1388 1331 
Q 1503 1009 1600 663 
Q 1675 925 1809 1294 
L 2547 3319 
L 3125 3319 
L 1869 0 
L 1344 0 
z
" transform="scale(0.015625)"/>
       <path id="ArialMT-72" d="M 416 0 
L 416 3319 
L 922 3319 
L 922 2816 
Q 1116 3169 1280 3281 
Q 1444 3394 1641 3394 
Q 1925 3394 2219 3213 
L 2025 2691 
Q 1819 2813 1613 2813 
Q 1428 2813 1281 2702 
Q 1134 2591 1072 2394 
Q 978 2094 978 1738 
L 978 0 
L 416 0 
z
" transform="scale(0.015625)"/>
       <path id="ArialMT-6c" d="M 409 0 
L 409 4581 
L 972 4581 
L 972 0 
L 409 0 
z
" transform="scale(0.015625)"/>
       <path id="ArialMT-61" d="M 2588 409 
Q 2275 144 1986 34 
Q 1697 -75 1366 -75 
Q 819 -75 525 192 
Q 231 459 231 875 
Q 231 1119 342 1320 
Q 453 1522 633 1644 
Q 813 1766 1038 1828 
Q 1203 1872 1538 1913 
Q 2219 1994 2541 2106 
Q 2544 2222 2544 2253 
Q 2544 2597 2384 2738 
Q 2169 2928 1744 2928 
Q 1347 2928 1158 2789 
Q 969 2650 878 2297 
L 328 2372 
Q 403 2725 575 2942 
Q 747 3159 1072 3276 
Q 1397 3394 1825 3394 
Q 2250 3394 2515 3294 
Q 2781 3194 2906 3042 
Q 3031 2891 3081 2659 
Q 3109 2516 3109 2141 
L 3109 1391 
Q 3109 606 3145 398 
Q 3181 191 3288 0 
L 2700 0 
Q 2613 175 2588 409 
z
M 2541 1666 
Q 2234 1541 1622 1453 
Q 1275 1403 1131 1340 
Q 988 1278 909 1158 
Q 831 1038 831 891 
Q 831 666 1001 516 
Q 1172 366 1500 366 
Q 1825 366 2078 508 
Q 2331 650 2450 897 
Q 2541 1088 2541 1459 
L 2541 1666 
z
" transform="scale(0.015625)"/>
       <path id="ArialMT-70" d="M 422 -1272 
L 422 3319 
L 934 3319 
L 934 2888 
Q 1116 3141 1344 3267 
Q 1572 3394 1897 3394 
Q 2322 3394 2647 3175 
Q 2972 2956 3137 2557 
Q 3303 2159 3303 1684 
Q 3303 1175 3120 767 
Q 2938 359 2589 142 
Q 2241 -75 1856 -75 
Q 1575 -75 1351 44 
Q 1128 163 984 344 
L 984 -1272 
L 422 -1272 
z
M 931 1641 
Q 931 1000 1190 694 
Q 1450 388 1819 388 
Q 2194 388 2461 705 
Q 2728 1022 2728 1688 
Q 2728 2322 2467 2637 
Q 2206 2953 1844 2953 
Q 1484 2953 1207 2617 
Q 931 2281 931 1641 
z
" transform="scale(0.015625)"/>
      </defs>
      <use xlink:href="#ArialMT-4f"/>
      <use xlink:href="#ArialMT-76" x="77.783203"/>
      <use xlink:href="#ArialMT-65" x="127.783203"/>
      <use xlink:href="#ArialMT-72" x="183.398438"/>
      <use xlink:href="#ArialMT-6c" x="216.699219"/>
      <use xlink:href="#ArialMT-61" x="238.916016"/>
      <use xlink:href="#ArialMT-70" x="294.53125"/>
     </g>
    </g>
   </g>
   <g id="PolyCollection_1">
    <defs>
     <path id="mebef8cce9b" d="M 147.807813 -136.317404 
L 147.807813 -126.335666 
L 152.654465 -125.029819 
L 157.501118 -125.642062 
L 162.347771 -123.66322 
L 167.194424 -123.943869 
L 172.041077 -123.454966 
L 176.88773 -126.906195 
L 181.734383 -124.500726 
L 186.581035 -126.732494 
L 191.427688 -123.992547 
L 196.274341 -124.265405 
L 201.120994 -124.774517 
L 205.967647 -123.162803 
L 210.8143 -127.102874 
L 215.660953 -124.016341 
L 220.507605 -126.054649 
L 225.354258 -123.081938 
L 230.200911 -114.637687 
L 235.047564 -107.768507 
L 239.894217 -105.726486 
L 244.74087 -103.890264 
L 249.587523 -107.97699 
L 254.434175 -110.474852 
L 259.280828 -114.757026 
L 264.127481 -116.933372 
L 268.974134 -123.287391 
L 273.820787 -122.221113 
L 278.66744 -125.644863 
L 283.514093 -128.583517 
L 288.360745 -147.395964 
L 293.207398 -187.435731 
L 298.054051 -222.028563 
L 302.900704 -251.833651 
L 307.747357 -269.090329 
L 312.59401 -279.680507 
L 317.440663 -283.692541 
L 322.287316 -286.235218 
L 327.133968 -282.909115 
L 331.980621 -274.468772 
L 336.827274 -271.122849 
L 341.673927 -266.018769 
L 346.52058 -256.186835 
L 351.367233 -237.966727 
L 356.213886 -224.725912 
L 361.060538 -207.644478 
L 365.907191 -200.643 
L 370.753844 -198.522563 
L 375.600497 -204.292561 
L 380.44715 -206.666238 
L 385.293803 -207.549781 
L 390.140456 -205.56755 
L 394.987108 -206.779922 
L 399.833761 -202.678866 
L 404.680414 -200.559813 
L 409.527067 -198.612196 
L 414.37372 -189.070344 
L 419.220373 -180.111307 
L 424.067026 -172.299248 
L 428.913678 -167.726326 
L 433.760331 -167.922817 
L 438.606984 -170.800035 
L 443.453637 -174.854424 
L 448.30029 -174.753537 
L 453.146943 -177.092018 
L 457.993596 -179.593675 
L 462.840248 -181.379424 
L 467.686901 -178.936682 
L 472.533554 -174.769738 
L 477.380207 -177.375856 
L 482.22686 -174.491882 
L 487.073513 -175.501091 
L 491.920166 -170.115986 
L 496.766819 -168.240761 
L 501.613471 -165.455088 
L 506.460124 -166.756857 
L 511.306777 -161.889784 
L 516.15343 -160.194533 
L 521.000083 -157.825517 
L 525.846736 -159.880127 
L 530.693389 -155.237611 
L 535.540041 -155.161295 
L 540.386694 -157.408738 
L 545.233347 -157.287135 
L 550.08 -154.914308 
L 550.08 -188.329543 
L 550.08 -188.329543 
L 545.233347 -191.7554 
L 540.386694 -192.473189 
L 535.540041 -190.558069 
L 530.693389 -191.365757 
L 525.846736 -194.196644 
L 521.000083 -193.597715 
L 516.15343 -197.438274 
L 511.306777 -199.931133 
L 506.460124 -203.965686 
L 501.613471 -204.268548 
L 496.766819 -207.946341 
L 491.920166 -208.328283 
L 487.073513 -211.810295 
L 482.22686 -209.322193 
L 477.380207 -213.01609 
L 472.533554 -213.00707 
L 467.686901 -216.282691 
L 462.840248 -222.210565 
L 457.993596 -219.996963 
L 453.146943 -221.119964 
L 448.30029 -221.288857 
L 443.453637 -221.879549 
L 438.606984 -217.334001 
L 433.760331 -212.664542 
L 428.913678 -209.26682 
L 424.067026 -207.605467 
L 419.220373 -211.17143 
L 414.37372 -219.444954 
L 409.527067 -230.191848 
L 404.680414 -234.419314 
L 399.833761 -235.324326 
L 394.987108 -239.104851 
L 390.140456 -240.200609 
L 385.293803 -241.888908 
L 380.44715 -241.745474 
L 375.600497 -237.14734 
L 370.753844 -231.210025 
L 365.907191 -231.808598 
L 361.060538 -243.283791 
L 356.213886 -255.62507 
L 351.367233 -266.721854 
L 346.52058 -280.166137 
L 341.673927 -291.012044 
L 336.827274 -294.444402 
L 331.980621 -300.0121 
L 327.133968 -309.294089 
L 322.287316 -312.503181 
L 317.440663 -310.875539 
L 312.59401 -310.946554 
L 307.747357 -295.30915 
L 302.900704 -279.644585 
L 298.054051 -247.825488 
L 293.207398 -210.604118 
L 288.360745 -168.800004 
L 283.514093 -150.138998 
L 278.66744 -146.579717 
L 273.820787 -144.244043 
L 268.974134 -146.036774 
L 264.127481 -138.846707 
L 259.280828 -138.496949 
L 254.434175 -132.878072 
L 249.587523 -130.447681 
L 244.74087 -127.135729 
L 239.894217 -128.220004 
L 235.047564 -130.785769 
L 230.200911 -133.860667 
L 225.354258 -139.522678 
L 220.507605 -140.084861 
L 215.660953 -138.450882 
L 210.8143 -139.788262 
L 205.967647 -135.365905 
L 201.120994 -135.887424 
L 196.274341 -135.191804 
L 191.427688 -130.859628 
L 186.581035 -133.211887 
L 181.734383 -133.014745 
L 176.88773 -134.917612 
L 172.041077 -130.675332 
L 167.194424 -129.717568 
L 162.347771 -132.064646 
L 157.501118 -133.523133 
L 152.654465 -133.496725 
L 147.807813 -136.317404 
z
" style="stroke: #023eff; stroke-opacity: 0.25; stroke-width: 2"/>
    </defs>
    <g clip-path="url(#p10b308bbb1)">
     <use xlink:href="#mebef8cce9b" x="0" y="355.68" style="fill: #023eff; fill-opacity: 0.25; stroke: #023eff; stroke-opacity: 0.25; stroke-width: 2"/>
    </g>
   </g>
   <g id="patch_3">
    <path d="M 205.275268 267.617813 
L 205.275268 25.92 
L 234.008996 25.92 
L 234.008996 267.617813 
z
" clip-path="url(#p10b308bbb1)" style="fill: #0000ff; opacity: 0.1; stroke: #0000ff; stroke-width: 2; stroke-linejoin: miter"/>
   </g>
   <g id="patch_4">
    <path d="M 277.109587 267.617813 
L 277.109587 25.92 
L 305.843315 25.92 
L 305.843315 267.617813 
z
" clip-path="url(#p10b308bbb1)" style="fill: #0000ff; opacity: 0.1; stroke: #0000ff; stroke-width: 2; stroke-linejoin: miter"/>
   </g>
   <g id="patch_5">
    <path d="M 406.411362 267.617813 
L 406.411362 25.92 
L 435.145089 25.92 
L 435.145089 267.617813 
z
" clip-path="url(#p10b308bbb1)" style="fill: #0000ff; opacity: 0.1; stroke: #0000ff; stroke-width: 2; stroke-linejoin: miter"/>
   </g>
   <g id="patch_6">
    <path d="M 334.577042 267.617813 
L 334.577042 25.92 
L 348.943906 25.92 
L 348.943906 267.617813 
z
" clip-path="url(#p10b308bbb1)" style="fill: #008000; opacity: 0.1; stroke: #008000; stroke-width: 2; stroke-linejoin: miter"/>
   </g>
   <g id="line2d_10">
    <path d="M 147.807813 225.012921 
L 152.654465 225.117428 
L 157.501118 226.243579 
L 162.347771 227.889715 
L 167.194424 229.754646 
L 172.041077 231.918826 
L 176.88773 227.25478 
L 181.734383 229.979503 
L 186.581035 222.703702 
L 191.427688 228.178847 
L 196.274341 221.651503 
L 201.120994 223.442129 
L 205.967647 225.457145 
L 210.8143 219.959761 
L 215.660953 224.334367 
L 220.507605 225.138573 
L 225.354258 231.349 
L 230.200911 243.961489 
L 235.047564 253.488619 
L 239.894217 255.683136 
L 244.74087 256.631548 
L 249.587523 250.243953 
L 254.434175 247.597631 
L 259.280828 243.168386 
L 264.127481 239.334225 
L 268.974134 233.570996 
L 273.820787 232.3406 
L 278.66744 233.266678 
L 283.514093 229.066154 
L 288.360745 210.88653 
L 293.207398 173.412572 
L 298.054051 139.122599 
L 302.900704 109.546915 
L 307.747357 88.162831 
L 312.59401 83.930921 
L 317.440663 78.304286 
L 322.287316 72.910765 
L 327.133968 80.324427 
L 331.980621 86.352352 
L 336.827274 92.05445 
L 341.673927 96.307944 
L 346.52058 103.161809 
L 351.367233 115.666821 
L 356.213886 123.085418 
L 361.060538 136.993564 
L 365.907191 145.488721 
L 370.753844 146.786967 
L 375.600497 143.354883 
L 380.44715 138.567959 
L 385.293803 139.440886 
L 390.140456 140.663118 
L 394.987108 144.053924 
L 399.833761 145.399897 
L 404.680414 146.476078 
L 409.527067 150.50072 
L 414.37372 162.304766 
L 419.220373 175.018379 
L 424.067026 187.597018 
L 428.913678 193.358259 
L 433.760331 187.811752 
L 438.606984 181.785321 
L 443.453637 179.939406 
L 448.30029 179.439178 
L 453.146943 178.436078 
L 457.993596 176.825379 
L 462.840248 176.482711 
L 467.686901 174.329456 
L 472.533554 179.288038 
L 477.380207 177.894312 
L 482.22686 180.468003 
L 487.073513 179.916137 
L 491.920166 182.0294 
L 496.766819 185.746094 
L 501.613471 186.019285 
L 506.460124 190.661984 
L 511.306777 195.783447 
L 516.15343 196.579531 
L 521.000083 198.349444 
L 525.846736 197.398975 
L 530.693389 201.599257 
L 535.540041 201.230606 
L 540.386694 196.207016 
L 545.233347 196.665872 
L 550.08 199.858041 
" clip-path="url(#p10b308bbb1)" style="fill: none; stroke-dasharray: 11.1,4.8; stroke-dashoffset: 0; stroke: #1f77b4; stroke-width: 3"/>
   </g>
   <g id="line2d_11">
    <path d="M 147.807813 223.688365 
L 152.654465 227.465221 
L 157.501118 225.919204 
L 162.347771 227.46564 
L 167.194424 227.732059 
L 172.041077 225.439921 
L 176.88773 222.56476 
L 181.734383 223.638259 
L 186.581035 228.472609 
L 191.427688 228.583501 
L 196.274341 230.391178 
L 201.120994 227.786862 
L 205.967647 228.05717 
L 210.8143 225.300337 
L 215.660953 224.563397 
L 220.507605 220.838936 
L 225.354258 217.682323 
L 230.200911 219.138669 
L 235.047564 219.831533 
L 239.894217 221.204685 
L 244.74087 223.981375 
L 249.587523 222.884758 
L 254.434175 220.740676 
L 259.280828 215.730244 
L 264.127481 216.659734 
L 268.974134 208.843754 
L 273.820787 211.856135 
L 278.66744 206.344727 
L 283.514093 203.63204 
L 288.360745 184.640251 
L 293.207398 140.148156 
L 298.054051 103.147125 
L 302.900704 70.349748 
L 307.747357 59.213098 
L 312.59401 36.906264 
L 317.440663 38.724007 
L 322.287316 40.627232 
L 327.133968 39.774795 
L 331.980621 51.118766 
L 336.827274 54.786798 
L 341.673927 58.92457 
L 346.52058 72.935818 
L 351.367233 91.062589 
L 356.213886 107.758786 
L 361.060538 123.630782 
L 365.907191 134.674117 
L 370.753844 136.736625 
L 375.600497 128.975101 
L 380.44715 126.552219 
L 385.293803 123.253057 
L 390.140456 127.236227 
L 394.987108 121.823339 
L 399.833761 129.74632 
L 404.680414 131.460405 
L 409.527067 133.897123 
L 414.37372 142.226209 
L 419.220373 146.894258 
L 424.067026 146.742491 
L 428.913678 142.427373 
L 433.760331 143.707901 
L 438.606984 143.315613 
L 443.453637 136.942483 
L 448.30029 135.977768 
L 453.146943 135.98048 
L 457.993596 135.574681 
L 462.840248 132.62249 
L 467.686901 142.155728 
L 472.533554 145.007515 
L 477.380207 143.438876 
L 482.22686 149.09664 
L 487.073513 144.39857 
L 491.920166 152.322917 
L 496.766819 150.357825 
L 501.613471 157.07717 
L 506.460124 151.197861 
L 511.306777 154.891712 
L 516.15343 158.646279 
L 521.000083 162.081075 
L 525.846736 161.263165 
L 530.693389 163.689003 
L 535.540041 165.702316 
L 540.386694 167.428468 
L 545.233347 167.243797 
L 550.08 169.72339 
" clip-path="url(#p10b308bbb1)" style="fill: none; stroke-dasharray: 11.1,4.8; stroke-dashoffset: 0; stroke: #ff7f0e; stroke-width: 3"/>
   </g>
   <g id="line2d_12">
    <path clip-path="url(#p10b308bbb1)" style="fill: none; stroke-dasharray: 11.1,4.8; stroke-dashoffset: 0; stroke: #2ca02c; stroke-width: 3"/>
   </g>
   <g id="line2d_13">
    <path clip-path="url(#p10b308bbb1)" style="fill: none; stroke-dasharray: 11.1,4.8; stroke-dashoffset: 0; stroke: #d62728; stroke-width: 3"/>
   </g>
   <g id="line2d_14">
    <path d="M 147.807813 224.350643 
L 152.654465 226.291324 
L 157.501118 226.081391 
L 162.347771 227.677677 
L 167.194424 228.743352 
L 172.041077 228.679373 
L 176.88773 224.90977 
L 181.734383 226.808881 
L 186.581035 225.588156 
L 191.427688 228.381174 
L 196.274341 226.021341 
L 201.120994 225.614496 
L 205.967647 226.757158 
L 210.8143 222.630049 
L 215.660953 224.448882 
L 220.507605 222.988754 
L 225.354258 224.515662 
L 230.200911 231.550079 
L 235.047564 236.660076 
L 239.894217 238.443911 
L 244.74087 240.306461 
L 249.587523 236.564356 
L 254.434175 234.169153 
L 259.280828 229.449315 
L 264.127481 227.996979 
L 268.974134 221.207375 
L 273.820787 222.098367 
L 278.66744 219.805703 
L 283.514093 216.349097 
L 288.360745 197.763391 
L 293.207398 156.780364 
L 298.054051 121.134862 
L 302.900704 89.948331 
L 307.747357 73.687964 
L 312.59401 60.418593 
L 317.440663 58.514146 
L 322.287316 56.768998 
L 327.133968 60.049611 
L 331.980621 68.735559 
L 336.827274 73.420624 
L 341.673927 77.616257 
L 346.52058 88.048814 
L 351.367233 103.364705 
L 356.213886 115.422102 
L 361.060538 130.312173 
L 365.907191 140.081419 
L 370.753844 141.761796 
L 375.600497 136.164992 
L 380.44715 132.560089 
L 385.293803 131.346972 
L 390.140456 133.949673 
L 394.987108 132.938632 
L 399.833761 137.573109 
L 404.680414 138.968242 
L 409.527067 142.198922 
L 414.37372 152.265488 
L 419.220373 160.956318 
L 424.067026 167.169754 
L 428.913678 167.892816 
L 433.760331 165.759826 
L 438.606984 162.550467 
L 443.453637 158.440944 
L 448.30029 157.708473 
L 453.146943 157.208279 
L 457.993596 156.20003 
L 462.840248 154.552601 
L 467.686901 158.242592 
L 472.533554 162.147777 
L 477.380207 160.666594 
L 482.22686 164.782322 
L 487.073513 162.157354 
L 491.920166 167.176158 
L 496.766819 168.05196 
L 501.613471 171.548228 
L 506.460124 170.929922 
L 511.306777 175.337579 
L 516.15343 177.612905 
L 521.000083 180.215259 
L 525.846736 179.33107 
L 530.693389 182.64413 
L 535.540041 183.466461 
L 540.386694 181.817742 
L 545.233347 181.954835 
L 550.08 184.790715 
" clip-path="url(#p10b308bbb1)" style="fill: none; stroke: #023eff; stroke-width: 3; stroke-linecap: round"/>
   </g>
   <g id="line2d_15">
    <path d="M 147.807813 226.595632 
L 550.08 226.595632 
" clip-path="url(#p10b308bbb1)" style="fill: none; stroke-dasharray: 11.1,4.8; stroke-dashoffset: 0; stroke: #000000; stroke-width: 3"/>
   </g>
   <g id="patch_7">
    <path d="M 147.807813 267.617813 
L 147.807813 25.92 
" style="fill: none; stroke: #262626; stroke-width: 2.5; stroke-linejoin: miter; stroke-linecap: square"/>
   </g>
   <g id="patch_8">
    <path d="M 147.807813 267.617813 
L 550.08 267.617813 
" style="fill: none; stroke: #262626; stroke-width: 2.5; stroke-linejoin: miter; stroke-linecap: square"/>
   </g>
  </g>
 </g>
 <defs>
  <clipPath id="p10b308bbb1">
   <rect x="147.807813" y="25.92" width="402.272187" height="241.697812"/>
  </clipPath>
 </defs>
</svg>
