<?xml version="1.0" encoding="utf-8" standalone="no"?>
<!DOCTYPE svg PUBLIC "-//W3C//DTD SVG 1.1//EN"
  "http://www.w3.org/Graphics/SVG/1.1/DTD/svg11.dtd">
<svg xmlns:xlink="http://www.w3.org/1999/xlink" width="576pt" height="355.68pt" viewBox="0 0 576 355.68" xmlns="http://www.w3.org/2000/svg" version="1.1">
 <metadata>
  <rdf:RDF xmlns:dc="http://purl.org/dc/elements/1.1/" xmlns:cc="http://creativecommons.org/ns#" xmlns:rdf="http://www.w3.org/1999/02/22-rdf-syntax-ns#">
   <cc:Work>
    <dc:type rdf:resource="http://purl.org/dc/dcmitype/StillImage"/>
    <dc:date>2023-07-17T14:31:20.441857</dc:date>
    <dc:format>image/svg+xml</dc:format>
    <dc:creator>
     <cc:Agent>
      <dc:title>Matplotlib v3.7.2, https://matplotlib.org/</dc:title>
     </cc:Agent>
    </dc:creator>
   </cc:Work>
  </rdf:RDF>
 </metadata>
 <defs>
  <style type="text/css">*{stroke-linejoin: round; stroke-linecap: butt}</style>
 </defs>
 <g id="figure_1">
  <g id="patch_1">
   <path d="M 0 355.68 
L 576 355.68 
L 576 0 
L 0 0 
z
" style="fill: #ffffff"/>
  </g>
  <g id="axes_1">
   <g id="patch_2">
    <path d="M 135.57375 267.617813 
L 550.08 267.617813 
L 550.08 25.92 
L 135.57375 25.92 
z
" style="fill: #ffffff"/>
   </g>
   <g id="matplotlib.axis_1">
    <g id="xtick_1">
     <g id="line2d_1">
      <defs>
       <path id="m6766127808" d="M 0 0 
L 0 12 
" style="stroke: #262626; stroke-width: 2.5"/>
      </defs>
      <g>
       <use xlink:href="#m6766127808" x="135.57375" y="267.617813" style="fill: #262626; stroke: #262626; stroke-width: 2.5"/>
      </g>
     </g>
     <g id="text_1">
      <!-- 0.0 -->
      <g style="fill: #262626" transform="translate(120.28375 298.865) scale(0.22 -0.22)">
       <defs>
        <path id="ArialMT-30" d="M 266 2259 
Q 266 3072 433 3567 
Q 600 4063 929 4331 
Q 1259 4600 1759 4600 
Q 2128 4600 2406 4451 
Q 2684 4303 2865 4023 
Q 3047 3744 3150 3342 
Q 3253 2941 3253 2259 
Q 3253 1453 3087 958 
Q 2922 463 2592 192 
Q 2263 -78 1759 -78 
Q 1097 -78 719 397 
Q 266 969 266 2259 
z
M 844 2259 
Q 844 1131 1108 757 
Q 1372 384 1759 384 
Q 2147 384 2411 759 
Q 2675 1134 2675 2259 
Q 2675 3391 2411 3762 
Q 2147 4134 1753 4134 
Q 1366 4134 1134 3806 
Q 844 3388 844 2259 
z
" transform="scale(0.015625)"/>
        <path id="ArialMT-2e" d="M 581 0 
L 581 641 
L 1222 641 
L 1222 0 
L 581 0 
z
" transform="scale(0.015625)"/>
       </defs>
       <use xlink:href="#ArialMT-30"/>
       <use xlink:href="#ArialMT-2e" x="55.615234"/>
       <use xlink:href="#ArialMT-30" x="83.398438"/>
      </g>
     </g>
    </g>
    <g id="xtick_2">
     <g id="line2d_2">
      <g>
       <use xlink:href="#m6766127808" x="209.592723" y="267.617813" style="fill: #262626; stroke: #262626; stroke-width: 2.5"/>
      </g>
     </g>
     <g id="text_2">
      <!-- 2.5 -->
      <g style="fill: #262626" transform="translate(194.302723 298.865) scale(0.22 -0.22)">
       <defs>
        <path id="ArialMT-32" d="M 3222 541 
L 3222 0 
L 194 0 
Q 188 203 259 391 
Q 375 700 629 1000 
Q 884 1300 1366 1694 
Q 2113 2306 2375 2664 
Q 2638 3022 2638 3341 
Q 2638 3675 2398 3904 
Q 2159 4134 1775 4134 
Q 1369 4134 1125 3890 
Q 881 3647 878 3216 
L 300 3275 
Q 359 3922 746 4261 
Q 1134 4600 1788 4600 
Q 2447 4600 2831 4234 
Q 3216 3869 3216 3328 
Q 3216 3053 3103 2787 
Q 2991 2522 2730 2228 
Q 2469 1934 1863 1422 
Q 1356 997 1212 845 
Q 1069 694 975 541 
L 3222 541 
z
" transform="scale(0.015625)"/>
        <path id="ArialMT-35" d="M 266 1200 
L 856 1250 
Q 922 819 1161 601 
Q 1400 384 1738 384 
Q 2144 384 2425 690 
Q 2706 997 2706 1503 
Q 2706 1984 2436 2262 
Q 2166 2541 1728 2541 
Q 1456 2541 1237 2417 
Q 1019 2294 894 2097 
L 366 2166 
L 809 4519 
L 3088 4519 
L 3088 3981 
L 1259 3981 
L 1013 2750 
Q 1425 3038 1878 3038 
Q 2478 3038 2890 2622 
Q 3303 2206 3303 1553 
Q 3303 931 2941 478 
Q 2500 -78 1738 -78 
Q 1113 -78 717 272 
Q 322 622 266 1200 
z
" transform="scale(0.015625)"/>
       </defs>
       <use xlink:href="#ArialMT-32"/>
       <use xlink:href="#ArialMT-2e" x="55.615234"/>
       <use xlink:href="#ArialMT-35" x="83.398438"/>
      </g>
     </g>
    </g>
    <g id="xtick_3">
     <g id="line2d_3">
      <g>
       <use xlink:href="#m6766127808" x="283.611696" y="267.617813" style="fill: #262626; stroke: #262626; stroke-width: 2.5"/>
      </g>
     </g>
     <g id="text_3">
      <!-- 5.0 -->
      <g style="fill: #262626" transform="translate(268.321696 298.865) scale(0.22 -0.22)">
       <use xlink:href="#ArialMT-35"/>
       <use xlink:href="#ArialMT-2e" x="55.615234"/>
       <use xlink:href="#ArialMT-30" x="83.398438"/>
      </g>
     </g>
    </g>
    <g id="xtick_4">
     <g id="line2d_4">
      <g>
       <use xlink:href="#m6766127808" x="357.63067" y="267.617813" style="fill: #262626; stroke: #262626; stroke-width: 2.5"/>
      </g>
     </g>
     <g id="text_4">
      <!-- 7.5 -->
      <g style="fill: #262626" transform="translate(342.34067 298.865) scale(0.22 -0.22)">
       <defs>
        <path id="ArialMT-37" d="M 303 3981 
L 303 4522 
L 3269 4522 
L 3269 4084 
Q 2831 3619 2401 2847 
Q 1972 2075 1738 1259 
Q 1569 684 1522 0 
L 944 0 
Q 953 541 1156 1306 
Q 1359 2072 1739 2783 
Q 2119 3494 2547 3981 
L 303 3981 
z
" transform="scale(0.015625)"/>
       </defs>
       <use xlink:href="#ArialMT-37"/>
       <use xlink:href="#ArialMT-2e" x="55.615234"/>
       <use xlink:href="#ArialMT-35" x="83.398438"/>
      </g>
     </g>
    </g>
    <g id="xtick_5">
     <g id="line2d_5">
      <g>
       <use xlink:href="#m6766127808" x="431.649643" y="267.617813" style="fill: #262626; stroke: #262626; stroke-width: 2.5"/>
      </g>
     </g>
     <g id="text_5">
      <!-- 10.0 -->
      <g style="fill: #262626" transform="translate(410.242612 298.865) scale(0.22 -0.22)">
       <defs>
        <path id="ArialMT-31" d="M 2384 0 
L 1822 0 
L 1822 3584 
Q 1619 3391 1289 3197 
Q 959 3003 697 2906 
L 697 3450 
Q 1169 3672 1522 3987 
Q 1875 4303 2022 4600 
L 2384 4600 
L 2384 0 
z
" transform="scale(0.015625)"/>
       </defs>
       <use xlink:href="#ArialMT-31"/>
       <use xlink:href="#ArialMT-30" x="55.615234"/>
       <use xlink:href="#ArialMT-2e" x="111.230469"/>
       <use xlink:href="#ArialMT-30" x="139.013672"/>
      </g>
     </g>
    </g>
    <g id="xtick_6">
     <g id="line2d_6">
      <g>
       <use xlink:href="#m6766127808" x="505.668616" y="267.617813" style="fill: #262626; stroke: #262626; stroke-width: 2.5"/>
      </g>
     </g>
     <g id="text_6">
      <!-- 12.5 -->
      <g style="fill: #262626" transform="translate(484.261585 298.865) scale(0.22 -0.22)">
       <use xlink:href="#ArialMT-31"/>
       <use xlink:href="#ArialMT-32" x="55.615234"/>
       <use xlink:href="#ArialMT-2e" x="111.230469"/>
       <use xlink:href="#ArialMT-35" x="139.013672"/>
      </g>
     </g>
    </g>
    <g id="text_7">
     <!-- Time (s) -->
     <g style="fill: #262626" transform="translate(299.2875 324.70875) scale(0.24 -0.24)">
      <defs>
       <path id="ArialMT-54" d="M 1659 0 
L 1659 4041 
L 150 4041 
L 150 4581 
L 3781 4581 
L 3781 4041 
L 2266 4041 
L 2266 0 
L 1659 0 
z
" transform="scale(0.015625)"/>
       <path id="ArialMT-69" d="M 425 3934 
L 425 4581 
L 988 4581 
L 988 3934 
L 425 3934 
z
M 425 0 
L 425 3319 
L 988 3319 
L 988 0 
L 425 0 
z
" transform="scale(0.015625)"/>
       <path id="ArialMT-6d" d="M 422 0 
L 422 3319 
L 925 3319 
L 925 2853 
Q 1081 3097 1340 3245 
Q 1600 3394 1931 3394 
Q 2300 3394 2536 3241 
Q 2772 3088 2869 2813 
Q 3263 3394 3894 3394 
Q 4388 3394 4653 3120 
Q 4919 2847 4919 2278 
L 4919 0 
L 4359 0 
L 4359 2091 
Q 4359 2428 4304 2576 
Q 4250 2725 4106 2815 
Q 3963 2906 3769 2906 
Q 3419 2906 3187 2673 
Q 2956 2441 2956 1928 
L 2956 0 
L 2394 0 
L 2394 2156 
Q 2394 2531 2256 2718 
Q 2119 2906 1806 2906 
Q 1569 2906 1367 2781 
Q 1166 2656 1075 2415 
Q 984 2175 984 1722 
L 984 0 
L 422 0 
z
" transform="scale(0.015625)"/>
       <path id="ArialMT-65" d="M 2694 1069 
L 3275 997 
Q 3138 488 2766 206 
Q 2394 -75 1816 -75 
Q 1088 -75 661 373 
Q 234 822 234 1631 
Q 234 2469 665 2931 
Q 1097 3394 1784 3394 
Q 2450 3394 2872 2941 
Q 3294 2488 3294 1666 
Q 3294 1616 3291 1516 
L 816 1516 
Q 847 969 1125 678 
Q 1403 388 1819 388 
Q 2128 388 2347 550 
Q 2566 713 2694 1069 
z
M 847 1978 
L 2700 1978 
Q 2663 2397 2488 2606 
Q 2219 2931 1791 2931 
Q 1403 2931 1139 2672 
Q 875 2413 847 1978 
z
" transform="scale(0.015625)"/>
       <path id="ArialMT-20" transform="scale(0.015625)"/>
       <path id="ArialMT-28" d="M 1497 -1347 
Q 1031 -759 709 28 
Q 388 816 388 1659 
Q 388 2403 628 3084 
Q 909 3875 1497 4659 
L 1900 4659 
Q 1522 4009 1400 3731 
Q 1209 3300 1100 2831 
Q 966 2247 966 1656 
Q 966 153 1900 -1347 
L 1497 -1347 
z
" transform="scale(0.015625)"/>
       <path id="ArialMT-73" d="M 197 991 
L 753 1078 
Q 800 744 1014 566 
Q 1228 388 1613 388 
Q 2000 388 2187 545 
Q 2375 703 2375 916 
Q 2375 1106 2209 1216 
Q 2094 1291 1634 1406 
Q 1016 1563 777 1677 
Q 538 1791 414 1992 
Q 291 2194 291 2438 
Q 291 2659 392 2848 
Q 494 3038 669 3163 
Q 800 3259 1026 3326 
Q 1253 3394 1513 3394 
Q 1903 3394 2198 3281 
Q 2494 3169 2634 2976 
Q 2775 2784 2828 2463 
L 2278 2388 
Q 2241 2644 2061 2787 
Q 1881 2931 1553 2931 
Q 1166 2931 1000 2803 
Q 834 2675 834 2503 
Q 834 2394 903 2306 
Q 972 2216 1119 2156 
Q 1203 2125 1616 2013 
Q 2213 1853 2448 1751 
Q 2684 1650 2818 1456 
Q 2953 1263 2953 975 
Q 2953 694 2789 445 
Q 2625 197 2315 61 
Q 2006 -75 1616 -75 
Q 969 -75 630 194 
Q 291 463 197 991 
z
" transform="scale(0.015625)"/>
       <path id="ArialMT-29" d="M 791 -1347 
L 388 -1347 
Q 1322 153 1322 1656 
Q 1322 2244 1188 2822 
Q 1081 3291 891 3722 
Q 769 4003 388 4659 
L 791 4659 
Q 1378 3875 1659 3084 
Q 1900 2403 1900 1659 
Q 1900 816 1576 28 
Q 1253 -759 791 -1347 
z
" transform="scale(0.015625)"/>
      </defs>
      <use xlink:href="#ArialMT-54"/>
      <use xlink:href="#ArialMT-69" x="57.333984"/>
      <use xlink:href="#ArialMT-6d" x="79.550781"/>
      <use xlink:href="#ArialMT-65" x="162.851562"/>
      <use xlink:href="#ArialMT-20" x="218.466797"/>
      <use xlink:href="#ArialMT-28" x="246.25"/>
      <use xlink:href="#ArialMT-73" x="279.550781"/>
      <use xlink:href="#ArialMT-29" x="329.550781"/>
     </g>
    </g>
   </g>
   <g id="matplotlib.axis_2">
    <g id="ytick_1">
     <g id="line2d_7">
      <defs>
       <path id="mad4f29af6a" d="M 0 0 
L -12 0 
" style="stroke: #262626; stroke-width: 2.5"/>
      </defs>
      <g>
       <use xlink:href="#mad4f29af6a" x="135.57375" y="244.98084" style="fill: #262626; stroke: #262626; stroke-width: 2.5"/>
      </g>
     </g>
     <g id="text_8">
      <!-- −0.002 -->
      <g style="fill: #262626" transform="translate(52.17625 252.854434) scale(0.22 -0.22)">
       <defs>
        <path id="ArialMT-2212" d="M 3381 1997 
L 356 1997 
L 356 2522 
L 3381 2522 
L 3381 1997 
z
" transform="scale(0.015625)"/>
       </defs>
       <use xlink:href="#ArialMT-2212"/>
       <use xlink:href="#ArialMT-30" x="58.398438"/>
       <use xlink:href="#ArialMT-2e" x="114.013672"/>
       <use xlink:href="#ArialMT-30" x="141.796875"/>
       <use xlink:href="#ArialMT-30" x="197.412109"/>
       <use xlink:href="#ArialMT-32" x="253.027344"/>
      </g>
     </g>
    </g>
    <g id="ytick_2">
     <g id="line2d_8">
      <g>
       <use xlink:href="#mad4f29af6a" x="135.57375" y="185.166195" style="fill: #262626; stroke: #262626; stroke-width: 2.5"/>
      </g>
     </g>
     <g id="text_9">
      <!-- 0.000 -->
      <g style="fill: #262626" transform="translate(65.025625 193.039789) scale(0.22 -0.22)">
       <use xlink:href="#ArialMT-30"/>
       <use xlink:href="#ArialMT-2e" x="55.615234"/>
       <use xlink:href="#ArialMT-30" x="83.398438"/>
       <use xlink:href="#ArialMT-30" x="139.013672"/>
       <use xlink:href="#ArialMT-30" x="194.628906"/>
      </g>
     </g>
    </g>
    <g id="ytick_3">
     <g id="line2d_9">
      <g>
       <use xlink:href="#mad4f29af6a" x="135.57375" y="125.35155" style="fill: #262626; stroke: #262626; stroke-width: 2.5"/>
      </g>
     </g>
     <g id="text_10">
      <!-- 0.002 -->
      <g style="fill: #262626" transform="translate(65.025625 133.225144) scale(0.22 -0.22)">
       <use xlink:href="#ArialMT-30"/>
       <use xlink:href="#ArialMT-2e" x="55.615234"/>
       <use xlink:href="#ArialMT-30" x="83.398438"/>
       <use xlink:href="#ArialMT-30" x="139.013672"/>
       <use xlink:href="#ArialMT-32" x="194.628906"/>
      </g>
     </g>
    </g>
    <g id="ytick_4">
     <g id="line2d_10">
      <g>
       <use xlink:href="#mad4f29af6a" x="135.57375" y="65.536905" style="fill: #262626; stroke: #262626; stroke-width: 2.5"/>
      </g>
     </g>
     <g id="text_11">
      <!-- 0.004 -->
      <g style="fill: #262626" transform="translate(65.025625 73.410499) scale(0.22 -0.22)">
       <defs>
        <path id="ArialMT-34" d="M 2069 0 
L 2069 1097 
L 81 1097 
L 81 1613 
L 2172 4581 
L 2631 4581 
L 2631 1613 
L 3250 1613 
L 3250 1097 
L 2631 1097 
L 2631 0 
L 2069 0 
z
M 2069 1613 
L 2069 3678 
L 634 1613 
L 2069 1613 
z
" transform="scale(0.015625)"/>
       </defs>
       <use xlink:href="#ArialMT-30"/>
       <use xlink:href="#ArialMT-2e" x="55.615234"/>
       <use xlink:href="#ArialMT-30" x="83.398438"/>
       <use xlink:href="#ArialMT-30" x="139.013672"/>
       <use xlink:href="#ArialMT-34" x="194.628906"/>
      </g>
     </g>
    </g>
    <g id="text_12">
     <!-- Overlap -->
     <g style="fill: #262626" transform="translate(43.40625 188.783906) rotate(-90) scale(0.24 -0.24)">
      <defs>
       <path id="ArialMT-4f" d="M 309 2231 
Q 309 3372 921 4017 
Q 1534 4663 2503 4663 
Q 3138 4663 3647 4359 
Q 4156 4056 4423 3514 
Q 4691 2972 4691 2284 
Q 4691 1588 4409 1038 
Q 4128 488 3612 205 
Q 3097 -78 2500 -78 
Q 1853 -78 1343 234 
Q 834 547 571 1087 
Q 309 1628 309 2231 
z
M 934 2222 
Q 934 1394 1379 917 
Q 1825 441 2497 441 
Q 3181 441 3623 922 
Q 4066 1403 4066 2288 
Q 4066 2847 3877 3264 
Q 3688 3681 3323 3911 
Q 2959 4141 2506 4141 
Q 1863 4141 1398 3698 
Q 934 3256 934 2222 
z
" transform="scale(0.015625)"/>
       <path id="ArialMT-76" d="M 1344 0 
L 81 3319 
L 675 3319 
L 1388 1331 
Q 1503 1009 1600 663 
Q 1675 925 1809 1294 
L 2547 3319 
L 3125 3319 
L 1869 0 
L 1344 0 
z
" transform="scale(0.015625)"/>
       <path id="ArialMT-72" d="M 416 0 
L 416 3319 
L 922 3319 
L 922 2816 
Q 1116 3169 1280 3281 
Q 1444 3394 1641 3394 
Q 1925 3394 2219 3213 
L 2025 2691 
Q 1819 2813 1613 2813 
Q 1428 2813 1281 2702 
Q 1134 2591 1072 2394 
Q 978 2094 978 1738 
L 978 0 
L 416 0 
z
" transform="scale(0.015625)"/>
       <path id="ArialMT-6c" d="M 409 0 
L 409 4581 
L 972 4581 
L 972 0 
L 409 0 
z
" transform="scale(0.015625)"/>
       <path id="ArialMT-61" d="M 2588 409 
Q 2275 144 1986 34 
Q 1697 -75 1366 -75 
Q 819 -75 525 192 
Q 231 459 231 875 
Q 231 1119 342 1320 
Q 453 1522 633 1644 
Q 813 1766 1038 1828 
Q 1203 1872 1538 1913 
Q 2219 1994 2541 2106 
Q 2544 2222 2544 2253 
Q 2544 2597 2384 2738 
Q 2169 2928 1744 2928 
Q 1347 2928 1158 2789 
Q 969 2650 878 2297 
L 328 2372 
Q 403 2725 575 2942 
Q 747 3159 1072 3276 
Q 1397 3394 1825 3394 
Q 2250 3394 2515 3294 
Q 2781 3194 2906 3042 
Q 3031 2891 3081 2659 
Q 3109 2516 3109 2141 
L 3109 1391 
Q 3109 606 3145 398 
Q 3181 191 3288 0 
L 2700 0 
Q 2613 175 2588 409 
z
M 2541 1666 
Q 2234 1541 1622 1453 
Q 1275 1403 1131 1340 
Q 988 1278 909 1158 
Q 831 1038 831 891 
Q 831 666 1001 516 
Q 1172 366 1500 366 
Q 1825 366 2078 508 
Q 2331 650 2450 897 
Q 2541 1088 2541 1459 
L 2541 1666 
z
" transform="scale(0.015625)"/>
       <path id="ArialMT-70" d="M 422 -1272 
L 422 3319 
L 934 3319 
L 934 2888 
Q 1116 3141 1344 3267 
Q 1572 3394 1897 3394 
Q 2322 3394 2647 3175 
Q 2972 2956 3137 2557 
Q 3303 2159 3303 1684 
Q 3303 1175 3120 767 
Q 2938 359 2589 142 
Q 2241 -75 1856 -75 
Q 1575 -75 1351 44 
Q 1128 163 984 344 
L 984 -1272 
L 422 -1272 
z
M 931 1641 
Q 931 1000 1190 694 
Q 1450 388 1819 388 
Q 2194 388 2461 705 
Q 2728 1022 2728 1688 
Q 2728 2322 2467 2637 
Q 2206 2953 1844 2953 
Q 1484 2953 1207 2617 
Q 931 2281 931 1641 
z
" transform="scale(0.015625)"/>
      </defs>
      <use xlink:href="#ArialMT-4f"/>
      <use xlink:href="#ArialMT-76" x="77.783203"/>
      <use xlink:href="#ArialMT-65" x="127.783203"/>
      <use xlink:href="#ArialMT-72" x="183.398438"/>
      <use xlink:href="#ArialMT-6c" x="216.699219"/>
      <use xlink:href="#ArialMT-61" x="238.916016"/>
      <use xlink:href="#ArialMT-70" x="294.53125"/>
     </g>
    </g>
   </g>
   <g id="PolyCollection_1">
    <defs>
     <path id="m98d29ee681" d="M 135.57375 -185.966175 
L 135.57375 -154.786879 
L 140.567801 -158.582566 
L 145.561852 -157.090545 
L 150.555904 -152.060412 
L 155.549955 -153.681735 
L 160.544006 -157.82002 
L 165.538057 -168.162399 
L 170.532108 -159.626795 
L 175.52616 -167.338314 
L 180.520211 -155.015486 
L 185.514262 -152.306085 
L 190.508313 -153.381656 
L 195.502364 -157.15551 
L 200.496416 -155.801231 
L 205.490467 -164.424952 
L 210.484518 -192.894256 
L 215.478569 -218.301419 
L 220.47262 -232.941497 
L 225.466672 -246.932415 
L 230.460723 -249.320761 
L 235.454774 -246.862854 
L 240.448825 -241.355901 
L 245.442877 -236.150244 
L 250.436928 -222.452623 
L 255.430979 -220.266898 
L 260.42503 -214.590419 
L 265.419081 -206.917085 
L 270.413133 -192.274619 
L 275.407184 -192.392475 
L 280.401235 -185.663284 
L 285.395286 -184.227358 
L 290.389337 -177.108179 
L 295.383389 -171.829317 
L 300.37744 -173.459289 
L 305.371491 -177.893636 
L 310.365542 -171.808482 
L 315.359593 -170.76127 
L 320.353645 -167.52269 
L 325.347696 -168.85457 
L 330.341747 -161.175279 
L 335.335798 -157.670685 
L 340.329849 -155.542777 
L 345.323901 -150.88906 
L 350.317952 -162.092222 
L 355.312003 -172.363507 
L 360.306054 -173.12918 
L 365.300105 -168.741381 
L 370.294157 -166.52645 
L 375.288208 -174.10532 
L 380.282259 -178.282104 
L 385.27631 -171.909791 
L 390.270361 -173.849654 
L 395.264413 -168.109713 
L 400.258464 -175.564728 
L 405.252515 -183.548133 
L 410.246566 -182.043431 
L 415.240617 -173.056825 
L 420.234669 -165.913571 
L 425.22872 -168.599815 
L 430.222771 -177.482977 
L 435.216822 -176.406315 
L 440.210873 -179.536056 
L 445.204925 -178.686969 
L 450.198976 -172.756338 
L 455.193027 -157.829326 
L 460.187078 -149.98838 
L 465.18113 -136.21396 
L 470.175181 -136.454982 
L 475.169232 -118.891199 
L 480.163283 -111.512565 
L 485.157334 -99.048452 
L 490.151386 -101.101719 
L 495.145437 -107.241636 
L 500.139488 -112.100716 
L 505.133539 -107.611735 
L 510.12759 -107.79366 
L 515.121642 -112.598036 
L 520.115693 -119.722375 
L 525.109744 -118.946887 
L 530.103795 -126.973072 
L 535.097846 -126.81721 
L 540.091898 -134.271068 
L 545.085949 -134.665057 
L 550.08 -131.320637 
L 550.08 -234.1078 
L 550.08 -234.1078 
L 545.085949 -235.217004 
L 540.091898 -236.337748 
L 535.097846 -229.480216 
L 530.103795 -228.271252 
L 525.109744 -221.012219 
L 520.115693 -222.323155 
L 515.121642 -213.203446 
L 510.12759 -204.038357 
L 505.133539 -204.949933 
L 500.139488 -207.341899 
L 495.145437 -204.513033 
L 490.151386 -206.910935 
L 485.157334 -208.598665 
L 480.163283 -217.17547 
L 475.169232 -226.631647 
L 470.175181 -236.953 
L 465.18113 -242.290788 
L 460.187078 -253.879495 
L 455.193027 -265.730064 
L 450.198976 -274.134883 
L 445.204925 -273.847377 
L 440.210873 -279.216214 
L 435.216822 -272.486215 
L 430.222771 -268.193467 
L 425.22872 -256.315577 
L 420.234669 -255.063569 
L 415.240617 -261.58832 
L 410.246566 -264.46478 
L 405.252515 -265.398825 
L 400.258464 -253.869717 
L 395.264413 -249.158275 
L 390.270361 -253.834099 
L 385.27631 -255.649516 
L 380.282259 -265.522613 
L 375.288208 -259.696422 
L 370.294157 -252.512168 
L 365.300105 -255.602707 
L 360.306054 -252.560094 
L 355.312003 -251.159366 
L 350.317952 -241.881564 
L 345.323901 -228.718542 
L 340.329849 -233.241467 
L 335.335798 -244.222207 
L 330.341747 -240.767103 
L 325.347696 -248.977665 
L 320.353645 -247.940287 
L 315.359593 -248.93301 
L 310.365542 -258.213243 
L 305.371491 -255.189047 
L 300.37744 -262.209538 
L 295.383389 -253.230598 
L 290.389337 -254.045227 
L 285.395286 -256.518971 
L 280.401235 -260.175119 
L 275.407184 -265.156564 
L 270.413133 -268.842468 
L 265.419081 -279.497335 
L 260.42503 -281.351268 
L 255.430979 -288.704296 
L 250.436928 -287.838269 
L 245.442877 -301.968573 
L 240.448825 -306.80317 
L 235.454774 -315.548873 
L 230.460723 -318.773736 
L 225.466672 -311.811646 
L 220.47262 -300.331784 
L 215.478569 -282.941209 
L 210.484518 -256.915845 
L 205.490467 -223.463706 
L 200.496416 -208.239164 
L 195.502364 -203.105185 
L 190.508313 -190.679813 
L 185.514262 -182.327939 
L 180.520211 -182.976667 
L 175.52616 -192.512552 
L 170.532108 -180.669862 
L 165.538057 -183.227054 
L 160.544006 -176.658245 
L 155.549955 -180.98673 
L 150.555904 -178.240184 
L 145.561852 -185.555755 
L 140.567801 -186.729131 
L 135.57375 -185.966175 
z
" style="stroke: #ff7c00; stroke-opacity: 0.25; stroke-width: 2"/>
    </defs>
    <g clip-path="url(#p3a1ac6e0a9)">
     <use xlink:href="#m98d29ee681" x="0" y="355.68" style="fill: #ff7c00; fill-opacity: 0.25; stroke: #ff7c00; stroke-opacity: 0.25; stroke-width: 2"/>
    </g>
   </g>
   <g id="patch_3">
    <path d="M 194.788929 267.617813 
L 194.788929 25.92 
L 224.396518 25.92 
L 224.396518 267.617813 
z
" clip-path="url(#p3a1ac6e0a9)" style="fill: #0000ff; opacity: 0.1; stroke: #0000ff; stroke-width: 2; stroke-linejoin: miter"/>
   </g>
   <g id="patch_4">
    <path d="M 268.807902 267.617813 
L 268.807902 25.92 
L 298.415491 25.92 
L 298.415491 267.617813 
z
" clip-path="url(#p3a1ac6e0a9)" style="fill: #0000ff; opacity: 0.1; stroke: #0000ff; stroke-width: 2; stroke-linejoin: miter"/>
   </g>
   <g id="patch_5">
    <path d="M 402.042054 267.617813 
L 402.042054 25.92 
L 431.649643 25.92 
L 431.649643 267.617813 
z
" clip-path="url(#p3a1ac6e0a9)" style="fill: #0000ff; opacity: 0.1; stroke: #0000ff; stroke-width: 2; stroke-linejoin: miter"/>
   </g>
   <g id="patch_6">
    <path d="M 328.02308 267.617813 
L 328.02308 25.92 
L 342.826875 25.92 
L 342.826875 267.617813 
z
" clip-path="url(#p3a1ac6e0a9)" style="fill: #008000; opacity: 0.1; stroke: #008000; stroke-width: 2; stroke-linejoin: miter"/>
   </g>
   <g id="line2d_11">
    <path d="M 135.57375 186.443612 
L 140.567801 185.550188 
L 145.561852 185.722979 
L 150.555904 186.215985 
L 155.549955 176.680234 
L 160.544006 181.610795 
L 165.538057 181.720367 
L 170.532108 185.072495 
L 175.52616 178.166447 
L 180.520211 190.559053 
L 185.514262 194.740126 
L 190.508313 189.512062 
L 195.502364 186.60749 
L 200.496416 180.449142 
L 205.490467 168.443738 
L 210.484518 133.690526 
L 215.478569 115.39124 
L 220.47262 102.725674 
L 225.466672 91.577765 
L 230.460723 89.863863 
L 235.454774 92.662415 
L 240.448825 98.203467 
L 245.442877 108.842433 
L 250.436928 123.259976 
L 255.430979 132.390221 
L 260.42503 139.185167 
L 265.419081 154.140163 
L 270.413133 175.830118 
L 275.407184 170.746731 
L 280.401235 176.637118 
L 285.395286 178.371972 
L 290.389337 179.57123 
L 295.383389 185.742678 
L 300.37744 184.046728 
L 305.371491 182.967096 
L 310.365542 187.021861 
L 315.359593 185.89465 
L 320.353645 183.63842 
L 325.347696 174.302411 
L 330.341747 183.955306 
L 335.335798 187.865913 
L 340.329849 184.479154 
L 345.323901 195.409468 
L 350.317952 183.352353 
L 355.312003 172.737899 
L 360.306054 178.732095 
L 365.300105 181.44512 
L 370.294157 186.777505 
L 375.288208 178.082294 
L 380.282259 164.33453 
L 385.27631 168.468539 
L 390.270361 165.334503 
L 395.264413 172.389303 
L 400.258464 173.219069 
L 405.252515 163.151647 
L 410.246566 156.876144 
L 415.240617 164.814641 
L 420.234669 178.300807 
L 425.22872 174.039902 
L 430.222771 154.078077 
L 435.216822 151.216443 
L 440.210873 136.537274 
L 445.204925 138.14753 
L 450.198976 146.051986 
L 455.193027 146.889257 
L 460.187078 147.170533 
L 465.18113 162.2014 
L 470.175181 160.671553 
L 475.169232 167.958514 
L 480.163283 179.60485 
L 485.157334 183.916475 
L 490.151386 185.024818 
L 495.145437 183.840861 
L 500.139488 181.332923 
L 505.133539 181.056724 
L 510.12759 186.707486 
L 515.121642 178.596581 
L 520.115693 165.981094 
L 525.109744 167.124325 
L 530.103795 147.22968 
L 535.097846 144.303335 
L 540.091898 131.021061 
L 545.085949 130.532934 
L 550.08 135.397358 
" clip-path="url(#p3a1ac6e0a9)" style="fill: none; stroke-dasharray: 11.1,4.8; stroke-dashoffset: 0; stroke: #1f77b4; stroke-width: 3"/>
   </g>
   <g id="line2d_12">
    <path d="M 135.57375 182.538139 
L 140.567801 179.858543 
L 145.561852 183.845608 
L 150.555904 195.982708 
L 155.549955 201.737003 
L 160.544006 196.724976 
L 165.538057 179.332689 
L 170.532108 186.069975 
L 175.52616 173.457466 
L 180.520211 182.044976 
L 185.514262 181.649784 
L 190.508313 178.752476 
L 195.502364 164.818437 
L 200.496416 167.950606 
L 205.490467 156.918317 
L 210.484518 130.269427 
L 215.478569 96.607011 
L 220.47262 74.946 
L 225.466672 60.272861 
L 230.460723 54.241843 
L 235.454774 56.299963 
L 240.448825 64.536476 
L 245.442877 66.478699 
L 250.436928 78.536292 
L 255.430979 70.996929 
L 260.42503 76.866187 
L 265.419081 70.820472 
L 270.413133 76.897992 
L 275.407184 84.175526 
L 280.401235 90.212774 
L 285.395286 94.455565 
L 290.389337 101.170791 
L 295.383389 103.619397 
L 300.37744 93.55331 
L 305.371491 94.440724 
L 310.365542 94.705595 
L 315.359593 105.700955 
L 320.353645 111.555363 
L 325.347696 118.497731 
L 330.341747 127.567098 
L 335.335798 128.490245 
L 340.329849 142.817346 
L 345.323901 141.127535 
L 350.317952 129.38194 
L 355.312003 119.677398 
L 360.306054 111.030898 
L 365.300105 108.818102 
L 370.294157 109.53017 
L 375.288208 104.015163 
L 380.282259 106.782814 
L 385.27631 117.877102 
L 390.270361 122.53791 
L 395.264413 122.63968 
L 400.258464 111.898765 
L 405.252515 102.731287 
L 410.246566 110.306121 
L 415.240617 115.960429 
L 420.234669 114.96522 
L 425.22872 114.572533 
L 430.222771 113.723185 
L 435.216822 112.655454 
L 440.210873 118.06397 
L 445.204925 122.337538 
L 450.198976 121.643661 
L 455.193027 141.813958 
L 460.187078 158.483635 
L 465.18113 171.149498 
L 470.175181 177.041539 
L 475.169232 196.595057 
L 480.163283 203.879385 
L 485.157334 222.794695 
L 490.151386 223.101854 
L 495.145437 217.995785 
L 500.139488 211.745982 
L 505.133539 217.481778 
L 510.12759 213.424109 
L 515.121642 209.613173 
L 520.115693 205.227829 
L 525.109744 205.949941 
L 530.103795 210.25533 
L 535.097846 212.416217 
L 540.091898 210.235354 
L 545.085949 209.177917 
L 550.08 209.21829 
" clip-path="url(#p3a1ac6e0a9)" style="fill: none; stroke-dasharray: 11.1,4.8; stroke-dashoffset: 0; stroke: #ff7f0e; stroke-width: 3"/>
   </g>
   <g id="line2d_13">
    <path clip-path="url(#p3a1ac6e0a9)" style="fill: none; stroke-dasharray: 11.1,4.8; stroke-dashoffset: 0; stroke: #2ca02c; stroke-width: 3"/>
   </g>
   <g id="line2d_14">
    <path clip-path="url(#p3a1ac6e0a9)" style="fill: none; stroke-dasharray: 11.1,4.8; stroke-dashoffset: 0; stroke: #d62728; stroke-width: 3"/>
   </g>
   <g id="line2d_15">
    <path d="M 135.57375 184.490875 
L 140.567801 182.704365 
L 145.561852 184.784293 
L 150.555904 191.099347 
L 155.549955 189.208618 
L 160.544006 189.167885 
L 165.538057 180.526528 
L 170.532108 185.571235 
L 175.52616 175.811957 
L 180.520211 186.302015 
L 185.514262 188.194955 
L 190.508313 184.132269 
L 195.502364 175.712963 
L 200.496416 174.199874 
L 205.490467 162.681028 
L 210.484518 131.979977 
L 215.478569 105.999125 
L 220.47262 88.835837 
L 225.466672 75.925313 
L 230.460723 72.052853 
L 235.454774 74.481189 
L 240.448825 81.369971 
L 245.442877 87.660566 
L 250.436928 100.898134 
L 255.430979 101.693575 
L 260.42503 108.025677 
L 265.419081 112.480317 
L 270.413133 126.364055 
L 275.407184 127.461129 
L 280.401235 133.424946 
L 285.395286 136.413768 
L 290.389337 140.371011 
L 295.383389 144.681037 
L 300.37744 138.800019 
L 305.371491 138.70391 
L 310.365542 140.863728 
L 315.359593 145.797803 
L 320.353645 147.596892 
L 325.347696 146.400071 
L 330.341747 155.761202 
L 335.335798 158.178079 
L 340.329849 163.64825 
L 345.323901 168.268502 
L 350.317952 156.367147 
L 355.312003 146.207649 
L 360.306054 144.881496 
L 365.300105 145.131611 
L 370.294157 148.153837 
L 375.288208 141.048728 
L 380.282259 135.558672 
L 385.27631 143.172821 
L 390.270361 143.936206 
L 395.264413 147.514491 
L 400.258464 142.558917 
L 405.252515 132.941467 
L 410.246566 133.591133 
L 415.240617 140.387535 
L 420.234669 146.633013 
L 425.22872 144.306217 
L 430.222771 133.900631 
L 435.216822 131.935949 
L 440.210873 127.300622 
L 445.204925 130.242534 
L 450.198976 133.847823 
L 455.193027 144.351607 
L 460.187078 152.827084 
L 465.18113 166.675449 
L 470.175181 168.856546 
L 475.169232 182.276785 
L 480.163283 191.742118 
L 485.157334 203.355585 
L 490.151386 204.063336 
L 495.145437 200.918323 
L 500.139488 196.539452 
L 505.133539 199.269251 
L 510.12759 200.065798 
L 515.121642 194.104877 
L 520.115693 185.604461 
L 525.109744 186.537133 
L 530.103795 178.742505 
L 535.097846 178.359776 
L 540.091898 170.628207 
L 545.085949 169.855425 
L 550.08 172.307824 
" clip-path="url(#p3a1ac6e0a9)" style="fill: none; stroke: #ff7c00; stroke-width: 3; stroke-linecap: round"/>
   </g>
   <g id="line2d_16">
    <path d="M 135.57375 185.166195 
L 550.08 185.166195 
" clip-path="url(#p3a1ac6e0a9)" style="fill: none; stroke-dasharray: 11.1,4.8; stroke-dashoffset: 0; stroke: #000000; stroke-width: 3"/>
   </g>
   <g id="patch_7">
    <path d="M 135.57375 267.617812 
L 135.57375 25.92 
" style="fill: none; stroke: #262626; stroke-width: 2.5; stroke-linejoin: miter; stroke-linecap: square"/>
   </g>
   <g id="patch_8">
    <path d="M 135.57375 267.617813 
L 550.08 267.617813 
" style="fill: none; stroke: #262626; stroke-width: 2.5; stroke-linejoin: miter; stroke-linecap: square"/>
   </g>
  </g>
 </g>
 <defs>
  <clipPath id="p3a1ac6e0a9">
   <rect x="135.57375" y="25.92" width="414.50625" height="241.697812"/>
  </clipPath>
 </defs>
</svg>
