<?xml version="1.0" encoding="utf-8" standalone="no"?>
<!DOCTYPE svg PUBLIC "-//W3C//DTD SVG 1.1//EN"
  "http://www.w3.org/Graphics/SVG/1.1/DTD/svg11.dtd">
<svg xmlns:xlink="http://www.w3.org/1999/xlink" width="432pt" height="266.990683pt" viewBox="0 0 432 266.990683" xmlns="http://www.w3.org/2000/svg" version="1.1">
 <metadata>
  <rdf:RDF xmlns:dc="http://purl.org/dc/elements/1.1/" xmlns:cc="http://creativecommons.org/ns#" xmlns:rdf="http://www.w3.org/1999/02/22-rdf-syntax-ns#">
   <cc:Work>
    <dc:type rdf:resource="http://purl.org/dc/dcmitype/StillImage"/>
    <dc:date>2023-07-25T15:37:48.101198</dc:date>
    <dc:format>image/svg+xml</dc:format>
    <dc:creator>
     <cc:Agent>
      <dc:title>Matplotlib v3.7.2, https://matplotlib.org/</dc:title>
     </cc:Agent>
    </dc:creator>
   </cc:Work>
  </rdf:RDF>
 </metadata>
 <defs>
  <style type="text/css">*{stroke-linejoin: round; stroke-linecap: butt}</style>
 </defs>
 <g id="figure_1">
  <g id="patch_1">
   <path d="M 0 266.990683 
L 432 266.990683 
L 432 0 
L 0 0 
z
" style="fill: #ffffff"/>
  </g>
  <g id="axes_1">
   <g id="patch_2">
    <path d="M 110.490312 178.928496 
L 406.08 178.928496 
L 406.08 25.92 
L 110.490312 25.92 
z
" style="fill: #ffffff"/>
   </g>
   <g id="matplotlib.axis_1">
    <g id="xtick_1">
     <g id="line2d_1">
      <defs>
       <path id="m568ad272dc" d="M 0 0 
L 0 12 
" style="stroke: #262626; stroke-width: 2.5"/>
      </defs>
      <g>
       <use xlink:href="#m568ad272dc" x="110.490312" y="178.928496" style="fill: #262626; stroke: #262626; stroke-width: 2.5"/>
      </g>
     </g>
     <g id="text_1">
      <!-- 0 -->
      <g style="fill: #262626" transform="translate(104.373281 210.175683) scale(0.22 -0.22)">
       <defs>
        <path id="ArialMT-30" d="M 266 2259 
Q 266 3072 433 3567 
Q 600 4063 929 4331 
Q 1259 4600 1759 4600 
Q 2128 4600 2406 4451 
Q 2684 4303 2865 4023 
Q 3047 3744 3150 3342 
Q 3253 2941 3253 2259 
Q 3253 1453 3087 958 
Q 2922 463 2592 192 
Q 2263 -78 1759 -78 
Q 1097 -78 719 397 
Q 266 969 266 2259 
z
M 844 2259 
Q 844 1131 1108 757 
Q 1372 384 1759 384 
Q 2147 384 2411 759 
Q 2675 1134 2675 2259 
Q 2675 3391 2411 3762 
Q 2147 4134 1753 4134 
Q 1366 4134 1134 3806 
Q 844 3388 844 2259 
z
" transform="scale(0.015625)"/>
       </defs>
       <use xlink:href="#ArialMT-30"/>
      </g>
     </g>
    </g>
    <g id="xtick_2">
     <g id="line2d_2">
      <g>
       <use xlink:href="#m568ad272dc" x="216.058058" y="178.928496" style="fill: #262626; stroke: #262626; stroke-width: 2.5"/>
      </g>
     </g>
     <g id="text_2">
      <!-- 5 -->
      <g style="fill: #262626" transform="translate(209.941027 210.175683) scale(0.22 -0.22)">
       <defs>
        <path id="ArialMT-35" d="M 266 1200 
L 856 1250 
Q 922 819 1161 601 
Q 1400 384 1738 384 
Q 2144 384 2425 690 
Q 2706 997 2706 1503 
Q 2706 1984 2436 2262 
Q 2166 2541 1728 2541 
Q 1456 2541 1237 2417 
Q 1019 2294 894 2097 
L 366 2166 
L 809 4519 
L 3088 4519 
L 3088 3981 
L 1259 3981 
L 1013 2750 
Q 1425 3038 1878 3038 
Q 2478 3038 2890 2622 
Q 3303 2206 3303 1553 
Q 3303 931 2941 478 
Q 2500 -78 1738 -78 
Q 1113 -78 717 272 
Q 322 622 266 1200 
z
" transform="scale(0.015625)"/>
       </defs>
       <use xlink:href="#ArialMT-35"/>
      </g>
     </g>
    </g>
    <g id="xtick_3">
     <g id="line2d_3">
      <g>
       <use xlink:href="#m568ad272dc" x="321.625804" y="178.928496" style="fill: #262626; stroke: #262626; stroke-width: 2.5"/>
      </g>
     </g>
     <g id="text_3">
      <!-- 10 -->
      <g style="fill: #262626" transform="translate(309.391741 210.175683) scale(0.22 -0.22)">
       <defs>
        <path id="ArialMT-31" d="M 2384 0 
L 1822 0 
L 1822 3584 
Q 1619 3391 1289 3197 
Q 959 3003 697 2906 
L 697 3450 
Q 1169 3672 1522 3987 
Q 1875 4303 2022 4600 
L 2384 4600 
L 2384 0 
z
" transform="scale(0.015625)"/>
       </defs>
       <use xlink:href="#ArialMT-31"/>
       <use xlink:href="#ArialMT-30" x="55.615234"/>
      </g>
     </g>
    </g>
    <g id="text_4">
     <!-- Time (s) -->
     <g style="fill: #262626" transform="translate(214.745781 236.019433) scale(0.24 -0.24)">
      <defs>
       <path id="ArialMT-54" d="M 1659 0 
L 1659 4041 
L 150 4041 
L 150 4581 
L 3781 4581 
L 3781 4041 
L 2266 4041 
L 2266 0 
L 1659 0 
z
" transform="scale(0.015625)"/>
       <path id="ArialMT-69" d="M 425 3934 
L 425 4581 
L 988 4581 
L 988 3934 
L 425 3934 
z
M 425 0 
L 425 3319 
L 988 3319 
L 988 0 
L 425 0 
z
" transform="scale(0.015625)"/>
       <path id="ArialMT-6d" d="M 422 0 
L 422 3319 
L 925 3319 
L 925 2853 
Q 1081 3097 1340 3245 
Q 1600 3394 1931 3394 
Q 2300 3394 2536 3241 
Q 2772 3088 2869 2813 
Q 3263 3394 3894 3394 
Q 4388 3394 4653 3120 
Q 4919 2847 4919 2278 
L 4919 0 
L 4359 0 
L 4359 2091 
Q 4359 2428 4304 2576 
Q 4250 2725 4106 2815 
Q 3963 2906 3769 2906 
Q 3419 2906 3187 2673 
Q 2956 2441 2956 1928 
L 2956 0 
L 2394 0 
L 2394 2156 
Q 2394 2531 2256 2718 
Q 2119 2906 1806 2906 
Q 1569 2906 1367 2781 
Q 1166 2656 1075 2415 
Q 984 2175 984 1722 
L 984 0 
L 422 0 
z
" transform="scale(0.015625)"/>
       <path id="ArialMT-65" d="M 2694 1069 
L 3275 997 
Q 3138 488 2766 206 
Q 2394 -75 1816 -75 
Q 1088 -75 661 373 
Q 234 822 234 1631 
Q 234 2469 665 2931 
Q 1097 3394 1784 3394 
Q 2450 3394 2872 2941 
Q 3294 2488 3294 1666 
Q 3294 1616 3291 1516 
L 816 1516 
Q 847 969 1125 678 
Q 1403 388 1819 388 
Q 2128 388 2347 550 
Q 2566 713 2694 1069 
z
M 847 1978 
L 2700 1978 
Q 2663 2397 2488 2606 
Q 2219 2931 1791 2931 
Q 1403 2931 1139 2672 
Q 875 2413 847 1978 
z
" transform="scale(0.015625)"/>
       <path id="ArialMT-20" transform="scale(0.015625)"/>
       <path id="ArialMT-28" d="M 1497 -1347 
Q 1031 -759 709 28 
Q 388 816 388 1659 
Q 388 2403 628 3084 
Q 909 3875 1497 4659 
L 1900 4659 
Q 1522 4009 1400 3731 
Q 1209 3300 1100 2831 
Q 966 2247 966 1656 
Q 966 153 1900 -1347 
L 1497 -1347 
z
" transform="scale(0.015625)"/>
       <path id="ArialMT-73" d="M 197 991 
L 753 1078 
Q 800 744 1014 566 
Q 1228 388 1613 388 
Q 2000 388 2187 545 
Q 2375 703 2375 916 
Q 2375 1106 2209 1216 
Q 2094 1291 1634 1406 
Q 1016 1563 777 1677 
Q 538 1791 414 1992 
Q 291 2194 291 2438 
Q 291 2659 392 2848 
Q 494 3038 669 3163 
Q 800 3259 1026 3326 
Q 1253 3394 1513 3394 
Q 1903 3394 2198 3281 
Q 2494 3169 2634 2976 
Q 2775 2784 2828 2463 
L 2278 2388 
Q 2241 2644 2061 2787 
Q 1881 2931 1553 2931 
Q 1166 2931 1000 2803 
Q 834 2675 834 2503 
Q 834 2394 903 2306 
Q 972 2216 1119 2156 
Q 1203 2125 1616 2013 
Q 2213 1853 2448 1751 
Q 2684 1650 2818 1456 
Q 2953 1263 2953 975 
Q 2953 694 2789 445 
Q 2625 197 2315 61 
Q 2006 -75 1616 -75 
Q 969 -75 630 194 
Q 291 463 197 991 
z
" transform="scale(0.015625)"/>
       <path id="ArialMT-29" d="M 791 -1347 
L 388 -1347 
Q 1322 153 1322 1656 
Q 1322 2244 1188 2822 
Q 1081 3291 891 3722 
Q 769 4003 388 4659 
L 791 4659 
Q 1378 3875 1659 3084 
Q 1900 2403 1900 1659 
Q 1900 816 1576 28 
Q 1253 -759 791 -1347 
z
" transform="scale(0.015625)"/>
      </defs>
      <use xlink:href="#ArialMT-54"/>
      <use xlink:href="#ArialMT-69" x="57.333984"/>
      <use xlink:href="#ArialMT-6d" x="79.550781"/>
      <use xlink:href="#ArialMT-65" x="162.851562"/>
      <use xlink:href="#ArialMT-20" x="218.466797"/>
      <use xlink:href="#ArialMT-28" x="246.25"/>
      <use xlink:href="#ArialMT-73" x="279.550781"/>
      <use xlink:href="#ArialMT-29" x="329.550781"/>
     </g>
    </g>
   </g>
   <g id="matplotlib.axis_2">
    <g id="ytick_1">
     <g id="line2d_4">
      <defs>
       <path id="mea4f3f5204" d="M 0 0 
L -12 0 
" style="stroke: #262626; stroke-width: 2.5"/>
      </defs>
      <g>
       <use xlink:href="#mea4f3f5204" x="110.490312" y="149.254354" style="fill: #262626; stroke: #262626; stroke-width: 2.5"/>
      </g>
     </g>
     <g id="text_5">
      <!-- 0.00 -->
      <g style="fill: #262626" transform="translate(52.17625 157.127948) scale(0.22 -0.22)">
       <defs>
        <path id="ArialMT-2e" d="M 581 0 
L 581 641 
L 1222 641 
L 1222 0 
L 581 0 
z
" transform="scale(0.015625)"/>
       </defs>
       <use xlink:href="#ArialMT-30"/>
       <use xlink:href="#ArialMT-2e" x="55.615234"/>
       <use xlink:href="#ArialMT-30" x="83.398438"/>
       <use xlink:href="#ArialMT-30" x="139.013672"/>
      </g>
     </g>
    </g>
    <g id="ytick_2">
     <g id="line2d_5">
      <g>
       <use xlink:href="#mea4f3f5204" x="110.490312" y="47.416397" style="fill: #262626; stroke: #262626; stroke-width: 2.5"/>
      </g>
     </g>
     <g id="text_6">
      <!-- 0.02 -->
      <g style="fill: #262626" transform="translate(52.17625 55.289991) scale(0.22 -0.22)">
       <defs>
        <path id="ArialMT-32" d="M 3222 541 
L 3222 0 
L 194 0 
Q 188 203 259 391 
Q 375 700 629 1000 
Q 884 1300 1366 1694 
Q 2113 2306 2375 2664 
Q 2638 3022 2638 3341 
Q 2638 3675 2398 3904 
Q 2159 4134 1775 4134 
Q 1369 4134 1125 3890 
Q 881 3647 878 3216 
L 300 3275 
Q 359 3922 746 4261 
Q 1134 4600 1788 4600 
Q 2447 4600 2831 4234 
Q 3216 3869 3216 3328 
Q 3216 3053 3103 2787 
Q 2991 2522 2730 2228 
Q 2469 1934 1863 1422 
Q 1356 997 1212 845 
Q 1069 694 975 541 
L 3222 541 
z
" transform="scale(0.015625)"/>
       </defs>
       <use xlink:href="#ArialMT-30"/>
       <use xlink:href="#ArialMT-2e" x="55.615234"/>
       <use xlink:href="#ArialMT-30" x="83.398438"/>
       <use xlink:href="#ArialMT-32" x="139.013672"/>
      </g>
     </g>
    </g>
    <g id="text_7">
     <!-- Overlap -->
     <g style="fill: #262626" transform="translate(43.40625 144.439248) rotate(-90) scale(0.24 -0.24)">
      <defs>
       <path id="ArialMT-4f" d="M 309 2231 
Q 309 3372 921 4017 
Q 1534 4663 2503 4663 
Q 3138 4663 3647 4359 
Q 4156 4056 4423 3514 
Q 4691 2972 4691 2284 
Q 4691 1588 4409 1038 
Q 4128 488 3612 205 
Q 3097 -78 2500 -78 
Q 1853 -78 1343 234 
Q 834 547 571 1087 
Q 309 1628 309 2231 
z
M 934 2222 
Q 934 1394 1379 917 
Q 1825 441 2497 441 
Q 3181 441 3623 922 
Q 4066 1403 4066 2288 
Q 4066 2847 3877 3264 
Q 3688 3681 3323 3911 
Q 2959 4141 2506 4141 
Q 1863 4141 1398 3698 
Q 934 3256 934 2222 
z
" transform="scale(0.015625)"/>
       <path id="ArialMT-76" d="M 1344 0 
L 81 3319 
L 675 3319 
L 1388 1331 
Q 1503 1009 1600 663 
Q 1675 925 1809 1294 
L 2547 3319 
L 3125 3319 
L 1869 0 
L 1344 0 
z
" transform="scale(0.015625)"/>
       <path id="ArialMT-72" d="M 416 0 
L 416 3319 
L 922 3319 
L 922 2816 
Q 1116 3169 1280 3281 
Q 1444 3394 1641 3394 
Q 1925 3394 2219 3213 
L 2025 2691 
Q 1819 2813 1613 2813 
Q 1428 2813 1281 2702 
Q 1134 2591 1072 2394 
Q 978 2094 978 1738 
L 978 0 
L 416 0 
z
" transform="scale(0.015625)"/>
       <path id="ArialMT-6c" d="M 409 0 
L 409 4581 
L 972 4581 
L 972 0 
L 409 0 
z
" transform="scale(0.015625)"/>
       <path id="ArialMT-61" d="M 2588 409 
Q 2275 144 1986 34 
Q 1697 -75 1366 -75 
Q 819 -75 525 192 
Q 231 459 231 875 
Q 231 1119 342 1320 
Q 453 1522 633 1644 
Q 813 1766 1038 1828 
Q 1203 1872 1538 1913 
Q 2219 1994 2541 2106 
Q 2544 2222 2544 2253 
Q 2544 2597 2384 2738 
Q 2169 2928 1744 2928 
Q 1347 2928 1158 2789 
Q 969 2650 878 2297 
L 328 2372 
Q 403 2725 575 2942 
Q 747 3159 1072 3276 
Q 1397 3394 1825 3394 
Q 2250 3394 2515 3294 
Q 2781 3194 2906 3042 
Q 3031 2891 3081 2659 
Q 3109 2516 3109 2141 
L 3109 1391 
Q 3109 606 3145 398 
Q 3181 191 3288 0 
L 2700 0 
Q 2613 175 2588 409 
z
M 2541 1666 
Q 2234 1541 1622 1453 
Q 1275 1403 1131 1340 
Q 988 1278 909 1158 
Q 831 1038 831 891 
Q 831 666 1001 516 
Q 1172 366 1500 366 
Q 1825 366 2078 508 
Q 2331 650 2450 897 
Q 2541 1088 2541 1459 
L 2541 1666 
z
" transform="scale(0.015625)"/>
       <path id="ArialMT-70" d="M 422 -1272 
L 422 3319 
L 934 3319 
L 934 2888 
Q 1116 3141 1344 3267 
Q 1572 3394 1897 3394 
Q 2322 3394 2647 3175 
Q 2972 2956 3137 2557 
Q 3303 2159 3303 1684 
Q 3303 1175 3120 767 
Q 2938 359 2589 142 
Q 2241 -75 1856 -75 
Q 1575 -75 1351 44 
Q 1128 163 984 344 
L 984 -1272 
L 422 -1272 
z
M 931 1641 
Q 931 1000 1190 694 
Q 1450 388 1819 388 
Q 2194 388 2461 705 
Q 2728 1022 2728 1688 
Q 2728 2322 2467 2637 
Q 2206 2953 1844 2953 
Q 1484 2953 1207 2617 
Q 931 2281 931 1641 
z
" transform="scale(0.015625)"/>
      </defs>
      <use xlink:href="#ArialMT-4f"/>
      <use xlink:href="#ArialMT-76" x="77.783203"/>
      <use xlink:href="#ArialMT-65" x="127.783203"/>
      <use xlink:href="#ArialMT-72" x="183.398438"/>
      <use xlink:href="#ArialMT-6c" x="216.699219"/>
      <use xlink:href="#ArialMT-61" x="238.916016"/>
      <use xlink:href="#ArialMT-70" x="294.53125"/>
     </g>
    </g>
   </g>
   <g id="PolyCollection_1">
    <defs>
     <path id="m7af7500765" d="M 110.490312 -119.877679 
L 110.490312 -112.226743 
L 114.051634 -114.19884 
L 117.612956 -115.829446 
L 121.174277 -112.982759 
L 124.735599 -115.693472 
L 128.29692 -113.923618 
L 131.858242 -113.005194 
L 135.419563 -112.632868 
L 138.980885 -113.853815 
L 142.542206 -113.897016 
L 146.103528 -116.48538 
L 149.664849 -121.221224 
L 153.226171 -122.476281 
L 156.787492 -122.991329 
L 160.348814 -125.504073 
L 163.910136 -131.248288 
L 167.471457 -135.55235 
L 171.032779 -136.847905 
L 174.5941 -142.378328 
L 178.155422 -140.629232 
L 181.716743 -136.882052 
L 185.278065 -134.630874 
L 188.839386 -129.528401 
L 192.400708 -124.302332 
L 195.962029 -120.338622 
L 199.523351 -118.961298 
L 203.084672 -111.654027 
L 206.645994 -104.076126 
L 210.207316 -98.435787 
L 213.768637 -100.957697 
L 217.329959 -99.71876 
L 220.89128 -102.277266 
L 224.452602 -105.043676 
L 228.013923 -108.001097 
L 231.575245 -106.416356 
L 235.136566 -107.43188 
L 238.697888 -106.407401 
L 242.259209 -106.292765 
L 245.820531 -104.605547 
L 249.381852 -103.206654 
L 252.943174 -106.140593 
L 256.504495 -117.299165 
L 260.065817 -124.408228 
L 263.627139 -130.561666 
L 267.18846 -132.779922 
L 270.749782 -130.726566 
L 274.311103 -131.960819 
L 277.872425 -126.763768 
L 281.433746 -124.443553 
L 284.995068 -120.062472 
L 288.556389 -117.10562 
L 292.117711 -114.890202 
L 295.679032 -114.366458 
L 299.240354 -117.655567 
L 302.801675 -112.953223 
L 306.362997 -115.31067 
L 309.924319 -117.686217 
L 313.48564 -123.011222 
L 317.046962 -126.033438 
L 320.608283 -129.779708 
L 324.169605 -132.987836 
L 327.730926 -133.23358 
L 331.292248 -134.891593 
L 334.853569 -137.438318 
L 338.414891 -137.328943 
L 341.976212 -135.77273 
L 345.537534 -136.22758 
L 349.098855 -134.042589 
L 352.660177 -135.053078 
L 356.221498 -133.341105 
L 359.78282 -134.469937 
L 363.344142 -133.768214 
L 366.905463 -132.142141 
L 370.466785 -129.910416 
L 374.028106 -128.06151 
L 377.589428 -127.354855 
L 381.150749 -123.285122 
L 384.712071 -121.432512 
L 388.273392 -121.147852 
L 391.834714 -118.689373 
L 395.396035 -117.235321 
L 398.957357 -113.019485 
L 402.518678 -113.72571 
L 406.08 -111.488742 
L 406.08 -128.549794 
L 406.08 -128.549794 
L 402.518678 -130.751613 
L 398.957357 -131.149683 
L 395.396035 -134.198107 
L 391.834714 -135.30695 
L 388.273392 -136.983326 
L 384.712071 -137.837956 
L 381.150749 -140.450754 
L 377.589428 -143.983618 
L 374.028106 -144.151201 
L 370.466785 -146.629515 
L 366.905463 -148.839847 
L 363.344142 -149.774445 
L 359.78282 -151.279495 
L 356.221498 -149.442564 
L 352.660177 -151.869103 
L 349.098855 -150.940069 
L 345.537534 -154.086287 
L 341.976212 -153.721719 
L 338.414891 -155.187795 
L 334.853569 -155.173673 
L 331.292248 -152.634061 
L 327.730926 -152.532955 
L 324.169605 -151.276564 
L 320.608283 -149.410693 
L 317.046962 -145.645595 
L 313.48564 -141.92925 
L 309.924319 -135.905602 
L 306.362997 -133.630865 
L 302.801675 -130.79209 
L 299.240354 -136.592126 
L 295.679032 -133.265184 
L 292.117711 -134.354705 
L 288.556389 -137.516265 
L 284.995068 -139.669279 
L 281.433746 -145.319805 
L 277.872425 -146.326017 
L 274.311103 -152.788386 
L 270.749782 -152.208641 
L 267.18846 -152.602882 
L 263.627139 -150.185902 
L 260.065817 -144.236229 
L 256.504495 -139.565717 
L 252.943174 -126.947453 
L 249.381852 -123.922577 
L 245.820531 -126.114306 
L 242.259209 -128.624454 
L 238.697888 -129.661419 
L 235.136566 -130.990389 
L 231.575245 -128.958013 
L 228.013923 -131.30071 
L 224.452602 -128.001642 
L 220.89128 -124.08723 
L 217.329959 -118.649437 
L 213.768637 -119.411711 
L 210.207316 -115.81714 
L 206.645994 -121.284238 
L 203.084672 -127.129448 
L 199.523351 -132.861251 
L 195.962029 -134.226238 
L 192.400708 -137.639422 
L 188.839386 -142.191378 
L 185.278065 -147.611088 
L 181.716743 -149.416666 
L 178.155422 -152.928703 
L 174.5941 -154.60474 
L 171.032779 -147.723239 
L 167.471457 -146.759902 
L 163.910136 -141.928547 
L 160.348814 -135.673432 
L 156.787492 -133.538561 
L 153.226171 -132.023166 
L 149.664849 -128.461656 
L 146.103528 -123.190844 
L 142.542206 -120.00589 
L 138.980885 -119.799667 
L 135.419563 -117.941862 
L 131.858242 -118.439969 
L 128.29692 -119.213876 
L 124.735599 -120.550026 
L 121.174277 -118.896013 
L 117.612956 -121.803615 
L 114.051634 -121.302152 
L 110.490312 -119.877679 
z
" style="stroke: #ee854a; stroke-opacity: 0.25; stroke-width: 2"/>
    </defs>
    <g clip-path="url(#p2958cb6af1)">
     <use xlink:href="#m7af7500765" x="0" y="266.990683" style="fill: #ee854a; fill-opacity: 0.25; stroke: #ee854a; stroke-opacity: 0.25; stroke-width: 2"/>
    </g>
   </g>
   <g id="patch_3">
    <path d="M 152.717411 178.928496 
L 152.717411 25.92 
L 173.83096 25.92 
L 173.83096 178.928496 
z
" clip-path="url(#p2958cb6af1)" style="fill: #0000ff; opacity: 0.1; stroke: #0000ff; stroke-width: 2; stroke-linejoin: miter"/>
   </g>
   <g id="patch_4">
    <path d="M 205.501283 178.928496 
L 205.501283 25.92 
L 226.614833 25.92 
L 226.614833 178.928496 
z
" clip-path="url(#p2958cb6af1)" style="fill: #0000ff; opacity: 0.1; stroke: #0000ff; stroke-width: 2; stroke-linejoin: miter"/>
   </g>
   <g id="patch_5">
    <path d="M 300.512254 178.928496 
L 300.512254 25.92 
L 321.625804 25.92 
L 321.625804 178.928496 
z
" clip-path="url(#p2958cb6af1)" style="fill: #0000ff; opacity: 0.1; stroke: #0000ff; stroke-width: 2; stroke-linejoin: miter"/>
   </g>
   <g id="patch_6">
    <path d="M 247.728382 178.928496 
L 247.728382 25.92 
L 258.285156 25.92 
L 258.285156 178.928496 
z
" clip-path="url(#p2958cb6af1)" style="fill: #008000; opacity: 0.1; stroke: #008000; stroke-width: 2; stroke-linejoin: miter"/>
   </g>
   <g id="PolyCollection_2">
    <defs>
     <path id="m6ac9668ba5" d="M 110.490312 -120.11364 
L 110.490312 -113.863849 
L 114.051634 -115.797705 
L 117.612956 -119.033942 
L 121.174277 -116.59407 
L 124.735599 -113.886805 
L 128.29692 -112.890292 
L 131.858242 -113.945329 
L 135.419563 -113.639344 
L 138.980885 -113.623357 
L 142.542206 -113.492816 
L 146.103528 -114.104441 
L 149.664849 -116.663177 
L 153.226171 -114.819447 
L 156.787492 -116.955222 
L 160.348814 -117.067662 
L 163.910136 -113.553654 
L 167.471457 -114.285959 
L 171.032779 -109.938316 
L 174.5941 -109.316717 
L 178.155422 -107.643773 
L 181.716743 -107.689906 
L 185.278065 -102.05862 
L 188.839386 -102.537618 
L 192.400708 -100.0341 
L 195.962029 -99.101885 
L 199.523351 -100.003718 
L 203.084672 -99.764144 
L 206.645994 -95.017119 
L 210.207316 -96.251378 
L 213.768637 -95.866222 
L 217.329959 -102.99591 
L 220.89128 -106.710977 
L 224.452602 -107.782462 
L 228.013923 -111.104654 
L 231.575245 -115.725753 
L 235.136566 -114.767785 
L 238.697888 -115.645542 
L 242.259209 -116.475333 
L 245.820531 -119.696364 
L 249.381852 -117.200738 
L 252.943174 -124.610261 
L 256.504495 -137.042057 
L 260.065817 -163.743783 
L 263.627139 -179.002405 
L 267.18846 -192.964748 
L 270.749782 -191.350819 
L 274.311103 -190.490337 
L 277.872425 -186.237491 
L 281.433746 -180.263871 
L 284.995068 -175.102344 
L 288.556389 -167.447994 
L 292.117711 -166.016294 
L 295.679032 -159.993896 
L 299.240354 -158.00851 
L 302.801675 -154.094806 
L 306.362997 -151.397284 
L 309.924319 -159.191637 
L 313.48564 -173.852036 
L 317.046962 -184.95877 
L 320.608283 -200.849721 
L 324.169605 -207.742102 
L 327.730926 -214.124446 
L 331.292248 -213.808248 
L 334.853569 -211.911435 
L 338.414891 -209.28686 
L 341.976212 -203.097798 
L 345.537534 -198.282822 
L 349.098855 -193.529298 
L 352.660177 -187.123283 
L 356.221498 -181.921722 
L 359.78282 -177.883857 
L 363.344142 -175.267629 
L 366.905463 -168.665004 
L 370.466785 -166.030739 
L 374.028106 -160.818286 
L 377.589428 -157.508973 
L 381.150749 -153.048002 
L 384.712071 -145.909502 
L 388.273392 -141.818338 
L 391.834714 -138.537746 
L 395.396035 -137.738234 
L 398.957357 -134.058693 
L 402.518678 -130.864693 
L 406.08 -127.192153 
L 406.08 -144.209471 
L 406.08 -144.209471 
L 402.518678 -147.95989 
L 398.957357 -152.275759 
L 395.396035 -155.572801 
L 391.834714 -156.629203 
L 388.273392 -160.006062 
L 384.712071 -163.583496 
L 381.150749 -171.820627 
L 377.589428 -175.764971 
L 374.028106 -179.432016 
L 370.466785 -186.240739 
L 366.905463 -189.146143 
L 363.344142 -196.588454 
L 359.78282 -199.258469 
L 356.221498 -203.787813 
L 352.660177 -209.840866 
L 349.098855 -215.290883 
L 345.537534 -219.283199 
L 341.976212 -225.072165 
L 338.414891 -229.686017 
L 334.853569 -232.800089 
L 331.292248 -234.115752 
L 327.730926 -233.072858 
L 324.169605 -228.044269 
L 320.608283 -220.457678 
L 317.046962 -204.707773 
L 313.48564 -193.780704 
L 309.924319 -178.374556 
L 306.362997 -170.915726 
L 302.801675 -174.957351 
L 299.240354 -179.004215 
L 295.679032 -181.574523 
L 292.117711 -189.14141 
L 288.556389 -191.232383 
L 284.995068 -198.598982 
L 281.433746 -206.422891 
L 277.872425 -211.697047 
L 274.311103 -215.136566 
L 270.749782 -215.603762 
L 267.18846 -217.169026 
L 263.627139 -203.167371 
L 260.065817 -188.246188 
L 256.504495 -163.434056 
L 252.943174 -149.548074 
L 249.381852 -142.79047 
L 245.820531 -145.097998 
L 242.259209 -142.008425 
L 238.697888 -140.361258 
L 235.136566 -140.616119 
L 231.575245 -140.481861 
L 228.013923 -134.916921 
L 224.452602 -130.18903 
L 220.89128 -126.005407 
L 217.329959 -119.154138 
L 213.768637 -108.799241 
L 210.207316 -108.761103 
L 206.645994 -108.141741 
L 203.084672 -112.493158 
L 199.523351 -111.736411 
L 195.962029 -110.915047 
L 192.400708 -111.127757 
L 188.839386 -112.593926 
L 185.278065 -112.603777 
L 181.716743 -118.753297 
L 178.155422 -119.124937 
L 174.5941 -119.517219 
L 171.032779 -119.630529 
L 167.471457 -123.640796 
L 163.910136 -122.610841 
L 160.348814 -125.446209 
L 156.787492 -125.602201 
L 153.226171 -122.982118 
L 149.664849 -123.570903 
L 146.103528 -120.590781 
L 142.542206 -119.332935 
L 138.980885 -118.894507 
L 135.419563 -118.907097 
L 131.858242 -119.276058 
L 128.29692 -118.544989 
L 124.735599 -119.556689 
L 121.174277 -122.166615 
L 117.612956 -125.188114 
L 114.051634 -121.906689 
L 110.490312 -120.11364 
z
" style="stroke: #ff7c00; stroke-opacity: 0.25; stroke-width: 2"/>
    </defs>
    <g clip-path="url(#p2958cb6af1)">
     <use xlink:href="#m6ac9668ba5" x="0" y="266.990683" style="fill: #ff7c00; fill-opacity: 0.25; stroke: #ff7c00; stroke-opacity: 0.25; stroke-width: 2"/>
    </g>
   </g>
   <g id="patch_7">
    <path d="M 152.717411 178.928496 
L 152.717411 25.92 
L 173.83096 25.92 
L 173.83096 178.928496 
z
" clip-path="url(#p2958cb6af1)" style="fill: #0000ff; opacity: 0.1; stroke: #0000ff; stroke-width: 2; stroke-linejoin: miter"/>
   </g>
   <g id="patch_8">
    <path d="M 205.501283 178.928496 
L 205.501283 25.92 
L 226.614833 25.92 
L 226.614833 178.928496 
z
" clip-path="url(#p2958cb6af1)" style="fill: #0000ff; opacity: 0.1; stroke: #0000ff; stroke-width: 2; stroke-linejoin: miter"/>
   </g>
   <g id="patch_9">
    <path d="M 300.512254 178.928496 
L 300.512254 25.92 
L 321.625804 25.92 
L 321.625804 178.928496 
z
" clip-path="url(#p2958cb6af1)" style="fill: #0000ff; opacity: 0.1; stroke: #0000ff; stroke-width: 2; stroke-linejoin: miter"/>
   </g>
   <g id="patch_10">
    <path d="M 247.728382 178.928496 
L 247.728382 25.92 
L 258.285156 25.92 
L 258.285156 178.928496 
z
" clip-path="url(#p2958cb6af1)" style="fill: #008000; opacity: 0.1; stroke: #008000; stroke-width: 2; stroke-linejoin: miter"/>
   </g>
   <g id="line2d_6">
    <path d="M 110.490312 150.419526 
L 114.051634 149.51643 
L 117.612956 147.973853 
L 121.174277 153.010565 
L 124.735599 150.0779 
L 128.29692 149.361686 
L 131.858242 150.735576 
L 135.419563 152.736567 
L 138.980885 151.199014 
L 142.542206 151.070292 
L 146.103528 145.944189 
L 149.664849 139.00665 
L 153.226171 136.204253 
L 156.787492 134.584646 
L 160.348814 134.944038 
L 163.910136 131.71722 
L 167.471457 126.958578 
L 171.032779 122.195035 
L 174.5941 119.999063 
L 178.155422 121.081297 
L 181.716743 124.956334 
L 185.278065 130.091284 
L 188.839386 134.367913 
L 192.400708 139.277297 
L 195.962029 143.155503 
L 199.523351 143.366146 
L 203.084672 151.588252 
L 206.645994 158.04374 
L 210.207316 162.334027 
L 213.768637 160.582419 
L 217.329959 157.553108 
L 220.89128 152.096899 
L 224.452602 153.102346 
L 228.013923 146.760682 
L 231.575245 147.398032 
L 235.136566 148.913602 
L 238.697888 146.061834 
L 242.259209 147.507704 
L 245.820531 150.988896 
L 249.381852 152.24323 
L 252.943174 148.910088 
L 256.504495 135.992354 
L 260.065817 130.714762 
L 263.627139 127.248334 
L 267.18846 122.668148 
L 270.749782 123.125364 
L 274.311103 123.507795 
L 277.872425 130.161796 
L 281.433746 133.902602 
L 284.995068 138.243179 
L 288.556389 140.6056 
L 292.117711 142.761301 
L 295.679032 142.254612 
L 299.240354 140.267224 
L 302.801675 144.977433 
L 306.362997 142.066814 
L 309.924319 140.477989 
L 313.48564 136.707955 
L 317.046962 131.533643 
L 320.608283 128.220969 
L 324.169605 124.09296 
L 327.730926 121.230665 
L 331.292248 122.141534 
L 334.853569 120.618513 
L 338.414891 121.128906 
L 341.976212 121.600747 
L 345.537534 119.093343 
L 349.098855 121.231761 
L 352.660177 120.890316 
L 356.221498 122.140895 
L 359.78282 119.459133 
L 363.344142 121.758103 
L 366.905463 121.622311 
L 370.466785 123.94039 
L 374.028106 126.525507 
L 377.589428 126.478897 
L 381.150749 131.153985 
L 384.712071 134.194045 
L 388.273392 137.402678 
L 391.834714 139.352908 
L 395.396035 140.807993 
L 398.957357 146.839895 
L 402.518678 146.469154 
L 406.08 146.843216 
" clip-path="url(#p2958cb6af1)" style="fill: none; stroke-dasharray: 11.1,4.8; stroke-dashoffset: 0; stroke: #1f77b4; stroke-width: 3"/>
   </g>
   <g id="line2d_7">
    <path d="M 110.490312 151.300764 
L 114.051634 148.739298 
L 117.612956 148.280225 
L 121.174277 148.941321 
L 124.735599 147.722147 
L 128.29692 151.424399 
L 131.858242 151.816086 
L 135.419563 150.621705 
L 138.980885 149.183373 
L 142.542206 149.181879 
L 146.103528 148.49779 
L 149.664849 145.343261 
L 153.226171 143.520643 
L 156.787492 143.057782 
L 160.348814 137.727644 
L 163.910136 128.698169 
L 167.471457 124.86943 
L 171.032779 127.52615 
L 174.5941 116.984985 
L 178.155422 119.232162 
L 181.716743 123.076758 
L 185.278065 121.681756 
L 188.839386 128.179445 
L 192.400708 132.988141 
L 195.962029 136.155224 
L 199.523351 138.502755 
L 203.084672 144.011411 
L 206.645994 150.525232 
L 210.207316 157.248339 
L 213.768637 153.859068 
L 217.329959 157.999552 
L 220.89128 156.08568 
L 224.452602 147.576181 
L 228.013923 148.694271 
L 231.575245 151.396459 
L 235.136566 146.693912 
L 238.697888 152.027615 
L 242.259209 151.651233 
L 245.820531 152.092844 
L 249.381852 154.73021 
L 252.943174 152.481593 
L 256.504495 140.419781 
L 260.065817 133.652605 
L 263.627139 125.429546 
L 267.18846 125.669602 
L 270.749782 127.546459 
L 274.311103 125.996281 
L 277.872425 130.5215 
L 281.433746 130.830258 
L 284.995068 135.464833 
L 288.556389 138.577878 
L 292.117711 141.944974 
L 295.679032 144.466017 
L 299.240354 139.060224 
L 302.801675 145.262252 
L 306.362997 141.842656 
L 309.924319 139.318686 
L 313.48564 132.532939 
L 317.046962 131.027093 
L 320.608283 126.497817 
L 324.169605 125.378628 
L 327.730926 126.875958 
L 331.292248 124.292154 
L 334.853569 120.477075 
L 338.414891 120.32697 
L 341.976212 122.567507 
L 345.537534 124.602064 
L 349.098855 128.056675 
L 352.660177 126.485802 
L 356.221498 129.300374 
L 359.78282 129.288744 
L 363.344142 128.880803 
L 366.905463 131.286233 
L 370.466785 132.687138 
L 374.028106 135.315512 
L 377.589428 135.541165 
L 381.150749 138.515113 
L 384.712071 139.888591 
L 388.273392 138.403056 
L 391.834714 140.286151 
L 395.396035 141.767173 
L 398.957357 142.941792 
L 402.518678 142.886413 
L 406.08 147.060505 
" clip-path="url(#p2958cb6af1)" style="fill: none; stroke-dasharray: 11.1,4.8; stroke-dashoffset: 0; stroke: #ff7f0e; stroke-width: 3"/>
   </g>
   <g id="line2d_8">
    <path clip-path="url(#p2958cb6af1)" style="fill: none; stroke-dasharray: 11.1,4.8; stroke-dashoffset: 0; stroke: #2ca02c; stroke-width: 3"/>
   </g>
   <g id="line2d_9">
    <path clip-path="url(#p2958cb6af1)" style="fill: none; stroke-dasharray: 11.1,4.8; stroke-dashoffset: 0; stroke: #d62728; stroke-width: 3"/>
   </g>
   <g id="line2d_10">
    <path d="M 110.490312 150.860145 
L 114.051634 149.127864 
L 117.612956 148.127039 
L 121.174277 150.975943 
L 124.735599 148.900024 
L 128.29692 150.393043 
L 131.858242 151.275831 
L 135.419563 151.679136 
L 138.980885 150.191193 
L 142.542206 150.126086 
L 146.103528 147.220989 
L 149.664849 142.174955 
L 153.226171 139.862448 
L 156.787492 138.821214 
L 160.348814 136.335841 
L 163.910136 130.207694 
L 167.471457 125.914004 
L 171.032779 124.860592 
L 174.5941 118.492024 
L 178.155422 120.156729 
L 181.716743 124.016546 
L 185.278065 125.88652 
L 188.839386 131.273679 
L 192.400708 136.132719 
L 195.962029 139.655363 
L 199.523351 140.934451 
L 203.084672 147.799832 
L 206.645994 154.284486 
L 210.207316 159.791183 
L 213.768637 157.220743 
L 217.329959 157.77633 
L 220.89128 154.091289 
L 224.452602 150.339264 
L 228.013923 147.727476 
L 231.575245 149.397245 
L 235.136566 147.803757 
L 238.697888 149.044725 
L 242.259209 149.579469 
L 245.820531 151.54087 
L 249.381852 153.48672 
L 252.943174 150.695841 
L 256.504495 138.206067 
L 260.065817 132.183684 
L 263.627139 126.33894 
L 267.18846 124.168875 
L 270.749782 125.335911 
L 274.311103 124.752038 
L 277.872425 130.341648 
L 281.433746 132.36643 
L 284.995068 136.854006 
L 288.556389 139.591739 
L 292.117711 142.353137 
L 295.679032 143.360314 
L 299.240354 139.663724 
L 302.801675 145.119843 
L 306.362997 141.954735 
L 309.924319 139.898337 
L 313.48564 134.620447 
L 317.046962 131.280368 
L 320.608283 127.359393 
L 324.169605 124.735794 
L 327.730926 124.053311 
L 331.292248 123.216844 
L 334.853569 120.547794 
L 338.414891 120.727938 
L 341.976212 122.084127 
L 345.537534 121.847703 
L 349.098855 124.644218 
L 352.660177 123.688059 
L 356.221498 125.720635 
L 359.78282 124.373939 
L 363.344142 125.319453 
L 366.905463 126.454272 
L 370.466785 128.313764 
L 374.028106 130.92051 
L 377.589428 131.010031 
L 381.150749 134.834549 
L 384.712071 137.041318 
L 388.273392 137.902867 
L 391.834714 139.819529 
L 395.396035 141.287583 
L 398.957357 144.890844 
L 402.518678 144.677783 
L 406.08 146.951861 
" clip-path="url(#p2958cb6af1)" style="fill: none; stroke: #ee854a; stroke-width: 3; stroke-linecap: round"/>
   </g>
   <g id="line2d_11">
    <path d="M 110.490312 149.254354 
L 406.08 149.254354 
" clip-path="url(#p2958cb6af1)" style="fill: none; stroke-dasharray: 11.1,4.8; stroke-dashoffset: 0; stroke: #000000; stroke-width: 3"/>
   </g>
   <g id="line2d_12">
    <path d="M 110.490312 152.63883 
L 114.051634 151.651739 
L 117.612956 145.780244 
L 121.174277 150.039627 
L 124.735599 151.485841 
L 128.29692 149.634038 
L 131.858242 148.546139 
L 135.419563 150.508127 
L 138.980885 149.505931 
L 142.542206 150.817874 
L 146.103528 145.523809 
L 149.664849 144.920048 
L 153.226171 145.224276 
L 156.787492 142.155708 
L 160.348814 143.554389 
L 163.910136 146.888121 
L 167.471457 146.381664 
L 171.032779 151.971362 
L 174.5941 152.405067 
L 178.155422 153.649146 
L 181.716743 151.769741 
L 185.278065 160.047938 
L 188.839386 156.74167 
L 192.400708 162.319299 
L 195.962029 159.925826 
L 199.523351 159.178473 
L 203.084672 158.327759 
L 206.645994 163.143824 
L 210.207316 163.775345 
L 213.768637 163.599338 
L 217.329959 155.152503 
L 220.89128 151.392136 
L 224.452602 148.180911 
L 228.013923 144.566894 
L 231.575245 140.889346 
L 235.136566 140.896771 
L 238.697888 138.780322 
L 242.259209 137.687472 
L 245.820531 134.08386 
L 249.381852 136.188236 
L 252.943174 129.100753 
L 256.504495 117.114989 
L 260.065817 86.682429 
L 263.627139 72.100468 
L 267.18846 56.335101 
L 270.749782 61.053355 
L 274.311103 60.931326 
L 277.872425 65.762285 
L 281.433746 67.481816 
L 284.995068 76.242451 
L 288.556389 82.039776 
L 292.117711 84.151883 
L 295.679032 89.473669 
L 299.240354 92.960005 
L 302.801675 96.257438 
L 306.362997 101.582365 
L 309.924319 93.146866 
L 313.48564 81.441236 
L 317.046962 70.917374 
L 320.608283 54.790419 
L 324.169605 49.119874 
L 327.730926 38.871492 
L 331.292248 38.144219 
L 334.853569 40.291756 
L 338.414891 42.096353 
L 341.976212 43.274917 
L 345.537534 48.816169 
L 349.098855 48.206203 
L 352.660177 54.737461 
L 356.221498 64.053109 
L 359.78282 70.872947 
L 363.344142 72.258871 
L 366.905463 77.58912 
L 370.466785 83.64935 
L 374.028106 90.613309 
L 377.589428 95.945298 
L 381.150749 100.803023 
L 384.712071 109.009564 
L 388.273392 110.848066 
L 391.834714 114.977903 
L 395.396035 117.357217 
L 398.957357 122.584047 
L 402.518678 123.030982 
L 406.08 129.548268 
" clip-path="url(#p2958cb6af1)" style="fill: none; stroke-dasharray: 11.1,4.8; stroke-dashoffset: 0; stroke: #9467bd; stroke-width: 3"/>
   </g>
   <g id="line2d_13">
    <path d="M 110.490312 147.386344 
L 114.051634 144.553549 
L 117.612956 143.896947 
L 121.174277 145.053552 
L 124.735599 149.147802 
L 128.29692 153.214554 
L 131.858242 152.152574 
L 135.419563 150.997092 
L 138.980885 151.974516 
L 142.542206 150.502114 
L 146.103528 153.541403 
L 149.664849 148.631799 
L 153.226171 150.976254 
L 156.787492 149.020454 
L 160.348814 147.756114 
L 163.910136 150.962053 
L 167.471457 149.330195 
L 171.032779 152.643402 
L 174.5941 152.583395 
L 178.155422 153.744853 
L 181.716743 155.229637 
L 185.278065 158.881626 
L 188.839386 161.578039 
L 192.400708 160.345614 
L 195.962029 163.544902 
L 199.523351 162.939415 
L 203.084672 162.894717 
L 206.645994 167.506315 
L 210.207316 165.146563 
L 213.768637 165.983574 
L 217.329959 157.069249 
L 220.89128 150.663388 
L 224.452602 148.469127 
L 228.013923 143.979369 
L 231.575245 137.791706 
L 235.136566 138.88589 
L 238.697888 139.914332 
L 242.259209 138.328279 
L 245.820531 135.362701 
L 249.381852 138.867869 
L 252.943174 130.962145 
L 256.504495 116.768512 
L 260.065817 95.616074 
L 263.627139 79.80735 
L 267.18846 67.051444 
L 270.749782 64.96302 
L 274.311103 66.652516 
L 277.872425 69.42641 
L 281.433746 79.257721 
L 284.995068 83.121482 
L 288.556389 92.603616 
L 292.117711 94.478732 
L 295.679032 102.494295 
L 299.240354 104.689349 
L 302.801675 108.465705 
L 306.362997 110.64591 
L 309.924319 103.392859 
L 313.48564 85.482654 
L 317.046962 73.485992 
L 320.608283 58.039076 
L 324.169605 49.93986 
L 327.730926 47.949879 
L 331.292248 48.391125 
L 334.853569 48.57604 
L 338.414891 52.648026 
L 341.976212 62.289273 
L 345.537534 67.728264 
L 349.098855 76.092598 
L 352.660177 81.50339 
L 356.221498 83.570687 
L 359.78282 85.867047 
L 363.344142 89.334776 
L 366.905463 98.242126 
L 370.466785 98.105448 
L 374.028106 102.773218 
L 377.589428 104.949579 
L 381.150749 108.352147 
L 384.712071 115.503265 
L 388.273392 121.300077 
L 391.834714 124.567961 
L 395.396035 123.40819 
L 398.957357 125.126064 
L 402.518678 132.289808 
L 406.08 132.915666 
" clip-path="url(#p2958cb6af1)" style="fill: none; stroke-dasharray: 11.1,4.8; stroke-dashoffset: 0; stroke: #8c564b; stroke-width: 3"/>
   </g>
   <g id="line2d_14">
    <path clip-path="url(#p2958cb6af1)" style="fill: none; stroke-dasharray: 11.1,4.8; stroke-dashoffset: 0; stroke: #e377c2; stroke-width: 3"/>
   </g>
   <g id="line2d_15">
    <path clip-path="url(#p2958cb6af1)" style="fill: none; stroke-dasharray: 11.1,4.8; stroke-dashoffset: 0; stroke: #7f7f7f; stroke-width: 3"/>
   </g>
   <g id="line2d_16">
    <path d="M 110.490312 150.012587 
L 114.051634 148.102644 
L 117.612956 144.838596 
L 121.174277 147.546589 
L 124.735599 150.316822 
L 128.29692 151.424296 
L 131.858242 150.349356 
L 135.419563 150.75261 
L 138.980885 150.740224 
L 142.542206 150.659994 
L 146.103528 149.532606 
L 149.664849 146.775924 
L 153.226171 148.100265 
L 156.787492 145.588081 
L 160.348814 145.655252 
L 163.910136 148.925087 
L 167.471457 147.85593 
L 171.032779 152.307382 
L 174.5941 152.494231 
L 178.155422 153.696999 
L 181.716743 153.499689 
L 185.278065 159.464782 
L 188.839386 159.159854 
L 192.400708 161.332456 
L 195.962029 161.735364 
L 199.523351 161.058944 
L 203.084672 160.611238 
L 206.645994 165.325069 
L 210.207316 164.460954 
L 213.768637 164.791456 
L 217.329959 156.110876 
L 220.89128 151.027762 
L 224.452602 148.325019 
L 228.013923 144.273131 
L 231.575245 139.340526 
L 235.136566 139.89133 
L 238.697888 139.347327 
L 242.259209 138.007876 
L 245.820531 134.723281 
L 249.381852 137.528052 
L 252.943174 130.031449 
L 256.504495 116.941751 
L 260.065817 91.149251 
L 263.627139 75.953909 
L 267.18846 61.693273 
L 270.749782 63.008188 
L 274.311103 63.791921 
L 277.872425 67.594348 
L 281.433746 73.369769 
L 284.995068 79.681967 
L 288.556389 87.321696 
L 292.117711 89.315307 
L 295.679032 95.983982 
L 299.240354 98.824677 
L 302.801675 102.361572 
L 306.362997 106.114137 
L 309.924319 98.269863 
L 313.48564 83.461945 
L 317.046962 72.201683 
L 320.608283 56.414747 
L 324.169605 49.529867 
L 327.730926 43.410685 
L 331.292248 43.267672 
L 334.853569 44.433898 
L 338.414891 47.372189 
L 341.976212 52.782095 
L 345.537534 58.272217 
L 349.098855 62.149401 
L 352.660177 68.120425 
L 356.221498 73.811898 
L 359.78282 78.369997 
L 363.344142 80.796824 
L 366.905463 87.915623 
L 370.466785 90.877399 
L 374.028106 96.693264 
L 377.589428 100.447439 
L 381.150749 104.577585 
L 384.712071 112.256415 
L 388.273392 116.074071 
L 391.834714 119.772932 
L 395.396035 120.382703 
L 398.957357 123.855055 
L 402.518678 127.660395 
L 406.08 131.231967 
" clip-path="url(#p2958cb6af1)" style="fill: none; stroke: #ff7c00; stroke-width: 3; stroke-linecap: round"/>
   </g>
   <g id="line2d_17">
    <path d="M 110.490312 149.254354 
L 406.08 149.254354 
" clip-path="url(#p2958cb6af1)" style="fill: none; stroke-dasharray: 11.1,4.8; stroke-dashoffset: 0; stroke: #000000; stroke-width: 3"/>
   </g>
   <g id="patch_11">
    <path d="M 110.490312 178.928496 
L 110.490312 25.92 
" style="fill: none; stroke: #262626; stroke-width: 2.5; stroke-linejoin: miter; stroke-linecap: square"/>
   </g>
   <g id="patch_12">
    <path d="M 110.490312 178.928496 
L 406.08 178.928496 
" style="fill: none; stroke: #262626; stroke-width: 2.5; stroke-linejoin: miter; stroke-linecap: square"/>
   </g>
  </g>
 </g>
 <defs>
  <clipPath id="p2958cb6af1">
   <rect x="110.490312" y="25.92" width="295.589687" height="153.008496"/>
  </clipPath>
 </defs>
</svg>
