<?xml version="1.0" encoding="utf-8" standalone="no"?>
<!DOCTYPE svg PUBLIC "-//W3C//DTD SVG 1.1//EN"
  "http://www.w3.org/Graphics/SVG/1.1/DTD/svg11.dtd">
<svg xmlns:xlink="http://www.w3.org/1999/xlink" width="504pt" height="311.04pt" viewBox="0 0 504 311.04" xmlns="http://www.w3.org/2000/svg" version="1.1">
 <metadata>
  <rdf:RDF xmlns:dc="http://purl.org/dc/elements/1.1/" xmlns:cc="http://creativecommons.org/ns#" xmlns:rdf="http://www.w3.org/1999/02/22-rdf-syntax-ns#">
   <cc:Work>
    <dc:type rdf:resource="http://purl.org/dc/dcmitype/StillImage"/>
    <dc:date>2023-07-17T15:34:16.049926</dc:date>
    <dc:format>image/svg+xml</dc:format>
    <dc:creator>
     <cc:Agent>
      <dc:title>Matplotlib v3.7.2, https://matplotlib.org/</dc:title>
     </cc:Agent>
    </dc:creator>
   </cc:Work>
  </rdf:RDF>
 </metadata>
 <defs>
  <style type="text/css">*{stroke-linejoin: round; stroke-linecap: butt}</style>
 </defs>
 <g id="figure_1">
  <g id="patch_1">
   <path d="M 0 311.04 
L 504 311.04 
L 504 0 
L 0 0 
z
" style="fill: #ffffff"/>
  </g>
  <g id="axes_1">
   <g id="patch_2">
    <path d="M 110.182812 223.270313 
L 478.08 223.270313 
L 478.08 25.92 
L 110.182812 25.92 
z
" style="fill: #ffffff"/>
   </g>
   <g id="matplotlib.axis_1">
    <g id="xtick_1">
     <g id="line2d_1">
      <defs>
       <path id="m36d6077a2c" d="M 0 0 
L 0 12 
" style="stroke: #262626; stroke-width: 2.5"/>
      </defs>
      <g>
       <use xlink:href="#m36d6077a2c" x="123.808634" y="223.270313" style="fill: #262626; stroke: #262626; stroke-width: 2.5"/>
      </g>
     </g>
     <g id="text_1">
      <!-- 1 -->
      <g style="fill: #262626" transform="translate(117.691603 254.5175) scale(0.22 -0.22)">
       <defs>
        <path id="ArialMT-31" d="M 2384 0 
L 1822 0 
L 1822 3584 
Q 1619 3391 1289 3197 
Q 959 3003 697 2906 
L 697 3450 
Q 1169 3672 1522 3987 
Q 1875 4303 2022 4600 
L 2384 4600 
L 2384 0 
z
" transform="scale(0.015625)"/>
       </defs>
       <use xlink:href="#ArialMT-31"/>
      </g>
     </g>
    </g>
    <g id="xtick_2">
     <g id="line2d_2">
      <g>
       <use xlink:href="#m36d6077a2c" x="191.937743" y="223.270313" style="fill: #262626; stroke: #262626; stroke-width: 2.5"/>
      </g>
     </g>
     <g id="text_2">
      <!-- 2 -->
      <g style="fill: #262626" transform="translate(185.820712 254.5175) scale(0.22 -0.22)">
       <defs>
        <path id="ArialMT-32" d="M 3222 541 
L 3222 0 
L 194 0 
Q 188 203 259 391 
Q 375 700 629 1000 
Q 884 1300 1366 1694 
Q 2113 2306 2375 2664 
Q 2638 3022 2638 3341 
Q 2638 3675 2398 3904 
Q 2159 4134 1775 4134 
Q 1369 4134 1125 3890 
Q 881 3647 878 3216 
L 300 3275 
Q 359 3922 746 4261 
Q 1134 4600 1788 4600 
Q 2447 4600 2831 4234 
Q 3216 3869 3216 3328 
Q 3216 3053 3103 2787 
Q 2991 2522 2730 2228 
Q 2469 1934 1863 1422 
Q 1356 997 1212 845 
Q 1069 694 975 541 
L 3222 541 
z
" transform="scale(0.015625)"/>
       </defs>
       <use xlink:href="#ArialMT-32"/>
      </g>
     </g>
    </g>
    <g id="xtick_3">
     <g id="line2d_3">
      <g>
       <use xlink:href="#m36d6077a2c" x="260.066852" y="223.270313" style="fill: #262626; stroke: #262626; stroke-width: 2.5"/>
      </g>
     </g>
     <g id="text_3">
      <!-- 3 -->
      <g style="fill: #262626" transform="translate(253.949821 254.5175) scale(0.22 -0.22)">
       <defs>
        <path id="ArialMT-33" d="M 269 1209 
L 831 1284 
Q 928 806 1161 595 
Q 1394 384 1728 384 
Q 2125 384 2398 659 
Q 2672 934 2672 1341 
Q 2672 1728 2419 1979 
Q 2166 2231 1775 2231 
Q 1616 2231 1378 2169 
L 1441 2663 
Q 1497 2656 1531 2656 
Q 1891 2656 2178 2843 
Q 2466 3031 2466 3422 
Q 2466 3731 2256 3934 
Q 2047 4138 1716 4138 
Q 1388 4138 1169 3931 
Q 950 3725 888 3313 
L 325 3413 
Q 428 3978 793 4289 
Q 1159 4600 1703 4600 
Q 2078 4600 2393 4439 
Q 2709 4278 2876 4000 
Q 3044 3722 3044 3409 
Q 3044 3113 2884 2869 
Q 2725 2625 2413 2481 
Q 2819 2388 3044 2092 
Q 3269 1797 3269 1353 
Q 3269 753 2831 336 
Q 2394 -81 1725 -81 
Q 1122 -81 723 278 
Q 325 638 269 1209 
z
" transform="scale(0.015625)"/>
       </defs>
       <use xlink:href="#ArialMT-33"/>
      </g>
     </g>
    </g>
    <g id="xtick_4">
     <g id="line2d_4">
      <g>
       <use xlink:href="#m36d6077a2c" x="328.195961" y="223.270313" style="fill: #262626; stroke: #262626; stroke-width: 2.5"/>
      </g>
     </g>
     <g id="text_4">
      <!-- 4 -->
      <g style="fill: #262626" transform="translate(322.078929 254.5175) scale(0.22 -0.22)">
       <defs>
        <path id="ArialMT-34" d="M 2069 0 
L 2069 1097 
L 81 1097 
L 81 1613 
L 2172 4581 
L 2631 4581 
L 2631 1613 
L 3250 1613 
L 3250 1097 
L 2631 1097 
L 2631 0 
L 2069 0 
z
M 2069 1613 
L 2069 3678 
L 634 1613 
L 2069 1613 
z
" transform="scale(0.015625)"/>
       </defs>
       <use xlink:href="#ArialMT-34"/>
      </g>
     </g>
    </g>
    <g id="xtick_5">
     <g id="line2d_5">
      <g>
       <use xlink:href="#m36d6077a2c" x="396.325069" y="223.270313" style="fill: #262626; stroke: #262626; stroke-width: 2.5"/>
      </g>
     </g>
     <g id="text_5">
      <!-- 5 -->
      <g style="fill: #262626" transform="translate(390.208038 254.5175) scale(0.22 -0.22)">
       <defs>
        <path id="ArialMT-35" d="M 266 1200 
L 856 1250 
Q 922 819 1161 601 
Q 1400 384 1738 384 
Q 2144 384 2425 690 
Q 2706 997 2706 1503 
Q 2706 1984 2436 2262 
Q 2166 2541 1728 2541 
Q 1456 2541 1237 2417 
Q 1019 2294 894 2097 
L 366 2166 
L 809 4519 
L 3088 4519 
L 3088 3981 
L 1259 3981 
L 1013 2750 
Q 1425 3038 1878 3038 
Q 2478 3038 2890 2622 
Q 3303 2206 3303 1553 
Q 3303 931 2941 478 
Q 2500 -78 1738 -78 
Q 1113 -78 717 272 
Q 322 622 266 1200 
z
" transform="scale(0.015625)"/>
       </defs>
       <use xlink:href="#ArialMT-35"/>
      </g>
     </g>
    </g>
    <g id="xtick_6">
     <g id="line2d_6">
      <g>
       <use xlink:href="#m36d6077a2c" x="464.454178" y="223.270313" style="fill: #262626; stroke: #262626; stroke-width: 2.5"/>
      </g>
     </g>
     <g id="text_6">
      <!-- 6 -->
      <g style="fill: #262626" transform="translate(458.337147 254.5175) scale(0.22 -0.22)">
       <defs>
        <path id="ArialMT-36" d="M 3184 3459 
L 2625 3416 
Q 2550 3747 2413 3897 
Q 2184 4138 1850 4138 
Q 1581 4138 1378 3988 
Q 1113 3794 959 3422 
Q 806 3050 800 2363 
Q 1003 2672 1297 2822 
Q 1591 2972 1913 2972 
Q 2475 2972 2870 2558 
Q 3266 2144 3266 1488 
Q 3266 1056 3080 686 
Q 2894 316 2569 119 
Q 2244 -78 1831 -78 
Q 1128 -78 684 439 
Q 241 956 241 2144 
Q 241 3472 731 4075 
Q 1159 4600 1884 4600 
Q 2425 4600 2770 4297 
Q 3116 3994 3184 3459 
z
M 888 1484 
Q 888 1194 1011 928 
Q 1134 663 1356 523 
Q 1578 384 1822 384 
Q 2178 384 2434 671 
Q 2691 959 2691 1453 
Q 2691 1928 2437 2201 
Q 2184 2475 1800 2475 
Q 1419 2475 1153 2201 
Q 888 1928 888 1484 
z
" transform="scale(0.015625)"/>
       </defs>
       <use xlink:href="#ArialMT-36"/>
      </g>
     </g>
    </g>
    <g id="text_7">
     <!-- Day -->
     <g style="fill: #262626" transform="translate(272.792031 280.06875) scale(0.24 -0.24)">
      <defs>
       <path id="ArialMT-44" d="M 494 0 
L 494 4581 
L 2072 4581 
Q 2606 4581 2888 4516 
Q 3281 4425 3559 4188 
Q 3922 3881 4101 3404 
Q 4281 2928 4281 2316 
Q 4281 1794 4159 1391 
Q 4038 988 3847 723 
Q 3656 459 3429 307 
Q 3203 156 2883 78 
Q 2563 0 2147 0 
L 494 0 
z
M 1100 541 
L 2078 541 
Q 2531 541 2789 625 
Q 3047 709 3200 863 
Q 3416 1078 3536 1442 
Q 3656 1806 3656 2325 
Q 3656 3044 3420 3430 
Q 3184 3816 2847 3947 
Q 2603 4041 2063 4041 
L 1100 4041 
L 1100 541 
z
" transform="scale(0.015625)"/>
       <path id="ArialMT-61" d="M 2588 409 
Q 2275 144 1986 34 
Q 1697 -75 1366 -75 
Q 819 -75 525 192 
Q 231 459 231 875 
Q 231 1119 342 1320 
Q 453 1522 633 1644 
Q 813 1766 1038 1828 
Q 1203 1872 1538 1913 
Q 2219 1994 2541 2106 
Q 2544 2222 2544 2253 
Q 2544 2597 2384 2738 
Q 2169 2928 1744 2928 
Q 1347 2928 1158 2789 
Q 969 2650 878 2297 
L 328 2372 
Q 403 2725 575 2942 
Q 747 3159 1072 3276 
Q 1397 3394 1825 3394 
Q 2250 3394 2515 3294 
Q 2781 3194 2906 3042 
Q 3031 2891 3081 2659 
Q 3109 2516 3109 2141 
L 3109 1391 
Q 3109 606 3145 398 
Q 3181 191 3288 0 
L 2700 0 
Q 2613 175 2588 409 
z
M 2541 1666 
Q 2234 1541 1622 1453 
Q 1275 1403 1131 1340 
Q 988 1278 909 1158 
Q 831 1038 831 891 
Q 831 666 1001 516 
Q 1172 366 1500 366 
Q 1825 366 2078 508 
Q 2331 650 2450 897 
Q 2541 1088 2541 1459 
L 2541 1666 
z
" transform="scale(0.015625)"/>
       <path id="ArialMT-79" d="M 397 -1278 
L 334 -750 
Q 519 -800 656 -800 
Q 844 -800 956 -737 
Q 1069 -675 1141 -563 
Q 1194 -478 1313 -144 
Q 1328 -97 1363 -6 
L 103 3319 
L 709 3319 
L 1400 1397 
Q 1534 1031 1641 628 
Q 1738 1016 1872 1384 
L 2581 3319 
L 3144 3319 
L 1881 -56 
Q 1678 -603 1566 -809 
Q 1416 -1088 1222 -1217 
Q 1028 -1347 759 -1347 
Q 597 -1347 397 -1278 
z
" transform="scale(0.015625)"/>
      </defs>
      <use xlink:href="#ArialMT-44"/>
      <use xlink:href="#ArialMT-61" x="72.216797"/>
      <use xlink:href="#ArialMT-79" x="127.832031"/>
     </g>
    </g>
   </g>
   <g id="matplotlib.axis_2">
    <g id="ytick_1">
     <g id="line2d_7">
      <defs>
       <path id="m543f2332c7" d="M 0 0 
L -12 0 
" style="stroke: #262626; stroke-width: 2.5"/>
      </defs>
      <g>
       <use xlink:href="#m543f2332c7" x="110.182812" y="223.270313" style="fill: #262626; stroke: #262626; stroke-width: 2.5"/>
      </g>
     </g>
     <g id="text_8">
      <!-- 0.25 -->
      <g style="fill: #262626" transform="translate(51.86875 231.143906) scale(0.22 -0.22)">
       <defs>
        <path id="ArialMT-30" d="M 266 2259 
Q 266 3072 433 3567 
Q 600 4063 929 4331 
Q 1259 4600 1759 4600 
Q 2128 4600 2406 4451 
Q 2684 4303 2865 4023 
Q 3047 3744 3150 3342 
Q 3253 2941 3253 2259 
Q 3253 1453 3087 958 
Q 2922 463 2592 192 
Q 2263 -78 1759 -78 
Q 1097 -78 719 397 
Q 266 969 266 2259 
z
M 844 2259 
Q 844 1131 1108 757 
Q 1372 384 1759 384 
Q 2147 384 2411 759 
Q 2675 1134 2675 2259 
Q 2675 3391 2411 3762 
Q 2147 4134 1753 4134 
Q 1366 4134 1134 3806 
Q 844 3388 844 2259 
z
" transform="scale(0.015625)"/>
        <path id="ArialMT-2e" d="M 581 0 
L 581 641 
L 1222 641 
L 1222 0 
L 581 0 
z
" transform="scale(0.015625)"/>
       </defs>
       <use xlink:href="#ArialMT-30"/>
       <use xlink:href="#ArialMT-2e" x="55.615234"/>
       <use xlink:href="#ArialMT-32" x="83.398438"/>
       <use xlink:href="#ArialMT-35" x="139.013672"/>
      </g>
     </g>
    </g>
    <g id="ytick_2">
     <g id="line2d_8">
      <g>
       <use xlink:href="#m543f2332c7" x="110.182812" y="161.59834" style="fill: #262626; stroke: #262626; stroke-width: 2.5"/>
      </g>
     </g>
     <g id="text_9">
      <!-- 0.50 -->
      <g style="fill: #262626" transform="translate(51.86875 169.471934) scale(0.22 -0.22)">
       <use xlink:href="#ArialMT-30"/>
       <use xlink:href="#ArialMT-2e" x="55.615234"/>
       <use xlink:href="#ArialMT-35" x="83.398438"/>
       <use xlink:href="#ArialMT-30" x="139.013672"/>
      </g>
     </g>
    </g>
    <g id="ytick_3">
     <g id="line2d_9">
      <g>
       <use xlink:href="#m543f2332c7" x="110.182812" y="99.926367" style="fill: #262626; stroke: #262626; stroke-width: 2.5"/>
      </g>
     </g>
     <g id="text_10">
      <!-- 0.75 -->
      <g style="fill: #262626" transform="translate(51.86875 107.799961) scale(0.22 -0.22)">
       <defs>
        <path id="ArialMT-37" d="M 303 3981 
L 303 4522 
L 3269 4522 
L 3269 4084 
Q 2831 3619 2401 2847 
Q 1972 2075 1738 1259 
Q 1569 684 1522 0 
L 944 0 
Q 953 541 1156 1306 
Q 1359 2072 1739 2783 
Q 2119 3494 2547 3981 
L 303 3981 
z
" transform="scale(0.015625)"/>
       </defs>
       <use xlink:href="#ArialMT-30"/>
       <use xlink:href="#ArialMT-2e" x="55.615234"/>
       <use xlink:href="#ArialMT-37" x="83.398438"/>
       <use xlink:href="#ArialMT-35" x="139.013672"/>
      </g>
     </g>
    </g>
    <g id="ytick_4">
     <g id="line2d_10">
      <g>
       <use xlink:href="#m543f2332c7" x="110.182812" y="38.254395" style="fill: #262626; stroke: #262626; stroke-width: 2.5"/>
      </g>
     </g>
     <g id="text_11">
      <!-- 1.00 -->
      <g style="fill: #262626" transform="translate(51.86875 46.127988) scale(0.22 -0.22)">
       <use xlink:href="#ArialMT-31"/>
       <use xlink:href="#ArialMT-2e" x="55.615234"/>
       <use xlink:href="#ArialMT-30" x="83.398438"/>
       <use xlink:href="#ArialMT-30" x="139.013672"/>
      </g>
     </g>
    </g>
    <g id="text_12">
     <!-- correct -->
     <g style="fill: #262626" transform="translate(43.09875 161.266406) rotate(-90) scale(0.24 -0.24)">
      <defs>
       <path id="ArialMT-63" d="M 2588 1216 
L 3141 1144 
Q 3050 572 2676 248 
Q 2303 -75 1759 -75 
Q 1078 -75 664 370 
Q 250 816 250 1647 
Q 250 2184 428 2587 
Q 606 2991 970 3192 
Q 1334 3394 1763 3394 
Q 2303 3394 2647 3120 
Q 2991 2847 3088 2344 
L 2541 2259 
Q 2463 2594 2264 2762 
Q 2066 2931 1784 2931 
Q 1359 2931 1093 2626 
Q 828 2322 828 1663 
Q 828 994 1084 691 
Q 1341 388 1753 388 
Q 2084 388 2306 591 
Q 2528 794 2588 1216 
z
" transform="scale(0.015625)"/>
       <path id="ArialMT-6f" d="M 213 1659 
Q 213 2581 725 3025 
Q 1153 3394 1769 3394 
Q 2453 3394 2887 2945 
Q 3322 2497 3322 1706 
Q 3322 1066 3130 698 
Q 2938 331 2570 128 
Q 2203 -75 1769 -75 
Q 1072 -75 642 372 
Q 213 819 213 1659 
z
M 791 1659 
Q 791 1022 1069 705 
Q 1347 388 1769 388 
Q 2188 388 2466 706 
Q 2744 1025 2744 1678 
Q 2744 2294 2464 2611 
Q 2184 2928 1769 2928 
Q 1347 2928 1069 2612 
Q 791 2297 791 1659 
z
" transform="scale(0.015625)"/>
       <path id="ArialMT-72" d="M 416 0 
L 416 3319 
L 922 3319 
L 922 2816 
Q 1116 3169 1280 3281 
Q 1444 3394 1641 3394 
Q 1925 3394 2219 3213 
L 2025 2691 
Q 1819 2813 1613 2813 
Q 1428 2813 1281 2702 
Q 1134 2591 1072 2394 
Q 978 2094 978 1738 
L 978 0 
L 416 0 
z
" transform="scale(0.015625)"/>
       <path id="ArialMT-65" d="M 2694 1069 
L 3275 997 
Q 3138 488 2766 206 
Q 2394 -75 1816 -75 
Q 1088 -75 661 373 
Q 234 822 234 1631 
Q 234 2469 665 2931 
Q 1097 3394 1784 3394 
Q 2450 3394 2872 2941 
Q 3294 2488 3294 1666 
Q 3294 1616 3291 1516 
L 816 1516 
Q 847 969 1125 678 
Q 1403 388 1819 388 
Q 2128 388 2347 550 
Q 2566 713 2694 1069 
z
M 847 1978 
L 2700 1978 
Q 2663 2397 2488 2606 
Q 2219 2931 1791 2931 
Q 1403 2931 1139 2672 
Q 875 2413 847 1978 
z
" transform="scale(0.015625)"/>
       <path id="ArialMT-74" d="M 1650 503 
L 1731 6 
Q 1494 -44 1306 -44 
Q 1000 -44 831 53 
Q 663 150 594 308 
Q 525 466 525 972 
L 525 2881 
L 113 2881 
L 113 3319 
L 525 3319 
L 525 4141 
L 1084 4478 
L 1084 3319 
L 1650 3319 
L 1650 2881 
L 1084 2881 
L 1084 941 
Q 1084 700 1114 631 
Q 1144 563 1211 522 
Q 1278 481 1403 481 
Q 1497 481 1650 503 
z
" transform="scale(0.015625)"/>
      </defs>
      <use xlink:href="#ArialMT-63"/>
      <use xlink:href="#ArialMT-6f" x="50"/>
      <use xlink:href="#ArialMT-72" x="105.615234"/>
      <use xlink:href="#ArialMT-72" x="138.916016"/>
      <use xlink:href="#ArialMT-65" x="172.216797"/>
      <use xlink:href="#ArialMT-63" x="227.832031"/>
      <use xlink:href="#ArialMT-74" x="277.832031"/>
     </g>
    </g>
   </g>
   <g id="line2d_11">
    <path d="M 123.808634 156.854342 
L 191.937743 134.188574 
L 260.066852 79.369043 
L 328.195961 65.165801 
L 396.325069 52.765447 
L 464.454178 42.822689 
" clip-path="url(#pc43c18ae25)" style="fill: none; stroke: #ff7c00; stroke-width: 3; stroke-linecap: round"/>
    <defs>
     <path id="m32d4797d9c" d="M 0 0.75 
C 0.198902 0.75 0.389685 0.670975 0.53033 0.53033 
C 0.670975 0.389685 0.75 0.198902 0.75 0 
C 0.75 -0.198902 0.670975 -0.389685 0.53033 -0.53033 
C 0.389685 -0.670975 0.198902 -0.75 0 -0.75 
C -0.198902 -0.75 -0.389685 -0.670975 -0.53033 -0.53033 
C -0.670975 -0.389685 -0.75 -0.198902 -0.75 0 
C -0.75 0.198902 -0.670975 0.389685 -0.53033 0.53033 
C -0.389685 0.670975 -0.198902 0.75 0 0.75 
z
" style="stroke: #ff7c00"/>
    </defs>
    <g clip-path="url(#pc43c18ae25)">
     <use xlink:href="#m32d4797d9c" x="123.808634" y="156.854342" style="fill: #ff7c00; stroke: #ff7c00"/>
     <use xlink:href="#m32d4797d9c" x="191.937743" y="134.188574" style="fill: #ff7c00; stroke: #ff7c00"/>
     <use xlink:href="#m32d4797d9c" x="260.066852" y="79.369043" style="fill: #ff7c00; stroke: #ff7c00"/>
     <use xlink:href="#m32d4797d9c" x="328.195961" y="65.165801" style="fill: #ff7c00; stroke: #ff7c00"/>
     <use xlink:href="#m32d4797d9c" x="396.325069" y="52.765447" style="fill: #ff7c00; stroke: #ff7c00"/>
     <use xlink:href="#m32d4797d9c" x="464.454178" y="42.822689" style="fill: #ff7c00; stroke: #ff7c00"/>
    </g>
   </g>
   <g id="line2d_12">
    <path d="M 130.621545 170.734928 
L 198.750654 154.616607 
L 266.879763 149.962119 
L 335.008872 108.071722 
L 403.13798 74.800749 
L 471.267089 52.21786 
" clip-path="url(#pc43c18ae25)" style="fill: none; stroke: #023eff; stroke-width: 3; stroke-linecap: round"/>
    <defs>
     <path id="m65b509a997" d="M 0 0.75 
C 0.198902 0.75 0.389685 0.670975 0.53033 0.53033 
C 0.670975 0.389685 0.75 0.198902 0.75 0 
C 0.75 -0.198902 0.670975 -0.389685 0.53033 -0.53033 
C 0.389685 -0.670975 0.198902 -0.75 0 -0.75 
C -0.198902 -0.75 -0.389685 -0.670975 -0.53033 -0.53033 
C -0.670975 -0.389685 -0.75 -0.198902 -0.75 0 
C -0.75 0.198902 -0.670975 0.389685 -0.53033 0.53033 
C -0.389685 0.670975 -0.198902 0.75 0 0.75 
z
" style="stroke: #023eff"/>
    </defs>
    <g clip-path="url(#pc43c18ae25)">
     <use xlink:href="#m65b509a997" x="130.621545" y="170.734928" style="fill: #023eff; stroke: #023eff"/>
     <use xlink:href="#m65b509a997" x="198.750654" y="154.616607" style="fill: #023eff; stroke: #023eff"/>
     <use xlink:href="#m65b509a997" x="266.879763" y="149.962119" style="fill: #023eff; stroke: #023eff"/>
     <use xlink:href="#m65b509a997" x="335.008872" y="108.071722" style="fill: #023eff; stroke: #023eff"/>
     <use xlink:href="#m65b509a997" x="403.13798" y="74.800749" style="fill: #023eff; stroke: #023eff"/>
     <use xlink:href="#m65b509a997" x="471.267089" y="52.21786" style="fill: #023eff; stroke: #023eff"/>
    </g>
   </g>
   <g id="line2d_13">
    <path d="M 137.434456 147.893457 
L 205.563565 145.30763 
L 273.692674 80.144791 
L 341.821782 57.230386 
L 409.950891 56.195332 
L 478.08 66.181326 
" clip-path="url(#pc43c18ae25)" style="fill: none; stroke: #1ac938; stroke-width: 3; stroke-linecap: round"/>
    <defs>
     <path id="m2bcfc4e505" d="M 0 0.75 
C 0.198902 0.75 0.389685 0.670975 0.53033 0.53033 
C 0.670975 0.389685 0.75 0.198902 0.75 0 
C 0.75 -0.198902 0.670975 -0.389685 0.53033 -0.53033 
C 0.389685 -0.670975 0.198902 -0.75 0 -0.75 
C -0.198902 -0.75 -0.389685 -0.670975 -0.53033 -0.53033 
C -0.670975 -0.389685 -0.75 -0.198902 -0.75 0 
C -0.75 0.198902 -0.670975 0.389685 -0.53033 0.53033 
C -0.389685 0.670975 -0.198902 0.75 0 0.75 
z
" style="stroke: #1ac938"/>
    </defs>
    <g clip-path="url(#pc43c18ae25)">
     <use xlink:href="#m2bcfc4e505" x="137.434456" y="147.893457" style="fill: #1ac938; stroke: #1ac938"/>
     <use xlink:href="#m2bcfc4e505" x="205.563565" y="145.30763" style="fill: #1ac938; stroke: #1ac938"/>
     <use xlink:href="#m2bcfc4e505" x="273.692674" y="80.144791" style="fill: #1ac938; stroke: #1ac938"/>
     <use xlink:href="#m2bcfc4e505" x="341.821782" y="57.230386" style="fill: #1ac938; stroke: #1ac938"/>
     <use xlink:href="#m2bcfc4e505" x="409.950891" y="56.195332" style="fill: #1ac938; stroke: #1ac938"/>
     <use xlink:href="#m2bcfc4e505" x="478.08" y="66.181326" style="fill: #1ac938; stroke: #1ac938"/>
    </g>
   </g>
   <g id="line2d_14">
    <path d="M 123.808634 161.59834 
L 464.454178 161.59834 
" clip-path="url(#pc43c18ae25)" style="fill: none; stroke-dasharray: 11.1,4.8; stroke-dashoffset: 0; stroke: #000000; stroke-opacity: 0.5; stroke-width: 3"/>
   </g>
   <g id="LineCollection_1">
    <path d="M 123.808634 189.417144 
L 123.808634 123.001173 
" clip-path="url(#pc43c18ae25)" style="fill: none; stroke: #ff7c00; stroke-width: 3"/>
    <path d="M 191.937743 166.984359 
L 191.937743 103.028239 
" clip-path="url(#pc43c18ae25)" style="fill: none; stroke: #ff7c00; stroke-width: 3"/>
    <path d="M 260.066852 107.267616 
L 260.066852 57.016379 
" clip-path="url(#pc43c18ae25)" style="fill: none; stroke: #ff7c00; stroke-width: 3"/>
    <path d="M 328.195961 83.470042 
L 328.195961 47.588167 
" clip-path="url(#pc43c18ae25)" style="fill: none; stroke: #ff7c00; stroke-width: 3"/>
    <path d="M 396.325069 71.968406 
L 396.325069 38.109284 
" clip-path="url(#pc43c18ae25)" style="fill: none; stroke: #ff7c00; stroke-width: 3"/>
    <path d="M 464.454178 51.991255 
L 464.454178 38.286373 
" clip-path="url(#pc43c18ae25)" style="fill: none; stroke: #ff7c00; stroke-width: 3"/>
   </g>
   <g id="LineCollection_2">
    <path d="M 130.621545 203.27032 
L 130.621545 139.3142 
" clip-path="url(#pc43c18ae25)" style="fill: none; stroke: #023eff; stroke-width: 3"/>
    <path d="M 198.750654 187.337661 
L 198.750654 122.174822 
" clip-path="url(#pc43c18ae25)" style="fill: none; stroke: #023eff; stroke-width: 3"/>
    <path d="M 266.879763 182.278232 
L 266.879763 117.115393 
" clip-path="url(#pc43c18ae25)" style="fill: none; stroke: #023eff; stroke-width: 3"/>
    <path d="M 335.008872 135.742656 
L 335.008872 79.888794 
" clip-path="url(#pc43c18ae25)" style="fill: none; stroke: #023eff; stroke-width: 3"/>
    <path d="M 403.13798 101.529838 
L 403.13798 55.846896 
" clip-path="url(#pc43c18ae25)" style="fill: none; stroke: #023eff; stroke-width: 3"/>
    <path d="M 471.267089 71.119738 
L 471.267089 38.538318 
" clip-path="url(#pc43c18ae25)" style="fill: none; stroke: #023eff; stroke-width: 3"/>
   </g>
   <g id="LineCollection_3">
    <path d="M 137.434456 175.993035 
L 137.434456 116.491002 
" clip-path="url(#pc43c18ae25)" style="fill: none; stroke: #1ac938; stroke-width: 3"/>
    <path d="M 205.563565 177.418946 
L 205.563565 112.256107 
" clip-path="url(#pc43c18ae25)" style="fill: none; stroke: #1ac938; stroke-width: 3"/>
    <path d="M 273.692674 107.275805 
L 273.692674 56.076431 
" clip-path="url(#pc43c18ae25)" style="fill: none; stroke: #1ac938; stroke-width: 3"/>
    <path d="M 341.821782 75.731978 
L 341.821782 42.523993 
" clip-path="url(#pc43c18ae25)" style="fill: none; stroke: #1ac938; stroke-width: 3"/>
    <path d="M 409.950891 74.091417 
L 409.950891 42.694777 
" clip-path="url(#pc43c18ae25)" style="fill: none; stroke: #1ac938; stroke-width: 3"/>
    <path d="M 478.08 89.160535 
L 478.08 47.270139 
" clip-path="url(#pc43c18ae25)" style="fill: none; stroke: #1ac938; stroke-width: 3"/>
   </g>
   <g id="patch_3">
    <path d="M 110.182812 223.270313 
L 110.182812 25.92 
" style="fill: none; stroke: #262626; stroke-width: 2.5; stroke-linejoin: miter; stroke-linecap: square"/>
   </g>
   <g id="patch_4">
    <path d="M 110.182812 223.270313 
L 478.08 223.270313 
" style="fill: none; stroke: #262626; stroke-width: 2.5; stroke-linejoin: miter; stroke-linecap: square"/>
   </g>
  </g>
 </g>
 <defs>
  <clipPath id="pc43c18ae25">
   <rect x="110.182812" y="25.92" width="367.897188" height="197.350313"/>
  </clipPath>
 </defs>
</svg>
