<?xml version="1.0" encoding="utf-8" standalone="no"?>
<!DOCTYPE svg PUBLIC "-//W3C//DTD SVG 1.1//EN"
  "http://www.w3.org/Graphics/SVG/1.1/DTD/svg11.dtd">
<svg xmlns:xlink="http://www.w3.org/1999/xlink" width="576pt" height="355.68pt" viewBox="0 0 576 355.68" xmlns="http://www.w3.org/2000/svg" version="1.1">
 <metadata>
  <rdf:RDF xmlns:dc="http://purl.org/dc/elements/1.1/" xmlns:cc="http://creativecommons.org/ns#" xmlns:rdf="http://www.w3.org/1999/02/22-rdf-syntax-ns#">
   <cc:Work>
    <dc:type rdf:resource="http://purl.org/dc/dcmitype/StillImage"/>
    <dc:date>2023-07-14T15:39:23.239078</dc:date>
    <dc:format>image/svg+xml</dc:format>
    <dc:creator>
     <cc:Agent>
      <dc:title>Matplotlib v3.7.2, https://matplotlib.org/</dc:title>
     </cc:Agent>
    </dc:creator>
   </cc:Work>
  </rdf:RDF>
 </metadata>
 <defs>
  <style type="text/css">*{stroke-linejoin: round; stroke-linecap: butt}</style>
 </defs>
 <g id="figure_1">
  <g id="patch_1">
   <path d="M 0 355.68 
L 576 355.68 
L 576 0 
L 0 0 
z
" style="fill: #ffffff"/>
  </g>
  <g id="axes_1">
   <g id="patch_2">
    <path d="M 97.083438 294.140312 
L 550.08 294.140312 
L 550.08 25.92 
L 97.083438 25.92 
z
" style="fill: #ffffff"/>
   </g>
   <g id="matplotlib.axis_1">
    <g id="xtick_1">
     <g id="line2d_1">
      <defs>
       <path id="maccc574fb3" d="M 0 0 
L 0 12 
" style="stroke: #262626; stroke-width: 2.5"/>
      </defs>
      <g>
       <use xlink:href="#maccc574fb3" x="97.083438" y="294.140312" style="fill: #262626; stroke: #262626; stroke-width: 2.5"/>
      </g>
     </g>
     <g id="text_1">
      <!-- 0.0 -->
      <g style="fill: #262626" transform="translate(81.793437 325.3875) scale(0.22 -0.22)">
       <defs>
        <path id="ArialMT-30" d="M 266 2259 
Q 266 3072 433 3567 
Q 600 4063 929 4331 
Q 1259 4600 1759 4600 
Q 2128 4600 2406 4451 
Q 2684 4303 2865 4023 
Q 3047 3744 3150 3342 
Q 3253 2941 3253 2259 
Q 3253 1453 3087 958 
Q 2922 463 2592 192 
Q 2263 -78 1759 -78 
Q 1097 -78 719 397 
Q 266 969 266 2259 
z
M 844 2259 
Q 844 1131 1108 757 
Q 1372 384 1759 384 
Q 2147 384 2411 759 
Q 2675 1134 2675 2259 
Q 2675 3391 2411 3762 
Q 2147 4134 1753 4134 
Q 1366 4134 1134 3806 
Q 844 3388 844 2259 
z
" transform="scale(0.015625)"/>
        <path id="ArialMT-2e" d="M 581 0 
L 581 641 
L 1222 641 
L 1222 0 
L 581 0 
z
" transform="scale(0.015625)"/>
       </defs>
       <use xlink:href="#ArialMT-30"/>
       <use xlink:href="#ArialMT-2e" x="55.615234"/>
       <use xlink:href="#ArialMT-30" x="83.398438"/>
      </g>
     </g>
    </g>
    <g id="xtick_2">
     <g id="line2d_2">
      <g>
       <use xlink:href="#maccc574fb3" x="177.975681" y="294.140312" style="fill: #262626; stroke: #262626; stroke-width: 2.5"/>
      </g>
     </g>
     <g id="text_2">
      <!-- 2.5 -->
      <g style="fill: #262626" transform="translate(162.685681 325.3875) scale(0.22 -0.22)">
       <defs>
        <path id="ArialMT-32" d="M 3222 541 
L 3222 0 
L 194 0 
Q 188 203 259 391 
Q 375 700 629 1000 
Q 884 1300 1366 1694 
Q 2113 2306 2375 2664 
Q 2638 3022 2638 3341 
Q 2638 3675 2398 3904 
Q 2159 4134 1775 4134 
Q 1369 4134 1125 3890 
Q 881 3647 878 3216 
L 300 3275 
Q 359 3922 746 4261 
Q 1134 4600 1788 4600 
Q 2447 4600 2831 4234 
Q 3216 3869 3216 3328 
Q 3216 3053 3103 2787 
Q 2991 2522 2730 2228 
Q 2469 1934 1863 1422 
Q 1356 997 1212 845 
Q 1069 694 975 541 
L 3222 541 
z
" transform="scale(0.015625)"/>
        <path id="ArialMT-35" d="M 266 1200 
L 856 1250 
Q 922 819 1161 601 
Q 1400 384 1738 384 
Q 2144 384 2425 690 
Q 2706 997 2706 1503 
Q 2706 1984 2436 2262 
Q 2166 2541 1728 2541 
Q 1456 2541 1237 2417 
Q 1019 2294 894 2097 
L 366 2166 
L 809 4519 
L 3088 4519 
L 3088 3981 
L 1259 3981 
L 1013 2750 
Q 1425 3038 1878 3038 
Q 2478 3038 2890 2622 
Q 3303 2206 3303 1553 
Q 3303 931 2941 478 
Q 2500 -78 1738 -78 
Q 1113 -78 717 272 
Q 322 622 266 1200 
z
" transform="scale(0.015625)"/>
       </defs>
       <use xlink:href="#ArialMT-32"/>
       <use xlink:href="#ArialMT-2e" x="55.615234"/>
       <use xlink:href="#ArialMT-35" x="83.398438"/>
      </g>
     </g>
    </g>
    <g id="xtick_3">
     <g id="line2d_3">
      <g>
       <use xlink:href="#maccc574fb3" x="258.867924" y="294.140312" style="fill: #262626; stroke: #262626; stroke-width: 2.5"/>
      </g>
     </g>
     <g id="text_3">
      <!-- 5.0 -->
      <g style="fill: #262626" transform="translate(243.577924 325.3875) scale(0.22 -0.22)">
       <use xlink:href="#ArialMT-35"/>
       <use xlink:href="#ArialMT-2e" x="55.615234"/>
       <use xlink:href="#ArialMT-30" x="83.398438"/>
      </g>
     </g>
    </g>
    <g id="xtick_4">
     <g id="line2d_4">
      <g>
       <use xlink:href="#maccc574fb3" x="339.760167" y="294.140312" style="fill: #262626; stroke: #262626; stroke-width: 2.5"/>
      </g>
     </g>
     <g id="text_4">
      <!-- 7.5 -->
      <g style="fill: #262626" transform="translate(324.470167 325.3875) scale(0.22 -0.22)">
       <defs>
        <path id="ArialMT-37" d="M 303 3981 
L 303 4522 
L 3269 4522 
L 3269 4084 
Q 2831 3619 2401 2847 
Q 1972 2075 1738 1259 
Q 1569 684 1522 0 
L 944 0 
Q 953 541 1156 1306 
Q 1359 2072 1739 2783 
Q 2119 3494 2547 3981 
L 303 3981 
z
" transform="scale(0.015625)"/>
       </defs>
       <use xlink:href="#ArialMT-37"/>
       <use xlink:href="#ArialMT-2e" x="55.615234"/>
       <use xlink:href="#ArialMT-35" x="83.398438"/>
      </g>
     </g>
    </g>
    <g id="xtick_5">
     <g id="line2d_5">
      <g>
       <use xlink:href="#maccc574fb3" x="420.652411" y="294.140312" style="fill: #262626; stroke: #262626; stroke-width: 2.5"/>
      </g>
     </g>
     <g id="text_5">
      <!-- 10.0 -->
      <g style="fill: #262626" transform="translate(399.245379 325.3875) scale(0.22 -0.22)">
       <defs>
        <path id="ArialMT-31" d="M 2384 0 
L 1822 0 
L 1822 3584 
Q 1619 3391 1289 3197 
Q 959 3003 697 2906 
L 697 3450 
Q 1169 3672 1522 3987 
Q 1875 4303 2022 4600 
L 2384 4600 
L 2384 0 
z
" transform="scale(0.015625)"/>
       </defs>
       <use xlink:href="#ArialMT-31"/>
       <use xlink:href="#ArialMT-30" x="55.615234"/>
       <use xlink:href="#ArialMT-2e" x="111.230469"/>
       <use xlink:href="#ArialMT-30" x="139.013672"/>
      </g>
     </g>
    </g>
    <g id="xtick_6">
     <g id="line2d_6">
      <g>
       <use xlink:href="#maccc574fb3" x="501.544654" y="294.140312" style="fill: #262626; stroke: #262626; stroke-width: 2.5"/>
      </g>
     </g>
     <g id="text_6">
      <!-- 12.5 -->
      <g style="fill: #262626" transform="translate(480.137623 325.3875) scale(0.22 -0.22)">
       <use xlink:href="#ArialMT-31"/>
       <use xlink:href="#ArialMT-32" x="55.615234"/>
       <use xlink:href="#ArialMT-2e" x="111.230469"/>
       <use xlink:href="#ArialMT-35" x="139.013672"/>
      </g>
     </g>
    </g>
   </g>
   <g id="matplotlib.axis_2">
    <g id="ytick_1">
     <g id="line2d_7">
      <defs>
       <path id="m3aea9b1dd8" d="M 0 0 
L -12 0 
" style="stroke: #262626; stroke-width: 2.5"/>
      </defs>
      <g>
       <use xlink:href="#m3aea9b1dd8" x="97.083438" y="289.462301" style="fill: #262626; stroke: #262626; stroke-width: 2.5"/>
      </g>
     </g>
     <g id="text_7">
      <!-- −0.05 -->
      <g style="fill: #262626" transform="translate(25.92 297.335895) scale(0.22 -0.22)">
       <defs>
        <path id="ArialMT-2212" d="M 3381 1997 
L 356 1997 
L 356 2522 
L 3381 2522 
L 3381 1997 
z
" transform="scale(0.015625)"/>
       </defs>
       <use xlink:href="#ArialMT-2212"/>
       <use xlink:href="#ArialMT-30" x="58.398438"/>
       <use xlink:href="#ArialMT-2e" x="114.013672"/>
       <use xlink:href="#ArialMT-30" x="141.796875"/>
       <use xlink:href="#ArialMT-35" x="197.412109"/>
      </g>
     </g>
    </g>
    <g id="ytick_2">
     <g id="line2d_8">
      <g>
       <use xlink:href="#m3aea9b1dd8" x="97.083438" y="227.704523" style="fill: #262626; stroke: #262626; stroke-width: 2.5"/>
      </g>
     </g>
     <g id="text_8">
      <!-- 0.00 -->
      <g style="fill: #262626" transform="translate(38.769375 235.578117) scale(0.22 -0.22)">
       <use xlink:href="#ArialMT-30"/>
       <use xlink:href="#ArialMT-2e" x="55.615234"/>
       <use xlink:href="#ArialMT-30" x="83.398438"/>
       <use xlink:href="#ArialMT-30" x="139.013672"/>
      </g>
     </g>
    </g>
    <g id="ytick_3">
     <g id="line2d_9">
      <g>
       <use xlink:href="#m3aea9b1dd8" x="97.083438" y="165.946745" style="fill: #262626; stroke: #262626; stroke-width: 2.5"/>
      </g>
     </g>
     <g id="text_9">
      <!-- 0.05 -->
      <g style="fill: #262626" transform="translate(38.769375 173.820339) scale(0.22 -0.22)">
       <use xlink:href="#ArialMT-30"/>
       <use xlink:href="#ArialMT-2e" x="55.615234"/>
       <use xlink:href="#ArialMT-30" x="83.398438"/>
       <use xlink:href="#ArialMT-35" x="139.013672"/>
      </g>
     </g>
    </g>
    <g id="ytick_4">
     <g id="line2d_10">
      <g>
       <use xlink:href="#m3aea9b1dd8" x="97.083438" y="104.188967" style="fill: #262626; stroke: #262626; stroke-width: 2.5"/>
      </g>
     </g>
     <g id="text_10">
      <!-- 0.10 -->
      <g style="fill: #262626" transform="translate(38.769375 112.062561) scale(0.22 -0.22)">
       <use xlink:href="#ArialMT-30"/>
       <use xlink:href="#ArialMT-2e" x="55.615234"/>
       <use xlink:href="#ArialMT-31" x="83.398438"/>
       <use xlink:href="#ArialMT-30" x="139.013672"/>
      </g>
     </g>
    </g>
    <g id="ytick_5">
     <g id="line2d_11">
      <g>
       <use xlink:href="#m3aea9b1dd8" x="97.083438" y="42.431189" style="fill: #262626; stroke: #262626; stroke-width: 2.5"/>
      </g>
     </g>
     <g id="text_11">
      <!-- 0.15 -->
      <g style="fill: #262626" transform="translate(38.769375 50.304783) scale(0.22 -0.22)">
       <use xlink:href="#ArialMT-30"/>
       <use xlink:href="#ArialMT-2e" x="55.615234"/>
       <use xlink:href="#ArialMT-31" x="83.398438"/>
       <use xlink:href="#ArialMT-35" x="139.013672"/>
      </g>
     </g>
    </g>
   </g>
   <g id="PolyCollection_1">
    <defs>
     <path id="m89eb5de4fb" d="M 97.083438 -121.999756 
L 97.083438 -89.975596 
L 102.541227 -107.092396 
L 107.999017 -101.738478 
L 113.456807 -108.516001 
L 118.914597 -113.55007 
L 124.372387 -115.313574 
L 129.830177 -103.159707 
L 135.287967 -115.479661 
L 140.745757 -119.761953 
L 146.203547 -133.794156 
L 151.661337 -125.618141 
L 157.119127 -125.651428 
L 162.576916 -139.562095 
L 168.034706 -134.252981 
L 173.492496 -165.079663 
L 178.950286 -168.25376 
L 184.408076 -189.788518 
L 189.865866 -199.510811 
L 195.323656 -196.555063 
L 200.781446 -220.642311 
L 206.239236 -218.549949 
L 211.697026 -238.372433 
L 217.154816 -235.633141 
L 222.612605 -242.781831 
L 228.070395 -235.473672 
L 233.528185 -235.966123 
L 238.985975 -241.601451 
L 244.443765 -229.015491 
L 249.901555 -224.941815 
L 255.359345 -220.470264 
L 260.817135 -215.772194 
L 266.274925 -218.456253 
L 271.732715 -199.434794 
L 277.190505 -180.594839 
L 282.648294 -199.389343 
L 288.106084 -193.728221 
L 293.563874 -185.406482 
L 299.021664 -172.766256 
L 304.479454 -185.127028 
L 309.937244 -179.804868 
L 315.395034 -178.455258 
L 320.852824 -173.420686 
L 326.310614 -168.818096 
L 331.768404 -174.611669 
L 337.226194 -163.851623 
L 342.683983 -168.996677 
L 348.141773 -150.140726 
L 353.599563 -149.992683 
L 359.057353 -150.421638 
L 364.515143 -143.520138 
L 369.972933 -135.703919 
L 375.430723 -136.825796 
L 380.888513 -136.790676 
L 386.346303 -132.515251 
L 391.804093 -139.464091 
L 397.261883 -117.344821 
L 402.719672 -115.837386 
L 408.177462 -100.535655 
L 413.635252 -95.644039 
L 419.093042 -102.257522 
L 424.550832 -105.399777 
L 430.008622 -91.473443 
L 435.466412 -87.331831 
L 440.924202 -92.676296 
L 446.381992 -96.634813 
L 451.839782 -79.422875 
L 457.297572 -84.595375 
L 462.755361 -85.257723 
L 468.213151 -73.73152 
L 473.670941 -93.264038 
L 479.128731 -79.52504 
L 484.586521 -92.069152 
L 490.044311 -81.809959 
L 495.502101 -96.914906 
L 500.959891 -90.287006 
L 506.417681 -101.272143 
L 511.875471 -94.674311 
L 517.333261 -102.446337 
L 522.79105 -104.691299 
L 528.24884 -93.676035 
L 533.70663 -106.704244 
L 539.16442 -112.146191 
L 544.62221 -100.990505 
L 550.08 -108.373164 
L 550.08 -170.376374 
L 550.08 -170.376374 
L 544.62221 -162.951581 
L 539.16442 -168.440709 
L 533.70663 -167.434578 
L 528.24884 -158.505171 
L 522.79105 -164.438073 
L 517.333261 -159.309448 
L 511.875471 -151.861009 
L 506.417681 -157.807919 
L 500.959891 -152.122332 
L 495.502101 -149.809887 
L 490.044311 -137.811099 
L 484.586521 -146.642574 
L 479.128731 -140.22138 
L 473.670941 -153.610445 
L 468.213151 -136.184443 
L 462.755361 -144.56859 
L 457.297572 -145.005286 
L 451.839782 -137.276683 
L 446.381992 -157.182705 
L 440.924202 -151.628539 
L 435.466412 -150.625869 
L 430.008622 -153.136457 
L 424.550832 -163.462696 
L 419.093042 -165.624261 
L 413.635252 -155.749829 
L 408.177462 -160.060423 
L 402.719672 -170.506667 
L 397.261883 -168.310273 
L 391.804093 -192.795539 
L 386.346303 -186.541339 
L 380.888513 -189.15323 
L 375.430723 -193.377597 
L 369.972933 -191.669417 
L 364.515143 -198.935136 
L 359.057353 -203.201271 
L 353.599563 -198.758548 
L 348.141773 -199.826193 
L 342.683983 -220.063819 
L 337.226194 -217.131831 
L 331.768404 -228.903787 
L 326.310614 -224.641692 
L 320.852824 -232.075111 
L 315.395034 -228.970299 
L 309.937244 -237.607012 
L 304.479454 -242.309287 
L 299.021664 -227.448217 
L 293.563874 -243.195734 
L 288.106084 -250.508628 
L 282.648294 -256.521489 
L 277.190505 -236.77783 
L 271.732715 -260.702653 
L 266.274925 -281.714855 
L 260.817135 -275.535983 
L 255.359345 -286.370802 
L 249.901555 -288.257206 
L 244.443765 -295.979676 
L 238.985975 -305.52764 
L 233.528185 -299.251807 
L 228.070395 -300.934852 
L 222.612605 -306.750504 
L 217.154816 -297.296455 
L 211.697026 -297.710606 
L 206.239236 -273.369611 
L 200.781446 -271.421621 
L 195.323656 -245.170482 
L 189.865866 -247.913001 
L 184.408076 -232.529094 
L 178.950286 -205.345867 
L 173.492496 -204.261154 
L 168.034706 -169.003232 
L 162.576916 -172.880728 
L 157.119127 -157.337424 
L 151.661337 -154.663636 
L 146.203547 -160.449525 
L 140.745757 -149.509971 
L 135.287967 -141.935254 
L 129.830177 -130.643287 
L 124.372387 -143.266708 
L 118.914597 -142.41469 
L 113.456807 -134.168565 
L 107.999017 -135.742082 
L 102.541227 -137.647263 
L 97.083438 -121.999756 
z
" style="stroke: #ff7c00; stroke-opacity: 0.25; stroke-width: 2"/>
    </defs>
    <g clip-path="url(#paf4661e247)">
     <use xlink:href="#m89eb5de4fb" x="0" y="355.68" style="fill: #ff7c00; fill-opacity: 0.25; stroke: #ff7c00; stroke-opacity: 0.25; stroke-width: 2"/>
    </g>
   </g>
   <g id="patch_3">
    <path d="M 161.797232 294.140312 
L 161.797232 25.92 
L 194.154129 25.92 
L 194.154129 294.140312 
z
" clip-path="url(#paf4661e247)" style="fill: #0000ff; opacity: 0.1; stroke: #0000ff; stroke-width: 2; stroke-linejoin: miter"/>
   </g>
   <g id="patch_4">
    <path d="M 242.689475 294.140312 
L 242.689475 25.92 
L 275.046373 25.92 
L 275.046373 294.140312 
z
" clip-path="url(#paf4661e247)" style="fill: #0000ff; opacity: 0.1; stroke: #0000ff; stroke-width: 2; stroke-linejoin: miter"/>
   </g>
   <g id="patch_5">
    <path d="M 388.295513 294.140312 
L 388.295513 25.92 
L 420.652411 25.92 
L 420.652411 294.140312 
z
" clip-path="url(#paf4661e247)" style="fill: #0000ff; opacity: 0.1; stroke: #0000ff; stroke-width: 2; stroke-linejoin: miter"/>
   </g>
   <g id="patch_6">
    <path d="M 307.40327 294.140312 
L 307.40327 25.92 
L 323.581719 25.92 
L 323.581719 294.140312 
z
" clip-path="url(#paf4661e247)" style="fill: #008000; opacity: 0.1; stroke: #008000; stroke-width: 2; stroke-linejoin: miter"/>
   </g>
   <g id="PolyCollection_2">
    <defs>
     <path id="meabad94a05" d="M 97.083438 -153.00662 
L 97.083438 -115.123688 
L 102.541227 -99.626398 
L 107.999017 -123.925452 
L 113.456807 -111.028389 
L 118.914597 -106.608666 
L 124.372387 -86.128779 
L 129.830177 -98.253274 
L 135.287967 -119.269378 
L 140.745757 -114.721528 
L 146.203547 -119.482444 
L 151.661337 -123.33309 
L 157.119127 -126.224456 
L 162.576916 -124.281651 
L 168.034706 -128.968483 
L 173.492496 -139.211164 
L 178.950286 -178.004957 
L 184.408076 -201.671044 
L 189.865866 -206.112865 
L 195.323656 -220.812965 
L 200.781446 -227.995617 
L 206.239236 -244.361851 
L 211.697026 -243.093936 
L 217.154816 -251.628844 
L 222.612605 -247.821878 
L 228.070395 -243.334901 
L 233.528185 -243.023212 
L 238.985975 -235.517755 
L 244.443765 -236.577643 
L 249.901555 -232.134625 
L 255.359345 -228.416783 
L 260.817135 -226.150746 
L 266.274925 -217.676151 
L 271.732715 -212.038214 
L 277.190505 -212.688384 
L 282.648294 -202.474655 
L 288.106084 -197.424785 
L 293.563874 -192.781679 
L 299.021664 -187.981046 
L 304.479454 -196.95859 
L 309.937244 -186.747746 
L 315.395034 -178.082541 
L 320.852824 -175.809935 
L 326.310614 -175.274889 
L 331.768404 -175.414834 
L 337.226194 -174.6639 
L 342.683983 -166.021037 
L 348.141773 -155.012152 
L 353.599563 -165.979307 
L 359.057353 -153.269823 
L 364.515143 -153.509624 
L 369.972933 -149.756077 
L 375.430723 -151.613813 
L 380.888513 -163.183085 
L 386.346303 -154.747227 
L 391.804093 -157.796162 
L 397.261883 -151.585233 
L 402.719672 -137.172053 
L 408.177462 -121.757114 
L 413.635252 -123.407533 
L 419.093042 -113.498466 
L 424.550832 -100.195624 
L 430.008622 -105.764756 
L 435.466412 -105.069166 
L 440.924202 -121.752432 
L 446.381992 -119.55524 
L 451.839782 -104.064081 
L 457.297572 -109.482603 
L 462.755361 -117.318759 
L 468.213151 -108.591757 
L 473.670941 -117.611617 
L 479.128731 -114.962984 
L 484.586521 -115.217699 
L 490.044311 -111.520426 
L 495.502101 -124.165632 
L 500.959891 -113.531778 
L 506.417681 -120.263713 
L 511.875471 -122.565324 
L 517.333261 -116.853211 
L 522.79105 -115.798584 
L 528.24884 -96.589108 
L 533.70663 -112.890725 
L 539.16442 -116.284884 
L 544.62221 -121.135411 
L 550.08 -108.309651 
L 550.08 -178.516398 
L 550.08 -178.516398 
L 544.62221 -187.93317 
L 539.16442 -185.529829 
L 533.70663 -178.810749 
L 528.24884 -161.549963 
L 522.79105 -185.218632 
L 517.333261 -187.222887 
L 511.875471 -193.505871 
L 506.417681 -186.957548 
L 500.959891 -178.854817 
L 495.502101 -194.88003 
L 490.044311 -174.321358 
L 484.586521 -179.058923 
L 479.128731 -179.2923 
L 473.670941 -179.107038 
L 468.213151 -173.721106 
L 462.755361 -179.409418 
L 457.297572 -175.927203 
L 451.839782 -166.923148 
L 446.381992 -186.317747 
L 440.924202 -182.895412 
L 435.466412 -170.172696 
L 430.008622 -170.593867 
L 424.550832 -168.614017 
L 419.093042 -176.867437 
L 413.635252 -185.319062 
L 408.177462 -182.986555 
L 402.719672 -197.635711 
L 397.261883 -214.323837 
L 391.804093 -220.014582 
L 386.346303 -214.159143 
L 380.888513 -225.239622 
L 375.430723 -212.87909 
L 369.972933 -210.115363 
L 364.515143 -218.792402 
L 359.057353 -212.318264 
L 353.599563 -228.060812 
L 348.141773 -214.195958 
L 342.683983 -223.217708 
L 337.226194 -233.730805 
L 331.768404 -234.328159 
L 326.310614 -236.144589 
L 320.852824 -231.388685 
L 315.395034 -234.759435 
L 309.937244 -247.058547 
L 304.479454 -254.718104 
L 299.021664 -239.129039 
L 293.563874 -249.740462 
L 288.106084 -258.644865 
L 282.648294 -266.582612 
L 277.190505 -276.186903 
L 271.732715 -275.787689 
L 266.274925 -281.512332 
L 260.817135 -289.337689 
L 255.359345 -290.481821 
L 249.901555 -292.650941 
L 244.443765 -297.827747 
L 238.985975 -299.782988 
L 233.528185 -303.154374 
L 228.070395 -300.239521 
L 222.612605 -312.126535 
L 217.154816 -317.568168 
L 211.697026 -307.249359 
L 206.239236 -302.366701 
L 200.781446 -288.859073 
L 195.323656 -279.684587 
L 189.865866 -258.653234 
L 184.408076 -254.292405 
L 178.950286 -224.968207 
L 173.492496 -181.618377 
L 168.034706 -166.485297 
L 162.576916 -166.543037 
L 157.119127 -164.509298 
L 151.661337 -158.311236 
L 146.203547 -151.945291 
L 140.745757 -146.946367 
L 135.287967 -148.601805 
L 129.830177 -129.441477 
L 124.372387 -114.32845 
L 118.914597 -137.014566 
L 113.456807 -140.775856 
L 107.999017 -156.046409 
L 102.541227 -132.246471 
L 97.083438 -153.00662 
z
" style="stroke: #ff7c00; stroke-opacity: 0.25; stroke-width: 2"/>
    </defs>
    <g clip-path="url(#paf4661e247)">
     <use xlink:href="#meabad94a05" x="0" y="355.68" style="fill: #ff7c00; fill-opacity: 0.25; stroke: #ff7c00; stroke-opacity: 0.25; stroke-width: 2"/>
    </g>
   </g>
   <g id="patch_7">
    <path d="M 161.797232 294.140312 
L 161.797232 25.92 
L 194.154129 25.92 
L 194.154129 294.140312 
z
" clip-path="url(#paf4661e247)" style="fill: #0000ff; opacity: 0.1; stroke: #0000ff; stroke-width: 2; stroke-linejoin: miter"/>
   </g>
   <g id="patch_8">
    <path d="M 242.689475 294.140312 
L 242.689475 25.92 
L 275.046373 25.92 
L 275.046373 294.140312 
z
" clip-path="url(#paf4661e247)" style="fill: #0000ff; opacity: 0.1; stroke: #0000ff; stroke-width: 2; stroke-linejoin: miter"/>
   </g>
   <g id="patch_9">
    <path d="M 388.295513 294.140312 
L 388.295513 25.92 
L 420.652411 25.92 
L 420.652411 294.140312 
z
" clip-path="url(#paf4661e247)" style="fill: #0000ff; opacity: 0.1; stroke: #0000ff; stroke-width: 2; stroke-linejoin: miter"/>
   </g>
   <g id="patch_10">
    <path d="M 307.40327 294.140312 
L 307.40327 25.92 
L 323.581719 25.92 
L 323.581719 294.140312 
z
" clip-path="url(#paf4661e247)" style="fill: #008000; opacity: 0.1; stroke: #008000; stroke-width: 2; stroke-linejoin: miter"/>
   </g>
   <g id="line2d_12">
    <path d="M 97.083438 248.951286 
L 102.541227 233.227741 
L 107.999017 236.750625 
L 113.456807 234.635982 
L 118.914597 227.403254 
L 124.372387 226.900117 
L 129.830177 239.041316 
L 135.287967 226.590074 
L 140.745757 220.026104 
L 146.203547 208.242466 
L 151.661337 215.926795 
L 157.119127 214.758517 
L 162.576916 200.036056 
L 168.034706 203.755555 
L 173.492496 171.291191 
L 178.950286 168.908673 
L 184.408076 144.700792 
L 189.865866 131.66476 
L 195.323656 134.690248 
L 200.781446 109.868243 
L 206.239236 109.438091 
L 211.697026 89.2353 
L 217.154816 90.912486 
L 222.612605 80.960618 
L 228.070395 88.128792 
L 233.528185 88.394116 
L 238.985975 82.280715 
L 244.443765 92.808946 
L 249.901555 99.429727 
L 255.359345 102.567354 
L 260.817135 110.273925 
L 266.274925 105.763925 
L 271.732715 125.775219 
L 277.190505 147.638294 
L 282.648294 128.444797 
L 288.106084 134.64515 
L 293.563874 141.199651 
L 299.021664 155.744053 
L 304.479454 141.780252 
L 309.937244 147.80448 
L 315.395034 152.480526 
L 320.852824 152.107947 
L 326.310614 159.482621 
L 331.768404 154.678484 
L 337.226194 164.483358 
L 342.683983 160.614105 
L 348.141773 180.800508 
L 353.599563 181.260886 
L 359.057353 180.264952 
L 364.515143 184.302949 
L 369.972933 191.811983 
L 375.430723 191.254454 
L 380.888513 192.525919 
L 386.346303 196.171391 
L 391.804093 189.697997 
L 397.261883 212.24598 
L 402.719672 211.532558 
L 408.177462 225.808044 
L 413.635252 229.887413 
L 419.093042 221.488211 
L 424.550832 221.628376 
L 430.008622 233.154105 
L 435.466412 235.587105 
L 440.924202 233.027086 
L 446.381992 227.450427 
L 451.839782 246.243393 
L 457.297572 237.978544 
L 462.755361 239.834994 
L 468.213151 248.849064 
L 473.670941 230.605443 
L 479.128731 245.906846 
L 484.586521 234.980137 
L 490.044311 245.889617 
L 495.502101 232.43309 
L 500.959891 234.466341 
L 506.417681 225.80425 
L 511.875471 232.136187 
L 517.333261 223.894204 
L 522.79105 221.013682 
L 528.24884 228.531359 
L 533.70663 219.181111 
L 539.16442 216.361763 
L 544.62221 223.824082 
L 550.08 217.328036 
" clip-path="url(#paf4661e247)" style="fill: none; stroke: #ff7c00; stroke-width: 3; stroke-linecap: round"/>
   </g>
   <g id="line2d_13">
    <path d="M 97.083438 227.704523 
L 550.08 227.704523 
" clip-path="url(#paf4661e247)" style="fill: none; stroke-dasharray: 11.1,4.8; stroke-dashoffset: 0; stroke: #000000; stroke-width: 3"/>
   </g>
   <g id="line2d_14">
    <path d="M 97.083438 221.929054 
L 102.541227 239.993653 
L 107.999017 215.659231 
L 113.456807 229.946021 
L 118.914597 234.019793 
L 124.372387 255.907202 
L 129.830177 241.609209 
L 135.287967 221.595678 
L 140.745757 225.248311 
L 146.203547 219.675891 
L 151.661337 215.64007 
L 157.119127 211.230163 
L 162.576916 210.016781 
L 168.034706 207.667078 
L 173.492496 194.696229 
L 178.950286 154.502618 
L 184.408076 126.896686 
L 189.865866 124.521021 
L 195.323656 105.435867 
L 200.781446 96.742812 
L 206.239236 82.595587 
L 211.697026 81.132482 
L 217.154816 70.336951 
L 222.612605 75.723959 
L 228.070395 83.847314 
L 233.528185 81.813654 
L 238.985975 87.525749 
L 244.443765 88.464118 
L 249.901555 91.934563 
L 255.359345 96.797229 
L 260.817135 97.065503 
L 266.274925 105.718051 
L 271.732715 112.217428 
L 277.190505 110.723404 
L 282.648294 120.420892 
L 288.106084 128.376335 
L 293.563874 134.260436 
L 299.021664 141.977171 
L 304.479454 129.251759 
L 309.937244 138.406557 
L 315.395034 148.318226 
L 320.852824 151.360432 
L 326.310614 149.462501 
L 331.768404 149.583734 
L 337.226194 151.067087 
L 342.683983 161.464538 
L 348.141773 170.495326 
L 353.599563 157.865075 
L 359.057353 171.807331 
L 364.515143 169.240901 
L 369.972933 174.617776 
L 375.430723 173.519359 
L 380.888513 161.200634 
L 386.346303 170.44911 
L 391.804093 166.242749 
L 397.261883 172.806131 
L 402.719672 186.329359 
L 408.177462 202.297414 
L 413.635252 200.883285 
L 419.093042 210.209959 
L 424.550832 220.971656 
L 430.008622 217.071699 
L 435.466412 216.955917 
L 440.924202 204.311722 
L 446.381992 203.017888 
L 451.839782 220.087403 
L 457.297572 212.166429 
L 462.755361 206.773591 
L 468.213151 214.615867 
L 473.670941 206.029662 
L 479.128731 207.441903 
L 484.586521 209.013331 
L 490.044311 212.601291 
L 495.502101 197.096265 
L 500.959891 210.310823 
L 506.417681 201.741345 
L 511.875471 198.822003 
L 517.333261 203.273598 
L 522.79105 204.409114 
L 528.24884 226.636645 
L 533.70663 209.706936 
L 539.16442 205.217504 
L 544.62221 199.622564 
L 550.08 212.002879 
" clip-path="url(#paf4661e247)" style="fill: none; stroke: #ff7c00; stroke-width: 3; stroke-linecap: round"/>
   </g>
   <g id="line2d_15">
    <path d="M 97.083438 227.704523 
L 550.08 227.704523 
" clip-path="url(#paf4661e247)" style="fill: none; stroke-dasharray: 11.1,4.8; stroke-dashoffset: 0; stroke: #000000; stroke-width: 3"/>
   </g>
   <g id="patch_11">
    <path d="M 97.083438 294.140313 
L 97.083438 25.92 
" style="fill: none; stroke: #262626; stroke-width: 2.5; stroke-linejoin: miter; stroke-linecap: square"/>
   </g>
   <g id="patch_12">
    <path d="M 97.083438 294.140312 
L 550.08 294.140312 
" style="fill: none; stroke: #262626; stroke-width: 2.5; stroke-linejoin: miter; stroke-linecap: square"/>
   </g>
  </g>
 </g>
 <defs>
  <clipPath id="paf4661e247">
   <rect x="97.083438" y="25.92" width="452.996562" height="268.220312"/>
  </clipPath>
 </defs>
</svg>
