<?xml version="1.0" encoding="utf-8" standalone="no"?>
<!DOCTYPE svg PUBLIC "-//W3C//DTD SVG 1.1//EN"
  "http://www.w3.org/Graphics/SVG/1.1/DTD/svg11.dtd">
<svg xmlns:xlink="http://www.w3.org/1999/xlink" width="504pt" height="311.04pt" viewBox="0 0 504 311.04" xmlns="http://www.w3.org/2000/svg" version="1.1">
 <metadata>
  <rdf:RDF xmlns:dc="http://purl.org/dc/elements/1.1/" xmlns:cc="http://creativecommons.org/ns#" xmlns:rdf="http://www.w3.org/1999/02/22-rdf-syntax-ns#">
   <cc:Work>
    <dc:type rdf:resource="http://purl.org/dc/dcmitype/StillImage"/>
    <dc:date>2023-07-14T12:53:58.974477</dc:date>
    <dc:format>image/svg+xml</dc:format>
    <dc:creator>
     <cc:Agent>
      <dc:title>Matplotlib v3.7.2, https://matplotlib.org/</dc:title>
     </cc:Agent>
    </dc:creator>
   </cc:Work>
  </rdf:RDF>
 </metadata>
 <defs>
  <style type="text/css">*{stroke-linejoin: round; stroke-linecap: butt}</style>
 </defs>
 <g id="figure_1">
  <g id="patch_1">
   <path d="M 0 311.04 
L 504 311.04 
L 504 0 
L 0 0 
z
" style="fill: #ffffff"/>
  </g>
  <g id="axes_1">
   <g id="patch_2">
    <path d="M 97.083438 249.500313 
L 478.08 249.500313 
L 478.08 25.92 
L 97.083438 25.92 
z
" style="fill: #ffffff"/>
   </g>
   <g id="matplotlib.axis_1">
    <g id="xtick_1">
     <g id="line2d_1">
      <defs>
       <path id="mb48dd72de5" d="M 0 0 
L 0 12 
" style="stroke: #262626; stroke-width: 2.5"/>
      </defs>
      <g>
       <use xlink:href="#mb48dd72de5" x="97.083438" y="249.500313" style="fill: #262626; stroke: #262626; stroke-width: 2.5"/>
      </g>
     </g>
     <g id="text_1">
      <!-- 0 -->
      <g style="fill: #262626" transform="translate(90.966406 280.7475) scale(0.22 -0.22)">
       <defs>
        <path id="ArialMT-30" d="M 266 2259 
Q 266 3072 433 3567 
Q 600 4063 929 4331 
Q 1259 4600 1759 4600 
Q 2128 4600 2406 4451 
Q 2684 4303 2865 4023 
Q 3047 3744 3150 3342 
Q 3253 2941 3253 2259 
Q 3253 1453 3087 958 
Q 2922 463 2592 192 
Q 2263 -78 1759 -78 
Q 1097 -78 719 397 
Q 266 969 266 2259 
z
M 844 2259 
Q 844 1131 1108 757 
Q 1372 384 1759 384 
Q 2147 384 2411 759 
Q 2675 1134 2675 2259 
Q 2675 3391 2411 3762 
Q 2147 4134 1753 4134 
Q 1366 4134 1134 3806 
Q 844 3388 844 2259 
z
" transform="scale(0.015625)"/>
       </defs>
       <use xlink:href="#ArialMT-30"/>
      </g>
     </g>
    </g>
    <g id="xtick_2">
     <g id="line2d_2">
      <g>
       <use xlink:href="#mb48dd72de5" x="233.153638" y="249.500313" style="fill: #262626; stroke: #262626; stroke-width: 2.5"/>
      </g>
     </g>
     <g id="text_2">
      <!-- 5 -->
      <g style="fill: #262626" transform="translate(227.036607 280.7475) scale(0.22 -0.22)">
       <defs>
        <path id="ArialMT-35" d="M 266 1200 
L 856 1250 
Q 922 819 1161 601 
Q 1400 384 1738 384 
Q 2144 384 2425 690 
Q 2706 997 2706 1503 
Q 2706 1984 2436 2262 
Q 2166 2541 1728 2541 
Q 1456 2541 1237 2417 
Q 1019 2294 894 2097 
L 366 2166 
L 809 4519 
L 3088 4519 
L 3088 3981 
L 1259 3981 
L 1013 2750 
Q 1425 3038 1878 3038 
Q 2478 3038 2890 2622 
Q 3303 2206 3303 1553 
Q 3303 931 2941 478 
Q 2500 -78 1738 -78 
Q 1113 -78 717 272 
Q 322 622 266 1200 
z
" transform="scale(0.015625)"/>
       </defs>
       <use xlink:href="#ArialMT-35"/>
      </g>
     </g>
    </g>
    <g id="xtick_3">
     <g id="line2d_3">
      <g>
       <use xlink:href="#mb48dd72de5" x="369.223839" y="249.500313" style="fill: #262626; stroke: #262626; stroke-width: 2.5"/>
      </g>
     </g>
     <g id="text_3">
      <!-- 10 -->
      <g style="fill: #262626" transform="translate(356.989777 280.7475) scale(0.22 -0.22)">
       <defs>
        <path id="ArialMT-31" d="M 2384 0 
L 1822 0 
L 1822 3584 
Q 1619 3391 1289 3197 
Q 959 3003 697 2906 
L 697 3450 
Q 1169 3672 1522 3987 
Q 1875 4303 2022 4600 
L 2384 4600 
L 2384 0 
z
" transform="scale(0.015625)"/>
       </defs>
       <use xlink:href="#ArialMT-31"/>
       <use xlink:href="#ArialMT-30" x="55.615234"/>
      </g>
     </g>
    </g>
   </g>
   <g id="matplotlib.axis_2">
    <g id="ytick_1">
     <g id="line2d_4">
      <defs>
       <path id="meb0275d2c6" d="M 0 0 
L -12 0 
" style="stroke: #262626; stroke-width: 2.5"/>
      </defs>
      <g>
       <use xlink:href="#meb0275d2c6" x="97.083438" y="207.067217" style="fill: #262626; stroke: #262626; stroke-width: 2.5"/>
      </g>
     </g>
     <g id="text_4">
      <!-- −0.01 -->
      <g style="fill: #262626" transform="translate(25.92 214.940811) scale(0.22 -0.22)">
       <defs>
        <path id="ArialMT-2212" d="M 3381 1997 
L 356 1997 
L 356 2522 
L 3381 2522 
L 3381 1997 
z
" transform="scale(0.015625)"/>
        <path id="ArialMT-2e" d="M 581 0 
L 581 641 
L 1222 641 
L 1222 0 
L 581 0 
z
" transform="scale(0.015625)"/>
       </defs>
       <use xlink:href="#ArialMT-2212"/>
       <use xlink:href="#ArialMT-30" x="58.398438"/>
       <use xlink:href="#ArialMT-2e" x="114.013672"/>
       <use xlink:href="#ArialMT-30" x="141.796875"/>
       <use xlink:href="#ArialMT-31" x="197.412109"/>
      </g>
     </g>
    </g>
    <g id="ytick_2">
     <g id="line2d_5">
      <g>
       <use xlink:href="#meb0275d2c6" x="97.083438" y="141.489354" style="fill: #262626; stroke: #262626; stroke-width: 2.5"/>
      </g>
     </g>
     <g id="text_5">
      <!-- 0.00 -->
      <g style="fill: #262626" transform="translate(38.769375 149.362948) scale(0.22 -0.22)">
       <use xlink:href="#ArialMT-30"/>
       <use xlink:href="#ArialMT-2e" x="55.615234"/>
       <use xlink:href="#ArialMT-30" x="83.398438"/>
       <use xlink:href="#ArialMT-30" x="139.013672"/>
      </g>
     </g>
    </g>
    <g id="ytick_3">
     <g id="line2d_6">
      <g>
       <use xlink:href="#meb0275d2c6" x="97.083438" y="75.911492" style="fill: #262626; stroke: #262626; stroke-width: 2.5"/>
      </g>
     </g>
     <g id="text_6">
      <!-- 0.01 -->
      <g style="fill: #262626" transform="translate(38.769375 83.785086) scale(0.22 -0.22)">
       <use xlink:href="#ArialMT-30"/>
       <use xlink:href="#ArialMT-2e" x="55.615234"/>
       <use xlink:href="#ArialMT-30" x="83.398438"/>
       <use xlink:href="#ArialMT-31" x="139.013672"/>
      </g>
     </g>
    </g>
   </g>
   <g id="PolyCollection_1">
    <defs>
     <path id="m3158467b29" d="M 97.083438 -172.459624 
L 97.083438 -162.06111 
L 101.673758 -163.891446 
L 106.264078 -163.83235 
L 110.854398 -164.267089 
L 115.444718 -162.531332 
L 120.035038 -163.295504 
L 124.625358 -166.093923 
L 129.215678 -162.136982 
L 133.805998 -165.673481 
L 138.396318 -168.11145 
L 142.986638 -174.12426 
L 147.576958 -171.77917 
L 152.167278 -174.888112 
L 156.757598 -181.785893 
L 161.347918 -184.555675 
L 165.938238 -193.283027 
L 170.528558 -201.1807 
L 175.118878 -207.851635 
L 179.709198 -215.7971 
L 184.299518 -217.769788 
L 188.889838 -223.970109 
L 193.480158 -227.396851 
L 198.070478 -229.111175 
L 202.660798 -232.872742 
L 207.251118 -236.202156 
L 211.841438 -236.826897 
L 216.431758 -233.066543 
L 221.022078 -233.334042 
L 225.612398 -234.263106 
L 230.202718 -232.262111 
L 234.793038 -231.493833 
L 239.383358 -230.033555 
L 243.973678 -226.622781 
L 248.563998 -225.7687 
L 253.154319 -225.017155 
L 257.744639 -224.180695 
L 262.334959 -222.263813 
L 266.925279 -218.819281 
L 271.515599 -219.637502 
L 276.105919 -218.313508 
L 280.696239 -218.626711 
L 285.286559 -217.867263 
L 289.876879 -216.492323 
L 294.467199 -217.075176 
L 299.057519 -213.763165 
L 303.647839 -213.520197 
L 308.238159 -212.188219 
L 312.828479 -211.522452 
L 317.418799 -207.201382 
L 322.009119 -208.5472 
L 326.599439 -207.095195 
L 331.189759 -206.761761 
L 335.780079 -207.306713 
L 340.370399 -207.0932 
L 344.960719 -201.651901 
L 349.551039 -202.447245 
L 354.141359 -198.994369 
L 358.731679 -199.764585 
L 363.321999 -198.670778 
L 367.912319 -198.800973 
L 372.502639 -198.204786 
L 377.092959 -198.483548 
L 381.683279 -198.95205 
L 386.273599 -195.88415 
L 390.863919 -197.731629 
L 395.454239 -201.88477 
L 400.044559 -199.040738 
L 404.63488 -201.628276 
L 409.2252 -199.159013 
L 413.81552 -203.290548 
L 418.40584 -200.126084 
L 422.99616 -202.726526 
L 427.58648 -201.099587 
L 432.1768 -204.263393 
L 436.76712 -201.533969 
L 441.35744 -200.768349 
L 445.94776 -200.678201 
L 450.53808 -201.147457 
L 455.1284 -198.626687 
L 459.71872 -201.383667 
L 464.30904 -199.36408 
L 468.89936 -201.876379 
L 473.48968 -197.07335 
L 478.08 -198.80326 
L 478.08 -234.477046 
L 478.08 -234.477046 
L 473.48968 -232.96938 
L 468.89936 -237.152766 
L 464.30904 -234.377481 
L 459.71872 -236.172819 
L 455.1284 -233.716547 
L 450.53808 -236.496012 
L 445.94776 -235.597645 
L 441.35744 -235.119001 
L 436.76712 -235.980413 
L 432.1768 -238.840033 
L 427.58648 -235.016608 
L 422.99616 -237.945791 
L 418.40584 -234.547534 
L 413.81552 -239.142018 
L 409.2252 -234.508374 
L 404.63488 -235.253695 
L 400.044559 -232.021332 
L 395.454239 -231.41064 
L 390.863919 -227.851771 
L 386.273599 -224.163288 
L 381.683279 -229.317714 
L 377.092959 -227.500021 
L 372.502639 -229.144996 
L 367.912319 -228.768358 
L 363.321999 -229.717688 
L 358.731679 -229.379713 
L 354.141359 -230.249719 
L 349.551039 -232.687913 
L 344.960719 -233.672332 
L 340.370399 -239.594605 
L 335.780079 -239.160198 
L 331.189759 -237.731713 
L 326.599439 -239.250466 
L 322.009119 -240.382331 
L 317.418799 -239.137062 
L 312.828479 -244.537596 
L 308.238159 -244.333339 
L 303.647839 -248.044527 
L 299.057519 -247.522918 
L 294.467199 -250.864701 
L 289.876879 -250.593878 
L 285.286559 -251.615077 
L 280.696239 -253.299389 
L 276.105919 -254.865882 
L 271.515599 -253.714569 
L 266.925279 -253.820865 
L 262.334959 -256.698982 
L 257.744639 -260.613255 
L 253.154319 -261.60406 
L 248.563998 -263.537708 
L 243.973678 -265.757709 
L 239.383358 -269.182179 
L 234.793038 -269.471827 
L 230.202718 -270.373455 
L 225.612398 -273.64172 
L 221.022078 -271.767035 
L 216.431758 -269.929182 
L 211.841438 -274.957259 
L 207.251118 -274.696033 
L 202.660798 -269.917903 
L 198.070478 -264.212508 
L 193.480158 -262.375752 
L 188.889838 -257.402169 
L 184.299518 -248.486136 
L 179.709198 -245.52606 
L 175.118878 -233.523716 
L 170.528558 -224.274369 
L 165.938238 -211.783004 
L 161.347918 -200.888164 
L 156.757598 -194.857196 
L 152.167278 -185.55919 
L 147.576958 -180.867754 
L 142.986638 -183.722826 
L 138.396318 -175.820043 
L 133.805998 -172.297203 
L 129.215678 -168.813056 
L 124.625358 -172.531089 
L 120.035038 -169.970625 
L 115.444718 -169.398757 
L 110.854398 -170.771658 
L 106.264078 -171.995707 
L 101.673758 -173.020346 
L 97.083438 -172.459624 
z
" style="stroke: #4878d0; stroke-opacity: 0.25; stroke-width: 2"/>
    </defs>
    <g clip-path="url(#pbeddcb483f)">
     <use xlink:href="#m3158467b29" x="0" y="311.04" style="fill: #4878d0; fill-opacity: 0.25; stroke: #4878d0; stroke-opacity: 0.25; stroke-width: 2"/>
    </g>
   </g>
   <g id="patch_3">
    <path d="M 151.511518 249.500313 
L 151.511518 25.92 
L 178.725558 25.92 
L 178.725558 249.500313 
z
" clip-path="url(#pbeddcb483f)" style="fill: #0000ff; opacity: 0.1; stroke: #0000ff; stroke-width: 2; stroke-linejoin: miter"/>
   </g>
   <g id="patch_4">
    <path d="M 219.546618 249.500313 
L 219.546618 25.92 
L 246.760658 25.92 
L 246.760658 249.500313 
z
" clip-path="url(#pbeddcb483f)" style="fill: #0000ff; opacity: 0.1; stroke: #0000ff; stroke-width: 2; stroke-linejoin: miter"/>
   </g>
   <g id="patch_5">
    <path d="M 342.009799 249.500313 
L 342.009799 25.92 
L 369.223839 25.92 
L 369.223839 249.500313 
z
" clip-path="url(#pbeddcb483f)" style="fill: #0000ff; opacity: 0.1; stroke: #0000ff; stroke-width: 2; stroke-linejoin: miter"/>
   </g>
   <g id="patch_6">
    <path d="M 273.974699 249.500313 
L 273.974699 25.92 
L 287.581719 25.92 
L 287.581719 249.500313 
z
" clip-path="url(#pbeddcb483f)" style="fill: #008000; opacity: 0.1; stroke: #008000; stroke-width: 2; stroke-linejoin: miter"/>
   </g>
   <g id="line2d_7">
    <path d="M 97.083438 139.576785 
L 101.673758 138.046694 
L 106.264078 139.769954 
L 110.854398 140.93077 
L 115.444718 144.672606 
L 120.035038 142.933394 
L 124.625358 142.910328 
L 129.215678 146.451732 
L 133.805998 142.476549 
L 138.396318 139.575246 
L 142.986638 136.937114 
L 147.576958 143.591082 
L 152.167278 139.818719 
L 156.757598 130.709228 
L 161.347918 127.003992 
L 165.938238 112.60793 
L 170.528558 98.345881 
L 175.118878 86.219078 
L 179.709198 72.214024 
L 184.299518 65.509789 
L 188.889838 56.396259 
L 193.480158 52.806782 
L 198.070478 57.122874 
L 202.660798 52.931427 
L 207.251118 53.528918 
L 211.841438 57.365174 
L 216.431758 62.376881 
L 221.022078 65.182155 
L 225.612398 67.121566 
L 230.202718 70.79834 
L 234.793038 74.02504 
L 239.383358 74.558449 
L 243.973678 83.097598 
L 248.563998 84.908309 
L 253.154319 93.240755 
L 257.744639 94.692138 
L 262.334959 99.337512 
L 266.925279 100.035633 
L 271.515599 102.716031 
L 276.105919 103.815152 
L 280.696239 105.320884 
L 285.286559 108.910782 
L 289.876879 106.283595 
L 294.467199 107.807769 
L 299.057519 109.896602 
L 303.647839 107.642588 
L 308.238159 111.892337 
L 312.828479 112.882641 
L 317.418799 115.93747 
L 322.009119 118.941077 
L 326.599439 118.589519 
L 331.189759 122.920837 
L 335.780079 122.814391 
L 340.370399 125.762499 
L 344.960719 131.974034 
L 349.551039 133.488012 
L 354.141359 125.087561 
L 358.731679 109.490151 
L 363.321999 98.580095 
L 367.912319 89.342124 
L 372.502639 87.192318 
L 377.092959 81.063187 
L 381.683279 80.279505 
L 386.273599 77.864122 
L 390.863919 76.029669 
L 395.454239 71.833875 
L 400.044559 78.100666 
L 404.63488 72.347068 
L 409.2252 73.01695 
L 413.81552 74.12704 
L 418.40584 78.31283 
L 422.99616 77.2331 
L 427.58648 78.995625 
L 432.1768 79.721434 
L 436.76712 84.922554 
L 441.35744 89.037355 
L 445.94776 91.249902 
L 450.53808 93.335127 
L 455.1284 98.12838 
L 459.71872 98.275932 
L 464.30904 100.998003 
L 468.89936 99.137996 
L 473.48968 105.059931 
L 478.08 100.169949 
" clip-path="url(#pbeddcb483f)" style="fill: none; stroke-dasharray: 11.1,4.8; stroke-dashoffset: 0; stroke: #1f77b4; stroke-width: 3"/>
   </g>
   <g id="line2d_8">
    <path d="M 97.083438 134.820896 
L 101.673758 135.794138 
L 106.264078 136.902182 
L 110.854398 136.921163 
L 115.444718 137.653076 
L 120.035038 137.069716 
L 124.625358 142.276284 
L 129.215678 138.171181 
L 133.805998 141.251174 
L 138.396318 144.043377 
L 142.986638 155.691479 
L 147.576958 157.277588 
L 152.167278 161.050454 
L 156.757598 168.471219 
L 161.347918 173.088782 
L 165.938238 178.178626 
L 170.528558 184.278835 
L 175.118878 187.801504 
L 179.709198 194.917102 
L 184.299518 191.711808 
L 188.889838 197.367129 
L 193.480158 202.54215 
L 198.070478 210.644348 
L 202.660798 215.297098 
L 207.251118 223.458907 
L 211.841438 228.708992 
L 216.431758 224.646037 
L 221.022078 230.344178 
L 225.612398 234.375177 
L 230.202718 232.617867 
L 234.793038 235.165793 
L 239.383358 233.843383 
L 243.973678 236.490501 
L 248.563998 234.243275 
L 253.154319 239.337571 
L 257.744639 238.562178 
L 262.334959 238.138586 
L 266.925279 233.181209 
L 271.515599 234.75193 
L 276.105919 237.004033 
L 280.696239 236.756085 
L 285.286559 237.869994 
L 289.876879 233.179864 
L 294.467199 234.724522 
L 299.057519 229.851308 
L 303.647839 227.655956 
L 308.238159 227.089498 
L 312.828479 227.454948 
L 317.418799 220.740787 
L 322.009119 226.242559 
L 326.599439 223.678835 
L 331.189759 225.806225 
L 335.780079 228.419458 
L 340.370399 231.197584 
L 344.960719 227.594764 
L 349.551039 227.545294 
L 354.141359 215.112801 
L 358.731679 198.567647 
L 363.321999 187.422936 
L 367.912319 176.753773 
L 372.502639 173.345707 
L 377.092959 166.918277 
L 381.683279 168.764663 
L 386.273599 158.047404 
L 390.863919 161.626453 
L 395.454239 165.491656 
L 400.044559 168.912954 
L 404.63488 169.12525 
L 409.2252 166.433118 
L 413.81552 177.192109 
L 418.40584 174.330087 
L 422.99616 178.543441 
L 427.58648 176.919894 
L 432.1768 184.169352 
L 436.76712 183.513221 
L 441.35744 186.776222 
L 445.94776 189.417959 
L 450.53808 192.534628 
L 455.1284 191.792574 
L 459.71872 197.008208 
L 464.30904 194.853828 
L 468.89936 198.322617 
L 473.48968 196.361557 
L 478.08 194.452017 
" clip-path="url(#pbeddcb483f)" style="fill: none; stroke-dasharray: 11.1,4.8; stroke-dashoffset: 0; stroke: #ff7f0e; stroke-width: 3"/>
   </g>
   <g id="line2d_9">
    <path d="M 97.083438 143.867299 
L 101.673758 142.615633 
L 106.264078 142.92324 
L 110.854398 143.494158 
L 115.444718 144.999119 
L 120.035038 144.421193 
L 124.625358 141.806377 
L 129.215678 145.62963 
L 133.805998 142.102042 
L 138.396318 139.255289 
L 142.986638 132.112172 
L 147.576958 134.646101 
L 152.167278 130.873487 
L 156.757598 122.608359 
L 161.347918 118.446959 
L 165.938238 108.704006 
L 170.528558 98.522877 
L 175.118878 90.698141 
L 179.709198 80.137816 
L 184.299518 78.388345 
L 188.889838 71.00392 
L 193.480158 66.62167 
L 198.070478 64.728617 
L 202.660798 60.306519 
L 207.251118 56.52436 
L 211.841438 55.817445 
L 216.431758 60.354776 
L 221.022078 58.908343 
L 225.612398 57.862549 
L 230.202718 60.579591 
L 234.793038 60.918978 
L 239.383358 61.846887 
L 243.973678 64.792903 
L 248.563998 66.821871 
L 253.154319 68.440946 
L 257.744639 69.554334 
L 262.334959 72.088817 
L 266.925279 74.916566 
L 271.515599 75.471405 
L 276.105919 74.894914 
L 280.696239 75.771754 
L 285.286559 77.009749 
L 289.876879 78.04122 
L 294.467199 78.030978 
L 299.057519 81.512001 
L 303.647839 81.48267 
L 308.238159 83.890774 
L 312.828479 84.203201 
L 317.418799 89.087695 
L 322.009119 87.838613 
L 326.599439 88.944697 
L 331.189759 90.04666 
L 335.780079 88.686821 
L 340.370399 88.771812 
L 344.960719 93.678989 
L 349.551039 94.460714 
L 354.141359 96.476735 
L 358.731679 96.950606 
L 363.321999 97.067934 
L 367.912319 97.78353 
L 372.502639 98.41266 
L 377.092959 98.561809 
L 381.683279 97.246776 
L 386.273599 101.397713 
L 390.863919 98.690962 
L 395.454239 94.660464 
L 400.044559 96.08321 
L 404.63488 93.100263 
L 409.2252 94.78127 
L 413.81552 89.95682 
L 418.40584 93.480726 
L 422.99616 90.834184 
L 427.58648 92.52722 
L 432.1768 89.265395 
L 436.76712 92.194021 
L 441.35744 92.619921 
L 445.94776 92.405326 
L 450.53808 91.889604 
L 455.1284 94.657257 
L 459.71872 92.123216 
L 464.30904 94.561442 
L 468.89936 91.897044 
L 473.48968 95.838541 
L 478.08 94.34832 
" clip-path="url(#pbeddcb483f)" style="fill: none; stroke: #4878d0; stroke-width: 3; stroke-linecap: round"/>
   </g>
   <g id="line2d_10">
    <path d="M 97.083438 141.489354 
L 478.08 141.489354 
" clip-path="url(#pbeddcb483f)" style="fill: none; stroke-dasharray: 11.1,4.8; stroke-dashoffset: 0; stroke: #000000; stroke-width: 3"/>
   </g>
   <g id="patch_7">
    <path d="M 97.083438 249.500313 
L 97.083438 25.92 
" style="fill: none; stroke: #262626; stroke-width: 2.5; stroke-linejoin: miter; stroke-linecap: square"/>
   </g>
   <g id="patch_8">
    <path d="M 97.083438 249.500313 
L 478.08 249.500313 
" style="fill: none; stroke: #262626; stroke-width: 2.5; stroke-linejoin: miter; stroke-linecap: square"/>
   </g>
  </g>
 </g>
 <defs>
  <clipPath id="pbeddcb483f">
   <rect x="97.083438" y="25.92" width="380.996563" height="223.580312"/>
  </clipPath>
 </defs>
</svg>
