<?xml version="1.0" encoding="utf-8" standalone="no"?>
<!DOCTYPE svg PUBLIC "-//W3C//DTD SVG 1.1//EN"
  "http://www.w3.org/Graphics/SVG/1.1/DTD/svg11.dtd">
<svg xmlns:xlink="http://www.w3.org/1999/xlink" width="504pt" height="311.04pt" viewBox="0 0 504 311.04" xmlns="http://www.w3.org/2000/svg" version="1.1">
 <metadata>
  <rdf:RDF xmlns:dc="http://purl.org/dc/elements/1.1/" xmlns:cc="http://creativecommons.org/ns#" xmlns:rdf="http://www.w3.org/1999/02/22-rdf-syntax-ns#">
   <cc:Work>
    <dc:type rdf:resource="http://purl.org/dc/dcmitype/StillImage"/>
    <dc:date>2023-07-14T13:01:13.378567</dc:date>
    <dc:format>image/svg+xml</dc:format>
    <dc:creator>
     <cc:Agent>
      <dc:title>Matplotlib v3.7.2, https://matplotlib.org/</dc:title>
     </cc:Agent>
    </dc:creator>
   </cc:Work>
  </rdf:RDF>
 </metadata>
 <defs>
  <style type="text/css">*{stroke-linejoin: round; stroke-linecap: butt}</style>
 </defs>
 <g id="figure_1">
  <g id="patch_1">
   <path d="M 0 311.04 
L 504 311.04 
L 504 0 
L 0 0 
z
" style="fill: #ffffff"/>
  </g>
  <g id="axes_1">
   <g id="patch_2">
    <path d="M 108.702188 249.500313 
L 478.08 249.500313 
L 478.08 25.92 
L 108.702188 25.92 
z
" style="fill: #ffffff"/>
   </g>
   <g id="matplotlib.axis_1">
    <g id="xtick_1">
     <g id="line2d_1">
      <defs>
       <path id="mf8c6861228" d="M 0 0 
L 0 12 
" style="stroke: #262626; stroke-width: 2.5"/>
      </defs>
      <g>
       <use xlink:href="#mf8c6861228" x="108.702188" y="249.500313" style="fill: #262626; stroke: #262626; stroke-width: 2.5"/>
      </g>
     </g>
     <g id="text_1">
      <!-- 0 -->
      <g style="fill: #262626" transform="translate(102.585156 280.7475) scale(0.22 -0.22)">
       <defs>
        <path id="ArialMT-30" d="M 266 2259 
Q 266 3072 433 3567 
Q 600 4063 929 4331 
Q 1259 4600 1759 4600 
Q 2128 4600 2406 4451 
Q 2684 4303 2865 4023 
Q 3047 3744 3150 3342 
Q 3253 2941 3253 2259 
Q 3253 1453 3087 958 
Q 2922 463 2592 192 
Q 2263 -78 1759 -78 
Q 1097 -78 719 397 
Q 266 969 266 2259 
z
M 844 2259 
Q 844 1131 1108 757 
Q 1372 384 1759 384 
Q 2147 384 2411 759 
Q 2675 1134 2675 2259 
Q 2675 3391 2411 3762 
Q 2147 4134 1753 4134 
Q 1366 4134 1134 3806 
Q 844 3388 844 2259 
z
" transform="scale(0.015625)"/>
       </defs>
       <use xlink:href="#ArialMT-30"/>
      </g>
     </g>
    </g>
    <g id="xtick_2">
     <g id="line2d_2">
      <g>
       <use xlink:href="#mf8c6861228" x="240.622835" y="249.500313" style="fill: #262626; stroke: #262626; stroke-width: 2.5"/>
      </g>
     </g>
     <g id="text_2">
      <!-- 5 -->
      <g style="fill: #262626" transform="translate(234.505804 280.7475) scale(0.22 -0.22)">
       <defs>
        <path id="ArialMT-35" d="M 266 1200 
L 856 1250 
Q 922 819 1161 601 
Q 1400 384 1738 384 
Q 2144 384 2425 690 
Q 2706 997 2706 1503 
Q 2706 1984 2436 2262 
Q 2166 2541 1728 2541 
Q 1456 2541 1237 2417 
Q 1019 2294 894 2097 
L 366 2166 
L 809 4519 
L 3088 4519 
L 3088 3981 
L 1259 3981 
L 1013 2750 
Q 1425 3038 1878 3038 
Q 2478 3038 2890 2622 
Q 3303 2206 3303 1553 
Q 3303 931 2941 478 
Q 2500 -78 1738 -78 
Q 1113 -78 717 272 
Q 322 622 266 1200 
z
" transform="scale(0.015625)"/>
       </defs>
       <use xlink:href="#ArialMT-35"/>
      </g>
     </g>
    </g>
    <g id="xtick_3">
     <g id="line2d_3">
      <g>
       <use xlink:href="#mf8c6861228" x="372.543482" y="249.500313" style="fill: #262626; stroke: #262626; stroke-width: 2.5"/>
      </g>
     </g>
     <g id="text_3">
      <!-- 10 -->
      <g style="fill: #262626" transform="translate(360.30942 280.7475) scale(0.22 -0.22)">
       <defs>
        <path id="ArialMT-31" d="M 2384 0 
L 1822 0 
L 1822 3584 
Q 1619 3391 1289 3197 
Q 959 3003 697 2906 
L 697 3450 
Q 1169 3672 1522 3987 
Q 1875 4303 2022 4600 
L 2384 4600 
L 2384 0 
z
" transform="scale(0.015625)"/>
       </defs>
       <use xlink:href="#ArialMT-31"/>
       <use xlink:href="#ArialMT-30" x="55.615234"/>
      </g>
     </g>
    </g>
   </g>
   <g id="matplotlib.axis_2">
    <g id="ytick_1">
     <g id="line2d_4">
      <defs>
       <path id="m29cdc48347" d="M 0 0 
L -12 0 
" style="stroke: #262626; stroke-width: 2.5"/>
      </defs>
      <g>
       <use xlink:href="#m29cdc48347" x="108.702188" y="215.603686" style="fill: #262626; stroke: #262626; stroke-width: 2.5"/>
      </g>
     </g>
     <g id="text_4">
      <!-- 0.0000 -->
      <g style="fill: #262626" transform="translate(25.92 223.477279) scale(0.22 -0.22)">
       <defs>
        <path id="ArialMT-2e" d="M 581 0 
L 581 641 
L 1222 641 
L 1222 0 
L 581 0 
z
" transform="scale(0.015625)"/>
       </defs>
       <use xlink:href="#ArialMT-30"/>
       <use xlink:href="#ArialMT-2e" x="55.615234"/>
       <use xlink:href="#ArialMT-30" x="83.398438"/>
       <use xlink:href="#ArialMT-30" x="139.013672"/>
       <use xlink:href="#ArialMT-30" x="194.628906"/>
       <use xlink:href="#ArialMT-30" x="250.244141"/>
      </g>
     </g>
    </g>
    <g id="ytick_2">
     <g id="line2d_5">
      <g>
       <use xlink:href="#m29cdc48347" x="108.702188" y="131.911285" style="fill: #262626; stroke: #262626; stroke-width: 2.5"/>
      </g>
     </g>
     <g id="text_5">
      <!-- 0.0005 -->
      <g style="fill: #262626" transform="translate(25.92 139.784879) scale(0.22 -0.22)">
       <use xlink:href="#ArialMT-30"/>
       <use xlink:href="#ArialMT-2e" x="55.615234"/>
       <use xlink:href="#ArialMT-30" x="83.398438"/>
       <use xlink:href="#ArialMT-30" x="139.013672"/>
       <use xlink:href="#ArialMT-30" x="194.628906"/>
       <use xlink:href="#ArialMT-35" x="250.244141"/>
      </g>
     </g>
    </g>
    <g id="ytick_3">
     <g id="line2d_6">
      <g>
       <use xlink:href="#m29cdc48347" x="108.702188" y="48.218884" style="fill: #262626; stroke: #262626; stroke-width: 2.5"/>
      </g>
     </g>
     <g id="text_6">
      <!-- 0.0010 -->
      <g style="fill: #262626" transform="translate(25.92 56.092478) scale(0.22 -0.22)">
       <use xlink:href="#ArialMT-30"/>
       <use xlink:href="#ArialMT-2e" x="55.615234"/>
       <use xlink:href="#ArialMT-30" x="83.398438"/>
       <use xlink:href="#ArialMT-30" x="139.013672"/>
       <use xlink:href="#ArialMT-31" x="194.628906"/>
       <use xlink:href="#ArialMT-30" x="250.244141"/>
      </g>
     </g>
    </g>
   </g>
   <g id="PolyCollection_1">
    <defs>
     <path id="m541cdfa090" d="M 108.702188 -102.660336 
L 108.702188 -72.836444 
L 113.152523 -81.27019 
L 117.602858 -79.885722 
L 122.053193 -80.748672 
L 126.503528 -81.634122 
L 130.953863 -85.041749 
L 135.404198 -90.56612 
L 139.854533 -79.882468 
L 144.304868 -78.645298 
L 148.755203 -86.919017 
L 153.205538 -95.916062 
L 157.655873 -94.806263 
L 162.106209 -96.625752 
L 166.556544 -92.6329 
L 171.006879 -106.612287 
L 175.457214 -104.809827 
L 179.907549 -108.542358 
L 184.357884 -122.601857 
L 188.808219 -122.499668 
L 193.258554 -128.443853 
L 197.708889 -131.154451 
L 202.159224 -125.952002 
L 206.609559 -132.282262 
L 211.059895 -131.988877 
L 215.51023 -138.030699 
L 219.960565 -148.60019 
L 224.4109 -141.367426 
L 228.861235 -135.017386 
L 233.31157 -127.749229 
L 237.761905 -117.24545 
L 242.21224 -115.092837 
L 246.662575 -106.664705 
L 251.11291 -98.081224 
L 255.563245 -95.307973 
L 260.013581 -99.459319 
L 264.463916 -88.195582 
L 268.914251 -87.986041 
L 273.364586 -88.208014 
L 277.814921 -71.702429 
L 282.265256 -74.09481 
L 286.715591 -74.353395 
L 291.165926 -79.63131 
L 295.616261 -81.130257 
L 300.066596 -85.005114 
L 304.516931 -81.402956 
L 308.967267 -91.060714 
L 313.417602 -86.625021 
L 317.867937 -99.58953 
L 322.318272 -108.0823 
L 326.768607 -121.673414 
L 331.218942 -153.065934 
L 335.669277 -181.076586 
L 340.119612 -196.64737 
L 344.569947 -204.898383 
L 349.020282 -196.508308 
L 353.470617 -207.682841 
L 357.920953 -206.59359 
L 362.371288 -205.866501 
L 366.821623 -204.627062 
L 371.271958 -195.404578 
L 375.722293 -203.453062 
L 380.172628 -202.00057 
L 384.622963 -188.926231 
L 389.073298 -188.38877 
L 393.523633 -190.777819 
L 397.973968 -186.64161 
L 402.424303 -186.01877 
L 406.874639 -177.12407 
L 411.324974 -183.685982 
L 415.775309 -173.132207 
L 420.225644 -172.681366 
L 424.675979 -174.125669 
L 429.126314 -170.105455 
L 433.576649 -168.055395 
L 438.026984 -155.896868 
L 442.477319 -154.948609 
L 446.927654 -150.360641 
L 451.377989 -143.159385 
L 455.828325 -147.679809 
L 460.27866 -141.603985 
L 464.728995 -138.726707 
L 469.17933 -142.546855 
L 473.629665 -139.840854 
L 478.08 -151.622833 
L 478.08 -213.311839 
L 478.08 -213.311839 
L 473.629665 -207.367297 
L 469.17933 -208.477763 
L 464.728995 -205.200637 
L 460.27866 -206.974086 
L 455.828325 -212.306238 
L 451.377989 -210.785357 
L 446.927654 -216.912147 
L 442.477319 -218.779285 
L 438.026984 -221.357193 
L 433.576649 -235.343908 
L 429.126314 -236.353237 
L 424.675979 -240.667734 
L 420.225644 -242.089451 
L 415.775309 -241.74526 
L 411.324974 -250.015957 
L 406.874639 -240.532993 
L 402.424303 -249.844614 
L 397.973968 -249.321049 
L 393.523633 -255.432785 
L 389.073298 -257.116434 
L 384.622963 -255.405963 
L 380.172628 -264.778842 
L 375.722293 -267.882518 
L 371.271958 -263.946164 
L 366.821623 -270.941188 
L 362.371288 -270.675301 
L 357.920953 -274.957259 
L 353.470617 -273.908981 
L 349.020282 -261.981586 
L 344.569947 -268.544209 
L 340.119612 -257.553005 
L 335.669277 -245.477659 
L 331.218942 -219.996553 
L 326.768607 -190.052621 
L 322.318272 -178.975132 
L 317.867937 -165.907481 
L 313.417602 -156.906911 
L 308.967267 -161.305429 
L 304.516931 -153.225248 
L 300.066596 -150.705302 
L 295.616261 -147.974895 
L 291.165926 -147.534544 
L 286.715591 -147.925725 
L 282.265256 -144.931936 
L 277.814921 -145.633451 
L 273.364586 -164.976451 
L 268.914251 -157.930672 
L 264.463916 -161.793594 
L 260.013581 -168.279632 
L 255.563245 -169.576216 
L 251.11291 -165.593254 
L 246.662575 -176.480444 
L 242.21224 -180.131155 
L 237.761905 -181.606936 
L 233.31157 -191.390817 
L 228.861235 -199.384432 
L 224.4109 -205.810378 
L 219.960565 -211.836787 
L 215.51023 -198.873254 
L 211.059895 -189.778586 
L 206.609559 -188.695384 
L 202.159224 -181.610498 
L 197.708889 -184.419685 
L 193.258554 -177.136213 
L 188.808219 -170.849437 
L 184.357884 -167.227801 
L 179.907549 -150.822047 
L 175.457214 -146.385992 
L 171.006879 -138.403534 
L 166.556544 -125.261435 
L 162.106209 -130.450879 
L 157.655873 -123.010216 
L 153.205538 -120.295698 
L 148.755203 -107.251775 
L 144.304868 -97.76054 
L 139.854533 -101.26758 
L 135.404198 -110.607904 
L 130.953863 -104.7057 
L 126.503528 -103.743467 
L 122.053193 -102.783241 
L 117.602858 -102.567683 
L 113.152523 -105.417876 
L 108.702188 -102.660336 
z
" style="stroke: #023eff; stroke-opacity: 0.25; stroke-width: 2"/>
    </defs>
    <g clip-path="url(#p5e2db2ea7e)">
     <use xlink:href="#m541cdfa090" x="0" y="311.04" style="fill: #023eff; fill-opacity: 0.25; stroke: #023eff; stroke-opacity: 0.25; stroke-width: 2"/>
    </g>
   </g>
   <g id="patch_3">
    <path d="M 161.470446 249.500313 
L 161.470446 25.92 
L 187.854576 25.92 
L 187.854576 249.500313 
z
" clip-path="url(#p5e2db2ea7e)" style="fill: #0000ff; opacity: 0.1; stroke: #0000ff; stroke-width: 2; stroke-linejoin: miter"/>
   </g>
   <g id="patch_4">
    <path d="M 227.43077 249.500313 
L 227.43077 25.92 
L 253.8149 25.92 
L 253.8149 249.500313 
z
" clip-path="url(#p5e2db2ea7e)" style="fill: #0000ff; opacity: 0.1; stroke: #0000ff; stroke-width: 2; stroke-linejoin: miter"/>
   </g>
   <g id="patch_5">
    <path d="M 346.159353 249.500313 
L 346.159353 25.92 
L 372.543482 25.92 
L 372.543482 249.500313 
z
" clip-path="url(#p5e2db2ea7e)" style="fill: #0000ff; opacity: 0.1; stroke: #0000ff; stroke-width: 2; stroke-linejoin: miter"/>
   </g>
   <g id="patch_6">
    <path d="M 280.199029 249.500313 
L 280.199029 25.92 
L 293.391094 25.92 
L 293.391094 249.500313 
z
" clip-path="url(#p5e2db2ea7e)" style="fill: #008000; opacity: 0.1; stroke: #008000; stroke-width: 2; stroke-linejoin: miter"/>
   </g>
   <g id="line2d_7">
    <path d="M 108.702188 222.743247 
L 113.152523 217.356582 
L 117.602858 219.726724 
L 122.053193 219.124845 
L 126.503528 218.260961 
L 130.953863 216.024265 
L 135.404198 211.155785 
L 139.854533 220.332299 
L 144.304868 223.208676 
L 148.755203 214.153492 
L 153.205538 203.002412 
L 157.655873 202.154938 
L 162.106209 197.90206 
L 166.556544 202.350532 
L 171.006879 188.12728 
L 175.457214 184.661615 
L 179.907549 180.963318 
L 184.357884 166.724416 
L 188.808219 163.792149 
L 193.258554 157.583219 
L 197.708889 153.10772 
L 202.159224 157.564026 
L 206.609559 150.341218 
L 211.059895 150.513736 
L 215.51023 141.822015 
L 219.960565 131.619713 
L 224.4109 137.926418 
L 228.861235 143.238065 
L 233.31157 151.860083 
L 237.761905 162.611448 
L 242.21224 163.188716 
L 246.662575 169.47547 
L 251.11291 179.548938 
L 255.563245 180.334655 
L 260.013581 178.113868 
L 264.463916 186.423178 
L 268.914251 188.985988 
L 273.364586 184.555639 
L 277.814921 202.040882 
L 282.265256 201.937843 
L 286.715591 200.477658 
L 291.165926 197.552088 
L 295.616261 196.136682 
L 300.066596 192.903582 
L 304.516931 193.519778 
L 308.967267 185.591314 
L 313.417602 189.276714 
L 317.867937 177.907929 
L 322.318272 166.878737 
L 326.768607 154.122615 
L 331.218942 123.59562 
L 335.669277 97.216631 
L 340.119612 83.088608 
L 344.569947 74.069055 
L 349.020282 80.024301 
L 353.470617 69.212287 
L 357.920953 69.873676 
L 362.371288 73.586151 
L 366.821623 74.055934 
L 371.271958 81.159222 
L 375.722293 75.604671 
L 380.172628 77.448128 
L 384.622963 89.632086 
L 389.073298 88.073929 
L 393.523633 88.113907 
L 397.973968 92.387003 
L 402.424303 93.542334 
L 406.874639 102.18233 
L 411.324974 94.429465 
L 415.775309 102.649431 
L 420.225644 103.729788 
L 424.675979 103.018464 
L 429.126314 105.759921 
L 433.576649 107.531663 
L 438.026984 121.202898 
L 442.477319 123.21127 
L 446.927654 126.433642 
L 451.377989 133.528277 
L 455.828325 130.291716 
L 460.27866 135.89113 
L 464.728995 137.887138 
L 469.17933 135.011043 
L 473.629665 136.444156 
L 478.08 128.883403 
" clip-path="url(#p5e2db2ea7e)" style="fill: none; stroke: #023eff; stroke-width: 3; stroke-linecap: round"/>
   </g>
   <g id="line2d_8">
    <path d="M 108.702188 215.603686 
L 478.08 215.603686 
" clip-path="url(#p5e2db2ea7e)" style="fill: none; stroke-dasharray: 11.1,4.8; stroke-dashoffset: 0; stroke: #000000; stroke-width: 3"/>
   </g>
   <g id="patch_7">
    <path d="M 108.702188 249.500313 
L 108.702188 25.92 
" style="fill: none; stroke: #262626; stroke-width: 2.5; stroke-linejoin: miter; stroke-linecap: square"/>
   </g>
   <g id="patch_8">
    <path d="M 108.702188 249.500313 
L 478.08 249.500313 
" style="fill: none; stroke: #262626; stroke-width: 2.5; stroke-linejoin: miter; stroke-linecap: square"/>
   </g>
  </g>
 </g>
 <defs>
  <clipPath id="p5e2db2ea7e">
   <rect x="108.702188" y="25.92" width="369.377813" height="223.580312"/>
  </clipPath>
 </defs>
</svg>
